ply
format ascii 1.0
comment VCGLIB generated
comment TextureFile Dungeons_2_Texture_01_A.png
element vertex 458
property float x
property float y
property float z
property float nx
property float ny
property float nz
property uchar red
property uchar green
property uchar blue
property uchar alpha
property float texture_u
property float texture_v
element face 206
property list uchar int vertex_indices
end_header
-79.6082 -6.2e-05 -16.6512 -0.622058 -0.060954 -0.780595 255 255 255 255 0.048639 0.850379
-66.0839 66.5155 -32.6227 -0.622058 -0.060954 -0.780595 255 255 255 255 0.0485 0.850376
-51.0357 35.0863 -42.1605 -0.622058 -0.060954 -0.780595 255 255 255 255 0.048536 0.850078
-51.0357 35.0863 -42.1605 -0.665988 -0 -0.745962 255 255 255 255 0.048536 0.850078
-51.0357 -6.6e-05 -42.1605 -0.665988 -0 -0.745962 255 255 255 255 0.048618 0.849959
-79.6082 -6.2e-05 -16.6512 -0.665988 -0 -0.745962 255 255 255 255 0.048639 0.850379
-0.010573 -6.2e-05 -16.6512 0 -1 0 255 255 255 255 0.048902 0.850463
-51.0357 -6.6e-05 -42.1605 0 -1 0 255 255 255 255 0.048618 0.849959
-0.010573 -6.6e-05 -42.1605 0 -1 0 255 255 255 255 0.048908 0.850043
-51.0357 35.0863 -42.1605 0 -0 -1 255 255 255 255 0.048536 0.850078
-0.010573 -6.6e-05 -42.1605 0 -0 -1 255 255 255 255 0.048908 0.850043
-51.0357 -6.6e-05 -42.1605 0 -0 -1 255 255 255 255 0.048618 0.849959
-79.6082 74.2406 -16.6512 0 0.900227 -0.43542 255 255 255 255 0.048516 0.850575
-0.010573 74.2406 -16.6512 0 0.900227 -0.43542 255 255 255 255 0.048788 0.850665
-66.0839 66.5155 -32.6227 0 0.900227 -0.43542 255 255 255 255 0.0485 0.850376
-47.175 57.92 -42.1605 0 0.842351 -0.538929 255 255 255 255 0.04852 0.850167
-0.010573 74.2406 -16.6512 0 0.842351 -0.538929 255 255 255 255 0.048788 0.850665
-0.010573 57.92 -42.1605 0 0.842351 -0.538929 255 255 255 255 0.048782 0.850247
-0.010573 -6.2e-05 -16.6512 1 0 0 255 255 255 255 0.048902 0.850463
-0.010573 57.92 -42.1605 1 0 0 255 255 255 255 0.048782 0.850247
-0.010573 74.2406 -16.6512 1 0 0 255 255 255 255 0.048788 0.850665
-329.608 74.2406 -16.6512 -0.71507 -0 -0.699053 255 255 255 255 0.048516 0.850575
-310.433 62.7521 -36.2656 -0.71507 -0 -0.699053 255 255 255 255 0.048492 0.850279
-329.608 -6.2e-05 -16.6512 -0.71507 -0 -0.699053 255 255 255 255 0.048639 0.850379
-329.608 -6.2e-05 -16.6512 -0.683535 -0 -0.729918 255 255 255 255 0.048639 0.850379
-302.368 45.0677 -42.1605 -0.683535 -0 -0.729918 255 255 255 255 0.048514 0.850111
-302.368 -6.6e-05 -42.1605 -0.683535 -0 -0.729918 255 255 255 255 0.048618 0.849959
-170.413 -6.2e-05 -16.6512 0 -1 0 255 255 255 255 0.049165 0.850546
-302.368 -6.6e-05 -42.1605 0 -1 0 255 255 255 255 0.048618 0.849959
-197.653 -6.6e-05 -42.1605 0 -1 0 255 255 255 255 0.049197 0.850127
-197.653 52.5763 -42.1605 0.270965 0.335502 -0.902228 255 255 255 255 0.049093 0.850318
-204.27 57.9199 -42.1605 0.270965 0.335502 -0.902228 255 255 255 255 0.049045 0.850327
-184.11 66.0341 -33.0887 0.270965 0.335502 -0.902228 255 255 255 255 0.049071 0.850547
-448.985 57.92 -42.1605 0.665989 -0 -0.745962 255 255 255 255 0.049082 0.850339
-420.413 -6.2e-05 -16.6512 0.665989 -0 -0.745962 255 255 255 255 0.049165 0.850546
-448.985 -6.6e-05 -42.1605 0.665989 -0 -0.745962 255 255 255 255 0.049197 0.850127
-448.985 -6.6e-05 -42.1605 -0 -0 -1 255 255 255 255 0.049197 0.850127
-500.011 57.92 -42.1605 -0 -0 -1 255 255 255 255 0.048782 0.850247
-448.985 57.92 -42.1605 -0 -0 -1 255 255 255 255 0.049082 0.850339
-448.985 -6.6e-05 -42.1605 0 -1 0 255 255 255 255 0.049197 0.850127
-500.011 -6.2e-05 -16.6512 0 -1 0 255 255 255 255 0.048902 0.850463
-500.011 -6.6e-05 -42.1605 0 -1 0 255 255 255 255 0.048908 0.850043
-448.985 57.92 -42.1605 0 0.842351 -0.538929 255 255 255 255 0.049082 0.850339
-500.011 74.2406 -16.6512 0 0.842351 -0.538929 255 255 255 255 0.048788 0.850665
-420.413 74.2406 -16.6512 0 0.842351 -0.538929 255 255 255 255 0.04906 0.850756
-500.011 -6.2e-05 -16.6512 -1 0 0 255 255 255 255 0.048902 0.850463
-500.011 57.92 -42.1605 -1 0 0 255 255 255 255 0.048782 0.850247
-500.011 -6.6e-05 -42.1605 -1 0 0 255 255 255 255 0.048908 0.850043
-310.946 428.541 -31.1954 -0.826347 -0 -0.563162 255 255 255 255 0.148346 0.723947
-320.858 500 -16.6512 -0.826347 -0 -0.563162 255 255 255 255 0.151251 0.739053
-310.946 500 -31.1954 -0.826347 -0 -0.563162 255 255 255 255 0.148346 0.739053
-179.142 500 -16.6512 0.826343 -0 -0.563167 255 255 255 255 0.088051 0.739053
-189.055 428.541 -31.1954 0.826343 -0 -0.563167 255 255 255 255 0.090956 0.723947
-189.055 500 -31.1954 0.826343 -0 -0.563167 255 255 255 255 0.090956 0.739053
-310.946 428.541 -31.1954 0 -0 -1 255 255 255 255 0.148346 0.973947
-189.055 500 -31.1954 0 -0 -1 255 255 255 255 0.090956 0.989053
-189.055 428.541 -31.1954 0 -0 -1 255 255 255 255 0.090956 0.973947
-179.142 421.015 -16.6512 0.508264 -0.573008 -0.642906 255 255 255 255 0.088051 0.720403
-248.694 375.641 -31.1954 0.508264 -0.573008 -0.642906 255 255 255 255 0.119055 0.699039
-189.055 428.541 -31.1954 0.508264 -0.573008 -0.642906 255 255 255 255 0.090956 0.723947
-320.858 421.015 -16.6512 -0.469395 -0.51712 -0.71572 255 255 255 255 0.151251 0.720403
-248.694 375.641 -31.1954 -0.469395 -0.51712 -0.71572 255 255 255 255 0.119055 0.699039
-250 356.697 -16.6512 -0.469395 -0.51712 -0.71572 255 255 255 255 0.119651 0.69012
-189.055 500 -31.1954 0 1 0 255 255 255 255 0.090956 0.989053
-320.858 500 -16.6512 0 1 0 255 255 255 255 0.151251 0.989053
-179.142 500 -16.6512 0 1 0 255 255 255 255 0.088051 0.989053
-248.694 375.641 -31.1954 0 -0 -1 255 255 255 255 0.119036 0.949039
-286.899 439.375 -42.1605 -0.779352 -0 -0.626586 255 255 255 255 0.137025 0.727254
-295.715 500 -31.1954 -0.779352 -0 -0.626586 255 255 255 255 0.141175 0.739053
-286.899 500 -42.1605 -0.779352 -0 -0.626586 255 255 255 255 0.137025 0.739053
-204.285 500 -31.1954 0.779352 -0 -0.626586 255 255 255 255 0.098127 0.739053
-213.101 439.375 -42.1605 0.779352 -0 -0.626586 255 255 255 255 0.102278 0.727254
-213.101 500 -42.1605 0.779352 -0 -0.626586 255 255 255 255 0.102278 0.739053
-286.899 439.375 -42.1605 0 -0 -1 255 255 255 255 0.137025 0.977254
-213.101 500 -42.1605 0 -0 -1 255 255 255 255 0.102278 0.989053
-213.101 439.375 -42.1605 0 -0 -1 255 255 255 255 0.102278 0.977254
-236.97 418.934 -42.1605 0.034292 -0.279134 -0.95964 255 255 255 255 0.113516 0.718119
-250 401.342 -37.5091 0.034292 -0.279134 -0.95964 255 255 255 255 0.119651 0.71081
-259.76 416.135 -42.1605 0.034292 -0.279134 -0.95964 255 255 255 255 0.124247 0.717022
-286.899 500 -42.1605 0 1 -0 255 255 255 255 0.137025 0.989053
-204.285 500 -31.1954 0 1 -0 255 255 255 255 0.098127 0.989053
-213.101 500 -42.1605 0 1 -0 255 255 255 255 0.102278 0.989053
-429.143 421.015 -16.6512 0.968524 -0 -0.248921 255 255 255 255 0.151251 0.720403
-432.069 423.237 -28.0391 0.968524 -0 -0.248921 255 255 255 255 0.150393 0.721449
-429.143 500 -16.6512 0.968524 -0 -0.248921 255 255 255 255 0.151251 0.739053
-429.143 500 -16.6512 0.826347 -0 -0.563162 255 255 255 255 0.151251 0.739053
-439.055 444.818 -31.1954 0.826347 -0 -0.563162 255 255 255 255 0.148346 0.727086
-439.055 500 -31.1954 0.826347 -0 -0.563162 255 255 255 255 0.148346 0.739053
-500 356.697 -16.6512 0.483779 -0.532966 -0.694194 255 255 255 255 0.119651 0.69012
-500 375.641 -31.1954 0.483779 -0.532966 -0.694194 255 255 255 255 0.119651 0.699039
-429.143 421.015 -16.6512 0.483779 -0.532966 -0.694194 255 255 255 255 0.151251 0.720403
-429.143 421.015 -16.6512 0.095886 -0.972042 -0.214335 255 255 255 255 0.151251 0.720403
-445.939 422.565 -31.1954 0.095886 -0.972042 -0.214335 255 255 255 255 0.145105 0.721133
-432.069 423.237 -28.0391 0.095886 -0.972042 -0.214335 255 255 255 255 0.150393 0.721449
-463.101 444.997 -42.1605 0.779352 -0 -0.626586 255 255 255 255 0.137025 0.72853
-454.285 500 -31.1954 0.779352 -0 -0.626586 255 255 255 255 0.141175 0.739053
-454.285 435.566 -31.1954 0.779352 -0 -0.626586 255 255 255 255 0.141175 0.727254
-500 407.776 -42.1605 0.516124 -0.613012 -0.598191 255 255 255 255 0.119651 0.713342
-454.285 435.566 -31.1954 0.516124 -0.613012 -0.598191 255 255 255 255 0.141175 0.727254
-500 397.076 -31.1954 0.516124 -0.613012 -0.598191 255 255 255 255 0.119651 0.709132
-463.101 444.997 -42.1605 -0 -0 -1 255 255 255 255 0.137025 0.976897
-500 500 -42.1605 -0 -0 -1 255 255 255 255 0.119651 0.989053
-463.101 500 -42.1605 -0 -0 -1 255 255 255 255 0.137025 0.989053
-500 500 -31.1954 0 1 -0 255 255 255 255 0.119651 0.989053
-463.101 500 -42.1605 0 1 -0 255 255 255 255 0.137025 0.989053
-500 500 -42.1605 0 1 -0 255 255 255 255 0.119651 0.989053
-445.939 422.565 -31.1954 0 -0 -1 255 255 255 255 0.145105 0.970615
-500 500 -31.1954 0 -0 -1 255 255 255 255 0.119651 0.989053
-439.055 444.818 -31.1954 0 -0 -1 255 255 255 255 0.148346 0.97668
-439.055 500 -31.1954 -0 -0 -1 255 255 255 255 0.148346 0.989053
-500 500 -16.6512 0 1 -0 255 255 255 255 0.119651 0.989053
-439.055 500 -31.1954 0 1 -0 255 255 255 255 0.148346 0.989053
-500 500 -31.1954 -1 0 0 255 255 255 255 0.119651 0.989053
-500 407.776 -42.1605 -1 0 0 255 255 255 255 0.119651 0.963342
-500 397.076 -31.1954 -1 0 0 255 255 255 255 0.119651 0.959132
-500 500 -16.6512 -1 0 0 255 255 255 255 0.119651 0.989053
-500 375.641 -31.1954 -1 0 0 255 255 255 255 0.119651 0.949039
-500 356.697 -16.6512 -1 0 0 255 255 255 255 0.119651 0.94012
-57.3881 426.305 -31.1954 -0.82569 -0.039859 -0.562714 255 255 255 255 0.146507 0.722507
-70.8575 500 -16.6512 -0.82569 -0.039859 -0.562714 255 255 255 255 0.151251 0.739053
-60.9456 500 -31.1954 -0.82569 -0.039859 -0.562714 255 255 255 255 0.148346 0.739053
-70.8575 421.015 -16.6512 -0.483779 -0.532966 -0.694194 255 255 255 255 0.151251 0.720403
-1.5e-05 375.641 -31.1954 -0.483779 -0.532966 -0.694194 255 255 255 255 0.119651 0.699039
-1.5e-05 356.697 -16.6512 -0.483779 -0.532966 -0.694194 255 255 255 255 0.119651 0.69012
-38.7688 439.375 -42.1605 -0.779127 0.024024 -0.626406 255 255 255 255 0.137905 0.7279
-45.7152 500 -31.1954 -0.779127 0.024024 -0.626406 255 255 255 255 0.141175 0.739053
-36.8994 500 -42.1605 -0.779127 0.024024 -0.626406 255 255 255 255 0.137025 0.739053
-45.7152 435.566 -31.1954 -0.516124 -0.613012 -0.598191 255 255 255 255 0.141175 0.727254
-1.5e-05 407.776 -42.1605 -0.516124 -0.613012 -0.598191 255 255 255 255 0.119651 0.713342
-1.5e-05 397.076 -31.1954 -0.516124 -0.613012 -0.598191 255 255 255 255 0.119651 0.709132
-38.7688 439.375 -42.1605 0 -0 -1 255 255 255 255 0.137905 0.975622
-1.5e-05 500 -42.1605 0 -0 -1 255 255 255 255 0.119651 0.989053
-1.5e-05 407.776 -42.1605 0 -0 -1 255 255 255 255 0.119651 0.963342
-4.6e-05 500 -31.1954 -0 1 0 255 255 255 255 0.119651 0.989053
-36.8994 500 -42.1605 -0 1 0 255 255 255 255 0.137025 0.989053
-45.7152 500 -31.1954 -0 1 0 255 255 255 255 0.141175 0.989053
-57.3881 426.305 -31.1954 -0 -0 -1 255 255 255 255 0.146671 0.970052
-4.6e-05 500 -31.1954 -0 -0 -1 255 255 255 255 0.119651 0.989053
-1.5e-05 375.641 -31.1954 -0 -0 -1 255 255 255 255 0.119651 0.949039
-1.6e-05 500 -16.6512 -0 1 0 255 255 255 255 0.119651 0.989053
-60.9456 500 -31.1954 -0 1 0 255 255 255 255 0.148346 0.989053
-70.8575 500 -16.6512 -0 1 0 255 255 255 255 0.151251 0.989053
-1.5e-05 407.776 -42.1605 1 0 0 255 255 255 255 0.119651 0.963342
-4.6e-05 500 -31.1954 1 0 0 255 255 255 255 0.119651 0.989053
-1.5e-05 397.076 -31.1954 1 0 0 255 255 255 255 0.119651 0.959132
-1.5e-05 375.641 -31.1954 1 0 0 255 255 255 255 0.119651 0.949039
-1.6e-05 500 -16.6512 1 0 0 255 255 255 255 0.119651 0.989053
-1.5e-05 356.697 -16.6512 1 0 0 255 255 255 255 0.119651 0.94012
-500 2e-06 14.2392 -1 -0 0 255 255 255 255 0.237346 0.753493
-500 315.361 -31.1954 -1 -0 0 255 255 255 255 0.237346 0.90208
-500 -5e-06 -31.1953 -1 -0 0 255 255 255 255 0.237346 0.753493
-1.6e-05 315.361 -31.1954 1 -0 -0 255 255 255 255 0.001764 0.90208
-1.6e-05 2e-06 14.2392 1 -0 -0 255 255 255 255 0.001764 0.753493
-1.7e-05 -5e-06 -31.1953 1 -0 -0 255 255 255 255 0.001764 0.753493
-1.6e-05 500 -16.6512 0 1 0 255 255 255 255 0.001764 0.989076
-500 500 14.2391 0 1 0 255 255 255 255 0.237346 0.989076
-1.6e-05 500 14.2391 0 1 0 255 255 255 255 0.001764 0.989076
-1.7e-05 -5e-06 -31.1953 0 -1 0 255 255 255 255 0.001764 0.753493
-1.6e-05 2e-06 14.2392 0 -1 0 255 255 255 255 0.001764 0.753493
-43.0108 -5e-06 -31.1953 0 -1 0 255 255 255 255 0.022029 0.753493
-456.989 -5e-06 -31.1953 0 -1 0 255 255 255 255 0.217081 0.753493
-500 2e-06 14.2392 0 -1 0 255 255 255 255 0.237346 0.753493
-500 -5e-06 -31.1953 0 -1 0 255 255 255 255 0.237346 0.753493
-500 315.361 -31.1954 0 0.410018 -0.912077 255 255 255 255 0.237346 0.90208
-378.681 347.714 -16.6512 0 0.410018 -0.912077 255 255 255 255 0.180185 0.917324
-374.194 315.361 -31.1954 0 0.410018 -0.912077 255 255 255 255 0.178071 0.90208
-125.807 315.361 -31.1954 0.000166 0.453494 -0.89126 255 255 255 255 0.061039 0.90208
-204.711 325.168 -26.2197 0.000166 0.453494 -0.89126 255 255 255 255 0.098216 0.907064
-1.6e-05 343.898 -16.6512 0.000166 0.453494 -0.89126 255 255 255 255 0.001764 0.915526
-1.6e-05 343.898 -16.6512 0 0.454074 -0.890964 255 255 255 255 0.001764 0.915526
-1.6e-05 315.361 -31.1954 0 0.454074 -0.890964 255 255 255 255 0.001764 0.90208
-125.807 315.361 -31.1954 0 0.454074 -0.890964 255 255 255 255 0.061039 0.90208
-125.807 315.361 -31.1954 -0 -0 -1 255 255 255 255 0.061039 0.90208
-1.6e-05 315.361 -31.1954 -0 -0 -1 255 255 255 255 0.001764 0.90208
-43.0108 225.285 -31.1953 -0 -0 -1 255 255 255 255 0.022029 0.85964
-208.602 225.285 -31.1953 -0 -0 -1 255 255 255 255 0.10005 0.85964
-160.498 315.361 -31.1954 -0 -0 -1 255 255 255 255 0.077385 0.90208
-500 315.361 -31.1954 -0 -0 -1 255 255 255 255 0.237346 0.90208
-374.194 315.361 -31.1954 -0 -0 -1 255 255 255 255 0.178071 0.90208
-456.989 225.285 -31.1953 -0 -0 -1 255 255 255 255 0.217081 0.85964
-1.6e-05 343.898 -16.6512 1 0 0 255 255 255 255 0.001764 0.915526
-1.6e-05 500 14.2391 1 0 0 255 255 255 255 0.001764 0.989076
-1.6e-05 500 14.2391 0 0 1 255 255 255 255 0.001764 0.989076
-500 2e-06 14.2392 0 0 1 255 255 255 255 0.237346 0.753493
-1.6e-05 2e-06 14.2392 0 0 1 255 255 255 255 0.001764 0.753493
-500 343.898 -16.6512 -1 0 1e-06 255 255 255 255 0.237346 0.915526
-500 500 14.2391 -1 0 1e-06 255 255 255 255 0.237346 0.989076
-500 500 -16.6512 -1 0 1e-06 255 255 255 255 0.237346 0.989076
-500 500 -16.6512 0 -0 -1 255 255 255 255 0.237346 0.989076
-236.667 343.898 -16.6512 0 -0 -1 255 255 255 255 0.113273 0.915526
-378.681 347.714 -16.6512 0 -0 -1 255 255 255 255 0.180185 0.917324
-1.6e-05 500 -16.6512 0 -0 -1 255 255 255 255 0.001764 0.989076
-1.6e-05 343.898 -16.6512 0 -0 -1 255 255 255 255 0.001764 0.915526
-33.5871 149.871 -31.1953 -0 -0 -1 255 255 255 255 0.017589 0.824107
-1.7e-05 -5e-06 -31.1953 0 -0 -1 255 255 255 255 0.001764 0.753493
-43.0108 126.355 -31.1953 0 -0 -1 255 255 255 255 0.022029 0.813027
-43.0108 171.133 -31.1953 0 -0 -1 255 255 255 255 0.022029 0.834125
-63.7118 218.976 -16.6512 0 -0 -1 255 255 255 255 0.031782 0.856667
-187.901 218.976 -16.6512 0 -0 -1 255 255 255 255 0.090296 0.856667
-122.714 285.754 -16.6512 0 -0 -1 255 255 255 255 0.059582 0.88813
-211.19 146.474 -31.1953 0 -0 -1 255 255 255 255 0.101269 0.822507
-291.398 232.242 -31.1954 0 -0 -1 255 255 255 255 0.13906 0.862917
-312.099 218.976 -16.6512 0 -0 -1 255 255 255 255 0.148814 0.856667
-432.855 218.976 -16.6512 0 -0 -1 255 255 255 255 0.20571 0.856667
-374.194 286.53 -16.6512 0 -0 -1 255 255 255 255 0.178071 0.888496
-500 -5e-06 -31.1953 0 -0 -1 255 255 255 255 0.237346 0.753493
-436.288 -3e-06 -16.6512 0 -1 0 255 255 255 255 0.207327 0.753493
-291.398 232.242 -31.1954 -0.412002 -0.4104 -0.813527 255 255 255 255 0.13908 0.612317
-374.194 286.53 -16.6512 -0.412002 -0.4104 -0.813527 255 255 255 255 0.178071 0.638496
-374.194 315.361 -31.1954 -0.412002 -0.4104 -0.813527 255 255 255 255 0.178071 0.65208
-288.81 109.064 -31.1953 -0.56969 -0.011971 -0.821772 255 255 255 255 0.138071 0.56465
-312.099 218.976 -16.6512 -0.56969 -0.011971 -0.821772 255 255 255 255 0.148814 0.606667
-291.398 232.242 -31.1954 -0.56969 -0.011971 -0.821772 255 255 255 255 0.13908 0.612317
-456.989 225.285 -31.1953 0.411705 -0.357508 -0.838264 255 255 255 255 0.217081 0.60964
-374.194 286.53 -16.6512 0.411705 -0.357508 -0.838264 255 255 255 255 0.178071 0.638496
-432.855 218.976 -16.6512 0.411705 -0.357508 -0.838264 255 255 255 255 0.20571 0.606989
-436.288 180.893 -16.6512 0.506827 -0.045691 -0.860836 255 255 255 255 0.207327 0.592139
-456.989 225.285 -31.1953 0.506827 -0.045691 -0.860836 255 255 255 255 0.217081 0.60964
-432.855 218.976 -16.6512 0.506827 -0.045691 -0.860836 255 255 255 255 0.20571 0.606989
-312.099 -3e-06 -16.6512 0 -1 0 255 255 255 255 0.148814 0.753493
-63.7118 -3e-06 -16.6512 0 -1 0 255 255 255 255 0.031782 0.753493
-291.398 -5e-06 -31.1953 0 -1 0 255 255 255 255 0.13906 0.753493
-187.901 -3e-06 -16.6512 0 -1 0 255 255 255 255 0.090296 0.753493
-43.0108 225.285 -31.1953 -0.46648 -0.42878 -0.773656 255 255 255 255 0.022029 0.60964
-122.714 285.754 -16.6512 -0.46648 -0.42878 -0.773656 255 255 255 255 0.059582 0.638131
-125.807 315.361 -31.1954 -0.46648 -0.42878 -0.773656 255 255 255 255 0.061039 0.65208
-63.7118 218.976 -16.6512 -0.576705 -0 -0.816952 255 255 255 255 0.031782 0.606667
-48.5495 155.383 -27.3546 -0.576705 -0 -0.816952 255 255 255 255 0.024638 0.582457
-63.7118 -3e-06 -16.6512 -0.576705 -0 -0.816952 255 255 255 255 0.031782 0.522365
-208.602 225.285 -31.1953 0.43179 -0.421503 -0.797429 255 255 255 255 0.10005 0.60964
-122.714 285.754 -16.6512 0.43179 -0.421503 -0.797429 255 255 255 255 0.059582 0.638131
-187.901 218.976 -16.6512 0.43179 -0.421503 -0.797429 255 255 255 255 0.090296 0.606667
-187.901 159.152 -16.6512 0.57488 -0 -0.818238 255 255 255 255 0.090296 0.583636
-208.602 225.285 -31.1953 0.57488 -0 -0.818238 255 255 255 255 0.10005 0.60964
-187.901 218.976 -16.6512 0.57488 -0 -0.818238 255 255 255 255 0.090296 0.606667
-187.901 159.152 -16.6512 0 -0 -1 255 255 255 255 0.090296 0.82848
-436.288 180.893 -16.6512 0 -0 -1 255 255 255 255 0.207327 0.838724
-310.433 62.7521 -36.2656 -0.116507 0.265851 -0.956948 255 255 255 255 0.048492 0.850279
-273.041 57.92 -42.1605 -0.116507 0.265851 -0.956948 255 255 255 255 0.048656 0.850208
-302.368 45.0677 -42.1605 -0.116507 0.265851 -0.956948 255 255 255 255 0.048514 0.850111
-47.175 57.92 -42.1605 -0.423091 0.071535 -0.903259 255 255 255 255 0.04852 0.850167
-51.0357 35.0863 -42.1605 -0.423091 0.071535 -0.903259 255 255 255 255 0.048536 0.850078
-66.0839 66.5155 -32.6227 -0.423091 0.071535 -0.903259 255 255 255 255 0.0485 0.850376
-0.010573 57.92 -42.1605 0 -0 -1 255 255 255 255 0.048782 0.850247
-47.175 57.92 -42.1605 0 -0 -1 255 255 255 255 0.04852 0.850167
-63.7118 -3e-06 -16.6512 0 -0 -1 255 255 255 255 0.031782 0.753493
-211.19 146.474 -31.1953 0.57485 0.010158 -0.818196 255 255 255 255 0.101038 0.579115
-187.901 -3e-06 -16.6512 0.57485 0.010158 -0.818196 255 255 255 255 0.090296 0.522365
-208.602 -5e-06 -31.1953 0.57485 0.010158 -0.818196 255 255 255 255 0.10005 0.522365
-288.81 109.064 -31.1953 0 -0 -1 255 255 255 255 0.137841 0.80488
-208.602 -5e-06 -31.1953 0 -0 -1 255 255 255 255 0.10005 0.753493
-291.398 -5e-06 -31.1953 0 -0 -1 255 255 255 255 0.13906 0.753493
-288.81 109.064 -31.1953 -0.529694 -0 -0.848189 255 255 255 255 0.138071 0.56465
-312.099 -3e-06 -16.6512 -0.529694 -0 -0.848189 255 255 255 255 0.148814 0.522365
-312.099 118.75 -16.6512 -0.529694 -0 -0.848189 255 255 255 255 0.148814 0.568082
-189.097 305.282 -31.1954 -0.067621 0.191882 -0.979086 255 255 255 255 0.09086 0.897332
-204.711 325.168 -26.2197 -0.067621 0.191882 -0.979086 255 255 255 255 0.098216 0.907064
-160.498 315.361 -31.1954 -0.067621 0.191882 -0.979086 255 255 255 255 0.077385 0.90208
-287.177 315.361 -31.1954 -0 -0 -1 255 255 255 255 0.137071 0.90208
-287.177 315.361 -31.1954 0.026976 0.262517 -0.96455 255 255 255 255 0.137071 0.90208
-204.711 325.168 -26.2197 0.026976 0.262517 -0.96455 255 255 255 255 0.098216 0.907064
-189.097 305.282 -31.1954 0.026976 0.262517 -0.96455 255 255 255 255 0.09086 0.897332
-436.288 -3e-06 -16.6512 0 -0 -1 255 255 255 255 0.207327 0.753493
-312.099 118.75 -16.6512 0 -0 -1 255 255 255 255 0.148814 0.809444
-312.099 -3e-06 -16.6512 0 -0 -1 255 255 255 255 0.148814 0.753493
-456.989 -5e-06 -31.1953 0.57488 -0 -0.818238 255 255 255 255 0.217081 0.522365
-436.288 180.893 -16.6512 0.57488 -0 -0.818238 255 255 255 255 0.207327 0.592139
-436.288 -3e-06 -16.6512 0.57488 -0 -0.818238 255 255 255 255 0.207327 0.522365
-33.5871 149.871 -31.1953 -0.290847 -0.128906 -0.948046 255 255 255 255 0.018429 0.580508
-48.5495 155.383 -27.3546 -0.290847 -0.128906 -0.948046 255 255 255 255 0.024638 0.582457
-43.0108 171.133 -31.1953 -0.290847 -0.128906 -0.948046 255 255 255 255 0.022029 0.588632
-43.0108 126.355 -31.1953 -0.217446 0.087141 -0.972175 255 255 255 255 0.022029 0.571315
-48.5495 155.383 -27.3546 -0.217446 0.087141 -0.972175 255 255 255 255 0.024638 0.582457
-33.5871 149.871 -31.1953 -0.217446 0.087141 -0.972175 255 255 255 255 0.018429 0.580508
-43.0108 171.133 -31.1953 -0.574879 -0 -0.818238 255 255 255 255 0.022029 0.588632
-63.7118 218.976 -16.6512 -0.574879 -0 -0.818238 255 255 255 255 0.031782 0.606667
-43.0108 225.285 -31.1953 -0.574879 -0 -0.818238 255 255 255 255 0.022029 0.60964
-63.7118 -3e-06 -16.6512 -0.574879 -0 -0.818238 255 255 255 255 0.031782 0.522365
-43.0108 126.355 -31.1953 -0.574879 -0 -0.818238 255 255 255 255 0.022029 0.571315
-43.0108 -5e-06 -31.1953 -0.574879 -0 -0.818238 255 255 255 255 0.022029 0.522365
-170.413 74.2406 -16.6512 0.768238 -0 -0.640164 255 255 255 255 0.04906 0.850756
-170.413 -6.2e-05 -16.6512 0.768238 -0 -0.640164 255 255 255 255 0.049165 0.850546
-184.11 66.0341 -33.0887 0.768238 -0 -0.640164 255 255 255 255 0.049071 0.850547
-197.653 52.5763 -42.1605 0.683535 -0 -0.729918 255 255 255 255 0.049093 0.850318
-170.413 -6.2e-05 -16.6512 0.683535 -0 -0.729918 255 255 255 255 0.049165 0.850546
-197.653 -6.6e-05 -42.1605 0.683535 -0 -0.729918 255 255 255 255 0.049197 0.850127
-197.653 -6.6e-05 -42.1605 -0 -0 -1 255 255 255 255 0.049197 0.850127
-204.27 57.9199 -42.1605 -0 -0 -1 255 255 255 255 0.049045 0.850327
-197.653 52.5763 -42.1605 -0 -0 -1 255 255 255 255 0.049093 0.850318
-302.368 -6.6e-05 -42.1605 -0 -0 -1 255 255 255 255 0.048618 0.849959
-273.041 57.92 -42.1605 -0 -0 -1 255 255 255 255 0.048656 0.850208
-329.608 74.2406 -16.6512 0.038297 0.878126 -0.476893 255 255 255 255 0.048516 0.850575
-273.041 57.92 -42.1605 0.038297 0.878126 -0.476893 255 255 255 255 0.048656 0.850208
-310.433 62.7521 -36.2656 0.038297 0.878126 -0.476893 255 255 255 255 0.048492 0.850279
-170.413 74.2406 -16.6512 0 0.842351 -0.538929 255 255 255 255 0.04906 0.850756
-204.27 57.9199 -42.1605 0 0.842351 -0.538929 255 255 255 255 0.049045 0.850327
-273.041 57.92 -42.1605 0 0.842351 -0.538929 255 255 255 255 0.048656 0.850208
-445.939 422.565 -31.1954 0.224549 -0.069475 -0.971983 255 255 255 255 0.145105 0.721133
-439.055 444.818 -31.1954 0.224549 -0.069475 -0.971983 255 255 255 255 0.148346 0.727086
-432.069 423.237 -28.0391 0.224549 -0.069475 -0.971983 255 255 255 255 0.150393 0.721449
-250 397.076 -31.1954 -0.703147 -0.589149 -0.398105 255 255 255 255 0.119651 0.709132
-259.76 416.135 -42.1605 -0.703147 -0.589149 -0.398105 255 255 255 255 0.124247 0.717022
-250 401.342 -37.5091 -0.703147 -0.589149 -0.398105 255 255 255 255 0.119651 0.71081
-296.685 433.016 -31.1954 -0.455132 -0.531474 -0.714416 255 255 255 255 0.141632 0.726811
-286.899 439.375 -42.1605 -0.455132 -0.531474 -0.714416 255 255 255 255 0.137025 0.727254
-259.76 416.135 -42.1605 -0.455132 -0.531474 -0.714416 255 255 255 255 0.124247 0.717022
-236.97 418.934 -42.1605 -0 -0 -1 255 255 255 255 0.113516 0.968254
-250 397.076 -31.1954 0.512886 -0.609166 -0.604867 255 255 255 255 0.119651 0.709132
-236.97 418.934 -42.1605 0.512886 -0.609166 -0.604867 255 255 255 255 0.113516 0.718119
-204.285 435.566 -31.1954 0.512886 -0.609166 -0.604867 255 255 255 255 0.098127 0.727254
-204.285 435.566 -31.1954 0.511185 -0.596927 -0.618359 255 255 255 255 0.098127 0.727254
-236.97 418.934 -42.1605 0.511185 -0.596927 -0.618359 255 255 255 255 0.113516 0.718119
-213.101 439.375 -42.1605 0.511185 -0.596927 -0.618359 255 255 255 255 0.102278 0.727254
-236.667 343.898 -16.6512 0.011752 0.437452 -0.899165 255 255 255 255 0.113273 0.915526
-287.177 315.361 -31.1954 0.011752 0.437452 -0.899165 255 255 255 255 0.137071 0.90208
-378.681 347.714 -16.6512 0.011752 0.437452 -0.899165 255 255 255 255 0.180185 0.917324
-500 343.898 -16.6512 -0 -0 -1 255 255 255 255 0.237346 0.915526
-287.177 315.361 -31.1954 0 0.410018 -0.912077 255 255 255 255 0.137071 0.90208
-1.6e-05 343.898 -16.6512 0 0.454931 -0.890527 255 255 255 255 0.001764 0.915526
-204.711 325.168 -26.2197 0 0.454931 -0.890527 255 255 255 255 0.098216 0.907064
-236.667 343.898 -16.6512 0 0.454931 -0.890527 255 255 255 255 0.113273 0.915526
-79.6082 -6.2e-05 -16.6512 -0.763153 -0 -0.646218 255 255 255 255 0.048639 0.850379
-79.6082 74.2406 -16.6512 -0.763153 -0 -0.646218 255 255 255 255 0.048516 0.850575
-66.0839 66.5155 -32.6227 -0.763153 -0 -0.646218 255 255 255 255 0.0485 0.850376
-79.6082 -6.2e-05 -16.6512 0 -1 0 255 255 255 255 0.048639 0.850379
-47.175 57.92 -42.1605 0.054088 0.792722 -0.60718 255 255 255 255 0.04852 0.850167
-66.0839 66.5155 -32.6227 0.054088 0.792722 -0.60718 255 255 255 255 0.0485 0.850376
-0.010573 74.2406 -16.6512 0.054088 0.792722 -0.60718 255 255 255 255 0.048788 0.850665
-0.010573 -6.6e-05 -42.1605 1 0 -0 255 255 255 255 0.048908 0.850043
-329.608 -6.2e-05 -16.6512 -0.646252 -0.040716 -0.762037 255 255 255 255 0.048639 0.850379
-310.433 62.7521 -36.2656 -0.646252 -0.040716 -0.762037 255 255 255 255 0.048492 0.850279
-302.368 45.0677 -42.1605 -0.646252 -0.040716 -0.762037 255 255 255 255 0.048514 0.850111
-329.608 -6.2e-05 -16.6512 0 -1 0 255 255 255 255 0.048639 0.850379
-420.413 74.2406 -16.6512 0.665989 -0 -0.745962 255 255 255 255 0.04906 0.850756
-500.011 -6.6e-05 -42.1605 0 -0 -1 255 255 255 255 0.048908 0.850043
-420.413 -6.2e-05 -16.6512 0 -1 0 255 255 255 255 0.049165 0.850546
-500.011 57.92 -42.1605 0 0.842351 -0.538929 255 255 255 255 0.048782 0.850247
-500.011 74.2406 -16.6512 -1 0 0 255 255 255 255 0.048788 0.850665
-320.858 421.015 -16.6512 -0.826347 -0 -0.563162 255 255 255 255 0.151251 0.720403
-179.142 421.015 -16.6512 0.826343 -0 -0.563167 255 255 255 255 0.088051 0.720403
-310.946 500 -31.1954 -0 -0 -1 255 255 255 255 0.148346 0.989053
-179.142 421.015 -16.6512 0.498568 -0.549258 -0.670631 255 255 255 255 0.088051 0.720403
-250 356.697 -16.6512 0.498568 -0.549258 -0.670631 255 255 255 255 0.119651 0.69012
-248.694 375.641 -31.1954 0.498568 -0.549258 -0.670631 255 255 255 255 0.119055 0.699039
-320.858 421.015 -16.6512 -0.496899 -0.58474 -0.641226 255 255 255 255 0.151251 0.720403
-310.946 428.541 -31.1954 -0.496899 -0.58474 -0.641226 255 255 255 255 0.148346 0.723947
-248.694 375.641 -31.1954 -0.496899 -0.58474 -0.641226 255 255 255 255 0.119055 0.699039
-310.946 500 -31.1954 -0 1 0 255 255 255 255 0.148346 0.989053
-286.899 439.375 -42.1605 -0.749173 0.010845 -0.662286 255 255 255 255 0.137025 0.727254
-296.685 433.016 -31.1954 -0.749173 0.010845 -0.662286 255 255 255 255 0.141632 0.726811
-295.715 500 -31.1954 -0.749173 0.010845 -0.662286 255 255 255 255 0.141175 0.739053
-204.285 435.566 -31.1954 0.779352 -0 -0.626586 255 255 255 255 0.098127 0.727254
-286.899 500 -42.1605 -0 -0 -1 255 255 255 255 0.137025 0.989053
-295.715 500 -31.1954 0 1 0 255 255 255 255 0.141175 0.989053
-429.143 500 -16.6512 0.628821 0.09059 -0.772254 255 255 255 255 0.151251 0.739053
-432.069 423.237 -28.0391 0.628821 0.09059 -0.772254 255 255 255 255 0.150393 0.721449
-439.055 444.818 -31.1954 0.628821 0.09059 -0.772254 255 255 255 255 0.148346 0.727086
-429.143 421.015 -16.6512 0.502535 -0.578961 -0.642077 255 255 255 255 0.151251 0.720403
-500 375.641 -31.1954 0.502535 -0.578961 -0.642077 255 255 255 255 0.119651 0.699039
-445.939 422.565 -31.1954 0.502535 -0.578961 -0.642077 255 255 255 255 0.145105 0.721133
-463.101 500 -42.1605 0.779352 -0 -0.626586 255 255 255 255 0.137025 0.739053
-500 407.776 -42.1605 0.459932 -0.455959 -0.761947 255 255 255 255 0.119651 0.713342
-463.101 444.997 -42.1605 0.459932 -0.455959 -0.761947 255 255 255 255 0.137025 0.72853
-454.285 435.566 -31.1954 0.459932 -0.455959 -0.761947 255 255 255 255 0.141175 0.727254
-500 407.776 -42.1605 -0 -0 -1 255 255 255 255 0.119651 0.963342
-454.285 500 -31.1954 0 1 -0 255 255 255 255 0.141175 0.989053
-500 375.641 -31.1954 0 -0 -1 255 255 255 255 0.119651 0.949039
-429.143 500 -16.6512 0 1 -0 255 255 255 255 0.151251 0.989053
-500 500 -31.1954 -1 0 3e-06 255 255 255 255 0.119651 0.989053
-500 500 -42.1605 -1 0 3e-06 255 255 255 255 0.119651 0.989053
-500 407.776 -42.1605 -1 0 3e-06 255 255 255 255 0.119651 0.963342
-500 500 -16.6512 -1 0 -2e-06 255 255 255 255 0.119651 0.989053
-500 500 -31.1954 -1 0 -2e-06 255 255 255 255 0.119651 0.989053
-500 375.641 -31.1954 -1 0 -2e-06 255 255 255 255 0.119651 0.949039
-57.3881 426.305 -31.1954 -0.733693 -0 -0.679481 255 255 255 255 0.146507 0.722507
-70.8575 421.015 -16.6512 -0.733693 -0 -0.679481 255 255 255 255 0.151251 0.720403
-70.8575 500 -16.6512 -0.733693 -0 -0.679481 255 255 255 255 0.151251 0.739053
-70.8575 421.015 -16.6512 -0.495467 -0.561224 -0.662978 255 255 255 255 0.151251 0.720403
-57.3881 426.305 -31.1954 -0.495467 -0.561224 -0.662978 255 255 255 255 0.146507 0.722507
-1.5e-05 375.641 -31.1954 -0.495467 -0.561224 -0.662978 255 255 255 255 0.119651 0.699039
-38.7688 439.375 -42.1605 -0.844755 -0 -0.535153 255 255 255 255 0.137905 0.7279
-45.7152 435.566 -31.1954 -0.844755 -0 -0.535153 255 255 255 255 0.141175 0.727254
-45.7152 500 -31.1954 -0.844755 -0 -0.535153 255 255 255 255 0.141175 0.739053
-45.7152 435.566 -31.1954 -0.524988 -0.644104 -0.556344 255 255 255 255 0.141175 0.727254
-38.7688 439.375 -42.1605 -0.524988 -0.644104 -0.556344 255 255 255 255 0.137905 0.7279
-1.5e-05 407.776 -42.1605 -0.524988 -0.644104 -0.556344 255 255 255 255 0.119651 0.713342
-36.8994 500 -42.1605 -0 -0 -1 255 255 255 255 0.137025 0.989053
-1.5e-05 500 -42.1605 0 1 -0 255 255 255 255 0.119651 0.989053
-60.9456 500 -31.1954 -0 -0 -1 255 255 255 255 0.148346 0.989053
-1.5e-05 407.776 -42.1605 1 0 3e-06 255 255 255 255 0.119651 0.963342
-1.5e-05 500 -42.1605 1 0 3e-06 255 255 255 255 0.119651 0.989053
-4.6e-05 500 -31.1954 1 0 3e-06 255 255 255 255 0.119651 0.989053
-1.5e-05 375.641 -31.1954 1 0 -2e-06 255 255 255 255 0.119651 0.949039
-4.6e-05 500 -31.1954 1 0 -2e-06 255 255 255 255 0.119651 0.989053
-1.6e-05 500 -16.6512 1 0 -2e-06 255 255 255 255 0.119651 0.989053
-500 343.898 -16.6512 -1 -0 0 255 255 255 255 0.237346 0.915526
-500 500 -16.6512 -0 1 0 255 255 255 255 0.237346 0.989076
-500 315.361 -31.1954 -0.014278 0.454027 -0.890873 255 255 255 255 0.237346 0.90208
-500 343.898 -16.6512 -0.014278 0.454027 -0.890873 255 255 255 255 0.237346 0.915526
-378.681 347.714 -16.6512 -0.014278 0.454027 -0.890873 255 255 255 255 0.180185 0.917324
-125.807 315.361 -31.1954 0 0.452433 -0.891798 255 255 255 255 0.061039 0.90208
-160.498 315.361 -31.1954 0 0.452433 -0.891798 255 255 255 255 0.077385 0.90208
-204.711 325.168 -26.2197 0 0.452433 -0.891798 255 255 255 255 0.098216 0.907064
-189.097 305.282 -31.1954 -0 -0 -1 255 255 255 255 0.09086 0.897332
-1.6e-05 500 -16.6512 1 0 0 255 255 255 255 0.001764 0.989076
-500 500 14.2391 -0 0 1 255 255 255 255 0.237346 0.989076
-500 2e-06 14.2392 -1 0 1e-06 255 255 255 255 0.237346 0.753493
-43.0108 -5e-06 -31.1953 0 -0 -1 255 255 255 255 0.022029 0.753493
-456.989 -5e-06 -31.1953 0 -0 -1 255 255 255 255 0.217081 0.753493
-291.398 232.242 -31.1954 -0.379041 -0.348407 -0.857287 255 255 255 255 0.13908 0.612317
-312.099 218.976 -16.6512 -0.379041 -0.348407 -0.857287 255 255 255 255 0.148814 0.606667
-374.194 286.53 -16.6512 -0.379041 -0.348407 -0.857287 255 255 255 255 0.178071 0.638496
-312.099 218.976 -16.6512 -0.529694 -0 -0.848189 255 255 255 255 0.148814 0.606667
-456.989 225.285 -31.1953 0.440019 -0.404457 -0.801747 255 255 255 255 0.217081 0.60964
-374.194 315.361 -31.1954 0.440019 -0.404457 -0.801747 255 255 255 255 0.178071 0.65208
-374.194 286.53 -16.6512 0.440019 -0.404457 -0.801747 255 255 255 255 0.178071 0.638496
-208.602 -5e-06 -31.1953 0 -1 0 255 255 255 255 0.10005 0.753493
-43.0108 225.285 -31.1953 -0.445235 -0.39339 -0.80437 255 255 255 255 0.022029 0.60964
-63.7118 218.976 -16.6512 -0.445235 -0.39339 -0.80437 255 255 255 255 0.031782 0.606667
-122.714 285.754 -16.6512 -0.445235 -0.39339 -0.80437 255 255 255 255 0.059582 0.638131
-208.602 225.285 -31.1953 0.402033 -0.369542 -0.83774 255 255 255 255 0.10005 0.60964
-125.807 315.361 -31.1954 0.402033 -0.369542 -0.83774 255 255 255 255 0.061039 0.65208
-122.714 285.754 -16.6512 0.402033 -0.369542 -0.83774 255 255 255 255 0.059582 0.638131
-187.901 159.152 -16.6512 0.536494 -0.017619 -0.84372 255 255 255 255 0.090296 0.583636
-211.19 146.474 -31.1953 0.536494 -0.017619 -0.84372 255 255 255 255 0.101038 0.579115
-208.602 225.285 -31.1953 0.536494 -0.017619 -0.84372 255 255 255 255 0.10005 0.60964
-187.901 -3e-06 -16.6512 0 -0 -1 255 255 255 255 0.090296 0.753493
-211.19 146.474 -31.1953 0.529694 -0 -0.848189 255 255 255 255 0.101038 0.579115
-187.901 159.152 -16.6512 0.529694 -0 -0.848189 255 255 255 255 0.090296 0.583636
-187.901 -3e-06 -16.6512 0.529694 -0 -0.848189 255 255 255 255 0.090296 0.522365
-288.81 109.064 -31.1953 -0.574825 0.013641 -0.818162 255 255 255 255 0.138071 0.56465
-291.398 -5e-06 -31.1953 -0.574825 0.013641 -0.818162 255 255 255 255 0.13906 0.522365
-312.099 -3e-06 -16.6512 -0.574825 0.013641 -0.818162 255 255 255 255 0.148814 0.522365
-456.989 225.285 -31.1953 0.57488 -0 -0.818238 255 255 255 255 0.217081 0.60964
-43.0108 171.133 -31.1953 -0.572627 0.001454 -0.819815 255 255 255 255 0.022029 0.588632
-48.5495 155.383 -27.3546 -0.572627 0.001454 -0.819815 255 255 255 255 0.024638 0.582457
-63.7118 218.976 -16.6512 -0.572627 0.001454 -0.819815 255 255 255 255 0.031782 0.606667
-63.7118 -3e-06 -16.6512 -0.572175 -0.000661 -0.820131 255 255 255 255 0.031782 0.522365
-48.5495 155.383 -27.3546 -0.572175 -0.000661 -0.820131 255 255 255 255 0.024638 0.582457
-43.0108 126.355 -31.1953 -0.572175 -0.000661 -0.820131 255 255 255 255 0.022029 0.571315
-197.653 52.5763 -42.1605 0.603725 -0.072393 -0.793899 255 255 255 255 0.049093 0.850318
-184.11 66.0341 -33.0887 0.603725 -0.072393 -0.793899 255 255 255 255 0.049071 0.850547
-170.413 -6.2e-05 -16.6512 0.603725 -0.072393 -0.793899 255 255 255 255 0.049165 0.850546
-302.368 45.0677 -42.1605 0 -0 -1 255 255 255 255 0.048514 0.850111
-329.608 74.2406 -16.6512 0 0.842351 -0.538929 255 255 255 255 0.048516 0.850575
-170.413 74.2406 -16.6512 -0.265359 0.932633 -0.244499 255 255 255 255 0.04906 0.850756
-184.11 66.0341 -33.0887 -0.265359 0.932633 -0.244499 255 255 255 255 0.049071 0.850547
-204.27 57.9199 -42.1605 -0.265359 0.932633 -0.244499 255 255 255 255 0.049045 0.850327
-250 397.076 -31.1954 -0.468408 -0.608454 -0.640608 255 255 255 255 0.119651 0.709132
-296.685 433.016 -31.1954 -0.468408 -0.608454 -0.640608 255 255 255 255 0.141632 0.726811
-259.76 416.135 -42.1605 -0.468408 -0.608454 -0.640608 255 255 255 255 0.124247 0.717022
-259.76 416.135 -42.1605 0 -0 -1 255 255 255 255 0.124247 0.967022
-250 397.076 -31.1954 0.676576 -0.610135 -0.412286 255 255 255 255 0.119651 0.709132
-250 401.342 -37.5091 0.676576 -0.610135 -0.412286 255 255 255 255 0.119651 0.71081
-236.97 418.934 -42.1605 0.676576 -0.610135 -0.412286 255 255 255 255 0.113516 0.718119
-236.667 343.898 -16.6512 -0.000311 0.45451 -0.890742 255 255 255 255 0.113273 0.915526
-204.711 325.168 -26.2197 -0.000311 0.45451 -0.890742 255 255 255 255 0.098216 0.907064
-287.177 315.361 -31.1954 -0.000311 0.45451 -0.890742 255 255 255 255 0.137071 0.90208
3 0 1 2 
3 3 4 5 
3 6 7 8 
3 9 10 11 
3 12 13 14 
3 15 16 17 
3 18 19 20 
3 21 22 23 
3 24 25 26 
3 27 28 29 
3 30 31 32 
3 33 34 35 
3 36 37 38 
3 39 40 41 
3 42 43 44 
3 45 46 47 
3 48 49 50 
3 51 52 53 
3 54 55 56 
3 57 58 59 
3 60 61 62 
3 63 64 65 
3 56 66 54 
3 67 68 69 
3 70 71 72 
3 73 74 75 
3 76 77 78 
3 79 80 81 
3 82 83 84 
3 85 86 87 
3 88 89 90 
3 91 92 93 
3 94 95 96 
3 97 98 99 
3 100 101 102 
3 103 104 105 
3 106 107 108 
3 108 107 109 
3 110 111 103 
3 112 113 114 
3 115 116 117 
3 118 119 120 
3 121 122 123 
3 124 125 126 
3 127 128 129 
3 130 131 132 
3 133 134 135 
3 136 137 138 
3 139 140 141 
3 142 143 144 
3 145 146 147 
3 148 149 150 
3 151 152 153 
3 154 155 156 
3 157 158 159 
3 160 161 162 
3 163 164 165 
3 166 167 168 
3 169 170 171 
3 172 173 174 
3 175 176 172 
3 177 178 179 
3 180 181 152 
3 182 183 184 
3 185 186 187 
3 188 189 190 
3 191 192 189 
3 173 193 174 
3 194 195 193 
3 193 196 174 
3 197 198 199 
3 200 201 175 
3 202 203 204 
3 179 205 177 
3 161 160 206 
3 207 208 209 
3 210 211 212 
3 213 214 215 
3 216 217 218 
3 219 161 206 
3 159 158 220 
3 221 222 219 
3 223 224 225 
3 226 227 228 
3 229 230 231 
3 232 233 234 
3 197 235 198 
3 202 236 203 
3 158 219 222 
3 220 158 222 
3 237 238 239 
3 240 241 242 
3 243 9 244 
3 245 235 197 
3 246 247 248 
3 249 250 251 
3 252 253 254 
3 255 256 257 
3 178 258 201 
3 258 175 201 
3 259 260 261 
3 262 263 264 
3 265 266 267 
3 268 269 270 
3 271 272 273 
3 274 275 276 
3 277 278 279 
3 280 281 282 
3 283 284 285 
3 286 287 288 
3 289 290 287 
3 291 292 293 
3 294 295 296 
3 297 298 299 
3 300 301 302 
3 303 304 305 
3 306 73 75 
3 307 308 309 
3 310 311 312 
3 313 314 315 
3 316 188 190 
3 164 317 165 
3 318 319 320 
3 321 322 323 
3 6 324 7 
3 325 326 327 
3 18 328 19 
3 329 330 331 
3 27 332 28 
3 33 333 34 
3 36 334 37 
3 39 335 40 
3 42 336 43 
3 45 337 46 
3 48 338 49 
3 51 339 52 
3 54 340 55 
3 341 342 343 
3 344 345 346 
3 63 347 64 
3 348 349 350 
3 70 351 71 
3 73 352 74 
3 79 353 80 
3 354 355 356 
3 357 358 359 
3 94 360 95 
3 361 362 363 
3 100 364 101 
3 103 365 104 
3 106 366 107 
3 110 367 111 
3 368 369 370 
3 371 372 373 
3 374 375 376 
3 377 378 379 
3 380 381 382 
3 383 384 385 
3 130 386 131 
3 133 387 134 
3 136 388 137 
3 139 133 140 
3 389 390 391 
3 392 393 394 
3 148 395 149 
3 151 180 152 
3 154 396 155 
3 397 398 399 
3 400 401 402 
3 175 403 176 
3 180 404 181 
3 182 405 183 
3 185 406 186 
3 188 191 189 
3 173 194 193 
3 194 407 195 
3 200 249 201 
3 179 408 205 
3 409 410 411 
3 252 254 412 
3 413 414 415 
3 221 416 222 
3 417 418 419 
3 420 421 422 
3 423 424 425 
3 202 263 236 
3 158 161 219 
3 243 10 9 
3 245 426 235 
3 427 428 429 
3 249 200 250 
3 430 431 432 
3 258 403 175 
3 262 236 263 
3 265 433 266 
3 434 435 436 
3 437 438 439 
3 440 441 442 
3 286 289 287 
3 289 443 290 
3 444 294 296 
3 445 446 447 
3 448 449 450 
3 306 451 73 
3 452 453 454 
3 455 456 457 
