ply
format ascii 1.0
comment VCGLIB generated
comment TextureFile Dungeons_2_Texture_01_A.png
element vertex 372
property float x
property float y
property float z
property float nx
property float ny
property float nz
property uchar red
property uchar green
property uchar blue
property uchar alpha
property float texture_u
property float texture_v
element face 124
property list uchar int vertex_indices
end_header
88.8271 -86.2692 -46.4816 0.93623 -0.35066 0.02259 255 255 255 255 0.051762 0.03202
108.702 -30.6161 -6.27708 0.93623 -0.35066 0.02259 255 255 255 255 0.051548 0.068966
87.855 -86.6597 -12.2522 0.93623 -0.35066 0.02259 255 255 255 255 0.051784 0.031613
88.8271 -86.2692 -46.4816 0.23802 -0.152339 -0.959239 255 255 255 255 0.051762 0.03202
65.7893 4.10641 -66.5509 0.23802 -0.152339 -0.959239 255 255 255 255 0.05282 0.082163
111.156 -6.92972 -53.5414 0.23802 -0.152339 -0.959239 255 255 255 255 0.051609 0.08362
43.8965 -79.7209 -59.1618 -0.655861 0.1054 -0.747487 255 255 255 255 0.052938 0.027947
33.5571 -8.65506 -40.0691 -0.655861 0.1054 -0.747487 255 255 255 255 0.053572 0.068762
65.7893 4.10641 -66.5509 -0.655861 0.1054 -0.747487 255 255 255 255 0.05282 0.082163
27.6462 -76.2925 -37.4752 -0.888057 0.09486 0.44984 255 255 255 255 0.053369 0.02711
58.7874 -27.9708 13.8126 -0.888057 0.09486 0.44984 255 255 255 255 0.05283 0.061662
33.5571 -8.65506 -40.0691 -0.888057 0.09486 0.44984 255 255 255 255 0.053572 0.068762
87.855 -86.6597 -12.2522 0.319121 -0.248157 0.914647 255 255 255 255 0.051784 0.031613
58.7874 -27.9708 13.8126 0.319121 -0.248157 0.914647 255 255 255 255 0.05283 0.061662
47.5476 -77.4825 4.30095 0.319121 -0.248157 0.914647 255 255 255 255 0.052857 0.029941
88.8271 -86.2692 -46.4816 0.127956 -0.99175 -0.00768 255 255 255 255 0.051762 0.03202
87.855 -86.6597 -12.2522 0.127956 -0.99175 -0.00768 255 255 255 255 0.051784 0.031613
57.0066 -90.499 -30.4316 0.127956 -0.99175 -0.00768 255 255 255 255 0.052548 0.023813
43.8965 -79.7209 -59.1618 -0.043096 -0.941721 -0.333622 255 255 255 255 0.052938 0.027947
88.8271 -86.2692 -46.4816 -0.043096 -0.941721 -0.333622 255 255 255 255 0.051762 0.03202
57.0066 -90.499 -30.4316 -0.043096 -0.941721 -0.333622 255 255 255 255 0.052548 0.023813
27.6462 -76.2925 -37.4752 -0.399501 -0.903265 -0.156561 255 255 255 255 0.053369 0.02711
43.8965 -79.7209 -59.1618 -0.399501 -0.903265 -0.156561 255 255 255 255 0.052938 0.027947
57.0066 -90.499 -30.4316 -0.399501 -0.903265 -0.156561 255 255 255 255 0.052548 0.023813
47.5476 -77.4825 4.30095 -0.464902 -0.863194 0.196883 255 255 255 255 0.052857 0.029941
27.6462 -76.2925 -37.4752 -0.464902 -0.863194 0.196883 255 255 255 255 0.053369 0.02711
57.0066 -90.499 -30.4316 -0.464902 -0.863194 0.196883 255 255 255 255 0.052548 0.023813
87.855 -86.6597 -12.2522 -0.07811 -0.940345 0.331135 255 255 255 255 0.051784 0.031613
47.5476 -77.4825 4.30095 -0.07811 -0.940345 0.331135 255 255 255 255 0.052857 0.029941
57.0066 -90.499 -30.4316 -0.07811 -0.940345 0.331135 255 255 255 255 0.052548 0.023813
105.972 103.545 -24.5837 0.837242 0.340902 -0.427564 255 255 255 255 0.052319 0.149009
115.772 48.7249 -49.1027 0.837242 0.340902 -0.427564 255 255 255 255 0.051783 0.117849
101.891 108.096 -28.9464 0.837242 0.340902 -0.427564 255 255 255 255 0.052447 0.151013
115.772 48.7249 -49.1027 0.367116 0.331125 -0.869242 255 255 255 255 0.051783 0.117849
85.9934 62.0557 -56.6012 0.367116 0.331125 -0.869242 255 255 255 255 0.05261 0.120546
99.6865 103.537 -35.0165 0.367116 0.331125 -0.869242 255 255 255 255 0.052479 0.147884
85.9934 62.0557 -56.6012 -0.577856 0.518652 -0.630145 255 255 255 255 0.05261 0.120546
62.1775 67.1837 -30.5409 -0.577856 0.518652 -0.630145 255 255 255 255 0.053242 0.119382
99.6865 103.537 -35.0165 -0.577856 0.518652 -0.630145 255 255 255 255 0.052479 0.147884
62.1775 67.1837 -30.5409 -0.620103 0.581404 0.526727 255 255 255 255 0.053242 0.119382
82.2556 55.6106 5.87104 -0.620103 0.581404 0.526727 255 255 255 255 0.052671 0.116012
101.891 108.096 -28.9464 -0.620103 0.581404 0.526727 255 255 255 255 0.052447 0.151013
82.2556 55.6106 5.87104 -0.182736 0.590049 0.786416 255 255 255 255 0.052671 0.116012
105.972 103.545 -24.5837 -0.182736 0.590049 0.786416 255 255 255 255 0.052319 0.149009
101.891 108.096 -28.9464 -0.182736 0.590049 0.786416 255 255 255 255 0.052447 0.151013
111.156 -6.92972 -53.5414 0.994422 -0.105469 -0.001227 255 255 255 255 0.051609 0.08362
117.003 47.6331 -4.73233 0.994422 -0.105469 -0.001227 255 255 255 255 0.051746 0.117413
108.702 -30.6161 -6.27708 0.994422 -0.105469 -0.001227 255 255 255 255 0.051548 0.068966
65.7893 4.10641 -66.5509 0.287051 0.052472 -0.956477 255 255 255 255 0.05282 0.082163
115.772 48.7249 -49.1027 0.287051 0.052472 -0.956477 255 255 255 255 0.051783 0.117849
111.156 -6.92972 -53.5414 0.287051 0.052472 -0.956477 255 255 255 255 0.051609 0.08362
65.7893 4.10641 -66.5509 -0.658275 0.344435 -0.669357 255 255 255 255 0.05282 0.082163
62.1775 67.1837 -30.5409 -0.658275 0.344435 -0.669357 255 255 255 255 0.053242 0.119382
85.9934 62.0557 -56.6012 -0.658275 0.344435 -0.669357 255 255 255 255 0.05261 0.120546
33.5571 -8.65506 -40.0691 -0.815259 0.24154 0.526318 255 255 255 255 0.053572 0.068762
82.2556 55.6106 5.87104 -0.815259 0.24154 0.526318 255 255 255 255 0.052671 0.116012
62.1775 67.1837 -30.5409 -0.815259 0.24154 0.526318 255 255 255 255 0.053242 0.119382
108.702 -30.6161 -6.27708 0.372575 -0.016452 0.927856 255 255 255 255 0.051548 0.068966
82.2556 55.6106 5.87104 0.372575 -0.016452 0.927856 255 255 255 255 0.052671 0.116012
58.7874 -27.9708 13.8126 0.372575 -0.016452 0.927856 255 255 255 255 0.05283 0.061662
99.6865 103.537 -35.0165 -0.687922 0.677872 -0.259333 255 255 255 255 0.052479 0.147884
62.1775 67.1837 -30.5409 -0.687922 0.677872 -0.259333 255 255 255 255 0.053242 0.119382
101.891 108.096 -28.9464 -0.687922 0.677872 -0.259333 255 255 255 255 0.052447 0.151013
115.772 48.7249 -49.1027 0.755321 0.362049 -0.54627 255 255 255 255 0.051783 0.117849
99.6865 103.537 -35.0165 0.755321 0.362049 -0.54627 255 255 255 255 0.052479 0.147884
101.891 108.096 -28.9464 0.755321 0.362049 -0.54627 255 255 255 255 0.052447 0.151013
82.2556 55.6106 5.87104 0.348169 0.373899 0.859638 255 255 255 255 0.052671 0.116012
117.003 47.6331 -4.73233 0.348169 0.373899 0.859638 255 255 255 255 0.051746 0.117413
105.972 103.545 -24.5837 0.348169 0.373899 0.859638 255 255 255 255 0.052319 0.149009
117.003 47.6331 -4.73233 0.982335 0.18575 -0.022677 255 255 255 255 0.051746 0.117413
115.772 48.7249 -49.1027 0.982335 0.18575 -0.022677 255 255 255 255 0.051783 0.117849
105.972 103.545 -24.5837 0.982335 0.18575 -0.022677 255 255 255 255 0.052319 0.149009
-75.8772 -91.4479 -7.47352 -0.907335 -0.35153 0.230587 255 255 255 255 0.053163 0.036248
-115.332 -27.8729 -65.8048 -0.907335 -0.35153 0.230587 255 255 255 255 0.053554 0.070621
-82.0151 -101.238 -46.5506 -0.907335 -0.35153 0.230587 255 255 255 255 0.053326 0.033109
-75.8772 -91.4479 -7.47352 -0.070526 0.07831 0.994431 255 255 255 255 0.053163 0.036248
-54.0862 34.7375 -15.865 -0.070526 0.07831 0.994431 255 255 255 255 0.052112 0.086823
-110.938 16.5929 -18.4681 -0.070526 0.07831 0.994431 255 255 255 255 0.053244 0.089022
-19.0999 -79.3907 -3.83343 0.752756 0.29291 0.589544 255 255 255 255 0.052064 0.031437
-18.9604 10.4164 -48.6313 0.752756 0.29291 0.589544 255 255 255 255 0.051596 0.070141
-54.0862 34.7375 -15.865 0.752756 0.29291 0.589544 255 255 255 255 0.052112 0.086823
-4.34644 -80.7244 -32.765 0.778145 0.015464 -0.627894 255 255 255 255 0.051801 0.02826
-59.0706 -29.918 -99.333 0.778145 0.015464 -0.627894 255 255 255 255 0.052537 0.059819
-18.9604 10.4164 -48.6313 0.778145 0.015464 -0.627894 255 255 255 255 0.051596 0.070141
-82.0151 -101.238 -46.5506 -0.443821 -0.43644 -0.782651 255 255 255 255 0.053326 0.033109
-59.0706 -29.918 -99.333 -0.443821 -0.43644 -0.782651 255 255 255 255 0.052537 0.059819
-37.4817 -93.5659 -76.0826 -0.443821 -0.43644 -0.782651 255 255 255 255 0.052473 0.028565
-75.8772 -91.4479 -7.47352 -0.103266 -0.960891 0.256954 255 255 255 255 0.053163 0.036248
-82.0151 -101.238 -46.5506 -0.103266 -0.960891 0.256954 255 255 255 255 0.053326 0.033109
-40.0122 -101.538 -30.7941 -0.103266 -0.960891 0.256954 255 255 255 255 0.05256 0.025573
-19.0999 -79.3907 -3.83343 0.136943 -0.814893 0.563201 255 255 255 255 0.052064 0.031437
-75.8772 -91.4479 -7.47352 0.136943 -0.814893 0.563201 255 255 255 255 0.053163 0.036248
-40.0122 -101.538 -30.7941 0.136943 -0.814893 0.563201 255 255 255 255 0.05256 0.025573
-4.34644 -80.7244 -32.765 0.494296 -0.819551 0.289842 255 255 255 255 0.051801 0.02826
-19.0999 -79.3907 -3.83343 0.494296 -0.819551 0.289842 255 255 255 255 0.052064 0.031437
-40.0122 -101.538 -30.7941 0.494296 -0.819551 0.289842 255 255 255 255 0.05256 0.025573
-37.4817 -93.5659 -76.0826 0.495052 -0.860008 -0.123735 255 255 255 255 0.052473 0.028565
-4.34644 -80.7244 -32.765 0.495052 -0.860008 -0.123735 255 255 255 255 0.051801 0.02826
-40.0122 -101.538 -30.7941 0.495052 -0.860008 -0.123735 255 255 255 255 0.05256 0.025573
-82.0151 -101.238 -46.5506 0.05674 -0.983806 -0.170019 255 255 255 255 0.053326 0.033109
-37.4817 -93.5659 -76.0826 0.05674 -0.983806 -0.170019 255 255 255 255 0.052473 0.028565
-40.0122 -101.538 -30.7941 0.05674 -0.983806 -0.170019 255 255 255 255 0.05256 0.025573
-123.851 156.429 -85.1346 -0.768226 0.365882 0.525319 255 255 255 255 0.052755 0.151603
-124.076 89.807 -39.0616 -0.768226 0.365882 0.525319 255 255 255 255 0.053104 0.122912
-118.469 163.682 -82.3146 -0.768226 0.365882 0.525319 255 255 255 255 0.052619 0.153781
-124.076 89.807 -39.0616 -0.224736 0.468773 0.854251 255 255 255 255 0.053104 0.122912
-87.6992 109.572 -40.3378 -0.224736 0.468773 0.854251 255 255 255 255 0.052338 0.125022
-113.936 159.223 -74.4862 -0.224736 0.468773 0.854251 255 255 255 255 0.052559 0.151059
-87.6992 109.572 -40.3378 0.65667 0.631043 0.412999 255 255 255 255 0.052338 0.125022
-64.8569 109.305 -76.249 0.65667 0.631043 0.412999 255 255 255 255 0.051922 0.120879
-113.936 159.223 -74.4862 0.65667 0.631043 0.412999 255 255 255 255 0.052559 0.151059
-64.8569 109.305 -76.249 0.502584 0.41065 -0.760773 255 255 255 255 0.051922 0.120879
-95.8311 84.0356 -110.351 0.502584 0.41065 -0.760773 255 255 255 255 0.052618 0.115443
-118.469 163.682 -82.3146 0.502584 0.41065 -0.760773 255 255 255 255 0.052619 0.153781
-95.8311 84.0356 -110.351 0.033696 0.340361 -0.939691 255 255 255 255 0.052618 0.115443
-123.851 156.429 -85.1346 0.033696 0.340361 -0.939691 255 255 255 255 0.052755 0.151603
-118.469 163.682 -82.3146 0.033696 0.340361 -0.939691 255 255 255 255 0.052619 0.153781
-110.938 16.5929 -18.4681 -0.967106 -0.134362 0.215994 255 255 255 255 0.053244 0.089022
-135.003 76.3409 -89.0509 -0.967106 -0.134362 0.215994 255 255 255 255 0.053374 0.119031
-115.332 -27.8729 -65.8048 -0.967106 -0.134362 0.215994 255 255 255 255 0.053554 0.070621
-54.0862 34.7375 -15.865 -0.123197 0.248158 0.960854 255 255 255 255 0.052112 0.086823
-124.076 89.807 -39.0616 -0.123197 0.248158 0.960854 255 255 255 255 0.053104 0.122912
-110.938 16.5929 -18.4681 -0.123197 0.248158 0.960854 255 255 255 255 0.053244 0.089022
-54.0862 34.7375 -15.865 0.739585 0.484857 0.466827 255 255 255 255 0.052112 0.086823
-64.8569 109.305 -76.249 0.739585 0.484857 0.466827 255 255 255 255 0.051922 0.120879
-87.6992 109.572 -40.3378 0.739585 0.484857 0.466827 255 255 255 255 0.052338 0.125022
-18.9604 10.4164 -48.6313 0.688955 0.120136 -0.714778 255 255 255 255 0.051596 0.070141
-95.8311 84.0356 -110.351 0.688955 0.120136 -0.714778 255 255 255 255 0.052618 0.115443
-64.8569 109.305 -76.249 0.688955 0.120136 -0.714778 255 255 255 255 0.051922 0.120879
-115.332 -27.8729 -65.8048 -0.503132 -0.24251 -0.829486 255 255 255 255 0.053554 0.070621
-95.8311 84.0356 -110.351 -0.503132 -0.24251 -0.829486 255 255 255 255 0.052618 0.115443
-59.0706 -29.918 -99.333 -0.503132 -0.24251 -0.829486 255 255 255 255 0.052537 0.059819
-113.936 159.223 -74.4862 0.712778 0.701263 -0.013337 255 255 255 255 0.052559 0.151059
-64.8569 109.305 -76.249 0.712778 0.701263 -0.013337 255 255 255 255 0.051922 0.120879
-118.469 163.682 -82.3146 0.712778 0.701263 -0.013337 255 255 255 255 0.052619 0.153781
-124.076 89.807 -39.0616 -0.6653 0.414179 0.621153 255 255 255 255 0.053104 0.122912
-113.936 159.223 -74.4862 -0.6653 0.414179 0.621153 255 255 255 255 0.052559 0.151059
-118.469 163.682 -82.3146 -0.6653 0.414179 0.621153 255 255 255 255 0.052619 0.153781
-95.8311 84.0356 -110.351 -0.491467 0.110673 -0.863835 255 255 255 255 0.052618 0.115443
-135.003 76.3409 -89.0509 -0.491467 0.110673 -0.863835 255 255 255 255 0.053374 0.119031
-123.851 156.429 -85.1346 -0.491467 0.110673 -0.863835 255 255 255 255 0.052755 0.151603
-135.003 76.3409 -89.0509 -0.975605 0.127088 0.179005 255 255 255 255 0.053374 0.119031
-124.076 89.807 -39.0616 -0.975605 0.127088 0.179005 255 255 255 255 0.053104 0.122912
-123.851 156.429 -85.1346 -0.975605 0.127088 0.179005 255 255 255 255 0.052755 0.151603
-32.7056 12.3961 85.6494 0.489591 -0.12741 0.862593 255 255 255 255 0.052648 0.060114
-17.2109 -14.2359 72.9213 0.489591 -0.12741 0.862593 255 255 255 255 0.052349 0.047982
21.3032 -5.5807 52.3398 0.489591 -0.12741 0.862593 255 255 255 255 0.051606 0.051925
-24.0281 182.863 24.1068 0.398259 0.371369 -0.838734 255 255 255 255 0.05248 0.137774
6.90161 65.7886 -13.0443 0.398259 0.371369 -0.838734 255 255 255 255 0.051884 0.084438
-30.406 65.1849 -31.0265 0.398259 0.371369 -0.838734 255 255 255 255 0.052603 0.084163
31.4451 54.673 57.8244 0.425764 -0.025959 0.904462 255 255 255 255 0.05141 0.079374
-35.0791 166.564 92.3512 0.425764 -0.025959 0.904462 255 255 255 255 0.052694 0.130348
-32.6802 19.2664 86.9944 0.425764 -0.025959 0.904462 255 255 255 255 0.052647 0.063244
21.3032 -5.5807 52.3398 0.48727 -0.784607 0.383354 255 255 255 255 0.051606 0.051925
-30.1538 -36.9076 53.6288 0.48727 -0.784607 0.383354 255 255 255 255 0.052599 0.037653
12.0569 -37.4414 -1.11636 0.48727 -0.784607 0.383354 255 255 255 255 0.051784 0.03741
-13.8125 -26.9844 -43.1959 0.751251 -0.362085 -0.551829 255 255 255 255 0.052283 0.042174
34.5942 8.93502 -0.86448 0.751251 -0.362085 -0.551829 255 255 255 255 0.05135 0.058538
12.0569 -37.4414 -1.11636 0.751251 -0.362085 -0.551829 255 255 255 255 0.051784 0.03741
12.0569 -37.4414 -1.11636 0.643702 -0.55205 0.529989 255 255 255 255 0.051784 0.03741
-13.5122 -60.4127 6.01118 0.643702 -0.55205 0.529989 255 255 255 255 0.052278 0.026945
3.21777 -52.7699 -6.34738 0.643702 -0.55205 0.529989 255 255 255 255 0.051955 0.030427
-42.1294 -41.1479 -28.3277 -0.659437 -0.739607 0.134624 255 255 255 255 0.05283 0.035722
-13.5122 -60.4127 6.01118 -0.659437 -0.739607 0.134624 255 255 255 255 0.052278 0.026945
-30.1538 -36.9076 53.6288 -0.659437 -0.739607 0.134624 255 255 255 255 0.052599 0.037653
12.0569 -37.4414 -1.11636 0.717683 -0.429692 -0.547993 255 255 255 255 0.051784 0.03741
-13.9958 -54.5932 -21.7875 0.717683 -0.429692 -0.547993 255 255 255 255 0.052287 0.029596
-13.8125 -26.9844 -43.1959 0.717683 -0.429692 -0.547993 255 255 255 255 0.052283 0.042174
-24.0281 182.863 24.1068 -0.492493 0.738145 -0.461077 255 255 255 255 0.05248 0.137774
-40.2275 194.333 59.7716 -0.492493 0.738145 -0.461077 255 255 255 255 0.052793 0.142999
-32.6392 201.013 62.3609 -0.492493 0.738145 -0.461077 255 255 255 255 0.052647 0.146042
-58.0906 172.23 40.3339 -0.8225 0.55488 0.124908 255 255 255 255 0.053137 0.13293
-57.8015 167.108 64.9901 -0.8225 0.55488 0.124908 255 255 255 255 0.053132 0.130596
-40.2275 194.333 59.7716 -0.8225 0.55488 0.124908 255 255 255 255 0.052793 0.142999
-35.0791 166.564 92.3512 0.024463 0.655425 0.754864 255 255 255 255 0.052694 0.130348
-8.14722 195.021 66.7695 0.024463 0.655425 0.754864 255 255 255 255 0.052174 0.143313
-32.6392 201.013 62.3609 0.024463 0.655425 0.754864 255 255 255 255 0.052647 0.146042
-8.14722 195.021 66.7695 0.28223 0.889791 -0.358634 255 255 255 255 0.052174 0.143313
-24.0281 182.863 24.1068 0.28223 0.889791 -0.358634 255 255 255 255 0.05248 0.137774
-32.6392 201.013 62.3609 0.28223 0.889791 -0.358634 255 255 255 255 0.052647 0.146042
-72.8804 43.8441 -10.5975 -0.999465 -0.032707 9.9e-05 255 255 255 255 0.053423 0.074441
-71.7209 8.38752 -19.5303 -0.999465 -0.032707 9.9e-05 255 255 255 255 0.0534 0.058288
-72.2964 26.147 38.2066 -0.999465 -0.032707 9.9e-05 255 255 255 255 0.053411 0.066379
-81.3872 85.8598 24.8566 -0.985949 -0.160475 -0.046393 255 255 255 255 0.053587 0.093582
-72.8804 43.8441 -10.5975 -0.985949 -0.160475 -0.046393 255 255 255 255 0.053423 0.074441
-72.2964 26.147 38.2066 -0.985949 -0.160475 -0.046393 255 255 255 255 0.053411 0.066379
32.7017 59.8386 13.7258 0.810836 0.409206 -0.418445 255 255 255 255 0.051386 0.081728
-24.0281 182.863 24.1068 0.810836 0.409206 -0.418445 255 255 255 255 0.05248 0.137774
-8.14722 195.021 66.7695 0.810836 0.409206 -0.418445 255 255 255 255 0.052174 0.143313
34.5942 8.93502 -0.86448 0.726679 0.214115 -0.652758 255 255 255 255 0.05135 0.058538
6.90161 65.7886 -13.0443 0.726679 0.214115 -0.652758 255 255 255 255 0.051884 0.084438
32.7017 59.8386 13.7258 0.726679 0.214115 -0.652758 255 255 255 255 0.051386 0.081728
-30.406 65.1849 -31.0265 0.287401 0.729426 -0.620757 255 255 255 255 0.052603 0.084163
6.90161 65.7886 -13.0443 0.287401 0.729426 -0.620757 255 255 255 255 0.051884 0.084438
-14.0022 43.4117 -49.0165 0.287401 0.729426 -0.620757 255 255 255 255 0.052287 0.074244
-42.1294 -41.1479 -28.3277 -0.211153 -0.747936 -0.629291 255 255 255 255 0.05283 0.035722
-13.9958 -54.5932 -21.7875 -0.211153 -0.747936 -0.629291 255 255 255 255 0.052287 0.029596
-20.4951 -57.278 -16.4157 -0.211153 -0.747936 -0.629291 255 255 255 255 0.052412 0.028373
31.4451 54.673 57.8244 0.961747 0.267565 0.058746 255 255 255 255 0.05141 0.079374
32.7017 59.8386 13.7258 0.961747 0.267565 0.058746 255 255 255 255 0.051386 0.081728
-8.14722 195.021 66.7695 0.961747 0.267565 0.058746 255 255 255 255 0.052174 0.143313
34.5942 8.93502 -0.86448 0.964784 -0.179863 0.191941 255 255 255 255 0.05135 0.058538
31.4451 54.673 57.8244 0.964784 -0.179863 0.191941 255 255 255 255 0.05141 0.079374
21.3032 -5.5807 52.3398 0.964784 -0.179863 0.191941 255 255 255 255 0.051606 0.051925
12.0569 -37.4414 -1.11636 0.894255 -0.435146 0.104674 255 255 255 255 0.051784 0.03741
34.5942 8.93502 -0.86448 0.894255 -0.435146 0.104674 255 255 255 255 0.05135 0.058538
21.3032 -5.5807 52.3398 0.894255 -0.435146 0.104674 255 255 255 255 0.051606 0.051925
-17.2109 -14.2359 72.9213 -0.266427 -0.537412 0.800128 255 255 255 255 0.052349 0.047982
-32.7056 12.3961 85.6494 -0.266427 -0.537412 0.800128 255 255 255 255 0.052648 0.060114
-44.2002 -12.6062 65.0291 -0.266427 -0.537412 0.800128 255 255 255 255 0.052869 0.048724
-30.1538 -36.9076 53.6288 -0.267151 -0.531503 0.803825 255 255 255 255 0.052599 0.037653
-17.2109 -14.2359 72.9213 -0.267151 -0.531503 0.803825 255 255 255 255 0.052349 0.047982
-44.2002 -12.6062 65.0291 -0.267151 -0.531503 0.803825 255 255 255 255 0.052869 0.048724
-81.3872 85.8598 24.8566 -0.966356 0.249344 0.063126 255 255 255 255 0.053587 0.093582
-57.8015 167.108 64.9901 -0.966356 0.249344 0.063126 255 255 255 255 0.053132 0.130596
-58.0906 172.23 40.3339 -0.966356 0.249344 0.063126 255 255 255 255 0.053137 0.13293
-40.2275 194.333 59.7716 -0.649684 0.524812 0.549984 255 255 255 255 0.052793 0.142999
-35.0791 166.564 92.3512 -0.649684 0.524812 0.549984 255 255 255 255 0.052694 0.130348
-32.6392 201.013 62.3609 -0.649684 0.524812 0.549984 255 255 255 255 0.052647 0.146042
-30.1538 -36.9076 53.6288 -0.836913 -0.526513 0.149532 255 255 255 255 0.052599 0.037653
-71.7209 8.38752 -19.5303 -0.836913 -0.526513 0.149532 255 255 255 255 0.0534 0.058288
-42.1294 -41.1479 -28.3277 -0.836913 -0.526513 0.149532 255 255 255 255 0.05283 0.035722
-72.2964 26.147 38.2066 -0.778962 -0.117694 0.615927 255 255 255 255 0.053411 0.066379
-32.7056 12.3961 85.6494 -0.778962 -0.117694 0.615927 255 255 255 255 0.052648 0.060114
-32.6802 19.2664 86.9944 -0.778962 -0.117694 0.615927 255 255 255 255 0.052647 0.063244
-32.6802 19.2664 86.9944 -0.804261 -0.034674 0.593264 255 255 255 255 0.052647 0.063244
-35.0791 166.564 92.3512 -0.804261 -0.034674 0.593264 255 255 255 255 0.052694 0.130348
-81.3872 85.8598 24.8566 -0.804261 -0.034674 0.593264 255 255 255 255 0.053587 0.093582
-30.406 65.1849 -31.0265 -0.618818 0.360519 -0.697918 255 255 255 255 0.052603 0.084163
-81.3872 85.8598 24.8566 -0.618818 0.360519 -0.697918 255 255 255 255 0.053587 0.093582
-24.0281 182.863 24.1068 -0.618818 0.360519 -0.697918 255 255 255 255 0.05248 0.137774
-71.7209 8.38752 -19.5303 -0.553641 0.241407 -0.796997 255 255 255 255 0.0534 0.058288
-30.406 65.1849 -31.0265 -0.553641 0.241407 -0.796997 255 255 255 255 0.052603 0.084163
-14.0022 43.4117 -49.0165 -0.553641 0.241407 -0.796997 255 255 255 255 0.052287 0.074244
-72.2964 26.147 38.2066 -0.846673 -0.51091 0.148714 255 255 255 255 0.053411 0.066379
-71.7209 8.38752 -19.5303 -0.846673 -0.51091 0.148714 255 255 255 255 0.0534 0.058288
-44.2002 -12.6062 65.0291 -0.846673 -0.51091 0.148714 255 255 255 255 0.052869 0.048724
-14.0022 43.4117 -49.0165 0.681403 -0.058488 -0.729568 255 255 255 255 0.052287 0.074244
34.5942 8.93502 -0.86448 0.681403 -0.058488 -0.729568 255 255 255 255 0.05135 0.058538
-13.8125 -26.9844 -43.1959 0.681403 -0.058488 -0.729568 255 255 255 255 0.052283 0.042174
-71.7209 8.38752 -19.5303 -0.425428 -0.094293 -0.900066 255 255 255 255 0.0534 0.058288
-13.8125 -26.9844 -43.1959 -0.425428 -0.094293 -0.900066 255 255 255 255 0.052283 0.042174
-42.1294 -41.1479 -28.3277 -0.425428 -0.094293 -0.900066 255 255 255 255 0.05283 0.035722
3.21777 -52.7699 -6.34738 0.253141 -0.95242 -0.169751 255 255 255 255 0.051955 0.030427
-20.4951 -57.278 -16.4157 0.253141 -0.95242 -0.169751 255 255 255 255 0.052412 0.028373
-13.9958 -54.5932 -21.7875 0.253141 -0.95242 -0.169751 255 255 255 255 0.052287 0.029596
88.8271 -86.2692 -46.4816 0.956667 -0.277173 -0.089237 255 255 255 255 0.051762 0.03202
111.156 -6.92972 -53.5414 0.956667 -0.277173 -0.089237 255 255 255 255 0.051609 0.08362
108.702 -30.6161 -6.27708 0.956667 -0.277173 -0.089237 255 255 255 255 0.051548 0.068966
88.8271 -86.2692 -46.4816 0.248361 -0.149229 -0.957104 255 255 255 255 0.051762 0.03202
43.8965 -79.7209 -59.1618 0.248361 -0.149229 -0.957104 255 255 255 255 0.052938 0.027947
65.7893 4.10641 -66.5509 0.248361 -0.149229 -0.957104 255 255 255 255 0.05282 0.082163
43.8965 -79.7209 -59.1618 -0.795865 0.046399 -0.603693 255 255 255 255 0.052938 0.027947
27.6462 -76.2925 -37.4752 -0.795865 0.046399 -0.603693 255 255 255 255 0.053369 0.02711
33.5571 -8.65506 -40.0691 -0.795865 0.046399 -0.603693 255 255 255 255 0.053572 0.068762
27.6462 -76.2925 -37.4752 -0.894867 0.12059 0.429733 255 255 255 255 0.053369 0.02711
47.5476 -77.4825 4.30095 -0.894867 0.12059 0.429733 255 255 255 255 0.052857 0.029941
58.7874 -27.9708 13.8126 -0.894867 0.12059 0.429733 255 255 255 255 0.05283 0.061662
87.855 -86.6597 -12.2522 0.353108 -0.228085 0.907354 255 255 255 255 0.051784 0.031613
108.702 -30.6161 -6.27708 0.353108 -0.228085 0.907354 255 255 255 255 0.051548 0.068966
58.7874 -27.9708 13.8126 0.353108 -0.228085 0.907354 255 255 255 255 0.05283 0.061662
111.156 -6.92972 -53.5414 0.996332 -0.080283 -0.029611 255 255 255 255 0.051609 0.08362
115.772 48.7249 -49.1027 0.996332 -0.080283 -0.029611 255 255 255 255 0.051783 0.117849
117.003 47.6331 -4.73233 0.996332 -0.080283 -0.029611 255 255 255 255 0.051746 0.117413
65.7893 4.10641 -66.5509 0.272798 0.069639 -0.959548 255 255 255 255 0.05282 0.082163
85.9934 62.0557 -56.6012 0.272798 0.069639 -0.959548 255 255 255 255 0.05261 0.120546
115.772 48.7249 -49.1027 0.272798 0.069639 -0.959548 255 255 255 255 0.051783 0.117849
65.7893 4.10641 -66.5509 -0.673746 0.336894 -0.657699 255 255 255 255 0.05282 0.082163
33.5571 -8.65506 -40.0691 -0.673746 0.336894 -0.657699 255 255 255 255 0.053572 0.068762
62.1775 67.1837 -30.5409 -0.673746 0.336894 -0.657699 255 255 255 255 0.053242 0.119382
33.5571 -8.65506 -40.0691 -0.827526 0.278665 0.487387 255 255 255 255 0.053572 0.068762
58.7874 -27.9708 13.8126 -0.827526 0.278665 0.487387 255 255 255 255 0.05283 0.061662
82.2556 55.6106 5.87104 -0.827526 0.278665 0.487387 255 255 255 255 0.052671 0.116012
108.702 -30.6161 -6.27708 0.281267 -0.048758 0.95839 255 255 255 255 0.051548 0.068966
117.003 47.6331 -4.73233 0.281267 -0.048758 0.95839 255 255 255 255 0.051746 0.117413
82.2556 55.6106 5.87104 0.281267 -0.048758 0.95839 255 255 255 255 0.052671 0.116012
-75.8772 -91.4479 -7.47352 -0.907425 -0.260953 0.329367 255 255 255 255 0.053163 0.036248
-110.938 16.5929 -18.4681 -0.907425 -0.260953 0.329367 255 255 255 255 0.053244 0.089022
-115.332 -27.8729 -65.8048 -0.907425 -0.260953 0.329367 255 255 255 255 0.053554 0.070621
-75.8772 -91.4479 -7.47352 -0.080686 0.080004 0.993524 255 255 255 255 0.053163 0.036248
-19.0999 -79.3907 -3.83343 -0.080686 0.080004 0.993524 255 255 255 255 0.052064 0.031437
-54.0862 34.7375 -15.865 -0.080686 0.080004 0.993524 255 255 255 255 0.052112 0.086823
-19.0999 -79.3907 -3.83343 0.873828 0.215954 0.435647 255 255 255 255 0.052064 0.031437
-4.34644 -80.7244 -32.765 0.873828 0.215954 0.435647 255 255 255 255 0.051801 0.02826
-18.9604 10.4164 -48.6313 0.873828 0.215954 0.435647 255 255 255 255 0.051596 0.070141
-4.34644 -80.7244 -32.765 0.787439 0.042462 -0.614928 255 255 255 255 0.051801 0.02826
-37.4817 -93.5659 -76.0826 0.787439 0.042462 -0.614928 255 255 255 255 0.052473 0.028565
-59.0706 -29.918 -99.333 0.787439 0.042462 -0.614928 255 255 255 255 0.052537 0.059819
-82.0151 -101.238 -46.5506 -0.475994 -0.419078 -0.773177 255 255 255 255 0.053326 0.033109
-115.332 -27.8729 -65.8048 -0.475994 -0.419078 -0.773177 255 255 255 255 0.053554 0.070621
-59.0706 -29.918 -99.333 -0.475994 -0.419078 -0.773177 255 255 255 255 0.052537 0.059819
-110.938 16.5929 -18.4681 -0.96512 -0.105841 0.23946 255 255 255 255 0.053244 0.089022
-124.076 89.807 -39.0616 -0.96512 -0.105841 0.23946 255 255 255 255 0.053104 0.122912
-135.003 76.3409 -89.0509 -0.96512 -0.105841 0.23946 255 255 255 255 0.053374 0.119031
-54.0862 34.7375 -15.865 -0.109842 0.264031 0.958239 255 255 255 255 0.052112 0.086823
-87.6992 109.572 -40.3378 -0.109842 0.264031 0.958239 255 255 255 255 0.052338 0.125022
-124.076 89.807 -39.0616 -0.109842 0.264031 0.958239 255 255 255 255 0.053104 0.122912
-54.0862 34.7375 -15.865 0.753123 0.476285 0.453826 255 255 255 255 0.052112 0.086823
-18.9604 10.4164 -48.6313 0.753123 0.476285 0.453826 255 255 255 255 0.051596 0.070141
-64.8569 109.305 -76.249 0.753123 0.476285 0.453826 255 255 255 255 0.051922 0.120879
-18.9604 10.4164 -48.6313 0.707328 0.16164 -0.688156 255 255 255 255 0.051596 0.070141
-59.0706 -29.918 -99.333 0.707328 0.16164 -0.688156 255 255 255 255 0.052537 0.059819
-95.8311 84.0356 -110.351 0.707328 0.16164 -0.688156 255 255 255 255 0.052618 0.115443
-115.332 -27.8729 -65.8048 -0.417853 -0.272214 -0.866775 255 255 255 255 0.053554 0.070621
-135.003 76.3409 -89.0509 -0.417853 -0.272214 -0.866775 255 255 255 255 0.053374 0.119031
-95.8311 84.0356 -110.351 -0.417853 -0.272214 -0.866775 255 255 255 255 0.052618 0.115443
21.3032 -5.5807 52.3398 0.480327 -0.159356 0.862491 255 255 255 255 0.051606 0.051925
31.4451 54.673 57.8244 0.480327 -0.159356 0.862491 255 255 255 255 0.05141 0.079374
-32.6802 19.2664 86.9944 0.480327 -0.159356 0.862491 255 255 255 255 0.052647 0.063244
-32.6802 19.2664 86.9944 0.475447 -0.170702 0.863024 255 255 255 255 0.052647 0.063244
-32.7056 12.3961 85.6494 0.475447 -0.170702 0.863024 255 255 255 255 0.052648 0.060114
21.3032 -5.5807 52.3398 0.475447 -0.170702 0.863024 255 255 255 255 0.051606 0.051925
31.4451 54.673 57.8244 0.61213 0.122895 0.781149 255 255 255 255 0.05141 0.079374
-8.14722 195.021 66.7695 0.61213 0.122895 0.781149 255 255 255 255 0.052174 0.143313
-35.0791 166.564 92.3512 0.61213 0.122895 0.781149 255 255 255 255 0.052694 0.130348
21.3032 -5.5807 52.3398 0.448051 -0.713814 0.538256 255 255 255 255 0.051606 0.051925
-17.2109 -14.2359 72.9213 0.448051 -0.713814 0.538256 255 255 255 255 0.052349 0.047982
-30.1538 -36.9076 53.6288 0.448051 -0.713814 0.538256 255 255 255 255 0.052599 0.037653
12.0569 -37.4414 -1.11636 0.650025 -0.566309 0.506716 255 255 255 255 0.051784 0.03741
-30.1538 -36.9076 53.6288 0.650025 -0.566309 0.506716 255 255 255 255 0.052599 0.037653
-13.5122 -60.4127 6.01118 0.650025 -0.566309 0.506716 255 255 255 255 0.052278 0.026945
-42.1294 -41.1479 -28.3277 -0.625645 -0.775305 0.086435 255 255 255 255 0.05283 0.035722
-20.4951 -57.278 -16.4157 -0.625645 -0.775305 0.086435 255 255 255 255 0.052412 0.028373
-13.5122 -60.4127 6.01118 -0.625645 -0.775305 0.086435 255 255 255 255 0.052278 0.026945
12.0569 -37.4414 -1.11636 0.669428 -0.136846 -0.730164 255 255 255 255 0.051784 0.03741
3.21777 -52.7699 -6.34738 0.669428 -0.136846 -0.730164 255 255 255 255 0.051955 0.030427
-13.9958 -54.5932 -21.7875 0.669428 -0.136846 -0.730164 255 255 255 255 0.052287 0.029596
-24.0281 182.863 24.1068 -0.455168 0.766429 -0.45322 255 255 255 255 0.05248 0.137774
-58.0906 172.23 40.3339 -0.455168 0.766429 -0.45322 255 255 255 255 0.053137 0.13293
-40.2275 194.333 59.7716 -0.455168 0.766429 -0.45322 255 255 255 255 0.052793 0.142999
32.7017 59.8386 13.7258 0.707416 0.376673 -0.598063 255 255 255 255 0.051386 0.081728
6.90161 65.7886 -13.0443 0.707416 0.376673 -0.598063 255 255 255 255 0.051884 0.084438
-24.0281 182.863 24.1068 0.707416 0.376673 -0.598063 255 255 255 255 0.05248 0.137774
34.5942 8.93502 -0.86448 0.764497 0.244606 -0.596416 255 255 255 255 0.05135 0.058538
-14.0022 43.4117 -49.0165 0.764497 0.244606 -0.596416 255 255 255 255 0.052287 0.074244
6.90161 65.7886 -13.0443 0.764497 0.244606 -0.596416 255 255 255 255 0.051884 0.084438
-42.1294 -41.1479 -28.3277 -0.108205 -0.608733 -0.785962 255 255 255 255 0.05283 0.035722
-13.8125 -26.9844 -43.1959 -0.108205 -0.608733 -0.785962 255 255 255 255 0.052283 0.042174
-13.9958 -54.5932 -21.7875 -0.108205 -0.608733 -0.785962 255 255 255 255 0.052287 0.029596
34.5942 8.93502 -0.86448 0.999102 0.028045 0.031754 255 255 255 255 0.05135 0.058538
32.7017 59.8386 13.7258 0.999102 0.028045 0.031754 255 255 255 255 0.051386 0.081728
31.4451 54.673 57.8244 0.999102 0.028045 0.031754 255 255 255 255 0.05141 0.079374
-40.2275 194.333 59.7716 -0.64969 0.524808 0.549981 255 255 255 255 0.052793 0.142999
-57.8015 167.108 64.9901 -0.64969 0.524808 0.549981 255 255 255 255 0.053132 0.130596
-35.0791 166.564 92.3512 -0.64969 0.524808 0.549981 255 255 255 255 0.052694 0.130348
-30.1538 -36.9076 53.6288 -0.829061 -0.542588 0.135117 255 255 255 255 0.052599 0.037653
-44.2002 -12.6062 65.0291 -0.829061 -0.542588 0.135117 255 255 255 255 0.052869 0.048724
-71.7209 8.38752 -19.5303 -0.829061 -0.542588 0.135117 255 255 255 255 0.0534 0.058288
-72.2964 26.147 38.2066 -0.779909 -0.143827 0.609143 255 255 255 255 0.053411 0.066379
-44.2002 -12.6062 65.0291 -0.779909 -0.143827 0.609143 255 255 255 255 0.052869 0.048724
-32.7056 12.3961 85.6494 -0.779909 -0.143827 0.609143 255 255 255 255 0.052648 0.060114
-57.8015 167.108 64.9901 -0.766998 -0.091088 0.635152 255 255 255 255 0.053132 0.130596
-81.3872 85.8598 24.8566 -0.766998 -0.091088 0.635152 255 255 255 255 0.053587 0.093582
-35.0791 166.564 92.3512 -0.766998 -0.091088 0.635152 255 255 255 255 0.052694 0.130348
-72.2964 26.147 38.2066 -0.774467 0.02343 0.63218 255 255 255 255 0.053411 0.066379
-32.6802 19.2664 86.9944 -0.774467 0.02343 0.63218 255 255 255 255 0.052647 0.063244
-81.3872 85.8598 24.8566 -0.774467 0.02343 0.63218 255 255 255 255 0.053587 0.093582
-58.0906 172.23 40.3339 -0.482596 0.278947 -0.830235 255 255 255 255 0.053137 0.13293
-24.0281 182.863 24.1068 -0.482596 0.278947 -0.830235 255 255 255 255 0.05248 0.137774
-81.3872 85.8598 24.8566 -0.482596 0.278947 -0.830235 255 255 255 255 0.053587 0.093582
-30.406 65.1849 -31.0265 -0.562315 0.463827 -0.684592 255 255 255 255 0.052603 0.084163
-72.8804 43.8441 -10.5975 -0.562315 0.463827 -0.684592 255 255 255 255 0.053423 0.074441
-81.3872 85.8598 24.8566 -0.562315 0.463827 -0.684592 255 255 255 255 0.053587 0.093582
-71.7209 8.38752 -19.5303 -0.503153 0.19562 -0.841766 255 255 255 255 0.0534 0.058288
-72.8804 43.8441 -10.5975 -0.503153 0.19562 -0.841766 255 255 255 255 0.053423 0.074441
-30.406 65.1849 -31.0265 -0.503153 0.19562 -0.841766 255 255 255 255 0.052603 0.084163
-71.7209 8.38752 -19.5303 -0.416647 -0.076025 -0.905884 255 255 255 255 0.0534 0.058288
-14.0022 43.4117 -49.0165 -0.416647 -0.076025 -0.905884 255 255 255 255 0.052287 0.074244
-13.8125 -26.9844 -43.1959 -0.416647 -0.076025 -0.905884 255 255 255 255 0.052283 0.042174
3.21777 -52.7699 -6.34738 0.269801 -0.938562 -0.215194 255 255 255 255 0.051955 0.030427
-13.5122 -60.4127 6.01118 0.269801 -0.938562 -0.215194 255 255 255 255 0.052278 0.026945
-20.4951 -57.278 -16.4157 0.269801 -0.938562 -0.215194 255 255 255 255 0.052412 0.028373
3 0 1 2 
3 3 4 5 
3 6 7 8 
3 9 10 11 
3 12 13 14 
3 15 16 17 
3 18 19 20 
3 21 22 23 
3 24 25 26 
3 27 28 29 
3 30 31 32 
3 33 34 35 
3 36 37 38 
3 39 40 41 
3 42 43 44 
3 45 46 47 
3 48 49 50 
3 51 52 53 
3 54 55 56 
3 57 58 59 
3 60 61 62 
3 63 64 65 
3 66 67 68 
3 69 70 71 
3 72 73 74 
3 75 76 77 
3 78 79 80 
3 81 82 83 
3 84 85 86 
3 87 88 89 
3 90 91 92 
3 93 94 95 
3 96 97 98 
3 99 100 101 
3 102 103 104 
3 105 106 107 
3 108 109 110 
3 111 112 113 
3 114 115 116 
3 117 118 119 
3 120 121 122 
3 123 124 125 
3 126 127 128 
3 129 130 131 
3 132 133 134 
3 135 136 137 
3 138 139 140 
3 141 142 143 
3 144 145 146 
3 147 148 149 
3 150 151 152 
3 153 154 155 
3 156 157 158 
3 159 160 161 
3 162 163 164 
3 165 166 167 
3 168 169 170 
3 171 172 173 
3 174 175 176 
3 177 178 179 
3 180 181 182 
3 183 184 185 
3 186 187 188 
3 189 190 191 
3 192 193 194 
3 195 196 197 
3 198 199 200 
3 201 202 203 
3 204 205 206 
3 207 208 209 
3 210 211 212 
3 213 214 215 
3 216 217 218 
3 219 220 221 
3 222 223 224 
3 225 226 227 
3 228 229 230 
3 231 232 233 
3 234 235 236 
3 237 238 239 
3 240 241 242 
3 243 244 245 
3 246 247 248 
3 249 250 251 
3 252 253 254 
3 255 256 257 
3 258 259 260 
3 261 262 263 
3 264 265 266 
3 267 268 269 
3 270 271 272 
3 273 274 275 
3 276 277 278 
3 279 280 281 
3 282 283 284 
3 285 286 287 
3 288 289 290 
3 291 292 293 
3 294 295 296 
3 297 298 299 
3 300 301 302 
3 303 304 305 
3 306 307 308 
3 309 310 311 
3 312 313 314 
3 315 316 317 
3 318 319 320 
3 321 322 323 
3 324 325 326 
3 327 328 329 
3 330 331 332 
3 333 334 335 
3 336 337 338 
3 339 340 341 
3 342 343 344 
3 345 346 347 
3 348 349 350 
3 351 352 353 
3 354 355 356 
3 357 358 359 
3 360 361 362 
3 363 364 365 
3 366 367 368 
3 369 370 371 
