ply
format ascii 1.0
comment VCGLIB generated
comment TextureFile dummy.png
element vertex 458
property float x
property float y
property float z
property float nx
property float ny
property float nz
property uchar red
property uchar green
property uchar blue
property uchar alpha
property float texture_u
property float texture_v
element face 206
property list uchar int vertex_indices
end_header
-16.6512 -6.199999e-05 79.6082 -0.780595 -0.060954 0.622058 255 255 255 255 0.048639 0.850379
-32.6227 66.5155 66.0839 -0.780595 -0.060954 0.622058 255 255 255 255 0.0485 0.850376
-42.1605 35.0863 51.0357 -0.780595 -0.060954 0.622058 255 255 255 255 0.048536 0.850078
-42.1605 35.0863 51.0357 -0.7459623 -0 0.6659883 255 255 255 255 0.048536 0.850078
-42.1605 -6.599999e-05 51.0357 -0.7459623 -0 0.6659883 255 255 255 255 0.048618 0.849959
-16.6512 -6.199999e-05 79.6082 -0.7459623 -0 0.6659883 255 255 255 255 0.048639 0.850379
-16.6512 -6.199999e-05 0.01057373 0 -1 -0 255 255 255 255 0.048902 0.850463
-42.1605 -6.599999e-05 51.0357 0 -1 -0 255 255 255 255 0.048618 0.849959
-42.1605 -6.599999e-05 0.01057484 0 -1 -0 255 255 255 255 0.048908 0.850043
-42.1605 35.0863 51.0357 -1 0 4.371139e-08 255 255 255 255 0.048536 0.850078
-42.1605 -6.599999e-05 0.01057484 -1 0 4.371139e-08 255 255 255 255 0.048908 0.850043
-42.1605 -6.599999e-05 51.0357 -1 0 4.371139e-08 255 255 255 255 0.048618 0.849959
-16.6512 74.24059 79.6082 -0.4354202 0.9002274 1.903282e-08 255 255 255 255 0.048516 0.850575
-16.6512 74.24059 0.01057373 -0.4354202 0.9002274 1.903282e-08 255 255 255 255 0.048788 0.850665
-32.6227 66.5155 66.0839 -0.4354202 0.9002274 1.903282e-08 255 255 255 255 0.0485 0.850376
-42.1605 57.91999 47.175 -0.5389291 0.8423511 2.355734e-08 255 255 255 255 0.04852 0.850167
-16.6512 74.24059 0.01057373 -0.5389291 0.8423511 2.355734e-08 255 255 255 255 0.048788 0.850665
-42.1605 57.91999 0.01057484 -0.5389291 0.8423511 2.355734e-08 255 255 255 255 0.048782 0.850247
-16.6512 -6.199999e-05 0.01057373 -4.371139e-08 0 -1 255 255 255 255 0.048902 0.850463
-42.1605 57.91999 0.01057484 -4.371139e-08 0 -1 255 255 255 255 0.048782 0.850247
-16.6512 74.24059 0.01057373 -4.371139e-08 0 -1 255 255 255 255 0.048788 0.850665
-16.65118 74.24059 329.608 -0.6990529 -0 0.71507 255 255 255 255 0.048516 0.850575
-36.26558 62.7521 310.433 -0.6990529 -0 0.71507 255 255 255 255 0.048492 0.850279
-16.65118 -6.199999e-05 329.608 -0.6990529 -0 0.71507 255 255 255 255 0.048639 0.850379
-16.65118 -6.199999e-05 329.608 -0.7299178 -0 0.6835349 255 255 255 255 0.048639 0.850379
-42.16049 45.0677 302.368 -0.7299178 -0 0.6835349 255 255 255 255 0.048514 0.850111
-42.16049 -6.599999e-05 302.368 -0.7299178 -0 0.6835349 255 255 255 255 0.048618 0.849959
-16.65119 -6.199999e-05 170.413 0 -1 -0 255 255 255 255 0.049165 0.850546
-42.16049 -6.599999e-05 302.368 0 -1 -0 255 255 255 255 0.048618 0.849959
-42.16049 -6.599999e-05 197.653 0 -1 -0 255 255 255 255 0.049197 0.850127
-42.16049 52.5763 197.653 -0.9022285 0.3355021 -0.2709651 255 255 255 255 0.049093 0.850318
-42.16049 57.9199 204.27 -0.9022285 0.3355021 -0.2709651 255 255 255 255 0.049045 0.850327
-33.08869 66.0341 184.11 -0.9022285 0.3355021 -0.2709651 255 255 255 255 0.049071 0.850547
-42.16048 57.91999 448.985 -0.7459618 0 -0.6659887 255 255 255 255 0.049082 0.850339
-16.65118 -6.199999e-05 420.413 -0.7459618 0 -0.6659887 255 255 255 255 0.049165 0.850546
-42.16048 -6.599999e-05 448.985 -0.7459618 0 -0.6659887 255 255 255 255 0.049197 0.850127
-42.16048 -6.599999e-05 448.985 -1 -0 4.371139e-08 255 255 255 255 0.049197 0.850127
-42.16048 57.91999 500.011 -1 -0 4.371139e-08 255 255 255 255 0.048782 0.850247
-42.16048 57.91999 448.985 -1 -0 4.371139e-08 255 255 255 255 0.049082 0.850339
-42.16048 -6.599999e-05 448.985 0 -1 -0 255 255 255 255 0.049197 0.850127
-16.65118 -6.199999e-05 500.011 0 -1 -0 255 255 255 255 0.048902 0.850463
-42.16048 -6.599999e-05 500.011 0 -1 -0 255 255 255 255 0.048908 0.850043
-42.16048 57.91999 448.985 -0.5389291 0.8423511 2.355734e-08 255 255 255 255 0.049082 0.850339
-16.65118 74.24059 500.011 -0.5389291 0.8423511 2.355734e-08 255 255 255 255 0.048788 0.850665
-16.65118 74.24059 420.413 -0.5389291 0.8423511 2.355734e-08 255 255 255 255 0.04906 0.850756
-16.65118 -6.199999e-05 500.011 4.371139e-08 0 1 255 255 255 255 0.048902 0.850463
-42.16048 57.91999 500.011 4.371139e-08 0 1 255 255 255 255 0.048782 0.850247
-42.16048 -6.599999e-05 500.011 4.371139e-08 0 1 255 255 255 255 0.048908 0.850043
-31.19539 428.541 310.946 -0.5631618 -0 0.8263467 255 255 255 255 0.148346 0.723947
-16.65119 500 320.858 -0.5631618 -0 0.8263467 255 255 255 255 0.151251 0.739053
-31.19539 500 310.946 -0.5631618 -0 0.8263467 255 255 255 255 0.148346 0.739053
-16.65119 500 179.142 -0.5631671 0 -0.8263431 255 255 255 255 0.088051 0.739053
-31.19539 428.541 189.055 -0.5631671 0 -0.8263431 255 255 255 255 0.090956 0.723947
-31.19539 500 189.055 -0.5631671 0 -0.8263431 255 255 255 255 0.090956 0.739053
-31.19539 428.541 310.946 -1 0 4.371139e-08 255 255 255 255 0.148346 0.973947
-31.19539 500 189.055 -1 0 4.371139e-08 255 255 255 255 0.090956 0.989053
-31.19539 428.541 189.055 -1 0 4.371139e-08 255 255 255 255 0.090956 0.973947
-16.65119 421.015 179.142 -0.6429065 -0.5730084 -0.5082644 255 255 255 255 0.088051 0.720403
-31.19539 375.641 248.694 -0.6429065 -0.5730084 -0.5082644 255 255 255 255 0.119055 0.699039
-31.19539 428.541 189.055 -0.6429065 -0.5730084 -0.5082644 255 255 255 255 0.090956 0.723947
-16.65119 421.015 320.858 -0.7157201 -0.51712 0.4693951 255 255 255 255 0.151251 0.720403
-31.19539 375.641 248.694 -0.7157201 -0.51712 0.4693951 255 255 255 255 0.119055 0.699039
-16.65119 356.697 250 -0.7157201 -0.51712 0.4693951 255 255 255 255 0.119651 0.69012
-31.19539 500 189.055 0 1 0 255 255 255 255 0.090956 0.989053
-16.65119 500 320.858 0 1 0 255 255 255 255 0.151251 0.989053
-16.65119 500 179.142 0 1 0 255 255 255 255 0.088051 0.989053
-31.19539 375.641 248.694 -1 0 4.371139e-08 255 255 255 255 0.119036 0.949039
-42.16049 439.375 286.899 -0.6265861 -0 0.7793522 255 255 255 255 0.137025 0.727254
-31.19539 500 295.715 -0.6265861 -0 0.7793522 255 255 255 255 0.141175 0.739053
-42.16049 500 286.899 -0.6265861 -0 0.7793522 255 255 255 255 0.137025 0.739053
-31.19539 500 204.285 -0.6265863 0 -0.7793522 255 255 255 255 0.098127 0.739053
-42.16049 439.375 213.101 -0.6265863 0 -0.7793522 255 255 255 255 0.102278 0.727254
-42.16049 500 213.101 -0.6265862 0 -0.7793521 255 255 255 255 0.102278 0.739053
-42.16049 439.375 286.899 -1 0 4.371139e-08 255 255 255 255 0.137025 0.977254
-42.16049 500 213.101 -1 0 4.371139e-08 255 255 255 255 0.102278 0.989053
-42.16049 439.375 213.101 -1 0 4.371139e-08 255 255 255 255 0.102278 0.977254
-42.16049 418.934 236.97 -0.9596397 -0.2791339 -0.03429195 255 255 255 255 0.113516 0.718119
-37.50909 401.342 250 -0.9596397 -0.2791339 -0.03429195 255 255 255 255 0.119651 0.71081
-42.16049 416.135 259.76 -0.9596397 -0.2791339 -0.03429195 255 255 255 255 0.124247 0.717022
-42.16049 500 286.899 0 1 0 255 255 255 255 0.137025 0.989053
-31.19539 500 204.285 0 1 0 255 255 255 255 0.098127 0.989053
-42.16049 500 213.101 0 1 0 255 255 255 255 0.102278 0.989053
-16.65118 421.015 429.143 -0.248921 0 -0.9685239 255 255 255 255 0.151251 0.720403
-28.03908 423.237 432.069 -0.248921 0 -0.9685239 255 255 255 255 0.150393 0.721449
-16.65118 500 429.143 -0.248921 0 -0.9685239 255 255 255 255 0.151251 0.739053
-16.65118 500 429.143 -0.5631618 0 -0.8263466 255 255 255 255 0.151251 0.739053
-31.19538 444.818 439.055 -0.5631618 0 -0.8263466 255 255 255 255 0.148346 0.727086
-31.19538 500 439.055 -0.5631618 0 -0.8263466 255 255 255 255 0.148346 0.739053
-16.65118 356.697 500 -0.694194 -0.532966 -0.483779 255 255 255 255 0.119651 0.69012
-31.19538 375.641 500 -0.694194 -0.532966 -0.483779 255 255 255 255 0.119651 0.699039
-16.65118 421.015 429.143 -0.694194 -0.532966 -0.483779 255 255 255 255 0.151251 0.720403
-16.65118 421.015 429.143 -0.2143351 -0.9720424 -0.09588604 255 255 255 255 0.151251 0.720403
-31.19538 422.565 445.939 -0.2143351 -0.9720424 -0.09588604 255 255 255 255 0.145105 0.721133
-28.03908 423.237 432.069 -0.2143351 -0.9720424 -0.09588604 255 255 255 255 0.150393 0.721449
-42.16048 444.997 463.101 -0.6265863 0 -0.7793522 255 255 255 255 0.137025 0.72853
-31.19538 500 454.285 -0.6265863 0 -0.7793522 255 255 255 255 0.141175 0.739053
-31.19538 435.566 454.285 -0.6265862 0 -0.7793521 255 255 255 255 0.141175 0.727254
-42.16048 407.776 500 -0.598191 -0.613012 -0.516124 255 255 255 255 0.119651 0.713342
-31.19538 435.566 454.285 -0.598191 -0.613012 -0.516124 255 255 255 255 0.141175 0.727254
-31.19538 397.076 500 -0.598191 -0.613012 -0.516124 255 255 255 255 0.119651 0.709132
-42.16048 444.997 463.101 -1 -0 4.371139e-08 255 255 255 255 0.137025 0.976897
-42.16048 500 500 -1 -0 4.371139e-08 255 255 255 255 0.119651 0.989053
-42.16048 500 463.101 -1 -0 4.371139e-08 255 255 255 255 0.137025 0.989053
-31.19538 500 500 0 1 0 255 255 255 255 0.119651 0.989053
-42.16048 500 463.101 0 1 0 255 255 255 255 0.137025 0.989053
-42.16048 500 500 0 1 0 255 255 255 255 0.119651 0.989053
-31.19538 422.565 445.939 -1 0 4.371139e-08 255 255 255 255 0.145105 0.970615
-31.19538 500 500 -1 0 4.371139e-08 255 255 255 255 0.119651 0.989053
-31.19538 444.818 439.055 -1 0 4.371139e-08 255 255 255 255 0.148346 0.97668
-31.19538 500 439.055 -1 -0 4.371139e-08 255 255 255 255 0.148346 0.989053
-16.65118 500 500 0 1 0 255 255 255 255 0.119651 0.989053
-31.19538 500 439.055 0 1 0 255 255 255 255 0.148346 0.989053
-31.19538 500 500 4.371139e-08 0 1 255 255 255 255 0.119651 0.989053
-42.16048 407.776 500 4.371139e-08 0 1 255 255 255 255 0.119651 0.963342
-31.19538 397.076 500 4.371139e-08 0 1 255 255 255 255 0.119651 0.959132
-16.65118 500 500 4.371139e-08 0 1 255 255 255 255 0.119651 0.989053
-31.19538 375.641 500 4.371139e-08 0 1 255 255 255 255 0.119651 0.949039
-16.65118 356.697 500 4.371139e-08 0 1 255 255 255 255 0.119651 0.94012
-31.1954 426.305 57.3881 -0.562714 -0.039859 0.8256902 255 255 255 255 0.146507 0.722507
-16.6512 500 70.8575 -0.562714 -0.039859 0.8256902 255 255 255 255 0.151251 0.739053
-31.1954 500 60.9456 -0.562714 -0.039859 0.8256902 255 255 255 255 0.148346 0.739053
-16.6512 421.015 70.8575 -0.694194 -0.5329659 0.483779 255 255 255 255 0.151251 0.720403
-31.1954 375.641 1.636359e-05 -0.694194 -0.5329659 0.483779 255 255 255 255 0.119651 0.699039
-16.6512 356.697 1.572785e-05 -0.694194 -0.5329659 0.483779 255 255 255 255 0.119651 0.69012
-42.1605 439.375 38.7688 -0.6264058 0.02402399 0.7791268 255 255 255 255 0.137905 0.7279
-31.1954 500 45.7152 -0.6264058 0.02402399 0.7791268 255 255 255 255 0.141175 0.739053
-42.1605 500 36.8994 -0.6264058 0.02402399 0.7791268 255 255 255 255 0.137025 0.739053
-31.1954 435.566 45.7152 -0.598191 -0.613012 0.516124 255 255 255 255 0.141175 0.727254
-42.1605 407.776 1.684289e-05 -0.598191 -0.613012 0.516124 255 255 255 255 0.119651 0.713342
-31.1954 397.076 1.636359e-05 -0.598191 -0.613012 0.516124 255 255 255 255 0.119651 0.709132
-42.1605 439.375 38.7688 -1 0 4.371139e-08 255 255 255 255 0.137905 0.975622
-42.1605 500 1.684289e-05 -1 0 4.371139e-08 255 255 255 255 0.119651 0.989053
-42.1605 407.776 1.684289e-05 -1 0 4.371139e-08 255 255 255 255 0.119651 0.963342
-31.1954 500 4.73636e-05 0 1 0 255 255 255 255 0.119651 0.989053
-42.1605 500 36.8994 0 1 0 255 255 255 255 0.137025 0.989053
-31.1954 500 45.7152 0 1 0 255 255 255 255 0.141175 0.989053
-31.1954 426.305 57.3881 -1 -0 4.371139e-08 255 255 255 255 0.146671 0.970052
-31.1954 500 4.73636e-05 -1 -0 4.371139e-08 255 255 255 255 0.119651 0.989053
-31.1954 375.641 1.636359e-05 -1 -0 4.371139e-08 255 255 255 255 0.119651 0.949039
-16.6512 500 1.672785e-05 0 1 0 255 255 255 255 0.119651 0.989053
-31.1954 500 60.9456 0 1 0 255 255 255 255 0.148346 0.989053
-16.6512 500 70.8575 0 1 0 255 255 255 255 0.151251 0.989053
-42.1605 407.776 1.684289e-05 -4.371139e-08 0 -1 255 255 255 255 0.119651 0.963342
-31.1954 500 4.73636e-05 -4.371139e-08 0 -1 255 255 255 255 0.119651 0.989053
-31.1954 397.076 1.636359e-05 -4.371139e-08 0 -1 255 255 255 255 0.119651 0.959132
-31.1954 375.641 1.636359e-05 -4.371139e-08 0 -1 255 255 255 255 0.119651 0.949039
-16.6512 500 1.672785e-05 -4.371139e-08 0 -1 255 255 255 255 0.119651 0.989053
-16.6512 356.697 1.572785e-05 -4.371139e-08 0 -1 255 255 255 255 0.119651 0.94012
14.23922 2e-06 500 4.371139e-08 0 1 255 255 255 255 0.237346 0.753493
-31.19538 315.361 500 4.371139e-08 0 1 255 255 255 255 0.237346 0.90208
-31.19528 -4.999999e-06 500 4.371139e-08 0 1 255 255 255 255 0.237346 0.753493
-31.1954 315.361 1.736359e-05 -4.371139e-08 0 -1 255 255 255 255 0.001764 0.90208
14.2392 2e-06 1.537759e-05 -4.371139e-08 0 -1 255 255 255 255 0.001764 0.753493
-31.1953 -4.999999e-06 1.836359e-05 -4.371139e-08 0 -1 255 255 255 255 0.001764 0.753493
-16.6512 500 1.672785e-05 0 1 0 255 255 255 255 0.001764 0.989076
14.23912 500 500 0 1 0 255 255 255 255 0.237346 0.989076
14.2391 500 1.537759e-05 0 1 0 255 255 255 255 0.001764 0.989076
-31.1953 -4.999999e-06 1.836359e-05 0 -1 -0 255 255 255 255 0.001764 0.753493
14.2392 2e-06 1.537759e-05 0 -1 -0 255 255 255 255 0.001764 0.753493
-31.1953 -4.999999e-06 43.0108 0 -1 -0 255 255 255 255 0.022029 0.753493
-31.19528 -4.999999e-06 456.989 0 -1 -0 255 255 255 255 0.217081 0.753493
14.23922 2e-06 500 0 -1 -0 255 255 255 255 0.237346 0.753493
-31.19528 -4.999999e-06 500 0 -1 -0 255 255 255 255 0.237346 0.753493
-31.19538 315.361 500 -0.9120774 0.4100181 3.986817e-08 255 255 255 255 0.237346 0.90208
-16.65118 347.714 378.681 -0.9120774 0.4100181 3.986817e-08 255 255 255 255 0.180185 0.917324
-31.19538 315.361 374.194 -0.9120774 0.4100181 3.986817e-08 255 255 255 255 0.178071 0.90208
-31.19539 315.361 125.807 -0.8912595 0.4534937 -0.0001659609 255 255 255 255 0.061039 0.90208
-26.21969 325.168 204.711 -0.8912595 0.4534937 -0.0001659609 255 255 255 255 0.098216 0.907064
-16.6512 343.898 1.672785e-05 -0.8912595 0.4534937 -0.0001659609 255 255 255 255 0.001764 0.915526
-16.6512 343.898 1.672785e-05 -0.890964 0.454074 3.894527e-08 255 255 255 255 0.001764 0.915526
-31.1954 315.361 1.736359e-05 -0.890964 0.454074 3.894527e-08 255 255 255 255 0.001764 0.90208
-31.19539 315.361 125.807 -0.890964 0.454074 3.894527e-08 255 255 255 255 0.061039 0.90208
-31.19539 315.361 125.807 -1 -0 4.371139e-08 255 255 255 255 0.061039 0.90208
-31.1954 315.361 1.736359e-05 -1 -0 4.371139e-08 255 255 255 255 0.001764 0.90208
-31.1953 225.285 43.0108 -1 -0 4.371139e-08 255 255 255 255 0.022029 0.85964
-31.19529 225.285 208.602 -1 -0 4.371139e-08 255 255 255 255 0.10005 0.85964
-31.19539 315.361 160.498 -1 -0 4.371139e-08 255 255 255 255 0.077385 0.90208
-31.19538 315.361 500 -1 -0 4.371139e-08 255 255 255 255 0.237346 0.90208
-31.19538 315.361 374.194 -1 -0 4.371139e-08 255 255 255 255 0.178071 0.90208
-31.19528 225.285 456.989 -1 -0 4.371139e-08 255 255 255 255 0.217081 0.85964
-16.6512 343.898 1.672785e-05 -4.371139e-08 0 -1 255 255 255 255 0.001764 0.915526
14.2391 500 1.537759e-05 -4.371139e-08 0 -1 255 255 255 255 0.001764 0.989076
14.2391 500 1.537759e-05 1 0 -4.371139e-08 255 255 255 255 0.001764 0.989076
14.23922 2e-06 500 1 0 -4.371139e-08 255 255 255 255 0.237346 0.753493
14.2392 2e-06 1.537759e-05 1 0 -4.371139e-08 255 255 255 255 0.001764 0.753493
-16.65118 343.898 500 1.043711e-06 0 1 255 255 255 255 0.237346 0.915526
14.23912 500 500 1.043711e-06 0 1 255 255 255 255 0.237346 0.989076
-16.65118 500 500 1.043711e-06 0 1 255 255 255 255 0.237346 0.989076
-16.65118 500 500 -1 0 4.371139e-08 255 255 255 255 0.237346 0.989076
-16.65119 343.898 236.667 -1 0 4.371139e-08 255 255 255 255 0.113273 0.915526
-16.65118 347.714 378.681 -1 0 4.371139e-08 255 255 255 255 0.180185 0.917324
-16.6512 500 1.672785e-05 -1 0 4.371139e-08 255 255 255 255 0.001764 0.989076
-16.6512 343.898 1.672785e-05 -1 0 4.371139e-08 255 255 255 255 0.001764 0.915526
-31.1953 149.871 33.5871 -1 -0 4.371139e-08 255 255 255 255 0.017589 0.824107
-31.1953 -4.999999e-06 1.836359e-05 -1 0 4.371139e-08 255 255 255 255 0.001764 0.753493
-31.1953 126.355 43.0108 -1 0 4.371139e-08 255 255 255 255 0.022029 0.813027
-31.1953 171.133 43.0108 -1 0 4.371139e-08 255 255 255 255 0.022029 0.834125
-16.6512 218.976 63.7118 -1 0 4.371139e-08 255 255 255 255 0.031782 0.856667
-16.65119 218.976 187.901 -1 0 4.371139e-08 255 255 255 255 0.090296 0.856667
-16.65119 285.754 122.714 -1 0 4.371139e-08 255 255 255 255 0.059582 0.88813
-31.19529 146.474 211.19 -1 0 4.371139e-08 255 255 255 255 0.101269 0.822507
-31.19539 232.242 291.398 -1 0 4.371139e-08 255 255 255 255 0.13906 0.862917
-16.65119 218.976 312.099 -1 0 4.371139e-08 255 255 255 255 0.148814 0.856667
-16.65118 218.976 432.855 -1 0 4.371139e-08 255 255 255 255 0.20571 0.856667
-16.65118 286.53 374.194 -1 0 4.371139e-08 255 255 255 255 0.178071 0.888496
-31.19528 -4.999999e-06 500 -1 0 4.371139e-08 255 255 255 255 0.237346 0.753493
-16.65118 -3e-06 436.288 0 -1 -0 255 255 255 255 0.207327 0.753493
-31.19539 232.242 291.398 -0.813527 -0.4104 0.4120021 255 255 255 255 0.13908 0.612317
-16.65118 286.53 374.194 -0.813527 -0.4104 0.4120021 255 255 255 255 0.178071 0.638496
-31.19538 315.361 374.194 -0.813527 -0.4104 0.4120021 255 255 255 255 0.178071 0.65208
-31.19529 109.064 288.81 -0.8217723 -0.011971 0.5696903 255 255 255 255 0.138071 0.56465
-16.65119 218.976 312.099 -0.8217723 -0.011971 0.5696903 255 255 255 255 0.148814 0.606667
-31.19539 232.242 291.398 -0.8217723 -0.011971 0.5696903 255 255 255 255 0.13908 0.612317
-31.19528 225.285 456.989 -0.8382642 -0.3575081 -0.4117051 255 255 255 255 0.217081 0.60964
-16.65118 286.53 374.194 -0.8382642 -0.3575081 -0.4117051 255 255 255 255 0.178071 0.638496
-16.65118 218.976 432.855 -0.8382642 -0.3575081 -0.4117051 255 255 255 255 0.20571 0.606989
-16.65118 180.893 436.288 -0.8608361 -0.045691 -0.506827 255 255 255 255 0.207327 0.592139
-31.19528 225.285 456.989 -0.8608361 -0.045691 -0.506827 255 255 255 255 0.217081 0.60964
-16.65118 218.976 432.855 -0.8608361 -0.045691 -0.506827 255 255 255 255 0.20571 0.606989
-16.65119 -3e-06 312.099 0 -1 -0 255 255 255 255 0.148814 0.753493
-16.6512 -3e-06 63.7118 0 -1 -0 255 255 255 255 0.031782 0.753493
-31.19529 -4.999999e-06 291.398 0 -1 -0 255 255 255 255 0.13906 0.753493
-16.65119 -3e-06 187.901 0 -1 -0 255 255 255 255 0.090296 0.753493
-31.1953 225.285 43.0108 -0.7736562 -0.4287801 0.4664802 255 255 255 255 0.022029 0.60964
-16.65119 285.754 122.714 -0.7736562 -0.4287801 0.4664802 255 255 255 255 0.059582 0.638131
-31.19539 315.361 125.807 -0.7736562 -0.4287801 0.4664802 255 255 255 255 0.061039 0.65208
-16.6512 218.976 63.7118 -0.8169523 -0 0.5767053 255 255 255 255 0.031782 0.606667
-27.3546 155.383 48.5495 -0.8169523 -0 0.5767053 255 255 255 255 0.024638 0.582457
-16.6512 -3e-06 63.7118 -0.8169523 -0 0.5767053 255 255 255 255 0.031782 0.522365
-31.19529 225.285 208.602 -0.7974289 -0.4215029 -0.4317899 255 255 255 255 0.10005 0.60964
-16.65119 285.754 122.714 -0.7974289 -0.4215029 -0.4317899 255 255 255 255 0.059582 0.638131
-16.65119 218.976 187.901 -0.7974289 -0.4215029 -0.4317899 255 255 255 255 0.090296 0.606667
-16.65119 159.152 187.901 -0.8182378 0 -0.5748798 255 255 255 255 0.090296 0.583636
-31.19529 225.285 208.602 -0.8182378 0 -0.5748798 255 255 255 255 0.10005 0.60964
-16.65119 218.976 187.901 -0.8182378 0 -0.5748798 255 255 255 255 0.090296 0.606667
-16.65119 159.152 187.901 -1 0 4.371139e-08 255 255 255 255 0.090296 0.82848
-16.65118 180.893 436.288 -1 0 4.371139e-08 255 255 255 255 0.207327 0.838724
-36.26558 62.7521 310.433 -0.956948 0.265851 0.116507 255 255 255 255 0.048492 0.850279
-42.16049 57.91999 273.041 -0.956948 0.265851 0.116507 255 255 255 255 0.048656 0.850208
-42.16049 45.0677 302.368 -0.956948 0.265851 0.116507 255 255 255 255 0.048514 0.850111
-42.1605 57.91999 47.175 -0.903259 0.07153499 0.423091 255 255 255 255 0.04852 0.850167
-42.1605 35.0863 51.0357 -0.903259 0.07153499 0.423091 255 255 255 255 0.048536 0.850078
-32.6227 66.5155 66.0839 -0.903259 0.07153499 0.423091 255 255 255 255 0.0485 0.850376
-42.1605 57.91999 0.01057484 -1 0 4.371139e-08 255 255 255 255 0.048782 0.850247
-42.1605 57.91999 47.175 -1 0 4.371139e-08 255 255 255 255 0.04852 0.850167
-16.6512 -3e-06 63.7118 -1 0 4.371139e-08 255 255 255 255 0.031782 0.753493
-31.19529 146.474 211.19 -0.8181959 0.010158 -0.5748499 255 255 255 255 0.101038 0.579115
-16.65119 -3e-06 187.901 -0.8181959 0.010158 -0.5748499 255 255 255 255 0.090296 0.522365
-31.19529 -4.999999e-06 208.602 -0.8181959 0.010158 -0.5748499 255 255 255 255 0.10005 0.522365
-31.19529 109.064 288.81 -1 0 4.371139e-08 255 255 255 255 0.137841 0.80488
-31.19529 -4.999999e-06 208.602 -1 0 4.371139e-08 255 255 255 255 0.10005 0.753493
-31.19529 -4.999999e-06 291.398 -1 0 4.371139e-08 255 255 255 255 0.13906 0.753493
-31.19529 109.064 288.81 -0.8481889 -0 0.529694 255 255 255 255 0.138071 0.56465
-16.65119 -3e-06 312.099 -0.8481889 -0 0.529694 255 255 255 255 0.148814 0.522365
-16.65119 118.75 312.099 -0.8481889 -0 0.529694 255 255 255 255 0.148814 0.568082
-31.19539 305.282 189.097 -0.9790857 0.1918819 0.06762103 255 255 255 255 0.09086 0.897332
-26.21969 325.168 204.711 -0.9790857 0.1918819 0.06762103 255 255 255 255 0.098216 0.907064
-31.19539 315.361 160.498 -0.9790857 0.1918819 0.06762103 255 255 255 255 0.077385 0.90208
-31.19539 315.361 287.177 -1 -0 4.371139e-08 255 255 255 255 0.137071 0.90208
-31.19539 315.361 287.177 -0.9645502 0.262517 -0.02697596 255 255 255 255 0.137071 0.90208
-26.21969 325.168 204.711 -0.9645502 0.262517 -0.02697596 255 255 255 255 0.098216 0.907064
-31.19539 305.282 189.097 -0.9645502 0.262517 -0.02697596 255 255 255 255 0.09086 0.897332
-16.65118 -3e-06 436.288 -1 0 4.371139e-08 255 255 255 255 0.207327 0.753493
-16.65119 118.75 312.099 -1 0 4.371139e-08 255 255 255 255 0.148814 0.809444
-16.65119 -3e-06 312.099 -1 0 4.371139e-08 255 255 255 255 0.148814 0.753493
-31.19528 -4.999999e-06 456.989 -0.8182378 0 -0.5748798 255 255 255 255 0.217081 0.522365
-16.65118 180.893 436.288 -0.8182378 0 -0.5748798 255 255 255 255 0.207327 0.592139
-16.65118 -3e-06 436.288 -0.8182378 0 -0.5748798 255 255 255 255 0.207327 0.522365
-31.1953 149.871 33.5871 -0.948046 -0.128906 0.290847 255 255 255 255 0.018429 0.580508
-27.3546 155.383 48.5495 -0.948046 -0.128906 0.290847 255 255 255 255 0.024638 0.582457
-31.1953 171.133 43.0108 -0.948046 -0.128906 0.290847 255 255 255 255 0.022029 0.588632
-31.1953 126.355 43.0108 -0.9721748 0.08714097 0.217446 255 255 255 255 0.022029 0.571315
-27.3546 155.383 48.5495 -0.9721748 0.08714097 0.217446 255 255 255 255 0.024638 0.582457
-31.1953 149.871 33.5871 -0.9721748 0.08714097 0.217446 255 255 255 255 0.018429 0.580508
-31.1953 171.133 43.0108 -0.8182383 -0 0.5748792 255 255 255 255 0.022029 0.588632
-16.6512 218.976 63.7118 -0.8182383 -0 0.5748792 255 255 255 255 0.031782 0.606667
-31.1953 225.285 43.0108 -0.8182383 -0 0.5748792 255 255 255 255 0.022029 0.60964
-16.6512 -3e-06 63.7118 -0.8182383 -0 0.5748792 255 255 255 255 0.031782 0.522365
-31.1953 126.355 43.0108 -0.8182383 -0 0.5748792 255 255 255 255 0.022029 0.571315
-31.1953 -4.999999e-06 43.0108 -0.8182383 -0 0.5748792 255 255 255 255 0.022029 0.522365
-16.65119 74.24059 170.413 -0.6401642 0 -0.7682381 255 255 255 255 0.04906 0.850756
-16.65119 -6.199999e-05 170.413 -0.6401642 0 -0.7682381 255 255 255 255 0.049165 0.850546
-33.08869 66.0341 184.11 -0.6401642 0 -0.7682381 255 255 255 255 0.049071 0.850547
-42.16049 52.5763 197.653 -0.7299179 0 -0.6835348 255 255 255 255 0.049093 0.850318
-16.65119 -6.199999e-05 170.413 -0.7299179 0 -0.6835348 255 255 255 255 0.049165 0.850546
-42.16049 -6.599999e-05 197.653 -0.7299179 0 -0.6835348 255 255 255 255 0.049197 0.850127
-42.16049 -6.599999e-05 197.653 -1 -0 4.371139e-08 255 255 255 255 0.049197 0.850127
-42.16049 57.9199 204.27 -1 -0 4.371139e-08 255 255 255 255 0.049045 0.850327
-42.16049 52.5763 197.653 -1 -0 4.371139e-08 255 255 255 255 0.049093 0.850318
-42.16049 -6.599999e-05 302.368 -1 -0 4.371139e-08 255 255 255 255 0.048618 0.849959
-42.16049 57.91999 273.041 -1 -0 4.371139e-08 255 255 255 255 0.048656 0.850208
-16.65118 74.24059 329.608 -0.4768933 0.8781265 -0.038297 255 255 255 255 0.048516 0.850575
-42.16049 57.91999 273.041 -0.4768933 0.8781265 -0.038297 255 255 255 255 0.048656 0.850208
-36.26558 62.7521 310.433 -0.4768933 0.8781265 -0.038297 255 255 255 255 0.048492 0.850279
-16.65119 74.24059 170.413 -0.5389291 0.8423511 2.355734e-08 255 255 255 255 0.04906 0.850756
-42.16049 57.9199 204.27 -0.5389291 0.8423511 2.355734e-08 255 255 255 255 0.049045 0.850327
-42.16049 57.91999 273.041 -0.5389291 0.8423511 2.355734e-08 255 255 255 255 0.048656 0.850208
-31.19538 422.565 445.939 -0.971983 -0.069475 -0.224549 255 255 255 255 0.145105 0.721133
-31.19538 444.818 439.055 -0.971983 -0.069475 -0.224549 255 255 255 255 0.148346 0.727086
-28.03908 423.237 432.069 -0.971983 -0.069475 -0.224549 255 255 255 255 0.150393 0.721449
-31.19539 397.076 250 -0.3981051 -0.5891491 0.7031471 255 255 255 255 0.119651 0.709132
-42.16049 416.135 259.76 -0.3981051 -0.5891491 0.7031471 255 255 255 255 0.124247 0.717022
-37.50909 401.342 250 -0.3981051 -0.5891491 0.7031471 255 255 255 255 0.119651 0.71081
-31.19539 433.016 296.685 -0.7144161 -0.531474 0.4551321 255 255 255 255 0.141632 0.726811
-42.16049 439.375 286.899 -0.7144161 -0.531474 0.4551321 255 255 255 255 0.137025 0.727254
-42.16049 416.135 259.76 -0.7144161 -0.531474 0.4551321 255 255 255 255 0.124247 0.717022
-42.16049 418.934 236.97 -1 -0 4.371139e-08 255 255 255 255 0.113516 0.968254
-31.19539 397.076 250 -0.6048672 -0.6091662 -0.5128862 255 255 255 255 0.119651 0.709132
-42.16049 418.934 236.97 -0.6048672 -0.6091662 -0.5128862 255 255 255 255 0.113516 0.718119
-31.19539 435.566 204.285 -0.6048672 -0.6091662 -0.5128862 255 255 255 255 0.098127 0.727254
-31.19539 435.566 204.285 -0.6183591 -0.596927 -0.5111851 255 255 255 255 0.098127 0.727254
-42.16049 418.934 236.97 -0.6183591 -0.596927 -0.5111851 255 255 255 255 0.113516 0.718119
-42.16049 439.375 213.101 -0.6183591 -0.596927 -0.5111851 255 255 255 255 0.102278 0.727254
-16.65119 343.898 236.667 -0.899165 0.437452 -0.01175196 255 255 255 255 0.113273 0.915526
-31.19539 315.361 287.177 -0.899165 0.437452 -0.01175196 255 255 255 255 0.137071 0.90208
-16.65118 347.714 378.681 -0.899165 0.437452 -0.01175196 255 255 255 255 0.180185 0.917324
-16.65118 343.898 500 -1 -0 4.371139e-08 255 255 255 255 0.237346 0.915526
-31.19539 315.361 287.177 -0.9120774 0.4100181 3.986817e-08 255 255 255 255 0.137071 0.90208
-16.6512 343.898 1.672785e-05 -0.8905268 0.4549308 3.892616e-08 255 255 255 255 0.001764 0.915526
-26.21969 325.168 204.711 -0.8905268 0.4549308 3.892616e-08 255 255 255 255 0.098216 0.907064
-16.65119 343.898 236.667 -0.8905268 0.4549308 3.892616e-08 255 255 255 255 0.113273 0.915526
-16.6512 -6.199999e-05 79.6082 -0.6462179 -0 0.763153 255 255 255 255 0.048639 0.850379
-16.6512 74.24059 79.6082 -0.6462179 -0 0.763153 255 255 255 255 0.048516 0.850575
-32.6227 66.5155 66.0839 -0.6462179 -0 0.763153 255 255 255 255 0.0485 0.850376
-16.6512 -6.199999e-05 79.6082 0 -1 -0 255 255 255 255 0.048639 0.850379
-42.1605 57.91999 47.175 -0.6071797 0.7927215 -0.05408794 255 255 255 255 0.04852 0.850167
-32.6227 66.5155 66.0839 -0.6071797 0.7927215 -0.05408794 255 255 255 255 0.0485 0.850376
-16.6512 74.24059 0.01057373 -0.6071797 0.7927215 -0.05408794 255 255 255 255 0.048788 0.850665
-42.1605 -6.599999e-05 0.01057484 -4.371139e-08 0 -1 255 255 255 255 0.048908 0.850043
-16.65118 -6.199999e-05 329.608 -0.7620371 -0.040716 0.6462521 255 255 255 255 0.048639 0.850379
-36.26558 62.7521 310.433 -0.7620371 -0.040716 0.6462521 255 255 255 255 0.048492 0.850279
-42.16049 45.0677 302.368 -0.7620371 -0.040716 0.6462521 255 255 255 255 0.048514 0.850111
-16.65118 -6.199999e-05 329.608 0 -1 -0 255 255 255 255 0.048639 0.850379
-16.65118 74.24059 420.413 -0.7459618 0 -0.6659887 255 255 255 255 0.04906 0.850756
-42.16048 -6.599999e-05 500.011 -1 0 4.371139e-08 255 255 255 255 0.048908 0.850043
-16.65118 -6.199999e-05 420.413 0 -1 -0 255 255 255 255 0.049165 0.850546
-42.16048 57.91999 500.011 -0.5389291 0.8423511 2.355734e-08 255 255 255 255 0.048782 0.850247
-16.65118 74.24059 500.011 4.371139e-08 0 1 255 255 255 255 0.048788 0.850665
-16.65119 421.015 320.858 -0.5631618 -0 0.8263467 255 255 255 255 0.151251 0.720403
-16.65119 421.015 179.142 -0.5631671 0 -0.8263431 255 255 255 255 0.088051 0.720403
-31.19539 500 310.946 -1 -0 4.371139e-08 255 255 255 255 0.148346 0.989053
-16.65119 421.015 179.142 -0.6706309 -0.5492579 -0.4985679 255 255 255 255 0.088051 0.720403
-16.65119 356.697 250 -0.6706309 -0.5492579 -0.4985679 255 255 255 255 0.119651 0.69012
-31.19539 375.641 248.694 -0.6706309 -0.5492579 -0.4985679 255 255 255 255 0.119055 0.699039
-16.65119 421.015 320.858 -0.6412259 -0.5847399 0.496899 255 255 255 255 0.151251 0.720403
-31.19539 428.541 310.946 -0.6412259 -0.5847399 0.496899 255 255 255 255 0.148346 0.723947
-31.19539 375.641 248.694 -0.6412259 -0.5847399 0.496899 255 255 255 255 0.119055 0.699039
-31.19539 500 310.946 0 1 0 255 255 255 255 0.148346 0.989053
-42.16049 439.375 286.899 -0.6622858 0.010845 0.7491729 255 255 255 255 0.137025 0.727254
-31.19539 433.016 296.685 -0.6622858 0.010845 0.7491729 255 255 255 255 0.141632 0.726811
-31.19539 500 295.715 -0.6622858 0.010845 0.7491729 255 255 255 255 0.141175 0.739053
-31.19539 435.566 204.285 -0.6265862 0 -0.7793521 255 255 255 255 0.098127 0.727254
-42.16049 500 286.899 -1 -0 4.371139e-08 255 255 255 255 0.137025 0.989053
-31.19539 500 295.715 0 1 0 255 255 255 255 0.141175 0.989053
-16.65118 500 429.143 -0.7722546 0.09059006 -0.6288214 255 255 255 255 0.151251 0.739053
-28.03908 423.237 432.069 -0.7722546 0.09059006 -0.6288214 255 255 255 255 0.150393 0.721449
-31.19538 444.818 439.055 -0.7722546 0.09059006 -0.6288214 255 255 255 255 0.148346 0.727086
-16.65118 421.015 429.143 -0.642077 -0.578961 -0.502535 255 255 255 255 0.151251 0.720403
-31.19538 375.641 500 -0.642077 -0.578961 -0.502535 255 255 255 255 0.119651 0.699039
-31.19538 422.565 445.939 -0.642077 -0.578961 -0.502535 255 255 255 255 0.145105 0.721133
-42.16048 500 463.101 -0.6265862 0 -0.7793521 255 255 255 255 0.137025 0.739053
-42.16048 407.776 500 -0.7619473 -0.4559591 -0.4599321 255 255 255 255 0.119651 0.713342
-42.16048 444.997 463.101 -0.7619473 -0.4559591 -0.4599321 255 255 255 255 0.137025 0.72853
-31.19538 435.566 454.285 -0.7619473 -0.4559591 -0.4599321 255 255 255 255 0.141175 0.727254
-42.16048 407.776 500 -1 -0 4.371139e-08 255 255 255 255 0.119651 0.963342
-31.19538 500 454.285 0 1 0 255 255 255 255 0.141175 0.989053
-31.19538 375.641 500 -1 0 4.371139e-08 255 255 255 255 0.119651 0.949039
-16.65118 500 429.143 0 1 0 255 255 255 255 0.151251 0.989053
-31.19538 500 500 3.043712e-06 0 1 255 255 255 255 0.119651 0.989053
-42.16048 500 500 3.043712e-06 0 1 255 255 255 255 0.119651 0.989053
-42.16048 407.776 500 3.043712e-06 0 1 255 255 255 255 0.119651 0.963342
-16.65118 500 500 -1.956289e-06 0 1 255 255 255 255 0.119651 0.989053
-31.19538 500 500 -1.956289e-06 0 1 255 255 255 255 0.119651 0.989053
-31.19538 375.641 500 -1.956289e-06 0 1 255 255 255 255 0.119651 0.949039
-31.1954 426.305 57.3881 -0.679481 -0 0.7336931 255 255 255 255 0.146507 0.722507
-16.6512 421.015 70.8575 -0.679481 -0 0.7336931 255 255 255 255 0.151251 0.720403
-16.6512 500 70.8575 -0.679481 -0 0.7336931 255 255 255 255 0.151251 0.739053
-16.6512 421.015 70.8575 -0.6629781 -0.561224 0.4954671 255 255 255 255 0.151251 0.720403
-31.1954 426.305 57.3881 -0.6629781 -0.561224 0.4954671 255 255 255 255 0.146507 0.722507
-31.1954 375.641 1.636359e-05 -0.6629781 -0.561224 0.4954671 255 255 255 255 0.119651 0.699039
-42.1605 439.375 38.7688 -0.535153 -0 0.8447552 255 255 255 255 0.137905 0.7279
-31.1954 435.566 45.7152 -0.535153 -0 0.8447552 255 255 255 255 0.141175 0.727254
-31.1954 500 45.7152 -0.535153 -0 0.8447552 255 255 255 255 0.141175 0.739053
-31.1954 435.566 45.7152 -0.5563437 -0.6441036 0.5249878 255 255 255 255 0.141175 0.727254
-42.1605 439.375 38.7688 -0.5563437 -0.6441036 0.5249878 255 255 255 255 0.137905 0.7279
-42.1605 407.776 1.684289e-05 -0.5563437 -0.6441036 0.5249878 255 255 255 255 0.119651 0.713342
-42.1605 500 36.8994 -1 -0 4.371139e-08 255 255 255 255 0.137025 0.989053
-42.1605 500 1.684289e-05 0 1 0 255 255 255 255 0.119651 0.989053
-31.1954 500 60.9456 -1 -0 4.371139e-08 255 255 255 255 0.148346 0.989053
-42.1605 407.776 1.684289e-05 2.956289e-06 0 -1 255 255 255 255 0.119651 0.963342
-42.1605 500 1.684289e-05 2.956289e-06 0 -1 255 255 255 255 0.119651 0.989053
-31.1954 500 4.73636e-05 2.956289e-06 0 -1 255 255 255 255 0.119651 0.989053
-31.1954 375.641 1.636359e-05 -2.043711e-06 0 -1 255 255 255 255 0.119651 0.949039
-31.1954 500 4.73636e-05 -2.043711e-06 0 -1 255 255 255 255 0.119651 0.989053
-16.6512 500 1.672785e-05 -2.043711e-06 0 -1 255 255 255 255 0.119651 0.989053
-16.65118 343.898 500 4.371139e-08 0 1 255 255 255 255 0.237346 0.915526
-16.65118 500 500 0 1 0 255 255 255 255 0.237346 0.989076
-31.19538 315.361 500 -0.8908734 0.4540272 0.01427805 255 255 255 255 0.237346 0.90208
-16.65118 343.898 500 -0.8908734 0.4540272 0.01427805 255 255 255 255 0.237346 0.915526
-16.65118 347.714 378.681 -0.8908734 0.4540272 0.01427805 255 255 255 255 0.180185 0.917324
-31.19539 315.361 125.807 -0.8917984 0.4524331 3.898175e-08 255 255 255 255 0.061039 0.90208
-31.19539 315.361 160.498 -0.8917984 0.4524331 3.898175e-08 255 255 255 255 0.077385 0.90208
-26.21969 325.168 204.711 -0.8917984 0.4524331 3.898175e-08 255 255 255 255 0.098216 0.907064
-31.19539 305.282 189.097 -1 -0 4.371139e-08 255 255 255 255 0.09086 0.897332
-16.6512 500 1.672785e-05 -4.371139e-08 0 -1 255 255 255 255 0.001764 0.989076
14.23912 500 500 1 0 -4.371139e-08 255 255 255 255 0.237346 0.989076
14.23922 2e-06 500 1.043711e-06 0 1 255 255 255 255 0.237346 0.753493
-31.1953 -4.999999e-06 43.0108 -1 0 4.371139e-08 255 255 255 255 0.022029 0.753493
-31.19528 -4.999999e-06 456.989 -1 0 4.371139e-08 255 255 255 255 0.217081 0.753493
-31.19539 232.242 291.398 -0.8572868 -0.3484069 0.3790409 255 255 255 255 0.13908 0.612317
-16.65119 218.976 312.099 -0.8572868 -0.3484069 0.3790409 255 255 255 255 0.148814 0.606667
-16.65118 286.53 374.194 -0.8572868 -0.3484069 0.3790409 255 255 255 255 0.178071 0.638496
-16.65119 218.976 312.099 -0.8481889 -0 0.529694 255 255 255 255 0.148814 0.606667
-31.19528 225.285 456.989 -0.8017468 -0.4044569 -0.4400189 255 255 255 255 0.217081 0.60964
-31.19538 315.361 374.194 -0.8017468 -0.4044569 -0.4400189 255 255 255 255 0.178071 0.65208
-16.65118 286.53 374.194 -0.8017468 -0.4044569 -0.4400189 255 255 255 255 0.178071 0.638496
-31.19529 -4.999999e-06 208.602 0 -1 -0 255 255 255 255 0.10005 0.753493
-31.1953 225.285 43.0108 -0.8043696 -0.3933898 0.4452348 255 255 255 255 0.022029 0.60964
-16.6512 218.976 63.7118 -0.8043696 -0.3933898 0.4452348 255 255 255 255 0.031782 0.606667
-16.65119 285.754 122.714 -0.8043696 -0.3933898 0.4452348 255 255 255 255 0.059582 0.638131
-31.19529 225.285 208.602 -0.83774 -0.369542 -0.402033 255 255 255 255 0.10005 0.60964
-31.19539 315.361 125.807 -0.83774 -0.369542 -0.402033 255 255 255 255 0.061039 0.65208
-16.65119 285.754 122.714 -0.83774 -0.369542 -0.402033 255 255 255 255 0.059582 0.638131
-16.65119 159.152 187.901 -0.8437202 -0.017619 -0.5364941 255 255 255 255 0.090296 0.583636
-31.19529 146.474 211.19 -0.8437202 -0.017619 -0.5364941 255 255 255 255 0.101038 0.579115
-31.19529 225.285 208.602 -0.8437202 -0.017619 -0.5364941 255 255 255 255 0.10005 0.60964
-16.65119 -3e-06 187.901 -1 0 4.371139e-08 255 255 255 255 0.090296 0.753493
-31.19529 146.474 211.19 -0.8481889 0 -0.5296939 255 255 255 255 0.101038 0.579115
-16.65119 159.152 187.901 -0.8481889 0 -0.5296939 255 255 255 255 0.090296 0.583636
-16.65119 -3e-06 187.901 -0.8481889 0 -0.5296939 255 255 255 255 0.090296 0.522365
-31.19529 109.064 288.81 -0.8181624 0.01364101 0.5748253 255 255 255 255 0.138071 0.56465
-31.19529 -4.999999e-06 291.398 -0.8181624 0.01364101 0.5748253 255 255 255 255 0.13906 0.522365
-16.65119 -3e-06 312.099 -0.8181624 0.01364101 0.5748253 255 255 255 255 0.148814 0.522365
-31.19528 225.285 456.989 -0.8182378 0 -0.5748798 255 255 255 255 0.217081 0.60964
-31.1953 171.133 43.0108 -0.8198148 0.001454 0.5726269 255 255 255 255 0.022029 0.588632
-27.3546 155.383 48.5495 -0.8198148 0.001454 0.5726269 255 255 255 255 0.024638 0.582457
-16.6512 218.976 63.7118 -0.8198148 0.001454 0.5726269 255 255 255 255 0.031782 0.606667
-16.6512 -3e-06 63.7118 -0.8201312 -0.0006610001 0.5721752 255 255 255 255 0.031782 0.522365
-27.3546 155.383 48.5495 -0.8201312 -0.0006610001 0.5721752 255 255 255 255 0.024638 0.582457
-31.1953 126.355 43.0108 -0.8201312 -0.0006610001 0.5721752 255 255 255 255 0.022029 0.571315
-42.16049 52.5763 197.653 -0.7938989 -0.07239299 -0.603725 255 255 255 255 0.049093 0.850318
-33.08869 66.0341 184.11 -0.7938989 -0.07239299 -0.603725 255 255 255 255 0.049071 0.850547
-16.65119 -6.199999e-05 170.413 -0.7938989 -0.07239299 -0.603725 255 255 255 255 0.049165 0.850546
-42.16049 45.0677 302.368 -1 0 4.371139e-08 255 255 255 255 0.048514 0.850111
-16.65118 74.24059 329.608 -0.5389291 0.8423511 2.355734e-08 255 255 255 255 0.048516 0.850575
-16.65119 74.24059 170.413 -0.2444991 0.9326333 0.2653591 255 255 255 255 0.04906 0.850756
-33.08869 66.0341 184.11 -0.2444991 0.9326333 0.2653591 255 255 255 255 0.049071 0.850547
-42.16049 57.9199 204.27 -0.2444991 0.9326333 0.2653591 255 255 255 255 0.049045 0.850327
-31.19539 397.076 250 -0.6406077 -0.6084536 0.4684078 255 255 255 255 0.119651 0.709132
-31.19539 433.016 296.685 -0.6406077 -0.6084536 0.4684078 255 255 255 255 0.141632 0.726811
-42.16049 416.135 259.76 -0.6406077 -0.6084536 0.4684078 255 255 255 255 0.124247 0.717022
-42.16049 416.135 259.76 -1 0 4.371139e-08 255 255 255 255 0.124247 0.967022
-31.19539 397.076 250 -0.4122861 -0.6101351 -0.6765762 255 255 255 255 0.119651 0.709132
-37.50909 401.342 250 -0.4122861 -0.6101351 -0.6765762 255 255 255 255 0.119651 0.71081
-42.16049 418.934 236.97 -0.4122861 -0.6101351 -0.6765762 255 255 255 255 0.113516 0.718119
-16.65119 343.898 236.667 -0.8907417 0.4545098 0.0003110388 255 255 255 255 0.113273 0.915526
-26.21969 325.168 204.711 -0.8907417 0.4545098 0.0003110388 255 255 255 255 0.098216 0.907064
-31.19539 315.361 287.177 -0.8907417 0.4545098 0.0003110388 255 255 255 255 0.137071 0.90208
3 0 1 2 
3 3 4 5 
3 6 7 8 
3 9 10 11 
3 12 13 14 
3 15 16 17 
3 18 19 20 
3 21 22 23 
3 24 25 26 
3 27 28 29 
3 30 31 32 
3 33 34 35 
3 36 37 38 
3 39 40 41 
3 42 43 44 
3 45 46 47 
3 48 49 50 
3 51 52 53 
3 54 55 56 
3 57 58 59 
3 60 61 62 
3 63 64 65 
3 56 66 54 
3 67 68 69 
3 70 71 72 
3 73 74 75 
3 76 77 78 
3 79 80 81 
3 82 83 84 
3 85 86 87 
3 88 89 90 
3 91 92 93 
3 94 95 96 
3 97 98 99 
3 100 101 102 
3 103 104 105 
3 106 107 108 
3 108 107 109 
3 110 111 103 
3 112 113 114 
3 115 116 117 
3 118 119 120 
3 121 122 123 
3 124 125 126 
3 127 128 129 
3 130 131 132 
3 133 134 135 
3 136 137 138 
3 139 140 141 
3 142 143 144 
3 145 146 147 
3 148 149 150 
3 151 152 153 
3 154 155 156 
3 157 158 159 
3 160 161 162 
3 163 164 165 
3 166 167 168 
3 169 170 171 
3 172 173 174 
3 175 176 172 
3 177 178 179 
3 180 181 152 
3 182 183 184 
3 185 186 187 
3 188 189 190 
3 191 192 189 
3 173 193 174 
3 194 195 193 
3 193 196 174 
3 197 198 199 
3 200 201 175 
3 202 203 204 
3 179 205 177 
3 161 160 206 
3 207 208 209 
3 210 211 212 
3 213 214 215 
3 216 217 218 
3 219 161 206 
3 159 158 220 
3 221 222 219 
3 223 224 225 
3 226 227 228 
3 229 230 231 
3 232 233 234 
3 197 235 198 
3 202 236 203 
3 158 219 222 
3 220 158 222 
3 237 238 239 
3 240 241 242 
3 243 9 244 
3 245 235 197 
3 246 247 248 
3 249 250 251 
3 252 253 254 
3 255 256 257 
3 178 258 201 
3 258 175 201 
3 259 260 261 
3 262 263 264 
3 265 266 267 
3 268 269 270 
3 271 272 273 
3 274 275 276 
3 277 278 279 
3 280 281 282 
3 283 284 285 
3 286 287 288 
3 289 290 287 
3 291 292 293 
3 294 295 296 
3 297 298 299 
3 300 301 302 
3 303 304 305 
3 306 73 75 
3 307 308 309 
3 310 311 312 
3 313 314 315 
3 316 188 190 
3 164 317 165 
3 318 319 320 
3 321 322 323 
3 6 324 7 
3 325 326 327 
3 18 328 19 
3 329 330 331 
3 27 332 28 
3 33 333 34 
3 36 334 37 
3 39 335 40 
3 42 336 43 
3 45 337 46 
3 48 338 49 
3 51 339 52 
3 54 340 55 
3 341 342 343 
3 344 345 346 
3 63 347 64 
3 348 349 350 
3 70 351 71 
3 73 352 74 
3 79 353 80 
3 354 355 356 
3 357 358 359 
3 94 360 95 
3 361 362 363 
3 100 364 101 
3 103 365 104 
3 106 366 107 
3 110 367 111 
3 368 369 370 
3 371 372 373 
3 374 375 376 
3 377 378 379 
3 380 381 382 
3 383 384 385 
3 130 386 131 
3 133 387 134 
3 136 388 137 
3 139 133 140 
3 389 390 391 
3 392 393 394 
3 148 395 149 
3 151 180 152 
3 154 396 155 
3 397 398 399 
3 400 401 402 
3 175 403 176 
3 180 404 181 
3 182 405 183 
3 185 406 186 
3 188 191 189 
3 173 194 193 
3 194 407 195 
3 200 249 201 
3 179 408 205 
3 409 410 411 
3 252 254 412 
3 413 414 415 
3 221 416 222 
3 417 418 419 
3 420 421 422 
3 423 424 425 
3 202 263 236 
3 158 161 219 
3 243 10 9 
3 245 426 235 
3 427 428 429 
3 249 200 250 
3 430 431 432 
3 258 403 175 
3 262 236 263 
3 265 433 266 
3 434 435 436 
3 437 438 439 
3 440 441 442 
3 286 289 287 
3 289 443 290 
3 444 294 296 
3 445 446 447 
3 448 449 450 
3 306 451 73 
3 452 453 454 
3 455 456 457 
