ply
format ascii 1.0
comment VCGLIB generated
comment TextureFile Dungeons_2_Texture_01_A.png
element vertex 266
property float x
property float y
property float z
property float nx
property float ny
property float nz
property uchar red
property uchar green
property uchar blue
property uchar alpha
property float texture_u
property float texture_v
element face 114
property list uchar int vertex_indices
end_header
22.5934 0.853051 -15.358 0.999526 -0 -0.030783 255 255 255 255 0.323824 0.383341
22.3856 7.30156 -22.1073 0.999526 -0 -0.030783 255 255 255 255 0.323304 0.382718
22.5934 7.30156 -15.358 0.999526 -0 -0.030783 255 255 255 255 0.323821 0.382935
15.358 -0.941115 -15.358 0.240679 -0.970605 0 255 255 255 255 0.324088 0.383055
22.5934 0.85305 -22.5306 0.240679 -0.970605 0 255 255 255 255 0.323335 0.383126
22.5934 0.853051 -15.358 0.240679 -0.970605 0 255 255 255 255 0.323824 0.383341
15.358 0.85305 -22.5306 0 0.06551 -0.997852 255 255 255 255 0.323616 0.382751
22.3856 7.30156 -22.1073 0 0.06551 -0.997852 255 255 255 255 0.323304 0.382718
22.5934 0.85305 -22.5306 0 0.06551 -0.997852 255 255 255 255 0.323335 0.383126
15.358 -0.941115 -15.358 -0.644211 0.404169 0.649338 255 255 255 255 0.324088 0.383055
20.5293 7.30156 -15.358 -0.644211 0.404169 0.649338 255 255 255 255 0.323922 0.382793
15.358 7.30156 -20.4885 -0.644211 0.404169 0.649338 255 255 255 255 0.323774 0.382409
15.358 -0.941115 -15.358 -0 -0.970111 -0.242663 255 255 255 255 0.324088 0.383055
15.358 0.85305 -22.5306 -0 -0.970111 -0.242663 255 255 255 255 0.323616 0.382751
22.5934 0.85305 -22.5306 -0 -0.970111 -0.242663 255 255 255 255 0.323335 0.383126
15.358 7.30156 -20.4885 -1 0 0 255 255 255 255 0.323774 0.382409
15.358 0.85305 -22.5306 -1 0 0 255 255 255 255 0.323616 0.382751
15.358 -0.941115 -15.358 -1 0 0 255 255 255 255 0.324088 0.383055
22.5934 0.853051 -15.358 -0 0 1 255 255 255 255 0.323824 0.383341
20.5293 7.30156 -15.358 -0 0 1 255 255 255 255 0.323922 0.382793
15.358 -0.941115 -15.358 -0 0 1 255 255 255 255 0.324088 0.383055
20.3934 9.50156 -17.558 0 1 0 255 255 255 255 0.323827 0.382818
20.3934 9.50156 -20.3306 0 1 0 255 255 255 255 0.323304 0.382718
17.558 9.50156 -20.3306 0 1 0 255 255 255 255 0.323682 0.382426
15.358 7.30156 -22.5306 -0.707107 0.707107 -0 255 255 255 255 0.323601 0.38234
15.358 7.30156 -20.4885 -0.707107 0.707107 -0 255 255 255 255 0.323774 0.382409
17.558 9.50156 -20.3306 -0.707107 0.707107 -0 255 255 255 255 0.323682 0.382426
20.5293 7.30156 -15.358 -0.589606 0.546968 0.594299 255 255 255 255 0.323922 0.382793
17.558 9.50156 -20.3306 -0.589606 0.546968 0.594299 255 255 255 255 0.323682 0.382426
15.358 7.30156 -20.4885 -0.589606 0.546968 0.594299 255 255 255 255 0.323774 0.382409
20.5293 7.30156 -15.358 0 0.707107 0.707107 255 255 255 255 0.323922 0.382793
22.5934 7.30156 -15.358 0 0.707107 0.707107 255 255 255 255 0.323821 0.382935
20.3934 9.50156 -17.558 0 0.707107 0.707107 255 255 255 255 0.323827 0.382818
22.3856 7.30156 -22.1073 0.717902 0.695793 -0.02211 255 255 255 255 0.323304 0.382718
20.3934 9.50156 -17.558 0.717902 0.695793 -0.02211 255 255 255 255 0.323827 0.382818
22.5934 7.30156 -15.358 0.717902 0.695793 -0.02211 255 255 255 255 0.323821 0.382935
22.3856 7.30156 -22.1073 0 0.628278 -0.777989 255 255 255 255 0.323304 0.382718
17.558 9.50156 -20.3306 0 0.628278 -0.777989 255 255 255 255 0.323682 0.382426
20.3934 9.50156 -20.3306 0 0.628278 -0.777989 255 255 255 255 0.323304 0.382718
-6.01805 6.24235 -21.6959 -0 -0 -1 255 255 255 255 0.274948 0.348124
-21.6959 1.35014 -21.6959 -0 -0 -1 255 255 255 255 0.274997 0.348215
-21.6959 6.76618 -21.6959 -0 -0 -1 255 255 255 255 0.274996 0.348092
-9.47256 -1.66499 -9.47256 0 1 -0 255 255 255 255 0.275203 0.348277
9.47256 -1.66499 0 0 1 -0 255 255 255 255 0.275575 0.348334
9.47256 -1.66499 -9.47256 0 1 -0 255 255 255 255 0.275169 0.348332
-21.6959 1.35014 -0 -1 0 0 255 255 255 255 0.275794 0.348219
-21.6959 6.76618 -21.6959 -1 0 0 255 255 255 255 0.274996 0.348092
-21.6959 1.35014 -21.6959 -1 0 0 255 255 255 255 0.274997 0.348215
21.6959 1.35014 -21.6959 1 0 0 255 255 255 255 0.274865 0.348334
21.6959 6.76619 -1e-06 1 0 0 255 255 255 255 0.275863 0.348184
21.6959 1.35014 -0 1 0 0 255 255 255 255 0.275861 0.34834
2.15019 1.87398 -21.6959 0.020746 -0.944409 -0.328118 255 255 255 255 0.274925 0.348281
-15.358 -0.712635 -15.358 0.020746 -0.944409 -0.328118 255 255 255 255 0.275107 0.348244
-21.6959 1.35014 -21.6959 0.020746 -0.944409 -0.328118 255 255 255 255 0.274997 0.348215
21.6959 1.35014 -0 0.309486 -0.950904 0 255 255 255 255 0.275861 0.34834
15.358 -0.712635 -15.358 0.309486 -0.950904 0 255 255 255 255 0.275021 0.348329
21.6959 1.35014 -21.6959 0.309486 -0.950904 0 255 255 255 255 0.274865 0.348334
-15.358 -0.712632 0 -0.976818 -0.214071 0 255 255 255 255 0.323347 0.383179
-14.2386 -5.82015 -14.2386 -0.976818 -0.214071 0 255 255 255 255 0.322677 0.383321
-14.2386 -5.82015 1e-06 -0.976818 -0.214071 0 255 255 255 255 0.323307 0.38333
-15.358 -0.712635 -15.358 0 -0.214071 -0.976818 255 255 255 255 0.322662 0.383207
14.3933 -5.11441 -14.3933 0 -0.214071 -0.976818 255 255 255 255 0.322424 0.383325
-14.2386 -5.82015 -14.2386 0 -0.214071 -0.976818 255 255 255 255 0.322677 0.383321
15.358 -0.712632 0 0.976818 -0.214071 0 255 255 255 255 0.323139 0.383198
14.3933 -5.11441 -14.3933 0.976818 -0.214071 0 255 255 255 255 0.322424 0.383325
15.358 -0.712635 -15.358 0.976818 -0.214071 0 255 255 255 255 0.322385 0.383188
-11.9355 -10.0507 2e-06 -0.156409 -0.987692 0 255 255 255 255 0.275617 0.348432
-5.47805 -11.0732 -5.47805 -0.156409 -0.987692 0 255 255 255 255 0.275275 0.348452
-5.47805 -11.0732 2e-06 -0.156409 -0.987692 0 255 255 255 255 0.275492 0.348453
11.9355 -10.0507 -11.9355 -0.019582 -0.978 -0.207681 255 255 255 255 0.275113 0.348518
-5.47805 -11.0732 -5.47805 -0.019582 -0.978 -0.207681 255 255 255 255 0.275275 0.348452
-12.127 -9.52819 -12.127 -0.019582 -0.978 -0.207681 255 255 255 255 0.27516 0.348429
11.9355 -10.0507 2e-06 0.156409 -0.987692 0 255 255 255 255 0.275628 0.348522
5.47805 -11.0732 -5.47805 0.156409 -0.987692 0 255 255 255 255 0.275261 0.348493
11.9355 -10.0507 -11.9355 0.156409 -0.987692 0 255 255 255 255 0.275113 0.348518
-5.47805 -11.0732 2e-06 -0.826834 -0.562446 0 255 255 255 255 0.326852 0.381759
-5.47805 -11.0732 -5.47805 -0.826834 -0.562446 0 255 255 255 255 0.326376 0.381596
0 -19.1263 3e-06 -0.826834 -0.562446 0 255 255 255 255 0.326885 0.382158
-5.47805 -11.0732 -5.47805 -0 -0.562446 -0.826834 255 255 255 255 0.326376 0.381596
5.47805 -11.0732 -5.47805 -0 -0.562446 -0.826834 255 255 255 255 0.327243 0.381582
0 -19.1263 3e-06 -0 -0.562446 -0.826834 255 255 255 255 0.326885 0.382158
5.47805 -11.0732 -5.47805 0.826834 -0.562446 0 255 255 255 255 0.327243 0.381582
5.47805 -11.0732 2e-06 0.826834 -0.562446 0 255 255 255 255 0.327094 0.381691
0 -19.1263 3e-06 0.826834 -0.562446 0 255 255 255 255 0.326885 0.382158
-14.8487 6.76619 -14.8487 0.033375 0.998885 -0.033376 255 255 255 255 0.275108 0.348104
-6.01805 6.24235 -21.6959 0.033375 0.998885 -0.033376 255 255 255 255 0.274948 0.348124
-21.6959 6.76618 -21.6959 0.033375 0.998885 -0.033376 255 255 255 255 0.274996 0.348092
-21.6959 6.76619 -1e-06 0 1 -0 255 255 255 255 0.275807 0.348084
-14.8487 6.76619 -14.8487 0 1 -0 255 255 255 255 0.275108 0.348104
-21.6959 6.76618 -21.6959 0 1 -0 255 255 255 255 0.274996 0.348092
21.6959 6.76619 -1e-06 0 1 -0 255 255 255 255 0.275863 0.348184
14.8487 6.76619 -14.8487 0 1 -0 255 255 255 255 0.275039 0.348164
14.8487 6.76619 -1e-06 0 1 -0 255 255 255 255 0.275697 0.348167
-14.8487 6.76619 -14.8487 0 0.537646 0.843171 255 255 255 255 0.275108 0.348104
9.47256 -1.66499 -9.47256 0 0.537646 0.843171 255 255 255 255 0.275169 0.348332
14.8487 6.76619 -14.8487 0 0.537646 0.843171 255 255 255 255 0.275039 0.348164
-14.8487 6.76619 -1e-06 0.843171 0.537646 -0 255 255 255 255 0.275661 0.348117
-9.47256 -1.66499 -9.47256 0.843171 0.537646 -0 255 255 255 255 0.275203 0.348277
-14.8487 6.76619 -14.8487 0.843171 0.537646 -0 255 255 255 255 0.275108 0.348104
14.8487 6.76619 -1e-06 -0.843171 0.537646 -0 255 255 255 255 0.275697 0.348167
9.47256 -1.66499 -9.47256 -0.843171 0.537646 -0 255 255 255 255 0.275169 0.348332
9.47256 -1.66499 0 -0.843171 0.537646 -0 255 255 255 255 0.275575 0.348334
-15.358 -0.712635 -15.358 -0.309486 -0.950904 0 255 255 255 255 0.275107 0.348244
-21.6959 1.35014 -0 -0.309486 -0.950904 0 255 255 255 255 0.275794 0.348219
-21.6959 1.35014 -21.6959 -0.309486 -0.950904 0 255 255 255 255 0.274997 0.348215
13.3077 -6.30672 1e-06 0.938925 -0.344121 0 255 255 255 255 0.27566 0.348447
11.9355 -10.0507 -11.9355 0.938925 -0.344121 0 255 255 255 255 0.275113 0.348518
13.3077 -6.30673 -13.3077 0.938925 -0.344121 0 255 255 255 255 0.275079 0.348444
-12.127 -9.52819 -12.127 -0 -0.344122 -0.938925 255 255 255 255 0.27516 0.348429
13.3077 -6.30673 -13.3077 -0 -0.344122 -0.938925 255 255 255 255 0.275079 0.348444
11.9355 -10.0507 -11.9355 -0 -0.344122 -0.938925 255 255 255 255 0.275113 0.348518
-13.3077 -6.30672 1e-06 -0.938925 -0.344121 0 255 255 255 255 0.275643 0.348357
-12.127 -9.52819 -12.127 -0.938925 -0.344121 0 255 255 255 255 0.27516 0.348429
-11.9355 -10.0507 2e-06 -0.938925 -0.344121 0 255 255 255 255 0.275617 0.348432
-13.3077 -6.30673 -13.3077 -0.46321 -0.886249 0 255 255 255 255 0.32269 0.383332
-14.2386 -5.82015 1e-06 -0.46321 -0.886249 0 255 255 255 255 0.323307 0.38333
-14.2386 -5.82015 -14.2386 -0.46321 -0.886249 0 255 255 255 255 0.322677 0.383321
-13.3077 -6.30673 -13.3077 0 -0.673249 -0.739416 255 255 255 255 0.32269 0.383332
14.3933 -5.11441 -14.3933 0 -0.673249 -0.739416 255 255 255 255 0.322424 0.383325
13.3077 -6.30673 -13.3077 0 -0.673249 -0.739416 255 255 255 255 0.322457 0.383338
13.3077 -6.30673 -13.3077 0.46321 -0.886249 0 255 255 255 255 0.322457 0.383338
14.2386 -5.82015 1e-06 0.46321 -0.886249 0 255 255 255 255 0.323191 0.383324
13.3077 -6.30672 1e-06 0.46321 -0.886249 0 255 255 255 255 0.323196 0.383328
15.358 -0.712632 0 0 0 1 255 255 255 255 0.323139 0.383198
13.3077 -6.30672 1e-06 0 0 1 255 255 255 255 0.323196 0.383328
14.2386 -5.82015 1e-06 0 0 1 255 255 255 255 0.323191 0.383324
0 -19.1263 3e-06 -0 0 1 255 255 255 255 0.326885 0.382158
5.47805 -11.0732 2e-06 -0 0 1 255 255 255 255 0.327094 0.381691
-5.47805 -11.0732 2e-06 -0 0 1 255 255 255 255 0.326852 0.381759
14.8487 6.76619 -1e-06 0 0 1 255 255 255 255 0.275002 0.34834
21.6959 1.35014 -0 0 0 1 255 255 255 255 0.2749 0.3485
21.6959 6.76619 -1e-06 0 0 1 255 255 255 255 0.274871 0.348383
9.47256 -1.66499 0 0 0 1 255 255 255 255 0.275158 0.348494
15.358 -0.712632 0 0 0 1 255 255 255 255 0.275034 0.348508
-15.358 -0.712632 0 -0 0 1 255 255 255 255 0.275711 0.348306
-9.47256 -1.66499 0 -0 0 1 255 255 255 255 0.275576 0.348371
-14.8487 6.76619 -1e-06 -0 0 1 255 255 255 255 0.275661 0.348117
-21.6959 1.35014 -0 0 0 1 255 255 255 255 0.275857 0.348207
13.3077 -6.30672 1e-06 0 0 1 255 255 255 255 0.275106 0.34862
-13.3077 -6.30672 1e-06 0 0 1 255 255 255 255 0.275698 0.348458
-5.47805 -11.0732 2e-06 0 0 1 255 255 255 255 0.275543 0.348623
-11.9355 -10.0507 2e-06 0 0 1 255 255 255 255 0.27569 0.348558
5.47805 -11.0732 2e-06 0 0 1 255 255 255 255 0.275297 0.348685
-13.3077 -6.30672 1e-06 0 0 1 255 255 255 255 0.323278 0.383343
-15.358 -0.712632 0 0 0 1 255 255 255 255 0.323347 0.383179
-14.2386 -5.82015 1e-06 0 0 1 255 255 255 255 0.323307 0.38333
11.9355 -10.0507 2e-06 -0 0 1 255 255 255 255 0.275156 0.348697
-15.358 0.85305 -22.5934 -0 -0 -1 255 255 255 255 0.323824 0.383341
-22.5306 7.30156 -22.5934 -0 -0 -1 255 255 255 255 0.323304 0.382718
-15.358 7.30156 -22.5934 -0 -0 -1 255 255 255 255 0.323821 0.382935
-15.358 -0.941115 -15.358 0.040865 -0.969794 -0.240477 255 255 255 255 0.324088 0.383055
-22.3607 0.533827 -22.4961 0.040865 -0.969794 -0.240477 255 255 255 255 0.323335 0.383126
-15.358 0.85305 -22.5934 0.040865 -0.969794 -0.240477 255 255 255 255 0.323824 0.383341
-22.5306 0.853051 -15.358 -0.99942 -0.025418 -0.022654 255 255 255 255 0.323616 0.382751
-22.5306 7.30156 -22.5934 -0.99942 -0.025418 -0.022654 255 255 255 255 0.323304 0.382718
-22.3607 0.533827 -22.4961 -0.99942 -0.025418 -0.022654 255 255 255 255 0.323335 0.383126
-15.358 -0.941115 -15.358 0.649338 0.404169 0.644211 255 255 255 255 0.324088 0.383055
-15.358 7.30156 -20.5293 0.649338 0.404169 0.644211 255 255 255 255 0.323922 0.382793
-20.4885 7.30156 -15.358 0.649338 0.404169 0.644211 255 255 255 255 0.323774 0.382409
-15.358 -0.941115 -15.358 -0.242491 -0.969425 0.037581 255 255 255 255 0.324088 0.383055
-22.5306 0.853051 -15.358 -0.242491 -0.969425 0.037581 255 255 255 255 0.323616 0.382751
-22.3607 0.533827 -22.4961 -0.242491 -0.969425 0.037581 255 255 255 255 0.323335 0.383126
-20.4885 7.30156 -15.358 0 0 1 255 255 255 255 0.323774 0.382409
-22.5306 0.853051 -15.358 0 0 1 255 255 255 255 0.323616 0.382751
-15.358 -0.941115 -15.358 0 0 1 255 255 255 255 0.324088 0.383055
-15.358 0.85305 -22.5934 1 0 0 255 255 255 255 0.323824 0.383341
-15.358 7.30156 -20.5293 1 0 0 255 255 255 255 0.323922 0.382793
-15.358 -0.941115 -15.358 1 0 0 255 255 255 255 0.324088 0.383055
-17.558 9.50156 -20.3934 -0 1 0 255 255 255 255 0.323827 0.382818
-20.3306 9.50156 -20.3934 -0 1 0 255 255 255 255 0.323304 0.382718
-20.3306 9.50156 -17.558 -0 1 0 255 255 255 255 0.323682 0.382426
-22.5306 7.30156 -15.358 0 0.707107 0.707107 255 255 255 255 0.323601 0.38234
-20.4885 7.30156 -15.358 0 0.707107 0.707107 255 255 255 255 0.323774 0.382409
-20.3306 9.50156 -17.558 0 0.707107 0.707107 255 255 255 255 0.323682 0.382426
-15.358 7.30156 -20.5293 0.594299 0.546968 0.589606 255 255 255 255 0.323922 0.382793
-20.3306 9.50156 -17.558 0.594299 0.546968 0.589606 255 255 255 255 0.323682 0.382426
-20.4885 7.30156 -15.358 0.594299 0.546968 0.589606 255 255 255 255 0.323774 0.382409
-15.358 7.30156 -20.5293 0.707107 0.707107 -0 255 255 255 255 0.323922 0.382793
-15.358 7.30156 -22.5934 0.707107 0.707107 -0 255 255 255 255 0.323821 0.382935
-17.558 9.50156 -20.3934 0.707107 0.707107 -0 255 255 255 255 0.323827 0.382818
-15.358 7.30156 -22.5934 0 0.707107 -0.707107 255 255 255 255 0.323821 0.382935
-20.3306 9.50156 -20.3934 0 0.707107 -0.707107 255 255 255 255 0.323304 0.382718
-17.558 9.50156 -20.3934 0 0.707107 -0.707107 255 255 255 255 0.323827 0.382818
-22.5306 7.30156 -15.358 -0.707107 0.707107 -0 255 255 255 255 0.323601 0.38234
-20.3306 9.50156 -20.3934 -0.707107 0.707107 -0 255 255 255 255 0.323304 0.382718
-22.5306 7.30156 -22.5934 -0.707107 0.707107 -0 255 255 255 255 0.323304 0.382718
-6.01805 6.24235 -21.6959 -0.018895 0.999643 -0.018895 255 255 255 255 0.274948 0.348124
14.8487 6.76619 -14.8487 -0.018895 0.999643 -0.018895 255 255 255 255 0.275039 0.348164
21.6959 6.76618 -21.6959 -0.018895 0.999643 -0.018895 255 255 255 255 0.274863 0.34818
2.15019 1.87398 -21.6959 0 -0 -1 255 255 255 255 0.274925 0.348281
21.6959 6.76618 -21.6959 0 -0 -1 255 255 255 255 0.274863 0.34818
21.6959 1.35014 -21.6959 0 -0 -1 255 255 255 255 0.274865 0.348334
15.358 -0.712635 -15.358 -0.02527 -0.942889 -0.332147 255 255 255 255 0.275021 0.348329
2.15019 1.87398 -21.6959 -0.02527 -0.942889 -0.332147 255 255 255 255 0.274925 0.348281
21.6959 1.35014 -21.6959 -0.02527 -0.942889 -0.332147 255 255 255 255 0.274865 0.348334
22.5934 0.853051 -15.358 0.999481 0.032218 -0 255 255 255 255 0.323824 0.383341
22.5934 0.85305 -22.5306 0.999481 0.032218 -0 255 255 255 255 0.323335 0.383126
22.3856 7.30156 -22.1073 0.999481 0.032218 -0 255 255 255 255 0.323304 0.382718
15.358 0.85305 -22.5306 0.060132 -0 -0.99819 255 255 255 255 0.323616 0.382751
15.358 7.30156 -22.5306 0.060132 -0 -0.99819 255 255 255 255 0.323601 0.38234
22.3856 7.30156 -22.1073 0.060132 -0 -0.99819 255 255 255 255 0.323304 0.382718
15.358 7.30156 -22.5306 -1 0 0 255 255 255 255 0.323601 0.38234
22.5934 7.30156 -15.358 -0 0 1 255 255 255 255 0.323821 0.382935
20.5293 7.30156 -15.358 -0.580341 0.557652 0.593489 255 255 255 255 0.323922 0.382793
20.3934 9.50156 -17.558 -0.580341 0.557652 0.593489 255 255 255 255 0.323827 0.382818
17.558 9.50156 -20.3306 -0.580341 0.557652 0.593489 255 255 255 255 0.323682 0.382426
22.3856 7.30156 -22.1073 0.741257 0.671221 0 255 255 255 255 0.323304 0.382718
20.3934 9.50156 -20.3306 0.741257 0.671221 0 255 255 255 255 0.323304 0.382718
20.3934 9.50156 -17.558 0.741257 0.671221 0 255 255 255 255 0.323827 0.382818
22.3856 7.30156 -22.1073 0.043857 0.684158 -0.728014 255 255 255 255 0.323304 0.382718
15.358 7.30156 -22.5306 0.043857 0.684158 -0.728014 255 255 255 255 0.323601 0.38234
17.558 9.50156 -20.3306 0.043857 0.684158 -0.728014 255 255 255 255 0.323682 0.382426
-9.47256 -1.66499 0 0 1 -0 255 255 255 255 0.275571 0.348279
-21.6959 6.76619 -1e-06 -1 0 0 255 255 255 255 0.275807 0.348084
21.6959 6.76618 -21.6959 1 0 0 255 255 255 255 0.274863 0.34818
2.15019 1.87398 -21.6959 0 -0.925863 -0.377859 255 255 255 255 0.274925 0.348281
15.358 -0.712635 -15.358 0 -0.925863 -0.377859 255 255 255 255 0.275021 0.348329
-15.358 -0.712635 -15.358 0 -0.925863 -0.377859 255 255 255 255 0.275107 0.348244
15.358 -0.712632 0 0.309486 -0.950904 0 255 255 255 255 0.275714 0.348333
-15.358 -0.712635 -15.358 -0.976818 -0.214071 0 255 255 255 255 0.322662 0.383207
15.358 -0.712635 -15.358 -0 -0.214071 -0.976818 255 255 255 255 0.322385 0.383188
14.2386 -5.82015 1e-06 0.976818 -0.214071 0 255 255 255 255 0.323191 0.383324
-11.9355 -10.0507 2e-06 -0.188723 -0.981244 -0.039294 255 255 255 255 0.275617 0.348432
-12.127 -9.52819 -12.127 -0.188723 -0.981244 -0.039294 255 255 255 255 0.27516 0.348429
-5.47805 -11.0732 -5.47805 -0.188723 -0.981244 -0.039294 255 255 255 255 0.275275 0.348452
11.9355 -10.0507 -11.9355 0 -0.987692 -0.156409 255 255 255 255 0.275113 0.348518
5.47805 -11.0732 -5.47805 0 -0.987692 -0.156409 255 255 255 255 0.275261 0.348493
-5.47805 -11.0732 -5.47805 0 -0.987692 -0.156409 255 255 255 255 0.275275 0.348452
5.47805 -11.0732 2e-06 0.156409 -0.987692 0 255 255 255 255 0.27549 0.348494
-14.8487 6.76619 -1e-06 0 1 -0 255 255 255 255 0.275661 0.348117
21.6959 6.76618 -21.6959 -0 1 -0 255 255 255 255 0.274863 0.34818
-9.47256 -1.66499 -9.47256 0 0.537646 0.843171 255 255 255 255 0.275203 0.348277
-9.47256 -1.66499 0 0.843171 0.537646 -0 255 255 255 255 0.275571 0.348279
14.8487 6.76619 -14.8487 -0.843171 0.537646 -0 255 255 255 255 0.275039 0.348164
-15.358 -0.712632 0 -0.309486 -0.950904 0 255 255 255 255 0.275677 0.348247
11.9355 -10.0507 2e-06 0.938925 -0.344121 0 255 255 255 255 0.275628 0.348522
-13.3077 -6.30673 -13.3077 -0 -0.344122 -0.938925 255 255 255 255 0.275136 0.348354
-13.3077 -6.30672 1e-06 -0.938925 -0.344122 0 255 255 255 255 0.275643 0.348357
-13.3077 -6.30673 -13.3077 -0.938925 -0.344122 0 255 255 255 255 0.275136 0.348354
-12.127 -9.52819 -12.127 -0.938925 -0.344122 0 255 255 255 255 0.27516 0.348429
-13.3077 -6.30673 -13.3077 -0.463209 -0.886249 0 255 255 255 255 0.32269 0.383332
-13.3077 -6.30672 1e-06 -0.463209 -0.886249 0 255 255 255 255 0.323278 0.383343
-14.2386 -5.82015 1e-06 -0.463209 -0.886249 0 255 255 255 255 0.323307 0.38333
-13.3077 -6.30673 -13.3077 0.019063 -0.878136 -0.478032 255 255 255 255 0.32269 0.383332
-14.2386 -5.82015 -14.2386 0.019063 -0.878136 -0.478032 255 255 255 255 0.322677 0.383321
14.3933 -5.11441 -14.3933 0.019063 -0.878136 -0.478032 255 255 255 255 0.322424 0.383325
13.3077 -6.30673 -13.3077 0.727359 -0.685771 -0.025809 255 255 255 255 0.322457 0.383338
14.3933 -5.11441 -14.3933 0.727359 -0.685771 -0.025809 255 255 255 255 0.322424 0.383325
14.2386 -5.82015 1e-06 0.727359 -0.685771 -0.025809 255 255 255 255 0.323191 0.383324
-21.6959 6.76619 -1e-06 -0 0 1 255 255 255 255 0.275807 0.348084
-15.358 0.85305 -22.5934 -0.013229 -0.014714 -0.999804 255 255 255 255 0.323824 0.383341
-22.3607 0.533827 -22.4961 -0.013229 -0.014714 -0.999804 255 255 255 255 0.323335 0.383126
-22.5306 7.30156 -22.5934 -0.013229 -0.014714 -0.999804 255 255 255 255 0.323304 0.382718
-22.5306 0.853051 -15.358 -1 0 0 255 255 255 255 0.323616 0.382751
-22.5306 7.30156 -15.358 -1 0 0 255 255 255 255 0.323601 0.38234
-22.5306 7.30156 -22.5934 -1 0 0 255 255 255 255 0.323304 0.382718
-22.5306 7.30156 -15.358 -0 0 1 255 255 255 255 0.323601 0.38234
-15.358 7.30156 -22.5934 1 0 0 255 255 255 255 0.323821 0.382935
-15.358 7.30156 -20.5293 0.593489 0.557652 0.580341 255 255 255 255 0.323922 0.382793
-17.558 9.50156 -20.3934 0.593489 0.557652 0.580341 255 255 255 255 0.323827 0.382818
-20.3306 9.50156 -17.558 0.593489 0.557652 0.580341 255 255 255 255 0.323682 0.382426
-22.5306 7.30156 -22.5934 0 0.707107 -0.707107 255 255 255 255 0.323304 0.382718
-20.3306 9.50156 -17.558 -0.707107 0.707107 0 255 255 255 255 0.323682 0.382426
-6.01805 6.24235 -21.6959 0 0.997086 -0.076281 255 255 255 255 0.274948 0.348124
-14.8487 6.76619 -14.8487 0 0.997086 -0.076281 255 255 255 255 0.275108 0.348104
14.8487 6.76619 -14.8487 0 0.997086 -0.076281 255 255 255 255 0.275039 0.348164
3 0 1 2 
3 3 4 5 
3 6 7 8 
3 9 10 11 
3 12 13 14 
3 15 16 17 
3 18 19 20 
3 21 22 23 
3 24 25 26 
3 27 28 29 
3 30 31 32 
3 33 34 35 
3 36 37 38 
3 39 40 41 
3 42 43 44 
3 45 46 47 
3 48 49 50 
3 51 52 53 
3 54 55 56 
3 57 58 59 
3 60 61 62 
3 63 64 65 
3 66 67 68 
3 69 70 71 
3 72 73 74 
3 75 76 77 
3 78 79 80 
3 81 82 83 
3 84 85 86 
3 87 88 89 
3 90 91 92 
3 93 94 95 
3 96 97 98 
3 99 100 101 
3 102 103 104 
3 105 106 107 
3 108 109 110 
3 111 112 113 
3 114 115 116 
3 117 118 119 
3 120 121 122 
3 123 124 125 
3 126 127 128 
3 129 130 131 
3 132 133 129 
3 134 135 136 
3 136 137 134 
3 138 135 139 
3 139 135 134 
3 140 139 141 
3 142 139 140 
3 143 144 145 
3 132 138 133 
3 138 142 146 
3 147 148 149 
3 150 151 152 
3 153 154 155 
3 156 157 158 
3 159 160 161 
3 162 163 164 
3 165 166 167 
3 168 169 170 
3 171 172 173 
3 174 175 176 
3 177 178 179 
3 180 181 182 
3 183 184 185 
3 186 187 188 
3 189 190 191 
3 192 193 194 
3 195 196 197 
3 198 199 200 
3 15 201 16 
3 18 202 19 
3 203 204 205 
3 206 207 208 
3 209 210 211 
3 39 189 40 
3 42 212 43 
3 45 213 46 
3 48 214 49 
3 215 216 217 
3 54 218 55 
3 57 219 58 
3 60 220 61 
3 63 221 64 
3 222 223 224 
3 225 226 227 
3 72 228 73 
3 87 229 88 
3 90 230 91 
3 93 231 94 
3 96 232 97 
3 99 233 100 
3 102 234 103 
3 105 235 106 
3 108 236 109 
3 237 238 239 
3 240 241 242 
3 243 244 245 
3 246 247 248 
3 129 133 130 
3 136 249 137 
3 138 132 135 
3 142 138 139 
3 250 251 252 
3 253 254 255 
3 162 256 163 
3 165 257 166 
3 258 259 260 
3 180 261 181 
3 183 262 184 
3 263 264 265 
3 189 39 190 
