ply
format ascii 1.0
comment VCGLIB generated
comment TextureFile Dungeons_2_Texture_01_A.png
element vertex 483
property float x
property float y
property float z
property float nx
property float ny
property float nz
property uchar red
property uchar green
property uchar blue
property uchar alpha
property float texture_u
property float texture_v
element face 248
property list uchar int vertex_indices
end_header
-1.91186 7.7864 -31.5741 0 -0.5 -0.866025 255 255 255 255 0.079792 0.281112
1.91186 24.843 -41.4217 0 -0.5 -0.866025 255 255 255 255 0.079824 0.280692
1.91186 7.7864 -31.5741 0 -0.5 -0.866025 255 255 255 255 0.079829 0.281151
-1.91186 40.1192 -53.8299 0 0.780214 -0.625513 255 255 255 255 0.079698 0.28016
1.91186 41.2958 -52.3623 0 0.780214 -0.625513 255 255 255 255 0.079802 0.280159
1.91186 40.1192 -53.8299 0 0.780214 -0.625513 255 255 255 255 0.079736 0.280169
-1.91186 25.7809 -39.7973 0 0.5 0.866025 255 255 255 255 0.079846 0.280662
1.91186 8.72424 -29.9497 0 0.5 0.866025 255 255 255 255 0.07989 0.281142
1.91186 25.7809 -39.7973 0 0.5 0.866025 255 255 255 255 0.079887 0.280687
-1.91186 8.72424 -29.9497 0 -0.866025 0.500001 255 255 255 255 0.07985 0.281104
1.91186 7.7864 -31.5741 0 -0.866025 0.500001 255 255 255 255 0.079829 0.281151
1.91186 8.72424 -29.9497 0 -0.866025 0.500001 255 255 255 255 0.07989 0.281142
-1.91186 8.72424 -29.9497 -1 0 0 255 255 255 255 0.07985 0.281104
-1.91186 24.843 -41.4217 -1 0 0 255 255 255 255 0.079785 0.280667
-1.91186 7.7864 -31.5741 -1 0 0 255 255 255 255 0.079792 0.281112
1.91186 7.7864 -31.5741 1 0 0 255 255 255 255 0.079829 0.281151
1.91186 25.7809 -39.7973 1 0 0 255 255 255 255 0.079887 0.280687
1.91186 8.72424 -29.9497 1 0 0 255 255 255 255 0.07989 0.281142
-1.91186 24.843 -41.4217 0 -0.63048 -0.776206 255 255 255 255 0.079785 0.280667
1.91186 40.1192 -53.8299 0 -0.63048 -0.776206 255 255 255 255 0.079736 0.280169
1.91186 24.843 -41.4217 0 -0.63048 -0.776206 255 255 255 255 0.079824 0.280692
-1.91186 41.2958 -52.3623 -1 0 0 255 255 255 255 0.079762 0.280151
-1.91186 40.1192 -53.8299 -1 0 0 255 255 255 255 0.079698 0.28016
1.91186 25.7809 -39.7973 0 0.629357 0.777116 255 255 255 255 0.079887 0.280687
-1.91186 41.2958 -52.3623 0 0.629357 0.777116 255 255 255 255 0.079762 0.280151
-1.91186 25.7809 -39.7973 0 0.629357 0.777116 255 255 255 255 0.079846 0.280662
1.91186 24.843 -41.4217 1 0 0 255 255 255 255 0.079824 0.280692
1.91186 41.2958 -52.3623 1 0 0 255 255 255 255 0.079802 0.280159
9.14228 40.8789 -40.0193 -0.863132 0.319895 0.39073 255 255 255 255 0.080182 0.278844
4.71125 39.3634 -48.5668 -0.863132 0.319895 0.39073 255 255 255 255 0.080304 0.278689
4.57114 36.9201 -46.876 -0.863132 0.319895 0.39073 255 255 255 255 0.080304 0.278803
4.57114 44.8376 -33.1626 -0.863132 -0.178434 -0.472403 255 255 255 255 0.080277 0.278891
9.42249 43.4434 -41.5 -0.863132 -0.178434 -0.472403 255 255 255 255 0.080181 0.278728
9.14228 40.8789 -40.0193 -0.863132 -0.178434 -0.472403 255 255 255 255 0.080182 0.278844
-4.71125 47.5235 -34.4331 0 -0.427599 -0.903969 255 255 255 255 0.080502 0.278775
4.57114 44.8376 -33.1626 0 -0.427599 -0.903969 255 255 255 255 0.080277 0.278891
-4.57114 44.8376 -33.1626 0 -0.427599 -0.903969 255 255 255 255 0.080501 0.278895
-9.42249 43.4434 -41.5 0.863132 -0.178434 -0.472402 255 255 255 255 0.08062 0.278734
-4.57114 44.8376 -33.1626 0.863132 -0.178434 -0.472402 255 255 255 255 0.080501 0.278895
-9.14228 40.8789 -40.0193 0.863132 -0.178434 -0.472402 255 255 255 255 0.080619 0.27885
-4.57114 36.9201 -46.876 0.863132 0.319895 0.39073 255 255 255 255 0.080518 0.278806
-9.42249 43.4434 -41.5 0.863132 0.319895 0.39073 255 255 255 255 0.08062 0.278734
-9.14228 40.8789 -40.0193 0.863132 0.319895 0.39073 255 255 255 255 0.080619 0.27885
4.71125 39.3634 -48.5668 0 0.569061 0.822296 255 255 255 255 0.080304 0.278689
-4.57114 36.9201 -46.876 0 0.569061 0.822296 255 255 255 255 0.080518 0.278806
4.57114 36.9201 -46.876 0 0.569061 0.822296 255 255 255 255 0.080304 0.278803
5.52806 36.0914 -48.3114 0.861804 -0.334187 -0.381593 255 255 255 255 0.080304 0.278803
11.395 43.4434 -41.5 0.861804 -0.334187 -0.381593 255 255 255 255 0.080181 0.278728
11.0561 40.8789 -40.0193 0.861804 -0.334187 -0.381593 255 255 255 255 0.080182 0.278844
11.0561 40.8789 -40.0193 0.861804 0.163376 0.480211 255 255 255 255 0.080182 0.278844
5.69748 48.3776 -32.9537 0.861804 0.163376 0.480211 255 255 255 255 0.080276 0.278772
5.52805 45.6663 -31.7272 0.861804 0.163376 0.480211 255 255 255 255 0.080277 0.278891
5.52805 45.6663 -31.7272 -0 0.412157 0.911113 255 255 255 255 0.080277 0.278891
-5.69749 48.3776 -32.9537 -0 0.412157 0.911113 255 255 255 255 0.080502 0.278775
-5.52805 45.6663 -31.7272 -0 0.412157 0.911113 255 255 255 255 0.080501 0.278895
-5.52805 45.6663 -31.7272 -0.861804 0.163376 0.480211 255 255 255 255 0.080501 0.278895
-11.395 43.4434 -41.5 -0.861804 0.163376 0.480211 255 255 255 255 0.08062 0.278734
-11.0561 40.8789 -40.0193 -0.861804 0.163376 0.480211 255 255 255 255 0.080619 0.27885
-11.0561 40.8789 -40.0193 -0.861804 -0.334187 -0.381593 255 255 255 255 0.080619 0.27885
-5.69748 38.5092 -50.0462 -0.861804 -0.334187 -0.381593 255 255 255 255 0.080518 0.278692
-5.52805 36.0914 -48.3114 -0.861804 -0.334187 -0.381593 255 255 255 255 0.080518 0.278806
-5.52805 36.0914 -48.3114 0 -0.582968 -0.812495 255 255 255 255 0.080518 0.278806
5.69749 38.5092 -50.0462 0 -0.582968 -0.812495 255 255 255 255 0.080304 0.278689
5.52806 36.0914 -48.3114 0 -0.582968 -0.812495 255 255 255 255 0.080304 0.278803
9.14228 40.8789 -40.0193 0 -0.866025 0.5 255 255 255 255 0.080182 0.278844
5.52806 36.0914 -48.3114 0 -0.866025 0.5 255 255 255 255 0.080304 0.278803
11.0561 40.8789 -40.0193 0 -0.866025 0.5 255 255 255 255 0.080182 0.278844
5.69749 38.5092 -50.0462 -1e-06 0.866026 -0.5 255 255 255 255 0.080304 0.278689
9.42249 43.4434 -41.5 -1e-06 0.866026 -0.5 255 255 255 255 0.080181 0.278728
11.395 43.4434 -41.5 -1e-06 0.866026 -0.5 255 255 255 255 0.080181 0.278728
5.52805 45.6663 -31.7272 0 -0.866025 0.500001 255 255 255 255 0.080277 0.278891
9.14228 40.8789 -40.0193 0 -0.866025 0.500001 255 255 255 255 0.080182 0.278844
11.0561 40.8789 -40.0193 0 -0.866025 0.500001 255 255 255 255 0.080182 0.278844
9.42249 43.4434 -41.5 -1e-06 0.866025 -0.500001 255 255 255 255 0.080181 0.278728
5.69748 48.3776 -32.9537 -1e-06 0.866025 -0.500001 255 255 255 255 0.080276 0.278772
11.395 43.4434 -41.5 -1e-06 0.866025 -0.500001 255 255 255 255 0.080181 0.278728
-5.52805 45.6663 -31.7272 0 -0.866026 0.499999 255 255 255 255 0.080501 0.278895
4.57114 44.8376 -33.1626 0 -0.866026 0.499999 255 255 255 255 0.080277 0.278891
5.52805 45.6663 -31.7272 0 -0.866026 0.499999 255 255 255 255 0.080277 0.278891
4.71125 47.5235 -34.4331 -0 0.866025 -0.500001 255 255 255 255 0.080276 0.278772
-5.69749 48.3776 -32.9537 -0 0.866025 -0.500001 255 255 255 255 0.080502 0.278775
5.69748 48.3776 -32.9537 -0 0.866025 -0.500001 255 255 255 255 0.080276 0.278772
-9.14228 40.8789 -40.0193 0 -0.866025 0.5 255 255 255 255 0.080619 0.27885
-5.52805 45.6663 -31.7272 0 -0.866025 0.5 255 255 255 255 0.080501 0.278895
-11.0561 40.8789 -40.0193 0 -0.866025 0.5 255 255 255 255 0.080619 0.27885
-5.69749 48.3776 -32.9537 0 0.866025 -0.5 255 255 255 255 0.080502 0.278775
-9.42249 43.4434 -41.5 0 0.866025 -0.5 255 255 255 255 0.08062 0.278734
-11.395 43.4434 -41.5 0 0.866025 -0.5 255 255 255 255 0.08062 0.278734
-5.52805 36.0914 -48.3114 0 -0.866025 0.5 255 255 255 255 0.080518 0.278806
-5.69748 38.5092 -50.0462 0 0.866025 -0.5 255 255 255 255 0.080518 0.278692
5.52806 36.0914 -48.3114 0 -0.866026 0.499999 255 255 255 255 0.080304 0.278803
-4.57114 36.9201 -46.876 0 -0.866026 0.499999 255 255 255 255 0.080518 0.278806
-5.52805 36.0914 -48.3114 0 -0.866026 0.499999 255 255 255 255 0.080518 0.278806
-4.71124 39.3634 -48.5668 0 0.866025 -0.500001 255 255 255 255 0.080518 0.278692
5.69749 38.5092 -50.0462 0 0.866025 -0.500001 255 255 255 255 0.080304 0.278689
-5.69748 38.5092 -50.0462 0 0.866025 -0.500001 255 255 255 255 0.080518 0.278692
9.23244 11.4467 -25.2343 1 0 0 255 255 255 255 0.079792 0.281112
9.23244 30.4152 -31.7705 1 0 0 255 255 255 255 0.079824 0.280692
9.23244 13.3586 -21.9228 1 0 0 255 255 255 255 0.079829 0.281151
12.3402 47.2452 -41.4873 0.151603 0.856015 -0.494221 255 255 255 255 0.079736 0.280169
10.4809 45.5804 -44.9413 0.151603 0.856015 -0.494221 255 255 255 255 0.079762 0.280151
10.4809 47.4922 -41.6299 0.151603 0.856015 -0.494221 255 255 255 255 0.079802 0.280159
7.35675 30.4152 -31.7705 -1 0 -0 255 255 255 255 0.079887 0.280687
7.35675 11.4467 -25.2343 -1 0 -0 255 255 255 255 0.07985 0.281104
7.35675 13.3586 -21.9228 -1 0 -0 255 255 255 255 0.07989 0.281142
7.35675 11.4467 -25.2343 0 -0.866026 0.5 255 255 255 255 0.07985 0.281104
9.23244 13.3586 -21.9228 0 -0.866026 0.5 255 255 255 255 0.079829 0.281151
7.35675 13.3586 -21.9228 0 -0.866026 0.5 255 255 255 255 0.07989 0.281142
7.35675 11.4467 -25.2343 0 -0.5 -0.866025 255 255 255 255 0.07985 0.281104
9.23244 28.5033 -35.0819 0 -0.5 -0.866025 255 255 255 255 0.079785 0.280667
9.23244 11.4467 -25.2343 0 -0.5 -0.866025 255 255 255 255 0.079792 0.281112
9.23244 13.3586 -21.9228 0 0.5 0.866025 255 255 255 255 0.079829 0.281151
7.35675 30.4152 -31.7705 0 0.5 0.866025 255 255 255 255 0.079887 0.280687
7.35675 13.3586 -21.9228 0 0.5 0.866025 255 255 255 255 0.07989 0.281142
9.23244 30.4152 -31.7705 0.987454 -0.136753 0.078954 255 255 255 255 0.079824 0.280692
12.3402 45.3334 -44.7988 0.987454 -0.136753 0.078954 255 255 255 255 0.079698 0.28016
12.3402 47.2452 -41.4873 0.987454 -0.136753 0.078954 255 255 255 255 0.079736 0.280169
10.4809 45.5804 -44.9413 -0 -0.5 -0.866025 255 255 255 255 0.079762 0.280151
12.3402 45.3334 -44.7988 -0 -0.5 -0.866025 255 255 255 255 0.079698 0.28016
7.35675 30.4152 -31.7705 -0.987681 0.135516 -0.07824 255 255 255 255 0.079887 0.280687
10.4809 45.5804 -44.9413 -0.987681 0.135516 -0.07824 255 255 255 255 0.079762 0.280151
7.35675 28.5033 -35.0819 -0.987681 0.135516 -0.07824 255 255 255 255 0.079846 0.280662
9.23244 30.4152 -31.7705 0 0.5 0.866025 255 255 255 255 0.079824 0.280692
10.4809 47.4922 -41.6299 0 0.5 0.866025 255 255 255 255 0.079802 0.280159
1.91186 17.0188 -15.583 0 0.5 0.866025 255 255 255 255 0.079792 0.281112
-1.91186 34.0755 -25.4307 0 0.5 0.866025 255 255 255 255 0.079824 0.280692
-1.91186 17.0188 -15.583 0 0.5 0.866025 255 255 255 255 0.079829 0.281151
1.91186 52.4594 -32.4561 0 0.931817 -0.362929 255 255 255 255 0.079698 0.28016
-1.91186 51.7767 -34.2089 0 0.931817 -0.362929 255 255 255 255 0.079802 0.280159
-1.91186 52.4594 -32.4561 0 0.931817 -0.362929 255 255 255 255 0.079736 0.280169
1.91186 33.1376 -27.055 0 -0.5 -0.866025 255 255 255 255 0.079846 0.280662
-1.91186 16.081 -17.2074 0 -0.5 -0.866025 255 255 255 255 0.07989 0.281142
-1.91186 33.1376 -27.055 0 -0.5 -0.866025 255 255 255 255 0.079887 0.280687
1.91186 16.081 -17.2074 0 -0.866026 0.5 255 255 255 255 0.07985 0.281104
-1.91186 17.0188 -15.583 0 -0.866026 0.5 255 255 255 255 0.079829 0.281151
-1.91186 16.081 -17.2074 0 -0.866026 0.5 255 255 255 255 0.07989 0.281142
1.91186 17.0188 -15.583 1 0 0 255 255 255 255 0.079792 0.281112
1.91186 33.1376 -27.055 1 0 0 255 255 255 255 0.079846 0.280662
1.91186 34.0755 -25.4307 1 0 0 255 255 255 255 0.079785 0.280667
-1.91186 17.0188 -15.583 -1 0 0 255 255 255 255 0.079829 0.281151
-1.91186 33.1376 -27.055 -1 0 0 255 255 255 255 0.079887 0.280687
-1.91186 16.081 -17.2074 -1 0 0 255 255 255 255 0.07989 0.281142
1.91186 34.0755 -25.4307 0 0.356974 0.934114 255 255 255 255 0.079785 0.280667
-1.91186 52.4594 -32.4561 0 0.356974 0.934114 255 255 255 255 0.079736 0.280169
-1.91186 34.0755 -25.4307 0 0.356974 0.934114 255 255 255 255 0.079824 0.280692
1.91186 51.7767 -34.2089 1 0 0 255 255 255 255 0.079762 0.280151
1.91186 52.4594 -32.4561 1 0 0 255 255 255 255 0.079698 0.28016
-1.91186 33.1376 -27.055 0 -0.358324 -0.933597 255 255 255 255 0.079887 0.280687
1.91186 51.7767 -34.2089 0 -0.358324 -0.933597 255 255 255 255 0.079762 0.280151
1.91186 33.1376 -27.055 0 -0.358324 -0.933597 255 255 255 255 0.079846 0.280662
-1.91186 34.0755 -25.4307 -1 0 0 255 255 255 255 0.079824 0.280692
-1.91186 51.7767 -34.2089 -1 0 0 255 255 255 255 0.079802 0.280159
-3.192 1.47826 -21.9813 0 1 -0 255 255 255 255 0.080518 0.278692
6.38401 1.47826 -16.4526 0 1 -0 255 255 255 255 0.080181 0.278728
3.192 1.47826 -21.9813 0 1 -0 255 255 255 255 0.080304 0.278689
3.192 -1.35788 -21.9813 0.866025 0 -0.5 255 255 255 255 0.080304 0.278803
6.38401 1.47826 -16.4526 0.866025 0 -0.5 255 255 255 255 0.080181 0.278728
6.38401 -1.35787 -16.4526 0.866025 0 -0.5 255 255 255 255 0.080182 0.278844
6.38401 -1.35787 -16.4526 0.847409 -0 0.530941 255 255 255 255 0.080182 0.278844
2.92001 1.47826 -10.9239 0.847409 -0 0.530941 255 255 255 255 0.080276 0.278772
2.92001 -1.35787 -10.9239 0.847409 -0 0.530941 255 255 255 255 0.080277 0.278891
2.92001 -1.35787 2.88034 0 0 1 255 255 255 255 0.080277 0.278891
-2.92002 1.47826 2.88034 0 0 1 255 255 255 255 0.080502 0.278775
-2.92002 -1.35787 2.88034 0 0 1 255 255 255 255 0.080501 0.278895
-2.92002 -1.35787 -10.9239 -0.847409 0 0.530941 255 255 255 255 0.080501 0.278895
-6.38401 1.47826 -16.4526 -0.847409 0 0.530941 255 255 255 255 0.08062 0.278734
-6.38401 -1.35787 -16.4526 -0.847409 0 0.530941 255 255 255 255 0.080619 0.27885
-6.38401 -1.35787 -16.4526 -0.866025 0 -0.5 255 255 255 255 0.080619 0.27885
-3.192 1.47826 -21.9813 -0.866025 0 -0.5 255 255 255 255 0.080518 0.278692
-3.192 -1.35788 -21.9813 -0.866025 0 -0.5 255 255 255 255 0.080518 0.278806
-3.192 -1.35788 -21.9813 -0 0 -1 255 255 255 255 0.080518 0.278806
3.192 1.47826 -21.9813 -0 0 -1 255 255 255 255 0.080304 0.278689
3.192 -1.35788 -21.9813 -0 0 -1 255 255 255 255 0.080304 0.278803
-3.192 -1.35788 -21.9813 0 -1 0 255 255 255 255 0.080518 0.278806
6.38401 -1.35787 -16.4526 0 -1 0 255 255 255 255 0.080182 0.278844
-6.38401 -1.35787 -16.4526 0 -1 0 255 255 255 255 0.080619 0.27885
-2.92002 -1.35787 -10.9239 -0 -1 0 255 255 255 255 0.080501 0.278895
2.92001 -1.35787 -10.9239 -0 -1 0 255 255 255 255 0.080277 0.278891
-2.92002 1.47826 -10.9239 0 1 -0 255 255 255 255 0.080502 0.278775
2.92001 1.47826 -10.9239 0 1 -0 255 255 255 255 0.080276 0.278772
-2.92002 -1.35787 2.88034 -0 -1 0 255 255 255 255 0.080501 0.278895
2.92001 1.47826 -10.9239 1 -0 0 255 255 255 255 0.080276 0.278772
2.92001 -1.35787 2.88034 1 -0 0 255 255 255 255 0.080277 0.278891
2.92001 -1.35787 -10.9239 1 -0 0 255 255 255 255 0.080277 0.278891
2.92001 1.47826 2.88034 0 1 -0 255 255 255 255 0.080276 0.278772
-2.92002 -1.35787 -10.9239 -1 -0 0 255 255 255 255 0.080501 0.278895
-2.92002 1.47826 2.88034 -1 -0 0 255 255 255 255 0.080502 0.278775
-2.92002 1.47826 -10.9239 -1 -0 0 255 255 255 255 0.080502 0.278775
-9.23244 13.3586 -21.9228 -1 0 0 255 255 255 255 0.079792 0.281112
-9.23244 28.5033 -35.0819 -1 0 0 255 255 255 255 0.079824 0.280692
-9.23244 11.4467 -25.2343 -1 0 0 255 255 255 255 0.079829 0.281151
-12.3402 47.2452 -41.4873 -0.151603 0.856015 -0.494221 255 255 255 255 0.079698 0.28016
-10.4809 45.5804 -44.9413 -0.151603 0.856015 -0.494221 255 255 255 255 0.079802 0.280159
-12.3402 45.3334 -44.7988 -0.151603 0.856015 -0.494221 255 255 255 255 0.079736 0.280169
-7.35675 30.4152 -31.7705 1 -0 -0 255 255 255 255 0.079846 0.280662
-7.35675 11.4467 -25.2343 1 -0 -0 255 255 255 255 0.07989 0.281142
-7.35675 28.5033 -35.0819 1 -0 -0 255 255 255 255 0.079887 0.280687
-7.35675 13.3586 -21.9228 0 -0.866026 0.5 255 255 255 255 0.07985 0.281104
-9.23244 11.4467 -25.2343 0 -0.866026 0.5 255 255 255 255 0.079829 0.281151
-7.35675 11.4467 -25.2343 0 -0.866026 0.5 255 255 255 255 0.07989 0.281142
-7.35675 13.3586 -21.9228 0 0.5 0.866025 255 255 255 255 0.07985 0.281104
-9.23244 30.4152 -31.7705 0 0.5 0.866025 255 255 255 255 0.079785 0.280667
-9.23244 13.3586 -21.9228 0 0.5 0.866025 255 255 255 255 0.079792 0.281112
-9.23244 11.4467 -25.2343 0 -0.5 -0.866025 255 255 255 255 0.079829 0.281151
-7.35675 28.5033 -35.0819 0 -0.5 -0.866025 255 255 255 255 0.079887 0.280687
-7.35675 11.4467 -25.2343 0 -0.5 -0.866025 255 255 255 255 0.07989 0.281142
-9.23244 30.4152 -31.7705 -0.987454 -0.136753 0.078954 255 255 255 255 0.079785 0.280667
-12.3402 45.3334 -44.7988 -0.987454 -0.136753 0.078954 255 255 255 255 0.079736 0.280169
-9.23244 28.5033 -35.0819 -0.987454 -0.136753 0.078954 255 255 255 255 0.079824 0.280692
-10.4809 47.4922 -41.6299 -0 0.5 0.866025 255 255 255 255 0.079762 0.280151
-12.3402 47.2452 -41.4873 -0 0.5 0.866025 255 255 255 255 0.079698 0.28016
-7.35675 28.5033 -35.0819 0.987681 0.135516 -0.07824 255 255 255 255 0.079887 0.280687
-10.4809 47.4922 -41.6299 0.987681 0.135516 -0.07824 255 255 255 255 0.079762 0.280151
-7.35675 30.4152 -31.7705 0.987681 0.135516 -0.07824 255 255 255 255 0.079846 0.280662
-9.23244 28.5033 -35.0819 0 -0.5 -0.866025 255 255 255 255 0.079824 0.280692
-10.4809 45.5804 -44.9413 0 -0.5 -0.866025 255 255 255 255 0.079802 0.280159
6.64733 29.0576 -33.1943 -0.866025 0.25 0.433013 255 255 255 255 0.080181 0.278728
3.32367 23.6147 -36.6992 -0.866025 0.25 0.433013 255 255 255 255 0.080304 0.278803
6.64733 26.4931 -31.7137 -0.866025 0.25 0.433013 255 255 255 255 0.080182 0.278844
3.32367 29.3714 -26.7282 -0.866025 -0.25 -0.433013 255 255 255 255 0.080277 0.278891
6.64733 29.0576 -33.1943 -0.866025 -0.25 -0.433013 255 255 255 255 0.080181 0.278728
6.64733 26.4931 -31.7137 -0.866025 -0.25 -0.433013 255 255 255 255 0.080182 0.278844
-3.32367 31.936 -28.2088 0 -0.5 -0.866025 255 255 255 255 0.080502 0.278775
3.32367 29.3714 -26.7282 0 -0.5 -0.866025 255 255 255 255 0.080277 0.278891
-3.32367 29.3714 -26.7282 0 -0.5 -0.866025 255 255 255 255 0.080501 0.278895
-6.64733 26.4931 -31.7137 0.866025 -0.25 -0.433013 255 255 255 255 0.080619 0.27885
-3.32367 31.936 -28.2088 0.866025 -0.25 -0.433013 255 255 255 255 0.080502 0.278775
-3.32367 29.3714 -26.7282 0.866025 -0.25 -0.433013 255 255 255 255 0.080501 0.278895
-3.32366 23.6147 -36.6992 0.866025 0.25 0.433013 255 255 255 255 0.080518 0.278806
-6.64733 29.0576 -33.1943 0.866025 0.25 0.433013 255 255 255 255 0.08062 0.278734
-6.64733 26.4931 -31.7137 0.866025 0.25 0.433013 255 255 255 255 0.080619 0.27885
3.32367 26.1792 -38.1798 0 0.500001 0.866025 255 255 255 255 0.080304 0.278689
-3.32366 23.6147 -36.6992 0 0.500001 0.866025 255 255 255 255 0.080518 0.278806
3.32367 23.6147 -36.6992 0 0.500001 0.866025 255 255 255 255 0.080304 0.278803
4.24743 22.8147 -38.0848 0.866025 -0.25 -0.433013 255 255 255 255 0.080304 0.278803
8.49485 29.0576 -33.1943 0.866025 -0.25 -0.433013 255 255 255 255 0.080181 0.278728
8.49485 26.4931 -31.7137 0.866025 -0.25 -0.433013 255 255 255 255 0.080182 0.278844
8.49485 26.4931 -31.7137 0.866025 0.25 0.433013 255 255 255 255 0.080182 0.278844
4.24743 32.736 -26.8232 0.866025 0.25 0.433013 255 255 255 255 0.080276 0.278772
4.24743 30.1714 -25.3425 0.866025 0.25 0.433013 255 255 255 255 0.080277 0.278891
4.24743 30.1714 -25.3425 0 0.500001 0.866025 255 255 255 255 0.080277 0.278891
-4.24743 32.736 -26.8232 0 0.500001 0.866025 255 255 255 255 0.080502 0.278775
-4.24743 30.1714 -25.3425 0 0.500001 0.866025 255 255 255 255 0.080501 0.278895
-8.49485 26.4931 -31.7137 -0.866025 0.25 0.433013 255 255 255 255 0.080619 0.27885
-4.24743 32.736 -26.8232 -0.866025 0.25 0.433013 255 255 255 255 0.080502 0.278775
-8.49485 29.0576 -33.1943 -0.866025 0.25 0.433013 255 255 255 255 0.08062 0.278734
-8.49485 26.4931 -31.7137 -0.866025 -0.25 -0.433013 255 255 255 255 0.080619 0.27885
-4.24743 25.3792 -39.5654 -0.866025 -0.25 -0.433013 255 255 255 255 0.080518 0.278692
-4.24743 22.8147 -38.0848 -0.866025 -0.25 -0.433013 255 255 255 255 0.080518 0.278806
-4.24743 22.8147 -38.0848 0 -0.5 -0.866025 255 255 255 255 0.080518 0.278806
4.24743 25.3792 -39.5654 0 -0.5 -0.866025 255 255 255 255 0.080304 0.278689
4.24743 22.8147 -38.0848 0 -0.5 -0.866025 255 255 255 255 0.080304 0.278803
8.49485 26.4931 -31.7137 0 -0.866025 0.5 255 255 255 255 0.080182 0.278844
3.32367 23.6147 -36.6992 0 -0.866025 0.5 255 255 255 255 0.080304 0.278803
4.24743 22.8147 -38.0848 0 -0.866025 0.5 255 255 255 255 0.080304 0.278803
3.32367 26.1792 -38.1798 -0 0.866025 -0.5 255 255 255 255 0.080304 0.278689
8.49485 29.0576 -33.1943 -0 0.866025 -0.5 255 255 255 255 0.080181 0.278728
4.24743 25.3792 -39.5654 -0 0.866025 -0.5 255 255 255 255 0.080304 0.278689
4.24743 30.1714 -25.3425 0 -0.866025 0.5 255 255 255 255 0.080277 0.278891
6.64733 26.4931 -31.7137 0 -0.866025 0.5 255 255 255 255 0.080182 0.278844
6.64733 29.0576 -33.1943 -1e-06 0.866025 -0.5 255 255 255 255 0.080181 0.278728
4.24743 32.736 -26.8232 -1e-06 0.866025 -0.5 255 255 255 255 0.080276 0.278772
8.49485 29.0576 -33.1943 -1e-06 0.866025 -0.5 255 255 255 255 0.080181 0.278728
-4.24743 30.1714 -25.3425 0 -0.866025 0.5 255 255 255 255 0.080501 0.278895
3.32367 29.3714 -26.7282 0 -0.866025 0.5 255 255 255 255 0.080277 0.278891
3.32367 31.936 -28.2088 0 0.866026 -0.5 255 255 255 255 0.080276 0.278772
-4.24743 32.736 -26.8232 0 0.866026 -0.5 255 255 255 255 0.080502 0.278775
4.24743 32.736 -26.8232 0 0.866026 -0.5 255 255 255 255 0.080276 0.278772
-6.64733 26.4931 -31.7137 0 -0.866025 0.5 255 255 255 255 0.080619 0.27885
-8.49485 26.4931 -31.7137 0 -0.866025 0.5 255 255 255 255 0.080619 0.27885
-4.24743 32.736 -26.8232 -1e-06 0.866026 -0.5 255 255 255 255 0.080502 0.278775
-6.64733 29.0576 -33.1943 -1e-06 0.866026 -0.5 255 255 255 255 0.08062 0.278734
-8.49485 29.0576 -33.1943 -1e-06 0.866026 -0.5 255 255 255 255 0.08062 0.278734
-4.24743 22.8147 -38.0848 0 -0.866026 0.5 255 255 255 255 0.080518 0.278806
-6.64733 26.4931 -31.7137 0 -0.866026 0.5 255 255 255 255 0.080619 0.27885
-8.49485 26.4931 -31.7137 0 -0.866026 0.5 255 255 255 255 0.080619 0.27885
-6.64733 29.0576 -33.1943 -1e-06 0.866025 -0.5 255 255 255 255 0.08062 0.278734
-4.24743 25.3792 -39.5654 -1e-06 0.866025 -0.5 255 255 255 255 0.080518 0.278692
-8.49485 29.0576 -33.1943 -1e-06 0.866025 -0.5 255 255 255 255 0.08062 0.278734
-4.24743 22.8147 -38.0848 0 -0.866025 0.5 255 255 255 255 0.080518 0.278806
-3.32366 26.1792 -38.1798 0 0.866025 -0.5 255 255 255 255 0.080518 0.278692
-4.24743 25.3792 -39.5654 0 0.866025 -0.5 255 255 255 255 0.080518 0.278692
-1.70414 -25.9878 -4.82208 0 -0.5 -0.866025 255 255 255 255 0.080457 0.279627
1.70414 12.1796 -26.8581 0 -0.5 -0.866025 255 255 255 255 0.080353 0.278825
1.70414 -25.9878 -4.82208 0 -0.5 -0.866025 255 255 255 255 0.080354 0.279625
-3.40828 -24.512 -2.26587 -0.866025 -0.25 -0.433013 255 255 255 255 0.080504 0.279659
-1.70414 12.1796 -26.8581 -0.866025 -0.25 -0.433013 255 255 255 255 0.080458 0.278827
-1.70414 -25.9878 -4.82208 -0.866025 -0.25 -0.433013 255 255 255 255 0.080457 0.279627
-1.70414 -23.0362 0.290341 -0.866025 0.25 0.433013 255 255 255 255 0.080447 0.279689
-3.40828 13.6555 -24.3019 -0.866025 0.25 0.433013 255 255 255 255 0.080507 0.278849
-3.40828 -24.512 -2.26587 -0.866025 0.25 0.433013 255 255 255 255 0.080504 0.279659
1.70414 -23.0362 0.290341 0 0.5 0.866025 255 255 255 255 0.080342 0.279687
-1.70414 15.1313 -21.7457 0 0.5 0.866025 255 255 255 255 0.080449 0.27887
-1.70414 -23.0362 0.290341 0 0.5 0.866025 255 255 255 255 0.080447 0.279689
3.40828 -24.512 -2.26587 0.866025 0.25 0.433013 255 255 255 255 0.080297 0.279655
1.70414 15.1313 -21.7457 0.866025 0.25 0.433013 255 255 255 255 0.08034 0.278869
1.70414 -23.0362 0.290341 0.866025 0.25 0.433013 255 255 255 255 0.080342 0.279687
1.70414 -25.9878 -4.82208 0.866026 -0.25 -0.433012 255 255 255 255 0.080354 0.279625
3.40828 13.6555 -24.3019 0.866026 -0.25 -0.433012 255 255 255 255 0.080293 0.278846
3.40828 -24.512 -2.26587 0.866026 -0.25 -0.433012 255 255 255 255 0.080297 0.279655
1.70414 -23.0362 0.290341 0 -0.866025 0.5 255 255 255 255 0.080342 0.279687
-1.70414 -23.0362 0.290341 0 -0.866025 0.5 255 255 255 255 0.080447 0.279689
-1.70414 -25.9878 -4.82208 0 -0.866025 0.5 255 255 255 255 0.080457 0.279627
-4.24743 13.2454 -32.5599 0 0.866025 -0.5 255 255 255 255 0.080518 0.278692
8.49485 16.9237 -26.1888 0 0.866025 -0.5 255 255 255 255 0.080181 0.278728
4.24743 13.2454 -32.5599 0 0.866025 -0.5 255 255 255 255 0.080304 0.278689
8.49485 13.6555 -24.3019 0.866026 -0.25 -0.433013 255 255 255 255 0.080182 0.278844
4.24743 13.2454 -32.5599 0.866026 -0.25 -0.433013 255 255 255 255 0.080304 0.278689
8.49485 16.9237 -26.1888 0.866026 -0.25 -0.433013 255 255 255 255 0.080181 0.278728
4.24743 17.3338 -17.9307 0.866025 0.25 0.433013 255 255 255 255 0.080277 0.278891
8.49485 16.9237 -26.1888 0.866025 0.25 0.433013 255 255 255 255 0.080181 0.278728
4.24743 20.6021 -19.8177 0.866025 0.25 0.433013 255 255 255 255 0.080276 0.278772
4.24743 17.3338 -17.9307 -0 0.5 0.866025 255 255 255 255 0.080277 0.278891
-4.24743 20.6021 -19.8177 -0 0.5 0.866025 255 255 255 255 0.080502 0.278775
-4.24743 17.3338 -17.9307 -0 0.5 0.866025 255 255 255 255 0.080501 0.278895
-4.24743 17.3338 -17.9307 -0.866025 0.25 0.433013 255 255 255 255 0.080501 0.278895
-8.49485 16.9237 -26.1888 -0.866025 0.25 0.433013 255 255 255 255 0.08062 0.278734
-8.49485 13.6555 -24.3019 -0.866025 0.25 0.433013 255 255 255 255 0.080619 0.27885
-8.49485 13.6555 -24.3019 -0.866025 -0.25 -0.433013 255 255 255 255 0.080619 0.27885
-4.24743 13.2454 -32.5599 -0.866025 -0.25 -0.433013 255 255 255 255 0.080518 0.278692
-4.24743 9.97708 -30.673 -0.866025 -0.25 -0.433013 255 255 255 255 0.080518 0.278806
-4.24743 9.97708 -30.673 0 -0.5 -0.866025 255 255 255 255 0.080518 0.278806
4.24743 13.2454 -32.5599 0 -0.5 -0.866025 255 255 255 255 0.080304 0.278689
4.24743 9.97708 -30.673 0 -0.5 -0.866025 255 255 255 255 0.080304 0.278803
3.40828 13.6555 -24.3019 0 -0.866025 0.5 255 255 255 255 0.080293 0.278846
4.24743 9.97708 -30.673 0 -0.866025 0.5 255 255 255 255 0.080304 0.278803
8.49485 13.6555 -24.3019 0 -0.866025 0.5 255 255 255 255 0.080182 0.278844
4.24743 17.3338 -17.9307 -0 -0.866025 0.5 255 255 255 255 0.080277 0.278891
1.70414 15.1313 -21.7457 -0 -0.866025 0.5 255 255 255 255 0.08034 0.278869
-1.70414 15.1313 -21.7457 0 -0.866025 0.5 255 255 255 255 0.080449 0.27887
-4.24743 17.3338 -17.9307 0 -0.866025 0.5 255 255 255 255 0.080501 0.278895
-3.40828 13.6555 -24.3019 0 -0.866025 0.5 255 255 255 255 0.080507 0.278849
-8.49485 13.6555 -24.3019 0 -0.866025 0.5 255 255 255 255 0.080619 0.27885
-4.24743 9.97708 -30.673 -0 -0.866025 0.5 255 255 255 255 0.080518 0.278806
-1.70414 12.1796 -26.8581 -0 -0.866025 0.5 255 255 255 255 0.080458 0.278827
1.70414 12.1796 -26.8581 0 -0.866025 0.5 255 255 255 255 0.080353 0.278825
-4.24743 20.6021 -19.8177 -0 0.866025 -0.5 255 255 255 255 0.080502 0.278775
4.24743 20.6021 -19.8177 -0 0.866025 -0.5 255 255 255 255 0.080276 0.278772
-1.91186 24.843 -41.4217 -0 -0.5 -0.866025 255 255 255 255 0.079785 0.280667
-1.91186 41.2958 -52.3623 0 0.780214 -0.625513 255 255 255 255 0.079762 0.280151
-1.91186 8.72424 -29.9497 0 0.5 0.866025 255 255 255 255 0.07985 0.281104
-1.91186 7.7864 -31.5741 0 -0.866025 0.500001 255 255 255 255 0.079792 0.281112
-1.91186 25.7809 -39.7973 -1 0 0 255 255 255 255 0.079846 0.280662
-1.91186 40.1192 -53.8299 -0 -0.63048 -0.776206 255 255 255 255 0.079698 0.28016
1.91186 41.2958 -52.3623 -0 0.629357 0.777116 255 255 255 255 0.079802 0.280159
1.91186 40.1192 -53.8299 1 0 0 255 255 255 255 0.079736 0.280169
9.42249 43.4434 -41.5 -0.863132 0.319895 0.39073 255 255 255 255 0.080181 0.278728
4.71125 47.5235 -34.4331 -0.863132 -0.178434 -0.472403 255 255 255 255 0.080276 0.278772
-4.71125 47.5235 -34.4331 0 -0.427598 -0.903969 255 255 255 255 0.080502 0.278775
4.71125 47.5235 -34.4331 0 -0.427598 -0.903969 255 255 255 255 0.080276 0.278772
4.57114 44.8376 -33.1626 0 -0.427598 -0.903969 255 255 255 255 0.080277 0.278891
-4.71125 47.5235 -34.4331 0.863132 -0.178434 -0.472402 255 255 255 255 0.080502 0.278775
-4.57114 36.9201 -46.876 0.863132 0.319896 0.39073 255 255 255 255 0.080518 0.278806
-4.71124 39.3634 -48.5668 0.863132 0.319896 0.39073 255 255 255 255 0.080518 0.278692
-9.42249 43.4434 -41.5 0.863132 0.319896 0.39073 255 255 255 255 0.08062 0.278734
-4.71124 39.3634 -48.5668 -0 0.569061 0.822296 255 255 255 255 0.080518 0.278692
5.69749 38.5092 -50.0462 0.861804 -0.334187 -0.381593 255 255 255 255 0.080304 0.278689
11.395 43.4434 -41.5 0.861804 0.163376 0.480211 255 255 255 255 0.080181 0.278728
5.69748 48.3776 -32.9537 -0 0.412157 0.911113 255 255 255 255 0.080276 0.278772
-5.69749 48.3776 -32.9537 -0.861804 0.163376 0.480211 255 255 255 255 0.080502 0.278775
-11.395 43.4434 -41.5 -0.861804 -0.334187 -0.381593 255 255 255 255 0.08062 0.278734
-5.69748 38.5092 -50.0462 -0 -0.582968 -0.812495 255 255 255 255 0.080518 0.278692
9.14228 40.8789 -40.0193 0 -0.866026 0.5 255 255 255 255 0.080182 0.278844
4.57114 36.9201 -46.876 0 -0.866026 0.5 255 255 255 255 0.080304 0.278803
5.52806 36.0914 -48.3114 0 -0.866026 0.5 255 255 255 255 0.080304 0.278803
5.69749 38.5092 -50.0462 1e-06 0.866025 -0.5 255 255 255 255 0.080304 0.278689
4.71125 39.3634 -48.5668 1e-06 0.866025 -0.5 255 255 255 255 0.080304 0.278689
9.42249 43.4434 -41.5 1e-06 0.866025 -0.5 255 255 255 255 0.080181 0.278728
5.52805 45.6663 -31.7272 -1e-06 -0.866025 0.5 255 255 255 255 0.080277 0.278891
4.57114 44.8376 -33.1626 -1e-06 -0.866025 0.5 255 255 255 255 0.080277 0.278891
9.14228 40.8789 -40.0193 -1e-06 -0.866025 0.5 255 255 255 255 0.080182 0.278844
4.71125 47.5235 -34.4331 -1e-06 0.866025 -0.500001 255 255 255 255 0.080276 0.278772
-5.52805 45.6663 -31.7272 0 -0.866026 0.5 255 255 255 255 0.080501 0.278895
-4.57114 44.8376 -33.1626 0 -0.866026 0.5 255 255 255 255 0.080501 0.278895
4.57114 44.8376 -33.1626 0 -0.866026 0.5 255 255 255 255 0.080277 0.278891
4.71125 47.5235 -34.4331 0 0.866026 -0.499998 255 255 255 255 0.080276 0.278772
-4.71125 47.5235 -34.4331 0 0.866026 -0.499998 255 255 255 255 0.080502 0.278775
-5.69749 48.3776 -32.9537 0 0.866026 -0.499998 255 255 255 255 0.080502 0.278775
-9.14228 40.8789 -40.0193 1e-06 -0.866026 0.5 255 255 255 255 0.080619 0.27885
-4.57114 44.8376 -33.1626 1e-06 -0.866026 0.5 255 255 255 255 0.080501 0.278895
-5.52805 45.6663 -31.7272 1e-06 -0.866026 0.5 255 255 255 255 0.080501 0.278895
-5.69749 48.3776 -32.9537 -2e-06 0.866026 -0.499999 255 255 255 255 0.080502 0.278775
-4.71125 47.5235 -34.4331 -2e-06 0.866026 -0.499999 255 255 255 255 0.080502 0.278775
-9.42249 43.4434 -41.5 -2e-06 0.866026 -0.499999 255 255 255 255 0.08062 0.278734
-5.52805 36.0914 -48.3114 -1e-06 -0.866026 0.5 255 255 255 255 0.080518 0.278806
-4.57114 36.9201 -46.876 -1e-06 -0.866026 0.5 255 255 255 255 0.080518 0.278806
-9.14228 40.8789 -40.0193 -1e-06 -0.866026 0.5 255 255 255 255 0.080619 0.27885
-9.42249 43.4434 -41.5 -1e-06 0.866025 -0.500001 255 255 255 255 0.08062 0.278734
-4.71124 39.3634 -48.5668 -1e-06 0.866025 -0.500001 255 255 255 255 0.080518 0.278692
-5.69748 38.5092 -50.0462 -1e-06 0.866025 -0.500001 255 255 255 255 0.080518 0.278692
4.57114 36.9201 -46.876 0 -0.866026 0.499999 255 255 255 255 0.080304 0.278803
4.71125 39.3634 -48.5668 0 0.866025 -0.500001 255 255 255 255 0.080304 0.278689
9.23244 28.5033 -35.0819 1 0 0 255 255 255 255 0.079785 0.280667
12.3402 45.3334 -44.7988 0.151603 0.856015 -0.494221 255 255 255 255 0.079698 0.28016
7.35675 28.5033 -35.0819 -1 0 0 255 255 255 255 0.079846 0.280662
9.23244 11.4467 -25.2343 0 -0.866026 0.5 255 255 255 255 0.079792 0.281112
7.35675 28.5033 -35.0819 -0 -0.5 -0.866025 255 255 255 255 0.079846 0.280662
9.23244 28.5033 -35.0819 0.987454 -0.136753 0.078954 255 255 255 255 0.079785 0.280667
10.4809 47.4922 -41.6299 -0.987681 0.135516 -0.07824 255 255 255 255 0.079802 0.280159
12.3402 47.2452 -41.4873 0 0.5 0.866025 255 255 255 255 0.079736 0.280169
1.91186 34.0755 -25.4307 -0 0.5 0.866025 255 255 255 255 0.079785 0.280667
1.91186 51.7767 -34.2089 0 0.931817 -0.362929 255 255 255 255 0.079762 0.280151
1.91186 16.081 -17.2074 0 -0.5 -0.866025 255 255 255 255 0.07985 0.281104
1.91186 17.0188 -15.583 0 -0.866026 0.5 255 255 255 255 0.079792 0.281112
1.91186 16.081 -17.2074 1 0 -0 255 255 255 255 0.07985 0.281104
1.91186 52.4594 -32.4561 -0 0.356974 0.934114 255 255 255 255 0.079698 0.28016
-1.91186 51.7767 -34.2089 -0 -0.358324 -0.933597 255 255 255 255 0.079802 0.280159
-1.91186 52.4594 -32.4561 -1 0 0 255 255 255 255 0.079736 0.280169
-6.38401 1.47826 -16.4526 0 1 -0 255 255 255 255 0.08062 0.278734
3.192 1.47826 -21.9813 0.866025 0 -0.5 255 255 255 255 0.080304 0.278689
6.38401 1.47826 -16.4526 0.847409 0 0.530941 255 255 255 255 0.080181 0.278728
2.92001 1.47826 2.88034 -0 0 1 255 255 255 255 0.080276 0.278772
-2.92002 1.47826 -10.9239 -0.847409 0 0.530941 255 255 255 255 0.080502 0.278775
-6.38401 1.47826 -16.4526 -0.866025 -0 -0.5 255 255 255 255 0.08062 0.278734
-3.192 1.47826 -21.9813 -0 -0 -1 255 255 255 255 0.080518 0.278692
3.192 -1.35788 -21.9813 0 -1 0 255 255 255 255 0.080304 0.278803
2.92001 -1.35787 2.88034 0 -1 0 255 255 255 255 0.080277 0.278891
2.92001 1.47826 2.88034 1 0 0 255 255 255 255 0.080276 0.278772
-2.92002 1.47826 2.88034 0 1 -0 255 255 255 255 0.080502 0.278775
-2.92002 -1.35787 2.88034 -1 -0 0 255 255 255 255 0.080501 0.278895
-9.23244 30.4152 -31.7705 -1 0 0 255 255 255 255 0.079785 0.280667
-10.4809 47.4922 -41.6299 -0.151603 0.856015 -0.494221 255 255 255 255 0.079762 0.280151
-7.35675 13.3586 -21.9228 1 -0 0 255 255 255 255 0.07985 0.281104
-9.23244 13.3586 -21.9228 0 -0.866026 0.5 255 255 255 255 0.079792 0.281112
-7.35675 30.4152 -31.7705 -0 0.5 0.866025 255 255 255 255 0.079846 0.280662
-12.3402 47.2452 -41.4873 -0.987454 -0.136753 0.078954 255 255 255 255 0.079698 0.28016
-10.4809 45.5804 -44.9413 0.987681 0.135516 -0.07824 255 255 255 255 0.079802 0.280159
-12.3402 45.3334 -44.7988 0 -0.5 -0.866025 255 255 255 255 0.079736 0.280169
6.64733 29.0576 -33.1943 -0.866026 0.25 0.433012 255 255 255 255 0.080181 0.278728
3.32367 26.1792 -38.1798 -0.866026 0.25 0.433012 255 255 255 255 0.080304 0.278689
3.32367 23.6147 -36.6992 -0.866026 0.25 0.433012 255 255 255 255 0.080304 0.278803
3.32367 29.3714 -26.7282 -0.866025 -0.250001 -0.433013 255 255 255 255 0.080277 0.278891
3.32367 31.936 -28.2088 -0.866025 -0.250001 -0.433013 255 255 255 255 0.080276 0.278772
6.64733 29.0576 -33.1943 -0.866025 -0.250001 -0.433013 255 255 255 255 0.080181 0.278728
-3.32367 31.936 -28.2088 -0 -0.500001 -0.866025 255 255 255 255 0.080502 0.278775
3.32367 31.936 -28.2088 -0 -0.500001 -0.866025 255 255 255 255 0.080276 0.278772
3.32367 29.3714 -26.7282 -0 -0.500001 -0.866025 255 255 255 255 0.080277 0.278891
-6.64733 29.0576 -33.1943 0.866025 -0.25 -0.433013 255 255 255 255 0.08062 0.278734
-3.32366 23.6147 -36.6992 0.866025 0.250001 0.433013 255 255 255 255 0.080518 0.278806
-3.32366 26.1792 -38.1798 0.866025 0.250001 0.433013 255 255 255 255 0.080518 0.278692
-6.64733 29.0576 -33.1943 0.866025 0.250001 0.433013 255 255 255 255 0.08062 0.278734
-3.32366 26.1792 -38.1798 -0 0.500001 0.866025 255 255 255 255 0.080518 0.278692
4.24743 25.3792 -39.5654 0.866025 -0.25 -0.433013 255 255 255 255 0.080304 0.278689
8.49485 29.0576 -33.1943 0.866025 0.25 0.433013 255 255 255 255 0.080181 0.278728
4.24743 30.1714 -25.3425 -0 0.5 0.866025 255 255 255 255 0.080277 0.278891
4.24743 32.736 -26.8232 -0 0.5 0.866025 255 255 255 255 0.080276 0.278772
-4.24743 32.736 -26.8232 -0 0.5 0.866025 255 255 255 255 0.080502 0.278775
-4.24743 30.1714 -25.3425 -0.866025 0.25 0.433013 255 255 255 255 0.080501 0.278895
-8.49485 29.0576 -33.1943 -0.866025 -0.25 -0.433013 255 255 255 255 0.08062 0.278734
-4.24743 25.3792 -39.5654 -0 -0.5 -0.866025 255 255 255 255 0.080518 0.278692
3.32367 26.1792 -38.1798 -1e-06 0.866026 -0.5 255 255 255 255 0.080304 0.278689
6.64733 29.0576 -33.1943 -1e-06 0.866026 -0.5 255 255 255 255 0.080181 0.278728
8.49485 29.0576 -33.1943 -1e-06 0.866026 -0.5 255 255 255 255 0.080181 0.278728
6.64733 29.0576 -33.1943 1e-06 0.866025 -0.5 255 255 255 255 0.080181 0.278728
3.32367 31.936 -28.2088 1e-06 0.866025 -0.5 255 255 255 255 0.080276 0.278772
4.24743 32.736 -26.8232 1e-06 0.866025 -0.5 255 255 255 255 0.080276 0.278772
-3.32367 29.3714 -26.7282 0 -0.866025 0.5 255 255 255 255 0.080501 0.278895
3.32367 31.936 -28.2088 0 0.866025 -0.5 255 255 255 255 0.080276 0.278772
-3.32367 31.936 -28.2088 0 0.866025 -0.5 255 255 255 255 0.080502 0.278775
-4.24743 32.736 -26.8232 0 0.866025 -0.5 255 255 255 255 0.080502 0.278775
-6.64733 29.0576 -33.1943 0 0.866025 -0.5 255 255 255 255 0.08062 0.278734
-3.32366 23.6147 -36.6992 -0 -0.866025 0.5 255 255 255 255 0.080518 0.278806
-1.70414 12.1796 -26.8581 -0 -0.5 -0.866025 255 255 255 255 0.080458 0.278827
-3.40828 13.6555 -24.3019 -0.866025 -0.25 -0.433013 255 255 255 255 0.080507 0.278849
-1.70414 15.1313 -21.7457 -0.866025 0.25 0.433013 255 255 255 255 0.080449 0.27887
1.70414 15.1313 -21.7457 -0 0.5 0.866025 255 255 255 255 0.08034 0.278869
3.40828 13.6555 -24.3019 0.866025 0.25 0.433013 255 255 255 255 0.080293 0.278846
1.70414 12.1796 -26.8581 0.866026 -0.25 -0.433012 255 255 255 255 0.080353 0.278825
1.70414 -25.9878 -4.82208 0 -0.866025 0.5 255 255 255 255 0.080354 0.279625
3.40828 -24.512 -2.26587 0 -0.866025 0.5 255 255 255 255 0.080297 0.279655
-3.40828 -24.512 -2.26587 -0 -0.866025 0.5 255 255 255 255 0.080504 0.279659
-8.49485 16.9237 -26.1888 -0 0.866025 -0.5 255 255 255 255 0.08062 0.278734
8.49485 13.6555 -24.3019 0.866025 -0.25 -0.433013 255 255 255 255 0.080182 0.278844
4.24743 9.97708 -30.673 0.866025 -0.25 -0.433013 255 255 255 255 0.080304 0.278803
4.24743 13.2454 -32.5599 0.866025 -0.25 -0.433013 255 255 255 255 0.080304 0.278689
8.49485 13.6555 -24.3019 0.866025 0.25 0.433013 255 255 255 255 0.080182 0.278844
4.24743 20.6021 -19.8177 -0 0.5 0.866025 255 255 255 255 0.080276 0.278772
-4.24743 20.6021 -19.8177 -0.866025 0.25 0.433013 255 255 255 255 0.080502 0.278775
-8.49485 16.9237 -26.1888 -0.866025 -0.25 -0.433013 255 255 255 255 0.08062 0.278734
-4.24743 13.2454 -32.5599 -0 -0.5 -0.866025 255 255 255 255 0.080518 0.278692
1.70414 12.1796 -26.8581 0 -0.866026 0.5 255 255 255 255 0.080353 0.278825
-1.70414 12.1796 -26.8581 0 -0.866026 0.5 255 255 255 255 0.080458 0.278827
-4.24743 9.97708 -30.673 0 -0.866026 0.5 255 255 255 255 0.080518 0.278806
3 0 1 2 
3 3 4 5 
3 6 7 8 
3 9 10 11 
3 12 13 14 
3 15 16 17 
3 18 19 20 
3 13 21 22 
3 23 24 25 
3 26 27 16 
3 28 29 30 
3 31 32 33 
3 34 35 36 
3 37 38 39 
3 40 41 42 
3 43 44 45 
3 46 47 48 
3 49 50 51 
3 52 53 54 
3 55 56 57 
3 58 59 60 
3 61 62 63 
3 64 65 66 
3 67 68 69 
3 70 71 72 
3 73 74 75 
3 76 77 78 
3 79 80 81 
3 82 83 84 
3 85 86 87 
3 88 82 84 
3 86 89 87 
3 90 91 92 
3 93 94 95 
3 96 97 98 
3 99 100 101 
3 102 103 104 
3 105 106 107 
3 108 109 110 
3 111 112 113 
3 114 115 116 
3 109 117 118 
3 119 120 121 
3 122 123 112 
3 124 125 126 
3 127 128 129 
3 130 131 132 
3 133 134 135 
3 136 137 138 
3 139 140 141 
3 142 143 144 
3 138 145 146 
3 147 148 149 
3 150 151 140 
3 152 153 154 
3 155 156 157 
3 158 159 160 
3 161 162 163 
3 164 165 166 
3 167 168 169 
3 170 171 172 
3 173 174 175 
3 176 174 177 
3 153 178 179 
3 177 180 176 
3 181 182 183 
3 178 184 179 
3 185 186 187 
3 188 189 190 
3 191 192 193 
3 194 195 196 
3 197 198 199 
3 200 201 202 
3 203 204 205 
3 206 207 208 
3 201 209 210 
3 211 212 213 
3 214 215 204 
3 216 217 218 
3 219 220 221 
3 222 223 224 
3 225 226 227 
3 228 229 230 
3 231 232 233 
3 234 235 236 
3 237 238 239 
3 240 241 242 
3 243 244 245 
3 246 247 248 
3 249 250 251 
3 252 253 254 
3 255 256 257 
3 258 259 252 
3 260 261 262 
3 263 264 258 
3 265 266 267 
3 268 263 269 
3 270 271 272 
3 273 274 275 
3 276 277 278 
3 253 279 254 
3 280 257 281 
3 282 283 284 
3 285 286 287 
3 288 289 290 
3 291 292 293 
3 294 295 296 
3 297 298 299 
3 300 301 302 
3 303 304 305 
3 306 307 308 
3 309 310 311 
3 312 313 314 
3 315 316 317 
3 318 319 320 
3 321 322 323 
3 324 325 326 
3 324 327 328 
3 329 327 330 
3 331 330 332 
3 331 333 334 
3 335 333 325 
3 304 336 337 
3 0 338 1 
3 3 339 4 
3 6 340 7 
3 9 341 10 
3 12 342 13 
3 15 26 16 
3 18 343 19 
3 13 342 21 
3 23 344 24 
3 26 345 27 
3 28 346 29 
3 31 347 32 
3 348 349 350 
3 37 351 38 
3 352 353 354 
3 43 355 44 
3 46 356 47 
3 49 357 50 
3 52 358 53 
3 55 359 56 
3 58 360 59 
3 61 361 62 
3 362 363 364 
3 365 366 367 
3 368 369 370 
3 73 371 74 
3 372 373 374 
3 375 376 377 
3 378 379 380 
3 381 382 383 
3 384 385 386 
3 387 388 389 
3 90 390 91 
3 93 391 94 
3 96 392 97 
3 99 393 100 
3 102 394 103 
3 105 395 106 
3 108 396 109 
3 111 122 112 
3 114 397 115 
3 109 396 117 
3 119 398 120 
3 122 399 123 
3 124 400 125 
3 127 401 128 
3 130 402 131 
3 133 403 134 
3 136 404 137 
3 139 150 140 
3 142 405 143 
3 138 137 145 
3 147 406 148 
3 150 407 151 
3 152 408 153 
3 155 409 156 
3 158 410 159 
3 161 411 162 
3 164 412 165 
3 167 413 168 
3 170 414 171 
3 173 415 174 
3 176 175 174 
3 153 408 178 
3 177 416 180 
3 181 417 182 
3 178 418 184 
3 185 419 186 
3 188 420 189 
3 191 421 192 
3 194 422 195 
3 197 423 198 
3 200 424 201 
3 203 214 204 
3 206 425 207 
3 201 424 209 
3 211 426 212 
3 214 427 215 
3 428 429 430 
3 431 432 433 
3 434 435 436 
3 225 437 226 
3 438 439 440 
3 231 441 232 
3 234 442 235 
3 237 443 238 
3 444 445 446 
3 243 447 244 
3 246 448 247 
3 249 449 250 
3 252 259 253 
3 450 451 452 
3 258 264 259 
3 453 454 455 
3 263 456 264 
3 457 458 459 
3 268 456 263 
3 459 458 460 
3 279 461 268 
3 460 280 281 
3 253 461 279 
3 280 255 257 
3 282 462 283 
3 285 463 286 
3 288 464 289 
3 291 465 292 
3 294 466 295 
3 297 467 298 
3 302 468 469 
3 469 300 302 
3 301 470 302 
3 303 471 304 
3 472 473 474 
3 309 475 310 
3 312 476 313 
3 315 477 316 
3 318 478 319 
3 321 479 322 
3 324 335 325 
3 324 326 327 
3 329 328 327 
3 331 329 330 
3 331 332 333 
3 480 481 482 
3 304 471 336 
