ply
format ascii 1.0
comment VCGLIB generated
comment TextureFile Dungeons_2_Texture_01_A.png
element vertex 324
property float x
property float y
property float z
property float nx
property float ny
property float nz
property uchar red
property uchar green
property uchar blue
property uchar alpha
property float texture_u
property float texture_v
element face 164
property list uchar int vertex_indices
end_header
7.53802 -0.835054 -13.9449 0.866025 -0 -0.5 255 255 255 255 0.081211 0.2801
15.076 0.835052 -0.888661 0.866025 -0 -0.5 255 255 255 255 0.081418 0.279688
15.076 -0.835052 -0.88866 0.866025 -0 -0.5 255 255 255 255 0.081415 0.27972
-7.53802 -0.835054 -13.9449 0 1e-06 -1 255 255 255 255 0.080695 0.280133
7.53802 0.83505 -13.9449 0 1e-06 -1 255 255 255 255 0.081213 0.280069
7.53802 -0.835054 -13.9449 0 1e-06 -1 255 255 255 255 0.081211 0.2801
-15.076 -0.835052 -0.888662 -0.866025 -0 -0.5 255 255 255 255 0.080421 0.279781
-7.53802 0.83505 -13.9449 -0.866025 -0 -0.5 255 255 255 255 0.080693 0.280102
-7.53802 -0.835054 -13.9449 -0.866025 -0 -0.5 255 255 255 255 0.080695 0.280133
5.6905 -0.835054 -10.7449 -0 -1 0 255 255 255 255 0.081137 0.280012
15.076 -0.835052 -0.88866 -0 -1 0 255 255 255 255 0.081415 0.27972
11.381 -0.835052 -0.888661 -0 -1 0 255 255 255 255 0.081294 0.279727
11.381 0.835052 -0.888661 0 1 -0 255 255 255 255 0.081296 0.279695
7.53802 0.83505 -13.9449 0 1 -0 255 255 255 255 0.081213 0.280069
5.6905 0.83505 -10.7449 0 1 -0 255 255 255 255 0.081139 0.279981
-5.6905 -0.835054 -10.7449 -0 -1 0 255 255 255 255 0.080751 0.280036
7.53802 -0.835054 -13.9449 -0 -1 0 255 255 255 255 0.081211 0.2801
-7.53802 0.83505 -13.9449 0 1 -0 255 255 255 255 0.080693 0.280102
-5.6905 0.83505 -10.7449 0 1 -0 255 255 255 255 0.08075 0.280005
-11.381 -0.835052 -0.888663 0 -1 0 255 255 255 255 0.080544 0.279773
-7.53802 -0.835054 -13.9449 0 -1 0 255 255 255 255 0.080695 0.280133
-15.076 0.835052 -0.888663 0 1 -0 255 255 255 255 0.080418 0.279749
-11.381 0.835052 -0.888663 0 1 -0 255 255 255 255 0.080541 0.279741
-5.6905 -0.835054 -10.7449 0.866025 0 0.5 255 255 255 255 0.080751 0.280036
-11.381 0.835052 -0.888663 0.866025 0 0.5 255 255 255 255 0.080541 0.279741
-11.381 -0.835052 -0.888663 0.866025 0 0.5 255 255 255 255 0.080544 0.279773
5.6905 -0.835054 -10.7449 -0 0 1 255 255 255 255 0.081137 0.280012
-5.6905 0.83505 -10.7449 -0 0 1 255 255 255 255 0.08075 0.280005
-5.6905 -0.835054 -10.7449 -0 0 1 255 255 255 255 0.080751 0.280036
11.381 -0.835052 -0.888661 -0.866025 0 0.5 255 255 255 255 0.081294 0.279727
5.6905 0.83505 -10.7449 -0.866025 0 0.5 255 255 255 255 0.081139 0.279981
5.6905 -0.835054 -10.7449 -0.866025 0 0.5 255 255 255 255 0.081137 0.280012
16.0439 3e-06 -0 0.962303 0.27198 -0 255 255 255 255 0.081415 0.27972
11.2754 16.8717 -1.77733 0.962303 0.27198 -0 255 255 255 255 0.081129 0.279364
11.2754 16.8717 -3e-06 0.962303 0.27198 -0 255 255 255 255 0.081128 0.279397
11.2754 -16.8717 3e-06 0.962303 -0.27198 0 255 255 255 255 0.081211 0.2801
16.0439 2e-06 -1.77733 0.962303 -0.27198 0 255 255 255 255 0.081418 0.279688
16.0439 3e-06 -0 0.962303 -0.27198 0 255 255 255 255 0.081415 0.27972
-16.0439 0 0 -0.962303 -0.27198 1e-06 255 255 255 255 0.080421 0.279781
-11.2754 -16.8717 -1.77732 -0.962303 -0.27198 1e-06 255 255 255 255 0.080693 0.280102
-11.2754 -16.8717 3e-06 -0.962303 -0.27198 1e-06 255 255 255 255 0.080695 0.280133
-11.2754 16.8717 -3e-06 -0.962303 0.27198 -0 255 255 255 255 0.080649 0.279425
-16.0439 -0 -1.77733 -0.962303 0.27198 -0 255 255 255 255 0.080418 0.279749
-16.0439 0 0 -0.962303 0.27198 -0 255 255 255 255 0.080421 0.279781
9.09976 2e-06 -0 0 0 1 255 255 255 255 0.081294 0.279727
11.2754 16.8717 -3e-06 0 0 1 255 255 255 255 0.081128 0.279397
7.42665 17.5482 -3e-06 0 0 1 255 255 255 255 0.081078 0.279481
9.09976 2e-06 -1.77733 0 -0 -1 255 255 255 255 0.081296 0.279695
11.2754 16.8717 -1.77733 0 -0 -1 255 255 255 255 0.081129 0.279364
16.0439 2e-06 -1.77733 0 -0 -1 255 255 255 255 0.081418 0.279688
11.2754 -16.8717 3e-06 -0 0 1 255 255 255 255 0.081211 0.2801
16.0439 3e-06 -0 -0 0 1 255 255 255 255 0.081415 0.27972
11.2754 -16.8717 -1.77732 -0 -0 -1 255 255 255 255 0.081213 0.280069
7.42665 -17.5482 -1.77732 -0 -0 -1 255 255 255 255 0.081139 0.279981
-9.09976 0 0 -0 0 1 255 255 255 255 0.080544 0.279773
-11.2754 -16.8717 3e-06 -0 0 1 255 255 255 255 0.080695 0.280133
-7.42665 -17.5482 3e-06 -0 0 1 255 255 255 255 0.080751 0.280036
-9.09976 -0 -1.77733 0 -0 -1 255 255 255 255 0.080541 0.279741
-11.2754 -16.8717 -1.77732 0 -0 -1 255 255 255 255 0.080693 0.280102
-16.0439 -0 -1.77733 0 -0 -1 255 255 255 255 0.080418 0.279749
-11.2754 16.8717 -3e-06 0 0 1 255 255 255 255 0.080649 0.279425
-16.0439 0 0 0 0 1 255 255 255 255 0.080421 0.279781
-11.2754 16.8717 -1.77733 -0 -0 -1 255 255 255 255 0.080647 0.279392
-7.42665 17.5482 -1.77733 -0 -0 -1 255 255 255 255 0.080712 0.27947
-9.09976 0 0 0.995486 -0.094913 0 255 255 255 255 0.080544 0.279773
-7.42665 17.5482 -1.77733 0.995486 -0.094913 0 255 255 255 255 0.080712 0.27947
-7.42665 17.5482 -3e-06 0.995486 -0.094913 0 255 255 255 255 0.080714 0.279503
-7.42665 -17.5482 3e-06 0.995486 0.094913 -0 255 255 255 255 0.080751 0.280036
-9.09976 -0 -1.77733 0.995486 0.094913 -0 255 255 255 255 0.080541 0.279741
-9.09976 0 0 0.995486 0.094913 -0 255 255 255 255 0.080544 0.279773
9.09976 2e-06 -0 -0.995486 0.094913 0 255 255 255 255 0.081294 0.279727
7.42665 -17.5482 -1.77732 -0.995486 0.094913 0 255 255 255 255 0.081139 0.279981
7.42665 -17.5482 3e-06 -0.995486 0.094913 0 255 255 255 255 0.081137 0.280012
7.42665 17.5482 -3e-06 -0.995486 -0.094913 0 255 255 255 255 0.081078 0.279481
9.09976 2e-06 -1.77733 -0.995486 -0.094913 0 255 255 255 255 0.081296 0.279695
9.09976 2e-06 -0 -0.995486 -0.094913 0 255 255 255 255 0.081294 0.279727
-11.2754 16.8717 -3e-06 -0.17313 0.984899 0 255 255 255 255 0.080649 0.279425
-7.42665 17.5482 -1.77733 -0.17313 0.984899 0 255 255 255 255 0.080712 0.27947
-11.2754 16.8717 -1.77733 -0.17313 0.984899 0 255 255 255 255 0.080647 0.279392
11.2754 16.8717 -3e-06 0.173129 0.984899 0 255 255 255 255 0.081128 0.279397
7.42665 17.5482 -1.77733 0.173129 0.984899 0 255 255 255 255 0.081079 0.279448
7.42665 17.5482 -3e-06 0.173129 0.984899 0 255 255 255 255 0.081078 0.279481
11.2754 -16.8717 3e-06 0.17313 -0.984899 0 255 255 255 255 0.081211 0.2801
7.42665 -17.5482 -1.77732 0.17313 -0.984899 0 255 255 255 255 0.081139 0.279981
11.2754 -16.8717 -1.77732 0.17313 -0.984899 0 255 255 255 255 0.081213 0.280069
-11.2754 -16.8717 -1.77732 -0.173129 -0.984899 0 255 255 255 255 0.080693 0.280102
-7.42665 -17.5482 3e-06 -0.173129 -0.984899 0 255 255 255 255 0.080751 0.280036
-11.2754 -16.8717 3e-06 -0.173129 -0.984899 0 255 255 255 255 0.080695 0.280133
11.3592 -15.8351 -0.888658 0.866026 0 -0.5 255 255 255 255 0.081415 0.279712
5.67959 -14.165 -10.726 0.866026 0 -0.5 255 255 255 255 0.081209 0.280061
11.3592 -14.1649 -0.888659 0.866026 0 -0.5 255 255 255 255 0.081418 0.279672
-5.67959 -15.8351 -10.726 0 -1e-06 -1 255 255 255 255 0.080697 0.280133
5.67959 -14.165 -10.726 0 -1e-06 -1 255 255 255 255 0.081209 0.280061
5.67959 -15.8351 -10.726 0 -1e-06 -1 255 255 255 255 0.081207 0.2801
-5.67959 -15.8351 -10.726 -0.866025 -1e-06 -0.5 255 255 255 255 0.080697 0.280133
-11.3592 -14.1649 -0.888661 -0.866025 -1e-06 -0.5 255 255 255 255 0.080418 0.279735
-5.67959 -14.165 -10.726 -0.866025 -1e-06 -0.5 255 255 255 255 0.080695 0.280094
4.28756 -15.8351 -8.31493 0 -1 0 255 255 255 255 0.081135 0.280011
11.3592 -15.8351 -0.888658 0 -1 0 255 255 255 255 0.081415 0.279712
8.57511 -15.8351 -0.888658 0 -1 0 255 255 255 255 0.081294 0.27972
8.57511 -14.1649 -0.888659 0 1 -0 255 255 255 255 0.081296 0.27968
5.67959 -14.165 -10.726 0 1 -0 255 255 255 255 0.081209 0.280061
4.28756 -14.165 -8.31493 0 1 -0 255 255 255 255 0.081137 0.279972
-4.28756 -15.8351 -8.31493 -0 -1 0 255 255 255 255 0.080752 0.280035
5.67959 -15.8351 -10.726 -0 -1 0 255 255 255 255 0.081207 0.2801
-5.67959 -14.165 -10.726 0 1 -0 255 255 255 255 0.080695 0.280094
-4.28756 -14.165 -8.31493 0 1 -0 255 255 255 255 0.080751 0.279996
-11.3592 -15.8351 -0.888659 0 -1 0 255 255 255 255 0.080421 0.279775
-5.67959 -15.8351 -10.726 0 -1 0 255 255 255 255 0.080697 0.280133
-11.3592 -14.1649 -0.888661 0 1 -0 255 255 255 255 0.080418 0.279735
-8.57511 -14.1649 -0.888661 0 1 -0 255 255 255 255 0.080541 0.279727
-4.28756 -15.8351 -8.31493 0.866025 0 0.5 255 255 255 255 0.080752 0.280035
-8.57511 -14.1649 -0.888661 0.866025 0 0.5 255 255 255 255 0.080541 0.279727
-8.57511 -15.8351 -0.88866 0.866025 0 0.5 255 255 255 255 0.080544 0.279767
4.28756 -15.8351 -8.31493 -0 1e-06 1 255 255 255 255 0.081135 0.280011
-4.28756 -14.165 -8.31493 -0 1e-06 1 255 255 255 255 0.080751 0.279996
-4.28756 -15.8351 -8.31493 -0 1e-06 1 255 255 255 255 0.080752 0.280035
8.57511 -15.8351 -0.888658 -0.866026 0 0.5 255 255 255 255 0.081294 0.27972
4.28756 -14.165 -8.31493 -0.866026 0 0.5 255 255 255 255 0.081137 0.279972
4.28756 -15.8351 -8.31493 -0.866026 0 0.5 255 255 255 255 0.081135 0.280011
-8.79157 -2e-06 -14.3388 -0.481152 -0.27198 -0.833378 255 255 255 255 0.080421 0.279781
-4.86809 -16.8717 -11.0978 -0.481152 -0.27198 -0.833378 255 255 255 255 0.080693 0.280102
-6.4073 -16.8717 -10.2091 -0.481152 -0.27198 -0.833378 255 255 255 255 0.080695 0.280133
-8.79157 -2e-06 -14.3388 -0.481151 0.27198 -0.833379 255 255 255 255 0.080421 0.279781
-4.8681 16.8717 -11.0978 -0.481151 0.27198 -0.833379 255 255 255 255 0.080647 0.279392
-7.25236 -2e-06 -15.2274 -0.481151 0.27198 -0.833379 255 255 255 255 0.080418 0.279749
-5.31949 -1e-06 -8.32496 -0.866025 0 0.5 255 255 255 255 0.080544 0.279773
-6.4073 -16.8717 -10.2091 -0.866025 0 0.5 255 255 255 255 0.080695 0.280133
-4.48293 -17.5482 -6.876 -0.866025 0 0.5 255 255 255 255 0.080751 0.280036
-3.78028 -2e-06 -9.21362 0.866025 -0 -0.5 255 255 255 255 0.080541 0.279741
-4.86809 -16.8717 -11.0978 0.866025 -0 -0.5 255 255 255 255 0.080693 0.280102
-7.25236 -2e-06 -15.2274 0.866025 -0 -0.5 255 255 255 255 0.080418 0.279749
-6.4073 16.8717 -10.2091 -0.866025 0 0.5 255 255 255 255 0.080649 0.279425
-8.79157 -2e-06 -14.3388 -0.866025 0 0.5 255 255 255 255 0.080421 0.279781
-4.8681 16.8717 -11.0978 0.866025 -0 -0.5 255 255 255 255 0.080647 0.279392
-2.94372 17.5482 -7.76467 0.866025 -0 -0.5 255 255 255 255 0.080712 0.27947
-5.31949 -1e-06 -8.32496 0.497743 -0.094913 0.862116 255 255 255 255 0.080544 0.279773
-2.94372 17.5482 -7.76467 0.497743 -0.094913 0.862116 255 255 255 255 0.080712 0.27947
-4.48293 17.5482 -6.87601 0.497743 -0.094913 0.862116 255 255 255 255 0.080714 0.279503
-4.48293 -17.5482 -6.876 0.497743 0.094913 0.862116 255 255 255 255 0.080751 0.280036
-3.78028 -2e-06 -9.21362 0.497743 0.094913 0.862116 255 255 255 255 0.080541 0.279741
-5.31949 -1e-06 -8.32496 0.497743 0.094913 0.862116 255 255 255 255 0.080544 0.279773
-6.4073 16.8717 -10.2091 -0.086565 0.984899 -0.149935 255 255 255 255 0.080649 0.279425
-2.94372 17.5482 -7.76467 -0.086565 0.984899 -0.149935 255 255 255 255 0.080712 0.27947
-4.8681 16.8717 -11.0978 -0.086565 0.984899 -0.149935 255 255 255 255 0.080647 0.279392
-4.86809 -16.8717 -11.0978 -0.086565 -0.984899 -0.149934 255 255 255 255 0.080693 0.280102
-4.48293 -17.5482 -6.876 -0.086565 -0.984899 -0.149934 255 255 255 255 0.080751 0.280036
-6.4073 -16.8717 -10.2091 -0.086565 -0.984899 -0.149934 255 255 255 255 0.080695 0.280133
11.3592 14.1649 -0.888663 0.866026 0 -0.5 255 255 255 255 0.081414 0.279737
5.67959 15.835 -10.726 0.866026 0 -0.5 255 255 255 255 0.08121 0.280057
11.3592 15.8351 -0.888664 0.866026 0 -0.5 255 255 255 255 0.081418 0.279691
-5.67959 14.1649 -10.726 0 -1e-06 -1 255 255 255 255 0.080696 0.280133
5.67959 15.835 -10.726 0 -1e-06 -1 255 255 255 255 0.08121 0.280057
5.67959 14.1649 -10.726 0 -1e-06 -1 255 255 255 255 0.081208 0.280101
-5.67959 14.1649 -10.726 -0.866025 -1e-06 -0.5 255 255 255 255 0.080696 0.280133
-11.3592 15.8351 -0.888666 -0.866025 -1e-06 -0.5 255 255 255 255 0.080418 0.27975
-5.67959 15.835 -10.726 -0.866025 -1e-06 -0.5 255 255 255 255 0.080694 0.280089
4.28756 14.1649 -8.31493 0 -1 0 255 255 255 255 0.081136 0.280017
11.3592 14.1649 -0.888663 0 -1 0 255 255 255 255 0.081414 0.279737
8.57511 14.1649 -0.888663 0 -1 0 255 255 255 255 0.081293 0.279744
8.57511 15.8351 -0.888664 0 1 -0 255 255 255 255 0.081296 0.279699
5.67959 15.835 -10.726 0 1 -0 255 255 255 255 0.08121 0.280057
4.28756 15.8351 -8.31493 0 1 -0 255 255 255 255 0.081137 0.279973
-4.28756 14.1649 -8.31493 -0 -1 0 255 255 255 255 0.080752 0.28004
5.67959 14.1649 -10.726 -0 -1 0 255 255 255 255 0.081208 0.280101
-5.67959 15.835 -10.726 0 1 -0 255 255 255 255 0.080694 0.280089
-4.28756 15.8351 -8.31493 0 1 -0 255 255 255 255 0.080751 0.279996
-11.3592 14.1649 -0.888664 0 -1 0 255 255 255 255 0.080422 0.279795
-5.67959 14.1649 -10.726 0 -1 0 255 255 255 255 0.080696 0.280133
-11.3592 15.8351 -0.888666 0 1 -0 255 255 255 255 0.080418 0.27975
-8.57511 15.8351 -0.888666 0 1 -0 255 255 255 255 0.080541 0.279743
-4.28756 14.1649 -8.31493 0.866025 0 0.5 255 255 255 255 0.080752 0.28004
-8.57511 15.8351 -0.888666 0.866025 0 0.5 255 255 255 255 0.080541 0.279743
-8.57511 14.1649 -0.888665 0.866025 0 0.5 255 255 255 255 0.080544 0.279788
4.28756 14.1649 -8.31493 -0 1e-06 1 255 255 255 255 0.081136 0.280017
-4.28756 15.8351 -8.31493 -0 1e-06 1 255 255 255 255 0.080751 0.279996
-4.28756 14.1649 -8.31493 -0 1e-06 1 255 255 255 255 0.080752 0.28004
8.57511 14.1649 -0.888663 -0.866026 0 0.5 255 255 255 255 0.081293 0.279744
4.28756 15.8351 -8.31493 -0.866026 0 0.5 255 255 255 255 0.081137 0.279973
4.28756 14.1649 -8.31493 -0.866026 0 0.5 255 255 255 255 0.081136 0.280017
7.25236 -2e-06 -15.2274 0.48115 -0.27198 -0.833379 255 255 255 255 0.080421 0.279781
6.4073 -16.8717 -10.2091 0.48115 -0.27198 -0.833379 255 255 255 255 0.080693 0.280102
4.86809 -16.8717 -11.0978 0.48115 -0.27198 -0.833379 255 255 255 255 0.080695 0.280133
7.25236 -2e-06 -15.2274 0.481151 0.27198 -0.833379 255 255 255 255 0.080421 0.279781
6.40731 16.8717 -10.2091 0.481151 0.27198 -0.833379 255 255 255 255 0.080647 0.279392
8.79157 -2e-06 -14.3388 0.481151 0.27198 -0.833379 255 255 255 255 0.080418 0.279749
3.78028 -2e-06 -9.21362 -0.866025 -0 -0.5 255 255 255 255 0.080544 0.279773
4.86809 -16.8717 -11.0978 -0.866025 -0 -0.5 255 255 255 255 0.080695 0.280133
2.94372 -17.5482 -7.76466 -0.866025 -0 -0.5 255 255 255 255 0.080751 0.280036
5.31949 -1e-06 -8.32496 0.866025 0 0.5 255 255 255 255 0.080541 0.279741
6.4073 -16.8717 -10.2091 0.866025 0 0.5 255 255 255 255 0.080693 0.280102
8.79157 -2e-06 -14.3388 0.866025 0 0.5 255 255 255 255 0.080418 0.279749
4.8681 16.8717 -11.0978 -0.866025 -0 -0.5 255 255 255 255 0.080649 0.279425
7.25236 -2e-06 -15.2274 -0.866025 -0 -0.5 255 255 255 255 0.080421 0.279781
6.40731 16.8717 -10.2091 0.866025 0 0.5 255 255 255 255 0.080647 0.279392
4.48293 17.5482 -6.87601 0.866025 0 0.5 255 255 255 255 0.080712 0.27947
2.94372 17.5482 -7.76467 -0.497743 -0.094913 0.862116 255 255 255 255 0.080714 0.279503
5.31949 -1e-06 -8.32496 -0.497743 -0.094913 0.862116 255 255 255 255 0.080541 0.279741
4.48293 17.5482 -6.87601 -0.497743 -0.094913 0.862116 255 255 255 255 0.080712 0.27947
2.94372 -17.5482 -7.76466 -0.497743 0.094913 0.862116 255 255 255 255 0.080751 0.280036
5.31949 -1e-06 -8.32496 -0.497743 0.094913 0.862116 255 255 255 255 0.080541 0.279741
3.78028 -2e-06 -9.21362 -0.497743 0.094913 0.862116 255 255 255 255 0.080544 0.279773
4.8681 16.8717 -11.0978 0.086565 0.984899 -0.149935 255 255 255 255 0.080649 0.279425
4.48293 17.5482 -6.87601 0.086565 0.984899 -0.149935 255 255 255 255 0.080712 0.27947
6.40731 16.8717 -10.2091 0.086565 0.984899 -0.149935 255 255 255 255 0.080647 0.279392
4.86809 -16.8717 -11.0978 0.086565 -0.984899 -0.149934 255 255 255 255 0.080695 0.280133
4.48293 -17.5482 -6.876 0.086565 -0.984899 -0.149934 255 255 255 255 0.08075 0.280005
2.94372 -17.5482 -7.76466 0.086565 -0.984899 -0.149934 255 255 255 255 0.080751 0.280036
5.08096 -7.95682 -9.68914 0.866025 -0 -0.5 255 255 255 255 0.081207 0.2801
10.1619 -4.72789 -0.888661 0.866025 -0 -0.5 255 255 255 255 0.081418 0.279672
10.1619 -7.95682 -0.88866 0.866025 -0 -0.5 255 255 255 255 0.081415 0.279712
5.08096 -7.95682 -9.68914 0 -0 -1 255 255 255 255 0.081207 0.2801
-5.08096 -4.72789 -9.68914 0 -0 -1 255 255 255 255 0.080695 0.280094
5.08096 -4.72789 -9.68914 0 -0 -1 255 255 255 255 0.081209 0.280061
-10.1619 -7.95682 -0.888661 -0.866025 0 -0.5 255 255 255 255 0.080421 0.279775
-5.08096 -4.72789 -9.68914 -0.866025 0 -0.5 255 255 255 255 0.080695 0.280094
-5.08096 -7.95682 -9.68915 -0.866025 0 -0.5 255 255 255 255 0.080697 0.280133
5.08096 -7.95682 -9.68914 -0 -1 0 255 255 255 255 0.081207 0.2801
-10.1619 -7.95682 -0.888661 -0 -1 0 255 255 255 255 0.080421 0.279775
-5.08096 -7.95682 -9.68915 -0 -1 0 255 255 255 255 0.080697 0.280133
-10.1619 -4.72789 -0.888662 0 1 -0 255 255 255 255 0.080418 0.279735
5.08096 -4.72789 -9.68914 0 1 -0 255 255 255 255 0.081209 0.280061
-5.08096 -4.72789 -9.68914 0 1 -0 255 255 255 255 0.080695 0.280094
10.1619 -7.95682 -0.88866 -0 0 1 255 255 255 255 0.081415 0.279712
-10.1619 -4.72789 -0.888662 -0 0 1 255 255 255 255 0.080418 0.279735
-10.1619 -7.95682 -0.888661 -0 0 1 255 255 255 255 0.080421 0.279775
7.53802 0.83505 -13.9449 0.866025 -0 -0.5 255 255 255 255 0.081213 0.280069
-7.53802 0.83505 -13.9449 0 1e-06 -1 255 255 255 255 0.080693 0.280102
-15.076 -0.835052 -0.888662 -0.866026 -0 -0.5 255 255 255 255 0.080421 0.279781
-15.076 0.835052 -0.888663 -0.866026 -0 -0.5 255 255 255 255 0.080418 0.279749
-7.53802 0.83505 -13.9449 -0.866026 -0 -0.5 255 255 255 255 0.080693 0.280102
15.076 0.835052 -0.888661 0 1 -0 255 255 255 255 0.081418 0.279688
-15.076 -0.835052 -0.888662 0 -1 0 255 255 255 255 0.080421 0.279781
-5.6905 0.83505 -10.7449 0.866025 0 0.5 255 255 255 255 0.08075 0.280005
5.6905 0.83505 -10.7449 -0 0 1 255 255 255 255 0.081139 0.279981
11.381 0.835052 -0.888661 -0.866025 0 0.5 255 255 255 255 0.081296 0.279695
16.0439 2e-06 -1.77733 0.962303 0.27198 -0 255 255 255 255 0.081418 0.279688
11.2754 -16.8717 3e-06 0.962303 -0.27198 2e-06 255 255 255 255 0.081211 0.2801
11.2754 -16.8717 -1.77732 0.962303 -0.27198 2e-06 255 255 255 255 0.081213 0.280069
16.0439 2e-06 -1.77733 0.962303 -0.27198 2e-06 255 255 255 255 0.081418 0.279688
-16.0439 0 0 -0.962303 -0.27198 0 255 255 255 255 0.080421 0.279781
-16.0439 -0 -1.77733 -0.962303 -0.27198 0 255 255 255 255 0.080418 0.279749
-11.2754 -16.8717 -1.77732 -0.962303 -0.27198 0 255 255 255 255 0.080693 0.280102
-11.2754 16.8717 -3e-06 -0.962303 0.27198 1e-06 255 255 255 255 0.080649 0.279425
-11.2754 16.8717 -1.77733 -0.962303 0.27198 1e-06 255 255 255 255 0.080647 0.279392
-16.0439 -0 -1.77733 -0.962303 0.27198 1e-06 255 255 255 255 0.080418 0.279749
7.42665 17.5482 -1.77733 0 -0 -1 255 255 255 255 0.081079 0.279448
7.42665 -17.5482 3e-06 0 0 1 255 255 255 255 0.081137 0.280012
-7.42665 -17.5482 -1.77732 0 -0 -1 255 255 255 255 0.08075 0.280005
-7.42665 17.5482 -3e-06 0 0 1 255 255 255 255 0.080714 0.279503
-9.09976 -0 -1.77733 0.995486 -0.094913 0 255 255 255 255 0.080541 0.279741
-7.42665 -17.5482 -1.77732 0.995486 0.094913 -0 255 255 255 255 0.08075 0.280005
9.09976 2e-06 -1.77733 -0.995486 0.094913 -0 255 255 255 255 0.081296 0.279695
7.42665 17.5482 -1.77733 -0.995486 -0.094913 0 255 255 255 255 0.081079 0.279448
-7.42665 17.5482 -3e-06 -0.17313 0.984899 0 255 255 255 255 0.080714 0.279503
11.2754 16.8717 -3e-06 0.173129 0.984899 -1e-06 255 255 255 255 0.081128 0.279397
11.2754 16.8717 -1.77733 0.173129 0.984899 -1e-06 255 255 255 255 0.081129 0.279364
7.42665 17.5482 -1.77733 0.173129 0.984899 -1e-06 255 255 255 255 0.081079 0.279448
7.42665 -17.5482 3e-06 0.17313 -0.984899 0 255 255 255 255 0.081137 0.280012
-7.42665 -17.5482 -1.77732 -0.173129 -0.984899 -0 255 255 255 255 0.08075 0.280005
11.3592 -15.8351 -0.888658 0.866025 -2e-06 -0.5 255 255 255 255 0.081415 0.279712
5.67959 -15.8351 -10.726 0.866025 -2e-06 -0.5 255 255 255 255 0.081207 0.2801
5.67959 -14.165 -10.726 0.866025 -2e-06 -0.5 255 255 255 255 0.081209 0.280061
-5.67959 -15.8351 -10.726 0 0 -1 255 255 255 255 0.080697 0.280133
-5.67959 -14.165 -10.726 0 0 -1 255 255 255 255 0.080695 0.280094
5.67959 -14.165 -10.726 0 0 -1 255 255 255 255 0.081209 0.280061
-5.67959 -15.8351 -10.726 -0.866025 -0 -0.5 255 255 255 255 0.080697 0.280133
-11.3592 -15.8351 -0.888659 -0.866025 -0 -0.5 255 255 255 255 0.080421 0.279775
-11.3592 -14.1649 -0.888661 -0.866025 -0 -0.5 255 255 255 255 0.080418 0.279735
11.3592 -14.1649 -0.888659 0 1 -0 255 255 255 255 0.081418 0.279672
-8.57511 -15.8351 -0.88866 0 -1 0 255 255 255 255 0.080544 0.279767
-4.28756 -14.165 -8.31493 0.866025 0 0.5 255 255 255 255 0.080751 0.279996
4.28756 -14.165 -8.31493 -0 1e-06 1 255 255 255 255 0.081137 0.279972
8.57511 -15.8351 -0.888658 -0.866025 0 0.5 255 255 255 255 0.081294 0.27972
8.57511 -14.1649 -0.888659 -0.866025 0 0.5 255 255 255 255 0.081296 0.27968
4.28756 -14.165 -8.31493 -0.866025 0 0.5 255 255 255 255 0.081137 0.279972
-8.79157 -2e-06 -14.3388 -0.481151 -0.27198 -0.833379 255 255 255 255 0.080421 0.279781
-7.25236 -2e-06 -15.2274 -0.481151 -0.27198 -0.833379 255 255 255 255 0.080418 0.279749
-4.86809 -16.8717 -11.0978 -0.481151 -0.27198 -0.833379 255 255 255 255 0.080693 0.280102
-8.79157 -2e-06 -14.3388 -0.481152 0.27198 -0.833378 255 255 255 255 0.080421 0.279781
-6.4073 16.8717 -10.2091 -0.481152 0.27198 -0.833378 255 255 255 255 0.080649 0.279425
-4.8681 16.8717 -11.0978 -0.481152 0.27198 -0.833378 255 255 255 255 0.080647 0.279392
-2.94372 -17.5482 -7.76466 0.866025 -0 -0.5 255 255 255 255 0.08075 0.280005
-4.48293 17.5482 -6.87601 -0.866025 0 0.5 255 255 255 255 0.080714 0.279503
-3.78028 -2e-06 -9.21362 0.497743 -0.094913 0.862116 255 255 255 255 0.080541 0.279741
-2.94372 -17.5482 -7.76466 0.497743 0.094913 0.862116 255 255 255 255 0.08075 0.280005
-4.48293 17.5482 -6.87601 -0.086565 0.984899 -0.149935 255 255 255 255 0.080714 0.279503
-2.94372 -17.5482 -7.76466 -0.086565 -0.984899 -0.149934 255 255 255 255 0.08075 0.280005
11.3592 14.1649 -0.888663 0.866025 -2e-06 -0.5 255 255 255 255 0.081414 0.279737
5.67959 14.1649 -10.726 0.866025 -2e-06 -0.5 255 255 255 255 0.081208 0.280101
5.67959 15.835 -10.726 0.866025 -2e-06 -0.5 255 255 255 255 0.08121 0.280057
-5.67959 14.1649 -10.726 0 0 -1 255 255 255 255 0.080696 0.280133
-5.67959 15.835 -10.726 0 0 -1 255 255 255 255 0.080694 0.280089
5.67959 15.835 -10.726 0 0 -1 255 255 255 255 0.08121 0.280057
-5.67959 14.1649 -10.726 -0.866025 -0 -0.5 255 255 255 255 0.080696 0.280133
-11.3592 14.1649 -0.888664 -0.866025 -0 -0.5 255 255 255 255 0.080422 0.279795
-11.3592 15.8351 -0.888666 -0.866025 -0 -0.5 255 255 255 255 0.080418 0.27975
11.3592 15.8351 -0.888664 0 1 -0 255 255 255 255 0.081418 0.279691
-8.57511 14.1649 -0.888665 0 -1 0 255 255 255 255 0.080544 0.279788
-4.28756 15.8351 -8.31493 0.866025 0 0.5 255 255 255 255 0.080751 0.279996
4.28756 15.8351 -8.31493 -0 1e-06 1 255 255 255 255 0.081137 0.279973
8.57511 15.8351 -0.888664 -0.866026 0 0.5 255 255 255 255 0.081296 0.279699
7.25236 -2e-06 -15.2274 0.481151 -0.27198 -0.833379 255 255 255 255 0.080421 0.279781
8.79157 -2e-06 -14.3388 0.481151 -0.27198 -0.833379 255 255 255 255 0.080418 0.279749
6.4073 -16.8717 -10.2091 0.481151 -0.27198 -0.833379 255 255 255 255 0.080693 0.280102
7.25236 -2e-06 -15.2274 0.48115 0.27198 -0.83338 255 255 255 255 0.080421 0.279781
4.8681 16.8717 -11.0978 0.48115 0.27198 -0.83338 255 255 255 255 0.080649 0.279425
6.40731 16.8717 -10.2091 0.48115 0.27198 -0.83338 255 255 255 255 0.080647 0.279392
4.48293 -17.5482 -6.876 0.866025 0 0.5 255 255 255 255 0.08075 0.280005
2.94372 17.5482 -7.76467 -0.866025 -0 -0.5 255 255 255 255 0.080714 0.279503
3.78028 -2e-06 -9.21362 -0.497743 -0.094913 0.862116 255 255 255 255 0.080544 0.279773
4.48293 -17.5482 -6.876 -0.497743 0.094913 0.862116 255 255 255 255 0.08075 0.280005
2.94372 17.5482 -7.76467 0.086565 0.984899 -0.149935 255 255 255 255 0.080714 0.279503
4.86809 -16.8717 -11.0978 0.086564 -0.984899 -0.149934 255 255 255 255 0.080695 0.280133
6.4073 -16.8717 -10.2091 0.086564 -0.984899 -0.149934 255 255 255 255 0.080693 0.280102
4.48293 -17.5482 -6.876 0.086564 -0.984899 -0.149934 255 255 255 255 0.08075 0.280005
5.08096 -7.95682 -9.68914 0.866025 -1e-06 -0.5 255 255 255 255 0.081207 0.2801
5.08096 -4.72789 -9.68914 0.866025 -1e-06 -0.5 255 255 255 255 0.081209 0.280061
10.1619 -4.72789 -0.888661 0.866025 -1e-06 -0.5 255 255 255 255 0.081418 0.279672
-5.08096 -7.95682 -9.68915 0 0 -1 255 255 255 255 0.080697 0.280133
-10.1619 -4.72789 -0.888662 -0.866025 -0 -0.5 255 255 255 255 0.080418 0.279735
10.1619 -7.95682 -0.88866 -0 -1 0 255 255 255 255 0.081415 0.279712
10.1619 -4.72789 -0.888661 0 1 -0 255 255 255 255 0.081418 0.279672
10.1619 -4.72789 -0.888661 -0 0 1 255 255 255 255 0.081418 0.279672
3 0 1 2 
3 3 4 5 
3 6 7 8 
3 9 10 11 
3 12 13 14 
3 15 16 9 
3 14 17 18 
3 19 20 15 
3 18 21 22 
3 23 24 25 
3 26 27 28 
3 29 30 31 
3 32 33 34 
3 35 36 37 
3 38 39 40 
3 41 42 43 
3 44 45 46 
3 47 48 49 
3 44 50 51 
3 47 52 53 
3 54 55 56 
3 57 58 59 
3 54 60 61 
3 57 62 63 
3 64 65 66 
3 67 68 69 
3 70 71 72 
3 73 74 75 
3 76 77 78 
3 79 80 81 
3 82 83 84 
3 85 86 87 
3 88 89 90 
3 91 92 93 
3 94 95 96 
3 97 98 99 
3 100 101 102 
3 103 104 97 
3 102 105 106 
3 103 107 108 
3 106 109 110 
3 111 112 113 
3 114 115 116 
3 117 118 119 
3 120 121 122 
3 123 124 125 
3 126 127 128 
3 129 130 131 
3 126 132 133 
3 129 134 135 
3 136 137 138 
3 139 140 141 
3 142 143 144 
3 145 146 147 
3 148 149 150 
3 151 152 153 
3 154 155 156 
3 157 158 159 
3 160 161 162 
3 163 164 157 
3 162 165 166 
3 163 167 168 
3 166 169 170 
3 171 172 173 
3 174 175 176 
3 177 178 179 
3 180 181 182 
3 183 184 185 
3 186 187 188 
3 189 190 191 
3 186 192 193 
3 189 194 195 
3 196 197 198 
3 199 200 201 
3 202 203 204 
3 205 206 207 
3 208 209 210 
3 211 212 213 
3 214 215 216 
3 217 218 219 
3 220 221 222 
3 223 224 225 
3 0 226 1 
3 3 227 4 
3 228 229 230 
3 9 16 10 
3 12 231 13 
3 15 20 16 
3 14 13 17 
3 19 232 20 
3 18 17 21 
3 23 233 24 
3 26 234 27 
3 29 235 30 
3 32 236 33 
3 237 238 239 
3 240 241 242 
3 243 244 245 
3 44 51 45 
3 47 246 48 
3 44 247 50 
3 47 49 52 
3 54 61 55 
3 57 248 58 
3 54 249 60 
3 57 59 62 
3 64 250 65 
3 67 251 68 
3 70 252 71 
3 73 253 74 
3 76 254 77 
3 255 256 257 
3 82 258 83 
3 85 259 86 
3 260 261 262 
3 263 264 265 
3 266 267 268 
3 97 104 98 
3 100 269 101 
3 103 108 104 
3 102 101 105 
3 103 270 107 
3 106 105 109 
3 111 271 112 
3 114 272 115 
3 273 274 275 
3 276 277 278 
3 279 280 281 
3 126 133 127 
3 129 282 130 
3 126 283 132 
3 129 131 134 
3 136 284 137 
3 139 285 140 
3 142 286 143 
3 145 287 146 
3 288 289 290 
3 291 292 293 
3 294 295 296 
3 157 164 158 
3 160 297 161 
3 163 168 164 
3 162 161 165 
3 163 298 167 
3 166 165 169 
3 171 299 172 
3 174 300 175 
3 177 301 178 
3 302 303 304 
3 305 306 307 
3 186 193 187 
3 189 308 190 
3 186 309 192 
3 189 191 194 
3 196 310 197 
3 199 311 200 
3 202 312 203 
3 313 314 315 
3 316 317 318 
3 211 319 212 
3 214 320 215 
3 217 321 218 
3 220 322 221 
3 223 323 224 
