ply
format ascii 1.0
comment VCGLIB generated
comment TextureFile Dungeons_2_Texture_01_A.png
element vertex 360
property float x
property float y
property float z
property float nx
property float ny
property float nz
property uchar red
property uchar green
property uchar blue
property uchar alpha
property float texture_u
property float texture_v
element face 184
property list uchar int vertex_indices
end_header
-31.0682 1e-06 4.04412 -1 -0 -0 255 255 255 255 0.08033 0.281045
-31.0682 4.6222 -4.04412 -1 -0 -0 255 255 255 255 0.080405 0.28092
-31.0682 -1e-06 -4.04412 -1 -0 -0 255 255 255 255 0.080404 0.280996
-31.0682 4.6222 -4.04412 -0.440361 0.897821 -1e-06 255 255 255 255 0.080405 0.28092
-22.98 8.58926 4.04412 -0.440361 0.897821 -1e-06 255 255 255 255 0.080208 0.28087
-22.98 8.58926 -4.04412 -0.440361 0.897821 -1e-06 255 255 255 255 0.080284 0.280826
-31.0682 1e-06 4.04412 -0 0 1 255 255 255 255 0.08033 0.281045
-22.98 8.58926 4.04412 -0 0 1 255 255 255 255 0.080208 0.28087
-31.0682 4.6222 4.04412 -0 0 1 255 255 255 255 0.080331 0.280968
-18.6555 -1e-06 -4.04412 0 -1 0 255 255 255 255 0.08022 0.280949
-31.0682 1e-06 4.04412 0 -1 0 255 255 255 255 0.08033 0.281045
-31.0682 -1e-06 -4.04412 0 -1 0 255 255 255 255 0.080404 0.280996
-22.98 8.58926 -4.04412 0 -0 -1 255 255 255 255 0.080284 0.280826
-31.0682 -1e-06 -4.04412 0 -0 -1 255 255 255 255 0.080404 0.280996
-31.0682 4.6222 -4.04412 0 -0 -1 255 255 255 255 0.080405 0.28092
-21.6243 26.0664 4.04411 -0.997491 -0.070793 -0 255 255 255 255 0.080188 0.280568
-22.98 45.1693 -4.04413 -0.997491 -0.070793 -0 255 255 255 255 0.08029 0.280201
-21.6243 26.0664 -4.04413 -0.997491 -0.070793 -0 255 255 255 255 0.080266 0.280531
-18.6555 26.0664 4.04411 0 0 1 255 255 255 255 0.080142 0.280558
-22.98 45.1693 4.04411 0 0 1 255 255 255 255 0.08021 0.28023
-21.6243 26.0664 4.04411 0 0 1 255 255 255 255 0.080188 0.280568
-18.6555 26.0664 -4.04413 1 -0 0 255 255 255 255 0.080222 0.280522
-18.6555 47.5078 4.04411 1 -0 0 255 255 255 255 0.080142 0.280177
-18.6555 26.0664 4.04411 1 -0 0 255 255 255 255 0.080142 0.280558
-18.6555 26.0664 -4.04413 -0 -0 -1 255 255 255 255 0.080222 0.280522
-22.98 45.1693 -4.04413 -0 -0 -1 255 255 255 255 0.08029 0.280201
-18.6555 47.5078 -4.04413 -0 -0 -1 255 255 255 255 0.080223 0.28015
-22.98 8.58926 -4.04412 -0.997005 0.07734 -0 255 255 255 255 0.080284 0.280826
-21.6243 26.0664 4.04411 -0.997005 0.07734 -0 255 255 255 255 0.080188 0.280568
-21.6243 26.0664 -4.04413 -0.997005 0.07734 -0 255 255 255 255 0.080266 0.280531
-18.6555 -1e-06 -4.04412 1 0 -0 255 255 255 255 0.08022 0.280949
-18.6555 1e-06 4.04412 1 0 -0 255 255 255 255 0.080143 0.280995
-18.6555 -1e-06 -4.04412 0 -0 -1 255 255 255 255 0.08022 0.280949
-22.98 45.1693 4.04411 -0.908646 -0.417567 -1e-06 255 255 255 255 0.08021 0.28023
-27.1533 54.2506 -4.04413 -0.908646 -0.417567 -1e-06 255 255 255 255 0.080358 0.280045
-22.98 45.1693 -4.04413 -0.908646 -0.417567 -1e-06 255 255 255 255 0.08029 0.280201
-18.6555 47.5078 4.04411 0 0 1 255 255 255 255 0.080142 0.280177
-27.1533 54.2506 4.04411 0 0 1 255 255 255 255 0.080278 0.280069
-27.1533 54.2506 -4.04413 0 -0 -1 255 255 255 255 0.080358 0.280045
19.0364 4e-06 24.8838 0.5 -1e-06 0.866026 255 255 255 255 0.08033 0.281045
12.0318 4.6222 28.9279 0.5 -1e-06 0.866026 255 255 255 255 0.080405 0.28092
12.0318 5e-06 28.9279 0.5 -1e-06 0.866026 255 255 255 255 0.080404 0.280996
19.0364 4.6222 24.8838 0.22018 0.897821 0.381363 255 255 255 255 0.080331 0.280968
7.9877 8.58927 21.9233 0.22018 0.897821 0.381363 255 255 255 255 0.080284 0.280826
12.0318 4.6222 28.9279 0.22018 0.897821 0.381363 255 255 255 255 0.080405 0.28092
19.0364 4e-06 24.8838 0.866026 0 -0.5 255 255 255 255 0.08033 0.281045
14.9923 8.58927 17.8792 0.866026 0 -0.5 255 255 255 255 0.080208 0.28087
19.0364 4.6222 24.8838 0.866026 0 -0.5 255 255 255 255 0.080331 0.280968
5.82545 3e-06 18.1782 0 -1 0 255 255 255 255 0.08022 0.280949
19.0364 4e-06 24.8838 0 -1 0 255 255 255 255 0.08033 0.281045
12.0318 5e-06 28.9279 0 -1 0 255 255 255 255 0.080404 0.280996
7.9877 8.58927 21.9233 -0.866025 0 0.5 255 255 255 255 0.080284 0.280826
12.0318 5e-06 28.9279 -0.866025 0 0.5 255 255 255 255 0.080404 0.280996
12.0318 4.6222 28.9279 -0.866025 0 0.5 255 255 255 255 0.080405 0.28092
14.3144 26.0664 16.7051 0.498746 -0.070792 0.863853 255 255 255 255 0.080188 0.280568
7.9877 45.1693 21.9233 0.498746 -0.070792 0.863853 255 255 255 255 0.08029 0.280201
7.30982 26.0664 20.7492 0.498746 -0.070792 0.863853 255 255 255 255 0.080266 0.280531
12.8301 26.0664 14.1341 0.866025 -0 -0.5 255 255 255 255 0.080142 0.280558
14.9923 45.1693 17.8792 0.866025 -0 -0.5 255 255 255 255 0.08021 0.28023
14.3144 26.0664 16.7051 0.866025 -0 -0.5 255 255 255 255 0.080188 0.280568
12.8301 26.0664 14.1341 -0.5 -0 -0.866025 255 255 255 255 0.080142 0.280558
5.82545 47.5078 18.1782 -0.5 -0 -0.866025 255 255 255 255 0.080223 0.28015
12.8301 47.5078 14.1341 -0.5 -0 -0.866025 255 255 255 255 0.080142 0.280177
5.82545 26.0664 18.1782 -0.866025 0 0.5 255 255 255 255 0.080222 0.280522
7.9877 45.1693 21.9233 -0.866025 0 0.5 255 255 255 255 0.08029 0.280201
5.82545 47.5078 18.1782 -0.866025 0 0.5 255 255 255 255 0.080223 0.28015
14.9923 8.58927 17.8792 0.498502 0.07734 0.863432 255 255 255 255 0.080208 0.28087
7.30982 26.0664 20.7492 0.498502 0.07734 0.863432 255 255 255 255 0.080266 0.280531
7.9877 8.58927 21.9233 0.498502 0.07734 0.863432 255 255 255 255 0.080284 0.280826
14.9923 8.58927 17.8792 0.866025 0 -0.5 255 255 255 255 0.080208 0.28087
12.8301 2e-06 14.1341 -0.5 -0 -0.866025 255 255 255 255 0.080143 0.280995
5.82545 26.0664 18.1782 -0.5 -0 -0.866025 255 255 255 255 0.080222 0.280522
5.82545 3e-06 18.1782 -0.866025 0 0.5 255 255 255 255 0.08022 0.280949
14.9923 45.1693 17.8792 0.454323 -0.417567 0.786911 255 255 255 255 0.08021 0.28023
10.0744 54.2506 25.5375 0.454323 -0.417567 0.786911 255 255 255 255 0.080358 0.280045
7.9877 45.1693 21.9233 0.454323 -0.417567 0.786911 255 255 255 255 0.08029 0.280201
12.8301 47.5078 14.1341 0.866025 -0 -0.5 255 255 255 255 0.080142 0.280177
17.079 54.2506 21.4934 0.866025 -0 -0.5 255 255 255 255 0.080278 0.280069
10.0744 54.2506 25.5375 -0.866025 0 0.5 255 255 255 255 0.080358 0.280045
12.0318 -5e-06 -28.9279 0.5 -0 -0.866025 255 255 255 255 0.08033 0.281045
19.0364 4.6222 -24.8838 0.5 -0 -0.866025 255 255 255 255 0.080405 0.28092
19.0364 -4e-06 -24.8838 0.5 -0 -0.866025 255 255 255 255 0.080404 0.280996
19.0364 4.6222 -24.8838 0.220181 0.897821 -0.381364 255 255 255 255 0.080405 0.28092
7.9877 8.58926 -21.9233 0.220181 0.897821 -0.381364 255 255 255 255 0.080208 0.28087
14.9923 8.58926 -17.8792 0.220181 0.897821 -0.381364 255 255 255 255 0.080284 0.280826
12.0318 -5e-06 -28.9279 -0.866025 -0 -0.5 255 255 255 255 0.08033 0.281045
7.9877 8.58926 -21.9233 -0.866025 -0 -0.5 255 255 255 255 0.080208 0.28087
12.0318 4.62219 -28.9279 -0.866025 -0 -0.5 255 255 255 255 0.080331 0.280968
12.8301 -2e-06 -14.1341 0 -1 0 255 255 255 255 0.08022 0.280949
12.0318 -5e-06 -28.9279 0 -1 0 255 255 255 255 0.08033 0.281045
19.0364 -4e-06 -24.8838 0 -1 0 255 255 255 255 0.080404 0.280996
14.9923 8.58926 -17.8792 0.866025 0 0.5 255 255 255 255 0.080284 0.280826
19.0364 -4e-06 -24.8838 0.866025 0 0.5 255 255 255 255 0.080404 0.280996
19.0364 4.6222 -24.8838 0.866025 0 0.5 255 255 255 255 0.080405 0.28092
7.30983 26.0664 -20.7492 0.498746 -0.070793 -0.863852 255 255 255 255 0.080188 0.280568
14.9923 45.1693 -17.8792 0.498746 -0.070793 -0.863852 255 255 255 255 0.08029 0.280201
14.3144 26.0664 -16.7051 0.498746 -0.070793 -0.863852 255 255 255 255 0.080266 0.280531
5.82546 26.0664 -18.1782 -0.866026 -0 -0.499999 255 255 255 255 0.080142 0.280558
7.9877 45.1693 -21.9233 -0.866026 -0 -0.499999 255 255 255 255 0.08021 0.28023
7.30983 26.0664 -20.7492 -0.866026 -0 -0.499999 255 255 255 255 0.080188 0.280568
12.8301 26.0664 -14.1341 -0.5 0 0.866025 255 255 255 255 0.080222 0.280522
5.82545 47.5077 -18.1782 -0.5 0 0.866025 255 255 255 255 0.080142 0.280177
5.82546 26.0664 -18.1782 -0.5 0 0.866025 255 255 255 255 0.080142 0.280558
12.8301 26.0664 -14.1341 0.866025 0 0.5 255 255 255 255 0.080222 0.280522
14.9923 45.1693 -17.8792 0.866025 0 0.5 255 255 255 255 0.08029 0.280201
12.8301 47.5077 -14.1341 0.866025 0 0.5 255 255 255 255 0.080223 0.28015
7.9877 8.58926 -21.9233 0.498503 0.07734 -0.863431 255 255 255 255 0.080208 0.28087
14.3144 26.0664 -16.7051 0.498503 0.07734 -0.863431 255 255 255 255 0.080266 0.280531
14.9923 8.58926 -17.8792 0.498503 0.07734 -0.863431 255 255 255 255 0.080284 0.280826
7.9877 8.58926 -21.9233 -0.866026 -0 -0.499999 255 255 255 255 0.080208 0.28087
12.8301 -2e-06 -14.1341 -0.5 0 0.866025 255 255 255 255 0.08022 0.280949
5.82545 -3e-06 -18.1782 -0.5 0 0.866025 255 255 255 255 0.080143 0.280995
12.8301 -2e-06 -14.1341 0.866025 0 0.5 255 255 255 255 0.08022 0.280949
7.9877 45.1693 -21.9233 0.454323 -0.417567 -0.78691 255 255 255 255 0.08021 0.28023
17.079 54.2506 -21.4934 0.454323 -0.417567 -0.78691 255 255 255 255 0.080358 0.280045
14.9923 45.1693 -17.8792 0.454323 -0.417567 -0.78691 255 255 255 255 0.08029 0.280201
7.9877 45.1693 -21.9233 -0.866026 -0 -0.5 255 255 255 255 0.08021 0.28023
5.82545 47.5077 -18.1782 -0.866026 -0 -0.5 255 255 255 255 0.080142 0.280177
10.0744 54.2506 -25.5375 -0.866026 -0 -0.5 255 255 255 255 0.080278 0.280069
17.079 54.2506 -21.4934 0.866025 0 0.5 255 255 255 255 0.080358 0.280045
14.2862 4e-06 24.7445 -0 0.704968 0.709239 255 255 255 255 0.080877 0.280693
-10 7.46899 17.3205 -0 0.704968 0.709239 255 255 255 255 0.080475 0.280618
-14.2863 4e-06 24.7445 -0 0.704968 0.709239 255 255 255 255 0.080414 0.280687
28.5725 0 3e-06 0.614219 0.704968 0.35462 255 255 255 255 0.081136 0.280859
10 7.46899 17.3205 0.614219 0.704968 0.35462 255 255 255 255 0.08081 0.280623
14.2862 4e-06 24.7445 0.614219 0.704968 0.35462 255 255 255 255 0.080877 0.280693
14.2863 -4e-06 -24.7445 0.614219 0.704968 -0.35462 255 255 255 255 0.080893 0.281045
20 7.46899 1e-06 0.614219 0.704968 -0.35462 255 255 255 255 0.080988 0.280736
28.5725 0 3e-06 0.614219 0.704968 -0.35462 255 255 255 255 0.081136 0.280859
-14.2863 -4e-06 -24.7445 0 0.704968 -0.709239 255 255 255 255 0.080351 0.281036
10 7.46899 -17.3205 0 0.704968 -0.709239 255 255 255 255 0.080813 0.280856
14.2863 -4e-06 -24.7445 0 0.704968 -0.709239 255 255 255 255 0.080893 0.281045
-14.2863 -4e-06 -24.7445 -0.614219 0.704968 -0.35462 255 255 255 255 0.080351 0.281036
-20 7.46899 -2e-06 -0.614219 0.704968 -0.35462 255 255 255 255 0.080282 0.280726
-10 7.46899 -17.3205 -0.614219 0.704968 -0.35462 255 255 255 255 0.080439 0.280851
-28.5725 -0 -1e-06 -0.614219 0.704968 0.354619 255 255 255 255 0.080136 0.280844
-10 7.46899 17.3205 -0.614219 0.704968 0.354619 255 255 255 255 0.080475 0.280618
-20 7.46899 -2e-06 -0.614219 0.704968 0.354619 255 255 255 255 0.080282 0.280726
-28.5725 -0 -1e-06 -0 -1 0 255 255 255 255 0.080136 0.280844
14.2863 -4e-06 -24.7445 -0 -1 0 255 255 255 255 0.080893 0.281045
14.2862 4e-06 24.7445 -0 -1 0 255 255 255 255 0.080877 0.280693
8.15493 7.46899 14.1248 0 0.105753 -0.994393 255 255 255 255 0.080779 0.280642
-7.98115 4.63867 13.8237 0 0.105753 -0.994393 255 255 255 255 0.080506 0.28064
-8.15493 7.46899 14.1247 0 0.105753 -0.994393 255 255 255 255 0.080503 0.280638
8.15493 7.46899 14.1248 -0.861169 0.105752 -0.497196 255 255 255 255 0.080779 0.280642
15.9623 4.63866 1e-06 -0.861169 0.105752 -0.497196 255 255 255 255 0.080917 0.280735
7.98114 4.63867 13.8237 -0.861169 0.105752 -0.497196 255 255 255 255 0.080776 0.280644
16.3099 7.46899 1e-06 -0.861169 0.105752 0.497196 255 255 255 255 0.080923 0.280735
7.98115 4.63866 -13.8237 -0.861169 0.105752 0.497196 255 255 255 255 0.080775 0.28083
15.9623 4.63866 1e-06 -0.861169 0.105752 0.497196 255 255 255 255 0.080917 0.280735
8.15493 7.46899 -14.1248 -0 0.105753 0.994392 255 255 255 255 0.080779 0.280832
-7.98114 4.63866 -13.8238 -0 0.105753 0.994392 255 255 255 255 0.080481 0.280825
7.98115 4.63866 -13.8237 -0 0.105753 0.994392 255 255 255 255 0.080775 0.28083
-16.3099 7.46899 -2e-06 0.861169 0.105752 0.497196 255 255 255 255 0.080347 0.280727
-7.98114 4.63866 -13.8238 0.861169 0.105752 0.497196 255 255 255 255 0.080481 0.280825
-8.15493 7.46899 -14.1248 0.861169 0.105752 0.497196 255 255 255 255 0.080477 0.280828
-8.15493 7.46899 14.1247 0.861169 0.105752 -0.497196 255 255 255 255 0.080503 0.280638
-15.9623 4.63866 -2e-06 0.861169 0.105752 -0.497196 255 255 255 255 0.080353 0.280727
-16.3099 7.46899 -2e-06 0.861169 0.105752 -0.497196 255 255 255 255 0.080347 0.280727
-7.98115 4.63867 13.8237 0 0.966815 -0.255478 255 255 255 255 0.080506 0.28064
7.98114 4.63867 13.8237 0 0.966815 -0.255478 255 255 255 255 0.080776 0.280644
-1e-06 0.985783 -0 0 0.966815 -0.255478 255 255 255 255 0.080634 0.280836
7.98114 4.63867 13.8237 -0.22125 0.966815 -0.127739 255 255 255 255 0.080776 0.280644
15.9623 4.63866 1e-06 -0.22125 0.966815 -0.127739 255 255 255 255 0.080917 0.280735
-1e-06 0.985783 -0 -0.22125 0.966815 -0.127739 255 255 255 255 0.080634 0.280836
15.9623 4.63866 1e-06 -0.22125 0.966815 0.127739 255 255 255 255 0.080917 0.280735
7.98115 4.63866 -13.8237 -0.22125 0.966815 0.127739 255 255 255 255 0.080775 0.28083
-1e-06 0.985783 -0 -0.22125 0.966815 0.127739 255 255 255 255 0.080634 0.280836
7.98115 4.63866 -13.8237 -0 0.966815 0.255478 255 255 255 255 0.080775 0.28083
-7.98114 4.63866 -13.8238 -0 0.966815 0.255478 255 255 255 255 0.080481 0.280825
-1e-06 0.985783 -0 -0 0.966815 0.255478 255 255 255 255 0.080634 0.280836
-7.98114 4.63866 -13.8238 0.22125 0.966815 0.127739 255 255 255 255 0.080481 0.280825
-15.9623 4.63866 -2e-06 0.22125 0.966815 0.127739 255 255 255 255 0.080353 0.280727
-1e-06 0.985783 -0 0.22125 0.966815 0.127739 255 255 255 255 0.080634 0.280836
-15.9623 4.63866 -2e-06 0.22125 0.966815 -0.127739 255 255 255 255 0.080353 0.280727
-7.98115 4.63867 13.8237 0.22125 0.966815 -0.127739 255 255 255 255 0.080506 0.28064
-1e-06 0.985783 -0 0.22125 0.966815 -0.127739 255 255 255 255 0.080634 0.280836
10 7.46899 17.3205 0 1 -0 255 255 255 255 0.08081 0.280623
-8.15493 7.46899 14.1247 0 1 -0 255 255 255 255 0.080503 0.280638
-10 7.46899 17.3205 0 1 -0 255 255 255 255 0.080475 0.280618
20 7.46899 1e-06 0 1 -0 255 255 255 255 0.080988 0.280736
8.15493 7.46899 14.1248 0 1 -0 255 255 255 255 0.080779 0.280642
10 7.46899 -17.3205 0 1 -0 255 255 255 255 0.080813 0.280856
16.3099 7.46899 1e-06 0 1 -0 255 255 255 255 0.080923 0.280735
-10 7.46899 -17.3205 0 1 -0 255 255 255 255 0.080439 0.280851
8.15493 7.46899 -14.1248 0 1 -0 255 255 255 255 0.080779 0.280832
-20 7.46899 -2e-06 0 1 -0 255 255 255 255 0.080282 0.280726
-8.15493 7.46899 -14.1248 0 1 -0 255 255 255 255 0.080477 0.280828
-16.3099 7.46899 -2e-06 0 1 -0 255 255 255 255 0.080347 0.280727
15.1518 54.9767 -26.2436 -0 -0.655586 -0.755121 255 255 255 255 0.080877 0.280693
-10.2358 45.1693 -17.7289 -0 -0.655586 -0.755121 255 255 255 255 0.080475 0.280618
-15.1518 54.9767 -26.2436 -0 -0.655586 -0.755121 255 255 255 255 0.080414 0.280687
30.3035 54.9767 -1.5e-05 0.653954 -0.655586 -0.37756 255 255 255 255 0.081136 0.280859
10.2358 45.1693 -17.7289 0.653954 -0.655586 -0.37756 255 255 255 255 0.08081 0.280623
15.1518 54.9767 -26.2436 0.653954 -0.655586 -0.37756 255 255 255 255 0.080877 0.280693
15.1518 54.9767 26.2436 0.653954 -0.655586 0.37756 255 255 255 255 0.080893 0.281045
20.4716 45.1693 -9e-06 0.653954 -0.655586 0.37756 255 255 255 255 0.080988 0.280736
30.3035 54.9767 -1.5e-05 0.653954 -0.655586 0.37756 255 255 255 255 0.081136 0.280859
-15.1518 54.9767 26.2436 0 -0.655586 0.755121 255 255 255 255 0.080351 0.281036
10.2358 45.1693 17.7289 0 -0.655586 0.755121 255 255 255 255 0.080813 0.280856
15.1518 54.9767 26.2436 0 -0.655586 0.755121 255 255 255 255 0.080893 0.281045
-30.3035 54.9767 -3e-06 -0.653954 -0.655586 0.37756 255 255 255 255 0.080136 0.280844
-10.2358 45.1693 17.7289 -0.653954 -0.655586 0.37756 255 255 255 255 0.080439 0.280851
-15.1518 54.9767 26.2436 -0.653954 -0.655586 0.37756 255 255 255 255 0.080351 0.281036
-30.3035 54.9767 -3e-06 -0.653954 -0.655586 -0.37756 255 255 255 255 0.080136 0.280844
-10.2358 45.1693 -17.7289 -0.653954 -0.655586 -0.37756 255 255 255 255 0.080475 0.280618
-20.4716 45.1693 -5e-06 -0.653954 -0.655586 -0.37756 255 255 255 255 0.080282 0.280726
-9.28946 47.5077 -16.0898 0 0.678389 0.734703 255 255 255 255 0.080475 0.280618
13.2711 54.9767 -22.9863 0 0.678389 0.734703 255 255 255 255 0.080877 0.280693
-13.2712 54.9767 -22.9863 0 0.678389 0.734703 255 255 255 255 0.080414 0.280687
9.28945 47.5077 -16.0898 -0.636272 0.678389 0.367352 255 255 255 255 0.08081 0.280623
26.5423 54.9767 -1.2e-05 -0.636272 0.678389 0.367352 255 255 255 255 0.081136 0.280859
13.2711 54.9767 -22.9863 -0.636272 0.678389 0.367352 255 255 255 255 0.080877 0.280693
26.5423 54.9767 -1.2e-05 -0.636271 0.678389 -0.367352 255 255 255 255 0.081136 0.280859
9.28945 47.5078 16.0898 -0.636271 0.678389 -0.367352 255 255 255 255 0.080813 0.280856
13.2711 54.9767 22.9863 -0.636271 0.678389 -0.367352 255 255 255 255 0.080893 0.281045
13.2711 54.9767 22.9863 -0 0.678389 -0.734703 255 255 255 255 0.080893 0.281045
-9.28945 47.5078 16.0898 -0 0.678389 -0.734703 255 255 255 255 0.080439 0.280851
-13.2711 54.9767 22.9863 -0 0.678389 -0.734703 255 255 255 255 0.080351 0.281036
-13.2711 54.9767 22.9863 0.636272 0.678389 -0.367352 255 255 255 255 0.080351 0.281036
-18.5789 47.5078 -7e-06 0.636272 0.678389 -0.367352 255 255 255 255 0.080282 0.280726
-26.5423 54.9767 -8e-06 0.636272 0.678389 -0.367352 255 255 255 255 0.080136 0.280844
-26.5423 54.9767 -8e-06 0.636272 0.678389 0.367351 255 255 255 255 0.080136 0.280844
-9.28946 47.5077 -16.0898 0.636272 0.678389 0.367351 255 255 255 255 0.080475 0.280618
-13.2712 54.9767 -22.9863 0.636272 0.678389 0.367351 255 255 255 255 0.080414 0.280687
13.2711 54.9767 -22.9863 -0 1 0 255 255 255 255 0.080877 0.280693
-15.1518 54.9767 -26.2436 -0 1 0 255 255 255 255 0.080414 0.280687
-13.2712 54.9767 -22.9863 -0 1 0 255 255 255 255 0.080414 0.280687
-9.28946 47.5077 -16.0898 0 -0.573972 0.818875 255 255 255 255 0.080475 0.280618
10.2358 45.1693 -17.7289 0 -0.573972 0.818875 255 255 255 255 0.08081 0.280623
9.28945 47.5077 -16.0898 0 -0.573972 0.818875 255 255 255 255 0.08081 0.280623
26.5423 54.9767 -1.2e-05 -0 1 -0 255 255 255 255 0.081136 0.280859
15.1518 54.9767 -26.2436 -0 1 -0 255 255 255 255 0.080877 0.280693
9.28945 47.5077 -16.0898 -0.709166 -0.573973 0.409437 255 255 255 255 0.08081 0.280623
20.4716 45.1693 -9e-06 -0.709166 -0.573973 0.409437 255 255 255 255 0.080988 0.280736
18.5789 47.5078 -1e-05 -0.709166 -0.573973 0.409437 255 255 255 255 0.080988 0.280736
13.2711 54.9767 22.9863 -0 1 -0 255 255 255 255 0.080893 0.281045
30.3035 54.9767 -1.5e-05 -0 1 -0 255 255 255 255 0.081136 0.280859
9.28945 47.5078 16.0898 -0.709166 -0.573973 -0.409437 255 255 255 255 0.080813 0.280856
20.4716 45.1693 -9e-06 -0.709166 -0.573973 -0.409437 255 255 255 255 0.080988 0.280736
10.2358 45.1693 17.7289 -0.709166 -0.573973 -0.409437 255 255 255 255 0.080813 0.280856
-13.2711 54.9767 22.9863 0 1 -0 255 255 255 255 0.080351 0.281036
15.1518 54.9767 26.2436 0 1 -0 255 255 255 255 0.080893 0.281045
-9.28945 47.5078 16.0898 -0 -0.573973 -0.818874 255 255 255 255 0.080439 0.280851
10.2358 45.1693 17.7289 -0 -0.573973 -0.818874 255 255 255 255 0.080813 0.280856
-10.2358 45.1693 17.7289 -0 -0.573973 -0.818874 255 255 255 255 0.080439 0.280851
-26.5423 54.9767 -8e-06 -0 1 -0 255 255 255 255 0.080136 0.280844
-15.1518 54.9767 26.2436 -0 1 -0 255 255 255 255 0.080351 0.281036
-9.28945 47.5078 16.0898 0.709166 -0.573973 -0.409437 255 255 255 255 0.080439 0.280851
-20.4716 45.1693 -5e-06 0.709166 -0.573973 -0.409437 255 255 255 255 0.080282 0.280726
-18.5789 47.5078 -7e-06 0.709166 -0.573973 -0.409437 255 255 255 255 0.080282 0.280726
-30.3035 54.9767 -3e-06 -0 1 -0 255 255 255 255 0.080136 0.280844
-18.5789 47.5078 -7e-06 0.709165 -0.573974 0.409437 255 255 255 255 0.080282 0.280726
-10.2358 45.1693 -17.7289 0.709165 -0.573974 0.409437 255 255 255 255 0.080475 0.280618
-9.28946 47.5077 -16.0898 0.709165 -0.573974 0.409437 255 255 255 255 0.080475 0.280618
-31.0682 4.6222 4.04412 -1 0 0 255 255 255 255 0.080331 0.280968
-31.0682 4.6222 -4.04412 -0.440361 0.897821 -0 255 255 255 255 0.080405 0.28092
-31.0682 4.6222 4.04412 -0.440361 0.897821 -0 255 255 255 255 0.080331 0.280968
-22.98 8.58926 4.04412 -0.440361 0.897821 -0 255 255 255 255 0.080208 0.28087
-18.6555 1e-06 4.04412 -0 0 1 255 255 255 255 0.080143 0.280995
-18.6555 1e-06 4.04412 0 -1 0 255 255 255 255 0.080143 0.280995
-21.6243 26.0664 4.04411 -0.997491 -0.070793 -1e-06 255 255 255 255 0.080188 0.280568
-22.98 45.1693 4.04411 -0.997491 -0.070793 -1e-06 255 255 255 255 0.08021 0.28023
-22.98 45.1693 -4.04413 -0.997491 -0.070793 -1e-06 255 255 255 255 0.08029 0.280201
-18.6555 47.5078 -4.04413 1 -0 -0 255 255 255 255 0.080223 0.28015
-21.6243 26.0664 -4.04413 0 -0 -1 255 255 255 255 0.080266 0.280531
-22.98 8.58926 -4.04412 -0.997005 0.07734 -1e-06 255 255 255 255 0.080284 0.280826
-22.98 8.58926 4.04412 -0.997005 0.07734 -1e-06 255 255 255 255 0.080208 0.28087
-21.6243 26.0664 4.04411 -0.997005 0.07734 -1e-06 255 255 255 255 0.080188 0.280568
-27.1533 54.2506 4.04411 -0.908646 -0.417567 -1e-06 255 255 255 255 0.080278 0.280069
19.0364 4e-06 24.8838 0.5 0 0.866025 255 255 255 255 0.08033 0.281045
19.0364 4.6222 24.8838 0.5 0 0.866025 255 255 255 255 0.080331 0.280968
12.0318 4.6222 28.9279 0.5 0 0.866025 255 255 255 255 0.080405 0.28092
19.0364 4.6222 24.8838 0.22018 0.897821 0.381364 255 255 255 255 0.080331 0.280968
14.9923 8.58927 17.8792 0.22018 0.897821 0.381364 255 255 255 255 0.080208 0.28087
7.9877 8.58927 21.9233 0.22018 0.897821 0.381364 255 255 255 255 0.080284 0.280826
19.0364 4e-06 24.8838 0.866025 -0 -0.5 255 255 255 255 0.08033 0.281045
12.8301 2e-06 14.1341 0.866025 -0 -0.5 255 255 255 255 0.080143 0.280995
12.8301 2e-06 14.1341 0 -1 0 255 255 255 255 0.080143 0.280995
14.3144 26.0664 16.7051 0.498745 -0.070793 0.863853 255 255 255 255 0.080188 0.280568
14.9923 45.1693 17.8792 0.498745 -0.070793 0.863853 255 255 255 255 0.08021 0.28023
7.9877 45.1693 21.9233 0.498745 -0.070793 0.863853 255 255 255 255 0.08029 0.280201
7.30982 26.0664 20.7492 -0.866025 0 0.5 255 255 255 255 0.080266 0.280531
14.9923 8.58927 17.8792 0.498502 0.07734 0.863431 255 255 255 255 0.080208 0.28087
14.3144 26.0664 16.7051 0.498502 0.07734 0.863431 255 255 255 255 0.080188 0.280568
7.30982 26.0664 20.7492 0.498502 0.07734 0.863431 255 255 255 255 0.080266 0.280531
5.82545 3e-06 18.1782 -0.5 -0 -0.866025 255 255 255 255 0.08022 0.280949
17.079 54.2506 21.4934 0.454323 -0.417567 0.786911 255 255 255 255 0.080278 0.280069
12.0318 4.62219 -28.9279 0.5 0 -0.866025 255 255 255 255 0.080331 0.280968
19.0364 4.6222 -24.8838 0.22018 0.897821 -0.381364 255 255 255 255 0.080405 0.28092
12.0318 4.62219 -28.9279 0.22018 0.897821 -0.381364 255 255 255 255 0.080331 0.280968
7.9877 8.58926 -21.9233 0.22018 0.897821 -0.381364 255 255 255 255 0.080208 0.28087
5.82545 -3e-06 -18.1782 -0.866025 -0 -0.5 255 255 255 255 0.080143 0.280995
5.82545 -3e-06 -18.1782 -0 -1 0 255 255 255 255 0.080143 0.280995
7.9877 45.1693 -21.9233 0.498746 -0.070793 -0.863852 255 255 255 255 0.08021 0.28023
5.82546 26.0664 -18.1782 -0.866025 -0 -0.5 255 255 255 255 0.080142 0.280558
5.82545 47.5077 -18.1782 -0.866025 -0 -0.5 255 255 255 255 0.080142 0.280177
7.9877 45.1693 -21.9233 -0.866025 -0 -0.5 255 255 255 255 0.08021 0.28023
12.8301 47.5077 -14.1341 -0.5 0 0.866025 255 255 255 255 0.080223 0.28015
14.3144 26.0664 -16.7051 0.866025 0 0.5 255 255 255 255 0.080266 0.280531
7.30983 26.0664 -20.7492 0.498503 0.07734 -0.863431 255 255 255 255 0.080188 0.280568
7.9877 8.58926 -21.9233 -0.866026 0 -0.5 255 255 255 255 0.080208 0.28087
5.82545 -3e-06 -18.1782 -0.866026 0 -0.5 255 255 255 255 0.080143 0.280995
5.82546 26.0664 -18.1782 -0.866026 0 -0.5 255 255 255 255 0.080142 0.280558
7.9877 45.1693 -21.9233 0.454324 -0.417568 -0.78691 255 255 255 255 0.08021 0.28023
10.0744 54.2506 -25.5375 0.454324 -0.417568 -0.78691 255 255 255 255 0.080278 0.280069
17.079 54.2506 -21.4934 0.454324 -0.417568 -0.78691 255 255 255 255 0.080358 0.280045
10 7.46899 17.3205 -0 0.704968 0.709239 255 255 255 255 0.08081 0.280623
20 7.46899 1e-06 0.614219 0.704968 0.35462 255 255 255 255 0.080988 0.280736
10 7.46899 -17.3205 0.614219 0.704968 -0.35462 255 255 255 255 0.080813 0.280856
-10 7.46899 -17.3205 0 0.704968 -0.709239 255 255 255 255 0.080439 0.280851
-28.5725 -0 -1e-06 -0.614219 0.704968 -0.35462 255 255 255 255 0.080136 0.280844
-14.2863 4e-06 24.7445 -0.614219 0.704968 0.354619 255 255 255 255 0.080414 0.280687
-14.2863 4e-06 24.7445 0 -1 0 255 255 255 255 0.080414 0.280687
-14.2863 -4e-06 -24.7445 0 -1 0 255 255 255 255 0.080351 0.281036
28.5725 0 3e-06 -0 -1 0 255 255 255 255 0.081136 0.280859
8.15493 7.46899 14.1248 0 0.105752 -0.994393 255 255 255 255 0.080779 0.280642
7.98114 4.63867 13.8237 0 0.105752 -0.994393 255 255 255 255 0.080776 0.280644
-7.98115 4.63867 13.8237 0 0.105752 -0.994393 255 255 255 255 0.080506 0.28064
16.3099 7.46899 1e-06 -0.861169 0.105752 -0.497196 255 255 255 255 0.080923 0.280735
16.3099 7.46899 1e-06 -0.861169 0.105753 0.497196 255 255 255 255 0.080923 0.280735
8.15493 7.46899 -14.1248 -0.861169 0.105753 0.497196 255 255 255 255 0.080779 0.280832
7.98115 4.63866 -13.8237 -0.861169 0.105753 0.497196 255 255 255 255 0.080775 0.28083
8.15493 7.46899 -14.1248 -0 0.105752 0.994393 255 255 255 255 0.080779 0.280832
-8.15493 7.46899 -14.1248 -0 0.105752 0.994393 255 255 255 255 0.080477 0.280828
-7.98114 4.63866 -13.8238 -0 0.105752 0.994393 255 255 255 255 0.080481 0.280825
-15.9623 4.63866 -2e-06 0.861169 0.105752 0.497196 255 255 255 255 0.080353 0.280727
-8.15493 7.46899 14.1247 0.861169 0.105753 -0.497196 255 255 255 255 0.080503 0.280638
-7.98115 4.63867 13.8237 0.861169 0.105753 -0.497196 255 255 255 255 0.080506 0.28064
-15.9623 4.63866 -2e-06 0.861169 0.105753 -0.497196 255 255 255 255 0.080353 0.280727
10.2358 45.1693 -17.7289 -0 -0.655586 -0.755121 255 255 255 255 0.08081 0.280623
20.4716 45.1693 -9e-06 0.653954 -0.655586 -0.37756 255 255 255 255 0.080988 0.280736
10.2358 45.1693 17.7289 0.653954 -0.655586 0.37756 255 255 255 255 0.080813 0.280856
-10.2358 45.1693 17.7289 0 -0.655586 0.755121 255 255 255 255 0.080439 0.280851
-30.3035 54.9767 -3e-06 -0.653954 -0.655586 0.377561 255 255 255 255 0.080136 0.280844
-20.4716 45.1693 -5e-06 -0.653954 -0.655586 0.377561 255 255 255 255 0.080282 0.280726
-10.2358 45.1693 17.7289 -0.653954 -0.655586 0.377561 255 255 255 255 0.080439 0.280851
-15.1518 54.9767 -26.2436 -0.653954 -0.655586 -0.37756 255 255 255 255 0.080414 0.280687
9.28945 47.5077 -16.0898 0 0.678389 0.734703 255 255 255 255 0.08081 0.280623
18.5789 47.5078 -1e-05 -0.636272 0.678389 0.367352 255 255 255 255 0.080988 0.280736
26.5423 54.9767 -1.2e-05 -0.636272 0.678389 -0.367352 255 255 255 255 0.081136 0.280859
18.5789 47.5078 -1e-05 -0.636272 0.678389 -0.367352 255 255 255 255 0.080988 0.280736
9.28945 47.5078 16.0898 -0.636272 0.678389 -0.367352 255 255 255 255 0.080813 0.280856
9.28945 47.5078 16.0898 -0 0.678389 -0.734703 255 255 255 255 0.080813 0.280856
-13.2711 54.9767 22.9863 0.636271 0.678389 -0.367352 255 255 255 255 0.080351 0.281036
-9.28945 47.5078 16.0898 0.636271 0.678389 -0.367352 255 255 255 255 0.080439 0.280851
-18.5789 47.5078 -7e-06 0.636271 0.678389 -0.367352 255 255 255 255 0.080282 0.280726
-18.5789 47.5078 -7e-06 0.636272 0.678389 0.367351 255 255 255 255 0.080282 0.280726
-9.28946 47.5077 -16.0898 -0 -0.573973 0.818874 255 255 255 255 0.080475 0.280618
-10.2358 45.1693 -17.7289 -0 -0.573973 0.818874 255 255 255 255 0.080475 0.280618
10.2358 45.1693 -17.7289 -0 -0.573973 0.818874 255 255 255 255 0.08081 0.280623
9.28945 47.5077 -16.0898 -0.709166 -0.573972 0.409438 255 255 255 255 0.08081 0.280623
10.2358 45.1693 -17.7289 -0.709166 -0.573972 0.409438 255 255 255 255 0.08081 0.280623
20.4716 45.1693 -9e-06 -0.709166 -0.573972 0.409438 255 255 255 255 0.080988 0.280736
18.5789 47.5078 -1e-05 -0.709166 -0.573973 -0.409437 255 255 255 255 0.080988 0.280736
9.28945 47.5078 16.0898 -0 -0.573973 -0.818874 255 255 255 255 0.080813 0.280856
-10.2358 45.1693 17.7289 0.709166 -0.573973 -0.409437 255 255 255 255 0.080439 0.280851
-18.5789 47.5078 -7e-06 0.709166 -0.573973 0.409437 255 255 255 255 0.080282 0.280726
-20.4716 45.1693 -5e-06 0.709166 -0.573973 0.409437 255 255 255 255 0.080282 0.280726
-10.2358 45.1693 -17.7289 0.709166 -0.573973 0.409437 255 255 255 255 0.080475 0.280618
3 0 1 2 
3 3 4 5 
3 6 7 8 
3 9 10 11 
3 12 13 14 
3 15 16 17 
3 18 19 20 
3 21 22 23 
3 24 25 26 
3 27 28 29 
3 7 18 20 
3 30 23 31 
3 12 24 32 
3 33 34 35 
3 19 36 37 
3 26 25 38 
3 39 40 41 
3 42 43 44 
3 45 46 47 
3 48 49 50 
3 51 52 53 
3 54 55 56 
3 57 58 59 
3 60 61 62 
3 63 64 65 
3 66 67 68 
3 69 57 59 
3 70 71 60 
3 51 63 72 
3 73 74 75 
3 58 76 77 
3 65 64 78 
3 79 80 81 
3 82 83 84 
3 85 86 87 
3 88 89 90 
3 91 92 93 
3 94 95 96 
3 97 98 99 
3 100 101 102 
3 103 104 105 
3 106 107 108 
3 109 97 99 
3 110 102 111 
3 91 103 112 
3 113 114 115 
3 116 117 118 
3 105 104 119 
3 120 121 122 
3 123 124 125 
3 126 127 128 
3 129 130 131 
3 132 133 134 
3 135 136 137 
3 138 139 140 
3 141 142 143 
3 144 145 146 
3 147 148 149 
3 150 151 152 
3 153 154 155 
3 156 157 158 
3 159 160 161 
3 162 163 164 
3 165 166 167 
3 168 169 170 
3 171 172 173 
3 174 175 176 
3 177 178 179 
3 180 181 177 
3 182 183 180 
3 184 185 182 
3 186 187 184 
3 186 178 188 
3 189 190 191 
3 192 193 194 
3 195 196 197 
3 198 199 200 
3 201 202 203 
3 204 205 206 
3 207 208 209 
3 210 211 212 
3 213 214 215 
3 216 217 218 
3 219 220 221 
3 222 223 224 
3 225 226 227 
3 228 229 230 
3 231 232 225 
3 233 234 235 
3 236 237 231 
3 238 239 240 
3 241 242 236 
3 243 244 245 
3 246 247 241 
3 248 249 250 
3 246 226 251 
3 252 253 254 
3 0 255 1 
3 256 257 258 
3 6 259 7 
3 9 260 10 
3 12 32 13 
3 261 262 263 
3 18 36 19 
3 21 264 22 
3 24 265 25 
3 266 267 268 
3 7 259 18 
3 30 21 23 
3 12 265 24 
3 33 269 34 
3 270 271 272 
3 273 274 275 
3 276 277 69 
3 48 278 49 
3 51 72 52 
3 279 280 281 
3 57 76 58 
3 60 71 61 
3 63 282 64 
3 283 284 285 
3 69 277 57 
3 70 286 71 
3 51 282 63 
3 73 287 74 
3 79 288 80 
3 289 290 291 
3 85 292 86 
3 88 293 89 
3 91 112 92 
3 94 294 95 
3 295 296 297 
3 100 298 101 
3 103 299 104 
3 106 300 107 
3 301 302 303 
3 110 100 102 
3 91 299 103 
3 304 305 306 
3 120 307 121 
3 123 308 124 
3 126 309 127 
3 129 310 130 
3 132 311 133 
3 135 312 136 
3 140 313 138 
3 138 314 139 
3 139 315 140 
3 316 317 318 
3 144 319 145 
3 320 321 322 
3 323 324 325 
3 153 326 154 
3 327 328 329 
3 177 181 178 
3 180 183 181 
3 182 185 183 
3 184 187 185 
3 186 188 187 
3 186 179 178 
3 189 330 190 
3 192 331 193 
3 195 332 196 
3 198 333 199 
3 334 335 336 
3 204 337 205 
3 207 338 208 
3 210 339 211 
3 340 341 342 
3 216 343 217 
3 344 345 346 
3 222 347 223 
3 225 232 226 
3 348 349 350 
3 231 237 232 
3 351 352 353 
3 236 242 237 
3 238 354 239 
3 241 247 242 
3 243 355 244 
3 246 251 247 
3 248 356 249 
3 246 227 226 
3 357 358 359 
