ply
format ascii 1.0
comment VCGLIB generated
comment TextureFile Dungeons_2_Texture_01_A.png
element vertex 204
property float x
property float y
property float z
property float nx
property float ny
property float nz
property uchar red
property uchar green
property uchar blue
property uchar alpha
property float texture_u
property float texture_v
element face 104
property list uchar int vertex_indices
end_header
-15.5439 8e-06 -12.9068 -0.377334 -0.845718 -0.377334 255 255 255 255 0.08096 0.276285
0 -11.4313 -2.8297 -0.377334 -0.845718 -0.377334 255 255 255 255 0.081148 0.275909
-2.82971 -11.4313 2e-06 -0.377334 -0.845718 -0.377334 255 255 255 255 0.081014 0.275917
0 -11.4313 -2.8297 0.377334 -0.845718 -0.377334 255 255 255 255 0.081148 0.275909
15.5758 8e-06 -12.8749 0.377334 -0.845718 -0.377334 255 255 255 255 0.081591 0.276494
2.82971 -11.4313 2e-06 0.377334 -0.845718 -0.377334 255 255 255 255 0.081171 0.275963
-8.69645 8e-06 -11.8256 0.659508 -0.085943 -0.746768 255 255 255 255 0.0811 0.276299
0 -11.4313 -2.8297 0.659508 -0.085943 -0.746768 255 255 255 255 0.081148 0.275909
-12.9068 7e-06 -15.5439 0.659508 -0.085943 -0.746768 255 255 255 255 0.081081 0.276277
-11.8428 9e-06 -8.67919 -0.748517 -0.091526 0.656769 255 255 255 255 0.080956 0.276309
-2.82971 -11.4313 2e-06 -0.748517 -0.091526 0.656769 255 255 255 255 0.081014 0.275917
-3.35078 -7.16991 1e-06 -0.748517 -0.091526 0.656769 255 255 255 255 0.081001 0.276005
9.15496 1.6e-05 -12.429 -0.664506 -0.090699 -0.741758 255 255 255 255 0.081507 0.276432
0 -11.4313 -2.8297 -0.664506 -0.090699 -0.741758 255 255 255 255 0.081148 0.275909
0 -7.16991 -3.35078 -0.664506 -0.090699 -0.741758 255 255 255 255 0.081158 0.275995
12.3774 1.7e-05 -9.20655 0.749978 -0.099761 0.653897 255 255 255 255 0.08154 0.276504
2.82971 -11.4313 2e-06 0.749978 -0.099761 0.653897 255 255 255 255 0.081171 0.275963
15.5758 8e-06 -12.8749 0.749978 -0.099761 0.653897 255 255 255 255 0.081591 0.276494
0 -7.16991 -3.35078 -0.343668 0.873948 0.343667 255 255 255 255 0.081158 0.275995
12.3774 1.7e-05 -9.20655 -0.343668 0.873948 0.343667 255 255 255 255 0.08154 0.276504
9.15496 1.6e-05 -12.429 -0.343668 0.873948 0.343667 255 255 255 255 0.081507 0.276432
-8.69645 8e-06 -11.8256 0.359546 0.861077 0.359546 255 255 255 255 0.0811 0.276299
-3.35078 -7.16991 1e-06 0.359546 0.861077 0.359546 255 255 255 255 0.081001 0.276005
0 -7.16991 -3.35078 0.359546 0.861077 0.359546 255 255 255 255 0.081158 0.275995
-3.35078 -7.16991 1e-06 0 1 -0 255 255 255 255 0.081001 0.276005
3.35078 -7.16991 1e-06 0 1 -0 255 255 255 255 0.081185 0.27606
0 -7.16991 -3.35078 0 1 -0 255 255 255 255 0.081158 0.275995
0 -11.4313 -2.8297 -0.707107 -0 -0.707107 255 255 255 255 0.081148 0.275909
-2.82971 -13.6517 2e-06 -0.707107 -0 -0.707107 255 255 255 255 0.081014 0.275917
-2.82971 -11.4313 2e-06 -0.707107 -0 -0.707107 255 255 255 255 0.081014 0.275917
2.82971 -11.4313 2e-06 0.707107 -0 -0.707107 255 255 255 255 0.081171 0.275963
0 -13.6517 -2.8297 0.707107 -0 -0.707107 255 255 255 255 0.081148 0.275909
0 -11.4313 -2.8297 0.707107 -0 -0.707107 255 255 255 255 0.081148 0.275909
-2.82971 -13.6517 2e-06 -0.690815 -0.21342 -0.690816 255 255 255 255 0.081014 0.275917
0 -13.6517 -2.8297 -0.690815 -0.21342 -0.690816 255 255 255 255 0.081148 0.275909
0 -22.8112 4e-06 -0.690815 -0.21342 -0.690816 255 255 255 255 0.081092 0.27594
0 -13.6517 -2.8297 0.690815 -0.21342 -0.690816 255 255 255 255 0.081148 0.275909
2.82971 -13.6517 2e-06 0.690815 -0.21342 -0.690816 255 255 255 255 0.081171 0.275963
0 -22.8112 4e-06 0.690815 -0.21342 -0.690816 255 255 255 255 0.081092 0.27594
2.82971 -13.6517 2e-06 -0 0 1 255 255 255 255 0.081171 0.275963
-2.82971 -13.6517 2e-06 -0 0 1 255 255 255 255 0.081014 0.275917
0 -22.8112 4e-06 -0 0 1 255 255 255 255 0.081092 0.27594
2.82971 -11.4313 2e-06 0 0 1 255 255 255 255 0.081171 0.275963
-3.35078 -7.16991 1e-06 0 0 1 255 255 255 255 0.081001 0.276005
-2.82971 -11.4313 2e-06 0 0 1 255 255 255 255 0.081014 0.275917
-13.3593 -0.114391 -19.0283 -0.707107 0 -0.707106 255 255 255 255 0.081124 0.276884
-19.0283 2.49867 -13.3593 -0.707107 0 -0.707106 255 255 255 255 0.080992 0.277007
-13.3593 2.49867 -19.0283 -0.707107 0 -0.707106 255 255 255 255 0.081136 0.276862
19.0283 -0.11439 -13.3593 0.707107 0 -0.707106 255 255 255 255 0.080954 0.276155
13.3593 2.49867 -19.0283 0.707107 0 -0.707106 255 255 255 255 0.081102 0.27624
19.0283 2.49867 -13.3593 0.707107 0 -0.707106 255 255 255 255 0.080961 0.27612
-5.45386 -0.11439 -14.3362 -0 0 -1 255 255 255 255 0.080995 0.276648
5.45386 2.49867 -14.3362 -0 0 -1 255 255 255 255 0.080997 0.276455
5.45386 -0.11439 -14.3362 -0 0 -1 255 255 255 255 0.080989 0.276485
-5.45386 -0.11439 -14.3362 0.510397 0 -0.859939 255 255 255 255 0.080995 0.276648
-13.3593 2.49867 -19.0283 0.510397 0 -0.859939 255 255 255 255 0.081136 0.276862
-5.45386 2.49867 -14.3362 0.510397 0 -0.859939 255 255 255 255 0.081003 0.276621
-5.45386 -0.11439 -14.3362 0 -1 0 255 255 255 255 0.080995 0.276648
-19.0283 -0.11439 -13.3593 0 -1 0 255 255 255 255 0.080984 0.277026
-13.3593 -0.114391 -19.0283 0 -1 0 255 255 255 255 0.081124 0.276884
-14.3362 2.49867 -4.91329 -0.874163 0 0.485632 255 255 255 255 0.08073 0.276883
-19.0283 -0.11439 -13.3593 -0.874163 0 0.485632 255 255 255 255 0.080984 0.277026
-14.3362 -0.114389 -4.91329 -0.874163 0 0.485632 255 255 255 255 0.080728 0.276905
-5.45386 2.49867 -14.3362 0 1 -0 255 255 255 255 0.081003 0.276621
-19.0283 2.49867 -13.3593 0 1 -0 255 255 255 255 0.080992 0.277007
-14.3362 2.49867 -4.91329 0 1 -0 255 255 255 255 0.08073 0.276883
14.3362 -0.114389 -4.91329 0.874163 0 0.485632 255 255 255 255 0.080726 0.27625
19.0283 2.49867 -13.3593 0.874163 0 0.485632 255 255 255 255 0.080961 0.27612
14.3362 2.49867 -4.91329 0.874163 0 0.485632 255 255 255 255 0.080728 0.276216
5.45386 -0.11439 -14.3362 -0 -1 0 255 255 255 255 0.080989 0.276485
19.0283 -0.11439 -13.3593 -0 -1 0 255 255 255 255 0.080954 0.276155
14.3362 -0.114389 -4.91329 -0 -1 0 255 255 255 255 0.080726 0.27625
5.45386 2.49867 -14.3362 -0.510397 0 -0.859939 255 255 255 255 0.080997 0.276455
13.3593 -0.114391 -19.0283 -0.510397 0 -0.859939 255 255 255 255 0.081092 0.276274
5.45386 -0.11439 -14.3362 -0.510397 0 -0.859939 255 255 255 255 0.080989 0.276485
5.45386 2.49867 -14.3362 -0 1 -0 255 255 255 255 0.080997 0.276455
19.0283 2.49867 -13.3593 -0 1 -0 255 255 255 255 0.080961 0.27612
13.3593 2.49867 -19.0283 -0 1 -0 255 255 255 255 0.081102 0.27624
-3.87962 2.49867 -11.1192 -0 1 -0 255 255 255 255 0.080896 0.276619
4.06671 2.49867 -10.9321 -0 1 -0 255 255 255 255 0.080888 0.276451
-11.1192 2.49867 -3.87962 0 1 -0 255 255 255 255 0.080728 0.276778
10.9321 2.49867 -4.06671 -0 1 -0 255 255 255 255 0.080732 0.27631
14.3362 2.49867 -4.91329 -0 1 -0 255 255 255 255 0.080728 0.276216
-11.1192 -0.114389 -3.87962 -0 -1 0 255 255 255 255 0.080726 0.276802
-14.3362 -0.114389 -4.91329 -0 -1 0 255 255 255 255 0.080728 0.276905
-3.87962 -0.11439 -11.1192 0 -1 0 255 255 255 255 0.080891 0.276646
10.9321 -0.114389 -4.06671 0 -1 0 255 255 255 255 0.08073 0.276343
4.06671 -0.11439 -10.9321 0 -1 0 255 255 255 255 0.080883 0.276481
-3.87962 2.49867 -11.1192 -0.012626 0.843954 0.536266 255 255 255 255 0.080896 0.276619
3.13993 -2.33861 -3.34121 -0.012626 0.843954 0.536266 255 255 255 255 0.080731 0.276462
4.06671 2.49867 -10.9321 -0.012626 0.843954 0.536266 255 255 255 255 0.080888 0.276451
-3.87962 -0.11439 -11.1192 -0.003913 -0.88726 -0.461253 255 255 255 255 0.080891 0.276646
3.14029 -4.18884 -3.34121 -0.003913 -0.88726 -0.461253 255 255 255 255 0.080729 0.276492
-3.29641 -4.18884 -3.2866 -0.003913 -0.88726 -0.461253 255 255 255 255 0.080728 0.276653
3.13993 -2.33861 -3.34121 -0.526569 0.850046 0.012112 255 255 255 255 0.080731 0.276462
11.0257 2.49867 -0 -0.526569 0.850046 0.012112 255 255 255 255 0.080643 0.276308
10.9321 2.49867 -4.06671 -0.526569 0.850046 0.012112 255 255 255 255 0.080732 0.27631
-3.21802 -2.33861 0 -0 1 -0 255 255 255 255 0.080637 0.276623
3.13993 -2.33861 -3.34121 -0 1 -0 255 255 255 255 0.080731 0.276462
-3.29605 -2.33861 -3.28661 -0 1 -0 255 255 255 255 0.08073 0.276626
-11.0257 2.49867 -0 0.526566 0.850039 -0.012697 255 255 255 255 0.080634 0.276775
-3.29605 -2.33861 -3.28661 0.526566 0.850039 -0.012697 255 255 255 255 0.08073 0.276626
-11.1192 2.49867 -3.87962 0.526566 0.850039 -0.012697 255 255 255 255 0.080728 0.276778
-14.3362 2.49867 -0 0 1 -0 255 255 255 255 0.080635 0.276882
-14.3362 -0.114388 0 -1 0 0 255 255 255 255 0.080635 0.276904
-14.3362 2.49867 -4.91329 -1 0 0 255 255 255 255 0.08073 0.276883
-14.3362 -0.114389 -4.91329 -1 0 0 255 255 255 255 0.080728 0.276905
-14.3362 -0.114388 0 0 -1 0 255 255 255 255 0.080635 0.276904
-11.0257 -0.114388 0 0 -1 0 255 255 255 255 0.080634 0.276799
-11.0257 -0.114388 0 -0.462627 -0.886485 0.011008 255 255 255 255 0.080634 0.276799
-3.29641 -4.18884 -3.2866 -0.462627 -0.886485 0.011008 255 255 255 255 0.080728 0.276653
-3.2182 -4.18883 1e-06 -0.462627 -0.886485 0.011008 255 255 255 255 0.080637 0.27665
3.14029 -4.18884 -3.34121 0 -1 0 255 255 255 255 0.080729 0.276492
-3.2182 -4.18883 1e-06 0 -1 0 255 255 255 255 0.080637 0.27665
-3.29641 -4.18884 -3.2866 0 -1 0 255 255 255 255 0.080728 0.276653
11.0257 -0.114388 0 0.46258 -0.886514 -0.01064 255 255 255 255 0.080643 0.27634
3.14029 -4.18884 -3.34121 0.46258 -0.886514 -0.01064 255 255 255 255 0.080729 0.276492
10.9321 -0.114389 -4.06671 0.46258 -0.886514 -0.01064 255 255 255 255 0.08073 0.276343
14.3362 -0.114388 0 0 -1 0 255 255 255 255 0.080642 0.27625
14.3362 2.49867 -0 1 0 -0 255 255 255 255 0.080642 0.276216
14.3362 -0.114389 -4.91329 1 0 -0 255 255 255 255 0.080726 0.27625
14.3362 2.49867 -4.91329 1 0 -0 255 255 255 255 0.080728 0.276216
14.3362 2.49867 -0 0 1 -0 255 255 255 255 0.080642 0.276216
11.0257 2.49867 -0 0 1 -0 255 255 255 255 0.080643 0.276308
11.0257 2.49867 -0 0 0 1 255 255 255 255 0.080643 0.276308
14.3362 -0.114388 0 0 0 1 255 255 255 255 0.080642 0.27625
14.3362 2.49867 -0 0 0 1 255 255 255 255 0.080642 0.276216
3.21795 -2.33861 0 0 0 1 255 255 255 255 0.08064 0.27646
11.0257 -0.114388 0 0 0 1 255 255 255 255 0.080643 0.27634
-3.21802 -2.33861 0 0 0 1 255 255 255 255 0.080637 0.276623
3.21813 -4.18883 1e-06 0 0 1 255 255 255 255 0.08064 0.276489
-11.0257 -0.114388 0 0 0 1 255 255 255 255 0.080634 0.276799
-3.2182 -4.18883 1e-06 0 0 1 255 255 255 255 0.080637 0.27665
-14.3362 2.49867 -0 0 0 1 255 255 255 255 0.080635 0.276882
-11.0257 2.49867 -0 0 0 1 255 255 255 255 0.080634 0.276775
3.13993 -2.33861 -3.34121 -0.442783 0.77967 0.442783 255 255 255 255 0.080731 0.276462
10.9321 2.49867 -4.06671 -0.442783 0.77967 0.442783 255 255 255 255 0.080732 0.27631
4.06671 2.49867 -10.9321 -0.442783 0.77967 0.442783 255 255 255 255 0.080888 0.276451
3.14029 -4.18884 -3.34121 0.396219 -0.828264 -0.396219 255 255 255 255 0.080729 0.276492
4.06671 -0.11439 -10.9321 0.396219 -0.828264 -0.396219 255 255 255 255 0.080883 0.276481
10.9321 -0.114389 -4.06671 0.396219 -0.828264 -0.396219 255 255 255 255 0.08073 0.276343
-3.29605 -2.33861 -3.28661 0.446007 0.775987 0.446007 255 255 255 255 0.08073 0.276626
-3.87962 2.49867 -11.1192 0.446007 0.775987 0.446007 255 255 255 255 0.080896 0.276619
-11.1192 2.49867 -3.87962 0.446007 0.775987 0.446007 255 255 255 255 0.080728 0.276778
-3.29641 -4.18884 -3.2866 -0.399479 -0.825126 -0.399479 255 255 255 255 0.080728 0.276653
-11.1192 -0.114389 -3.87962 -0.399479 -0.825126 -0.399479 255 255 255 255 0.080726 0.276802
-3.87962 -0.11439 -11.1192 -0.399479 -0.825126 -0.399479 255 255 255 255 0.080891 0.276646
-15.5439 8e-06 -12.9068 -0.377334 -0.845718 -0.377333 255 255 255 255 0.08096 0.276285
-12.9068 7e-06 -15.5439 -0.377334 -0.845718 -0.377333 255 255 255 255 0.081081 0.276277
0 -11.4313 -2.8297 -0.377334 -0.845718 -0.377333 255 255 255 255 0.081148 0.275909
0 -11.4313 -2.8297 0.377334 -0.845718 -0.377333 255 255 255 255 0.081148 0.275909
12.8749 7e-06 -15.5758 0.377334 -0.845718 -0.377333 255 255 255 255 0.081562 0.276434
15.5758 8e-06 -12.8749 0.377334 -0.845718 -0.377333 255 255 255 255 0.081591 0.276494
-8.69645 8e-06 -11.8256 0.655178 -0.091694 -0.74989 255 255 255 255 0.0811 0.276299
0 -7.16991 -3.35078 0.655178 -0.091694 -0.74989 255 255 255 255 0.081158 0.275995
0 -11.4313 -2.8297 0.655178 -0.091694 -0.74989 255 255 255 255 0.081148 0.275909
-11.8428 9e-06 -8.67919 -0.749164 -0.092724 0.655862 255 255 255 255 0.080956 0.276309
-15.5439 8e-06 -12.9068 -0.749164 -0.092724 0.655862 255 255 255 255 0.08096 0.276285
-2.82971 -11.4313 2e-06 -0.749164 -0.092724 0.655862 255 255 255 255 0.081014 0.275917
9.15496 1.6e-05 -12.429 -0.640942 -0.122941 -0.75768 255 255 255 255 0.081507 0.276432
12.8749 7e-06 -15.5758 -0.640942 -0.122941 -0.75768 255 255 255 255 0.081562 0.276434
0 -11.4313 -2.8297 -0.640942 -0.122941 -0.75768 255 255 255 255 0.081148 0.275909
12.3774 1.7e-05 -9.20655 0.74565 -0.091175 0.660071 255 255 255 255 0.08154 0.276504
3.35078 -7.16991 1e-06 0.74565 -0.091175 0.660071 255 255 255 255 0.081185 0.27606
2.82971 -11.4313 2e-06 0.74565 -0.091175 0.660071 255 255 255 255 0.081171 0.275963
3.35078 -7.16991 1e-06 -0.343668 0.873948 0.343667 255 255 255 255 0.081185 0.27606
-11.8428 9e-06 -8.67919 0.359546 0.861077 0.359546 255 255 255 255 0.080956 0.276309
0 -13.6517 -2.8297 -0.707107 -0 -0.707107 255 255 255 255 0.081148 0.275909
2.82971 -13.6517 2e-06 0.707107 -0 -0.707107 255 255 255 255 0.081171 0.275963
3.35078 -7.16991 1e-06 -0 0 1 255 255 255 255 0.081185 0.27606
-19.0283 -0.11439 -13.3593 -0.707107 -0 -0.707106 255 255 255 255 0.080984 0.277026
13.3593 -0.114391 -19.0283 0.707107 0 -0.707106 255 255 255 255 0.081092 0.276274
-5.45386 2.49867 -14.3362 -0 -0 -1 255 255 255 255 0.081003 0.276621
-13.3593 -0.114391 -19.0283 0.510397 0 -0.859939 255 255 255 255 0.081124 0.276884
-19.0283 2.49867 -13.3593 -0.874163 0 0.485632 255 255 255 255 0.080992 0.277007
-13.3593 2.49867 -19.0283 0 1 -0 255 255 255 255 0.081136 0.276862
19.0283 -0.11439 -13.3593 0.874163 0 0.485632 255 255 255 255 0.080954 0.276155
13.3593 -0.114391 -19.0283 -0 -1 0 255 255 255 255 0.081092 0.276274
13.3593 2.49867 -19.0283 -0.510397 0 -0.859939 255 255 255 255 0.081102 0.27624
-3.87962 2.49867 -11.1192 0.004456 0.850962 0.525208 255 255 255 255 0.080896 0.276619
-3.29605 -2.33861 -3.28661 0.004456 0.850962 0.525208 255 255 255 255 0.08073 0.276626
3.13993 -2.33861 -3.34121 0.004456 0.850962 0.525208 255 255 255 255 0.080731 0.276462
-3.87962 -0.11439 -11.1192 0.011109 -0.881608 -0.471851 255 255 255 255 0.080891 0.276646
4.06671 -0.11439 -10.9321 0.011109 -0.881608 -0.471851 255 255 255 255 0.080883 0.276481
3.14029 -4.18884 -3.34121 0.011109 -0.881608 -0.471851 255 255 255 255 0.080729 0.276492
3.13993 -2.33861 -3.34121 -0.526625 0.850009 0.012297 255 255 255 255 0.080731 0.276462
3.21795 -2.33861 0 -0.526625 0.850009 0.012297 255 255 255 255 0.08064 0.27646
11.0257 2.49867 -0 -0.526625 0.850009 0.012297 255 255 255 255 0.080643 0.276308
3.21795 -2.33861 0 0 1 -0 255 255 255 255 0.08064 0.27646
-11.0257 2.49867 -0 0.526627 0.850004 -0.012502 255 255 255 255 0.080634 0.276775
-3.21802 -2.33861 0 0.526627 0.850004 -0.012502 255 255 255 255 0.080637 0.276623
-3.29605 -2.33861 -3.28661 0.526627 0.850004 -0.012502 255 255 255 255 0.08073 0.276626
-11.0257 2.49867 -0 0 1 -0 255 255 255 255 0.080634 0.276775
-14.3362 2.49867 -0 -1 0 0 255 255 255 255 0.080635 0.276882
-11.0257 -0.114388 0 -0.462578 -0.886509 0.011154 255 255 255 255 0.080634 0.276799
-11.1192 -0.114389 -3.87962 -0.462578 -0.886509 0.011154 255 255 255 255 0.080726 0.276802
-3.29641 -4.18884 -3.2866 -0.462578 -0.886509 0.011154 255 255 255 255 0.080728 0.276653
3.21813 -4.18883 1e-06 0 -1 0 255 255 255 255 0.08064 0.276489
11.0257 -0.114388 0 0.462625 -0.886489 -0.010778 255 255 255 255 0.080643 0.27634
3.21813 -4.18883 1e-06 0.462625 -0.886489 -0.010778 255 255 255 255 0.08064 0.276489
3.14029 -4.18884 -3.34121 0.462625 -0.886489 -0.010778 255 255 255 255 0.080729 0.276492
11.0257 -0.114388 0 0 -1 0 255 255 255 255 0.080643 0.27634
14.3362 -0.114388 0 1 -0 0 255 255 255 255 0.080642 0.27625
-14.3362 -0.114388 0 0 0 1 255 255 255 255 0.080635 0.276904
3 0 1 2 
3 3 4 5 
3 6 7 8 
3 9 10 11 
3 12 13 14 
3 15 16 17 
3 18 19 20 
3 21 22 23 
3 24 25 26 
3 27 28 29 
3 30 31 32 
3 33 34 35 
3 36 37 38 
3 39 40 41 
3 42 43 44 
3 42 40 39 
3 45 46 47 
3 48 49 50 
3 51 52 53 
3 54 55 56 
3 57 58 59 
3 60 61 62 
3 63 64 65 
3 66 67 68 
3 69 70 71 
3 72 73 74 
3 75 76 77 
3 75 78 79 
3 63 80 78 
3 75 81 82 
3 57 83 84 
3 69 85 57 
3 69 86 87 
3 88 89 90 
3 91 92 93 
3 94 95 96 
3 97 98 99 
3 100 101 102 
3 103 80 65 
3 104 105 106 
3 107 83 108 
3 109 110 111 
3 112 113 114 
3 115 116 117 
3 118 86 71 
3 119 120 121 
3 122 81 123 
3 124 125 126 
3 127 128 124 
3 129 130 127 
3 129 131 132 
3 133 131 134 
3 135 136 137 
3 138 139 140 
3 141 142 143 
3 144 145 146 
3 147 148 149 
3 150 151 152 
3 153 154 155 
3 156 157 158 
3 159 160 161 
3 162 163 164 
3 18 165 19 
3 21 166 22 
3 27 167 28 
3 30 168 31 
3 42 169 43 
3 42 44 40 
3 45 170 46 
3 48 171 49 
3 51 172 52 
3 54 173 55 
3 57 84 58 
3 60 174 61 
3 63 175 64 
3 66 176 67 
3 69 177 70 
3 72 178 73 
3 75 82 76 
3 75 63 78 
3 63 65 80 
3 75 79 81 
3 57 85 83 
3 69 87 85 
3 69 71 86 
3 179 180 181 
3 182 183 184 
3 185 186 187 
3 97 188 98 
3 189 190 191 
3 103 192 80 
3 104 193 105 
3 107 84 83 
3 194 195 196 
3 112 197 113 
3 198 199 200 
3 118 201 86 
3 119 202 120 
3 122 82 81 
3 124 128 125 
3 127 130 128 
3 129 132 130 
3 129 134 131 
3 133 203 131 
