ply
format ascii 1.0
comment VCGLIB generated
element vertex 65
property float x
property float y
property float z
property float nx
property float ny
property float nz
property uchar red
property uchar green
property uchar blue
property uchar alpha
property float texture_u
property float texture_v
element face 62
property list uchar int vertex_indices
end_header
-5.350492 3.271203 7.853118 -0.7097042 0.687667 0.1530823 255 255 255 255 0.8535532 0.8535532
6.722933e-09 9.188206e-09 1.038646e-09 0.4829624 -0.2588193 -0.8365166 255 255 255 255 0.5 0.5
-5.477803 3.124828 7.824901 -0.8065829 0.5762832 0.131612 255 255 255 255 0.9157345 0.777785
-5.580206 2.957834 7.817447 -0.8845075 0.4492057 0.1259399 255 255 255 255 0.9619396 0.691342
-5.653764 2.77663 7.831043 -0.9404821 0.3113193 0.1362854 255 255 255 255 0.9903925 0.5975453
-5.695652 2.588191 7.865164 -0.9723566 0.1679214 0.1622505 255 255 255 255 1 0.5
-5.704258 2.399745 7.918498 -0.9789056 0.02452335 0.2028364 255 255 255 255 0.9903925 0.4024546
-5.679253 2.218544 7.989 -0.9598774 -0.1133634 0.2564844 255 255 255 255 0.9619396 0.308658
-5.621596 2.051549 8.073956 -0.9160031 -0.2404406 0.3211335 255 255 255 255 0.9157345 0.222215
-5.533505 1.905178 8.170105 -0.8489695 -0.3518248 0.3942971 255 255 255 255 0.8535532 0.1464467
-5.418364 1.785053 8.273748 -0.7613518 -0.4432351 0.473166 255 255 255 255 0.777785 0.08426556
-5.280596 1.695791 8.380902 -0.6565176 -0.5111595 0.5547077 255 255 255 255 0.691342 0.03806038
-5.125504 1.640824 8.487457 -0.5384953 -0.5529875 0.635789 255 255 255 255 0.5975453 0.00960749
-4.959034 1.622263 8.589306 -0.4118208 -0.5671102 0.713295 255 255 255 255 0.5 0
-4.787597 1.640824 8.682548 -0.2813612 -0.5529871 0.7842456 255 255 255 255 0.4024546 0.00960749
-4.617769 1.695791 8.763588 -0.1521317 -0.5111593 0.845915 255 255 255 255 0.308658 0.03806038
-4.456089 1.785053 8.829318 -0.02909741 -0.4432352 0.895933 255 255 255 255 0.222215 0.08426556
-4.308761 1.905178 8.877212 0.08301368 -0.351825 0.9323776 255 255 255 255 0.1464467 0.1464467
-4.181449 2.051549 8.905425 0.1798926 -0.2404407 0.9538485 255 255 255 255 0.08426556 0.222215
-4.079045 2.218544 8.91288 0.2578176 -0.1133633 0.9595201 255 255 255 255 0.03806038 0.308658
-4.005487 2.399745 8.899283 0.3137918 0.02452326 0.9491751 255 255 255 255 0.00960749 0.4024546
-3.963601 2.588191 8.865164 0.3456656 0.1679216 0.9232105 255 255 255 255 0 0.5
-3.954993 2.77663 8.811827 0.3522151 0.3113193 0.8826239 255 255 255 255 0.00960749 0.5975453
-3.979997 2.957834 8.741324 0.3331871 0.4492056 0.8289757 255 255 255 255 0.03806038 0.691342
-4.037656 3.124828 8.65637 0.2893129 0.5762827 0.7643273 255 255 255 255 0.08426556 0.777785
-4.125749 3.271203 8.560225 0.222279 0.6876671 0.6911628 255 255 255 255 0.1464467 0.8535532
-4.240889 3.391328 8.45658 0.1346618 0.7790778 0.6122941 255 255 255 255 0.222215 0.9157345
-4.378654 3.480589 8.349424 0.02982716 0.8470019 0.5307525 255 255 255 255 0.308658 0.9619396
-4.533751 3.535557 8.242873 -0.08819455 0.8888294 0.4496711 255 255 255 255 0.4024546 0.9903925
-4.700216 3.554114 8.141018 -0.2148698 0.9029527 0.3721659 255 255 255 255 0.5 1
-4.871657 3.535557 8.047783 -0.3453289 0.8888294 0.3012147 255 255 255 255 0.5975453 0.9903925
-5.041481 3.480589 7.96674 -0.4745583 0.847002 0.2395455 255 255 255 255 0.691342 0.9619396
-4.456089 1.785053 8.829318 -0.02909741 -0.4432352 0.895933 255 255 255 255 0.222215 0.08426556
-4.037656 3.124828 8.65637 0.2893129 0.5762827 0.7643273 255 255 255 255 0.08426556 0.777785
-5.203164 3.391328 7.90101 -0.5975931 0.7790777 0.1895272 255 255 255 255 0.777785 0.9157345
-5.203164 3.391328 7.90101 -0.5975931 0.7790777 0.1895272 255 255 255 255 0.777785 0.9157345
-5.350492 3.271203 7.853118 -0.7097042 0.687667 0.1530823 255 255 255 255 0.8535532 0.8535532
-5.477803 3.124828 7.824901 -0.8065829 0.5762832 0.131612 255 255 255 255 0.9157345 0.777785
-5.580206 2.957834 7.817447 -0.8845075 0.4492058 0.1259399 255 255 255 255 0.9619396 0.691342
-5.653764 2.77663 7.831043 -0.9404821 0.3113193 0.1362854 255 255 255 255 0.9903925 0.5975453
-5.695652 2.588191 7.865164 -0.9723566 0.1679214 0.1622505 255 255 255 255 1 0.5
-5.704258 2.399745 7.918498 -0.9789056 0.02452335 0.2028364 255 255 255 255 0.9903925 0.4024546
-5.679253 2.218544 7.989 -0.9598774 -0.1133634 0.2564844 255 255 255 255 0.9619396 0.308658
-5.621596 2.051549 8.073956 -0.9160031 -0.2404406 0.3211335 255 255 255 255 0.9157345 0.222215
-5.533505 1.905178 8.170105 -0.8489695 -0.3518248 0.3942971 255 255 255 255 0.8535532 0.1464467
-5.418364 1.785053 8.273748 -0.7613518 -0.4432351 0.473166 255 255 255 255 0.777785 0.08426556
-5.280596 1.695791 8.380902 -0.6565176 -0.5111595 0.5547077 255 255 255 255 0.691342 0.03806038
-5.125504 1.640824 8.487457 -0.5384953 -0.5529875 0.635789 255 255 255 255 0.5975453 0.00960749
-4.959034 1.622263 8.589306 -0.4118208 -0.5671102 0.713295 255 255 255 255 0.5 0
-4.787597 1.640824 8.682548 -0.2813612 -0.5529871 0.7842456 255 255 255 255 0.4024546 0.00960749
-4.617769 1.695791 8.763588 -0.1521317 -0.5111593 0.845915 255 255 255 255 0.308658 0.03806038
-4.308761 1.905178 8.877212 0.08301368 -0.351825 0.9323775 255 255 255 255 0.1464467 0.1464467
-4.181449 2.051549 8.905425 0.1798926 -0.2404407 0.9538485 255 255 255 255 0.08426556 0.222215
-4.079045 2.218544 8.91288 0.2578176 -0.1133633 0.9595201 255 255 255 255 0.03806038 0.308658
-4.005487 2.399745 8.899283 0.3137918 0.02452326 0.9491751 255 255 255 255 0.00960749 0.4024546
-3.963601 2.588191 8.865164 0.3456656 0.1679216 0.9232105 255 255 255 255 0 0.5
-3.954993 2.77663 8.811827 0.3522151 0.3113193 0.8826239 255 255 255 255 0.00960749 0.5975453
-3.979997 2.957834 8.741324 0.3331871 0.4492056 0.8289757 255 255 255 255 0.03806038 0.691342
-4.125749 3.271203 8.560225 0.222279 0.6876671 0.6911628 255 255 255 255 0.1464467 0.8535532
-4.240889 3.391328 8.45658 0.1346618 0.7790778 0.6122941 255 255 255 255 0.222215 0.9157345
-4.378654 3.480589 8.349424 0.02982716 0.8470019 0.5307525 255 255 255 255 0.308658 0.9619396
-4.533751 3.535557 8.242873 -0.08819455 0.8888294 0.4496711 255 255 255 255 0.4024546 0.9903925
-4.700216 3.554114 8.141018 -0.2148698 0.9029527 0.3721659 255 255 255 255 0.5 1
-4.871657 3.535557 8.047783 -0.3453289 0.8888294 0.3012147 255 255 255 255 0.5975453 0.9903925
-5.041481 3.480589 7.96674 -0.4745583 0.847002 0.2395455 255 255 255 255 0.691342 0.9619396
3 0 1 2 
3 2 1 3 
3 3 1 4 
3 4 1 5 
3 5 1 6 
3 6 1 7 
3 7 1 8 
3 8 1 9 
3 9 1 10 
3 10 1 11 
3 11 1 12 
3 12 1 13 
3 13 1 14 
3 14 1 15 
3 15 1 16 
3 16 1 17 
3 17 1 18 
3 18 1 19 
3 19 1 20 
3 20 1 21 
3 21 1 22 
3 22 1 23 
3 23 1 24 
3 24 1 25 
3 25 1 26 
3 26 1 27 
3 27 1 28 
3 28 1 29 
3 29 1 30 
3 30 1 31 
3 32 33 34 
3 31 1 35 
3 35 1 0 
3 34 36 37 
3 37 38 39 
3 39 40 41 
3 41 42 43 
3 43 44 45 
3 45 46 47 
3 47 48 49 
3 49 50 32 
3 32 51 52 
3 52 53 54 
3 54 55 56 
3 56 57 33 
3 33 58 59 
3 59 60 61 
3 61 62 63 
3 63 64 34 
3 34 37 43 
3 37 39 43 
3 39 41 43 
3 43 45 32 
3 45 47 32 
3 47 49 32 
3 32 52 33 
3 52 54 33 
3 54 56 33 
3 33 59 34 
3 59 61 34 
3 61 63 34 
3 34 43 32 
