ply
format ascii 1.0
comment VCGLIB generated
element vertex 65
property float x
property float y
property float z
property float nx
property float ny
property float nz
property uchar red
property uchar green
property uchar blue
property uchar alpha
property float texture_u
property float texture_v
element face 62
property list uchar int vertex_indices
end_header
-0.7071033 3.271202 9.476244 -0.5380806 0.687667 0.4874253 255 255 255 255 0.8535532 0.8535532
6.341554e-09 9.188206e-09 -2.461973e-09 -5.364419e-07 -0.2588194 -0.9659258 255 255 255 255 0.5 0.5
-0.8314655 3.124828 9.515465 -0.6327152 0.5762832 0.5172709 255 255 255 255 0.9157345 0.777785
-0.9238749 2.957833 9.560207 -0.7030358 0.4492057 0.551321 255 255 255 255 0.9619396 0.691342
-0.9807816 2.776628 9.608762 -0.7463387 0.3113194 0.5882677 255 255 255 255 0.9903925 0.5975453
-0.9999976 2.58819 9.659257 -0.7609602 0.1679213 0.6266913 255 255 255 255 1 0.5
-0.9807835 2.399744 9.709747 -0.7463388 0.02452332 0.6651143 255 255 255 255 0.9903925 0.4024546
-0.9238772 2.218542 9.758303 -0.703036 -0.1133634 0.7020607 255 255 255 255 0.9619396 0.308658
-0.8314667 2.051549 9.803049 -0.6327153 -0.2404406 0.7361112 255 255 255 255 0.9157345 0.222215
-0.7071033 1.905178 9.84227 -0.5380806 -0.3518249 0.765956 255 255 255 255 0.8535532 0.1464467
-0.5555663 1.785052 9.874458 -0.422767 -0.443235 0.7904497 255 255 255 255 0.777785 0.08426556
-0.3826795 1.69579 9.898371 -0.2912072 -0.5111597 0.8086497 255 255 255 255 0.691342 0.03806038
-0.1950874 1.640824 9.913105 -0.1484561 -0.5529875 0.8198571 255 255 255 255 0.5975453 0.00960749
3.814697e-06 1.622262 9.918074 3.278255e-07 -0.5671102 0.823642 255 255 255 255 0.5 0
0.1950932 1.640824 9.913104 0.1484567 -0.5529871 0.8198572 255 255 255 255 0.4024546 0.00960749
0.3826885 1.695791 9.898375 0.2912076 -0.5111597 0.8086495 255 255 255 255 0.308658 0.03806038
0.5555727 1.785053 9.874458 0.4227674 -0.4432352 0.7904495 255 255 255 255 0.222215 0.08426556
0.7071092 1.905176 9.84227 0.5380807 -0.3518251 0.7659557 255 255 255 255 0.1464467 0.1464467
0.8314717 2.051549 9.803049 0.6327158 -0.2404407 0.7361107 255 255 255 255 0.08426556 0.222215
0.9238832 2.218544 9.758303 0.7030368 -0.1133633 0.7020599 255 255 255 255 0.03806038 0.308658
0.9807873 2.399743 9.709746 0.7463394 0.02452315 0.6651137 255 255 255 255 0.00960749 0.4024546
1.000003 2.588189 9.659258 0.7609606 0.1679216 0.6266908 255 255 255 255 0 0.5
0.9807889 2.776629 9.608762 0.7463392 0.3113193 0.588267 255 255 255 255 0.00960749 0.5975453
0.9238837 2.957833 9.560206 0.7030364 0.4492057 0.5513203 255 255 255 255 0.03806038 0.691342
0.8314726 3.124828 9.515465 0.6327161 0.5762827 0.5172704 255 255 255 255 0.08426556 0.777785
0.7071092 3.271201 9.476246 0.5380806 0.6876671 0.4874251 255 255 255 255 0.1464467 0.8535532
0.555573 3.391328 9.444057 0.4227676 0.7790778 0.4629314 255 255 255 255 0.222215 0.9157345
0.3826861 3.480588 9.420141 0.2912075 0.8470017 0.4447318 255 255 255 255 0.308658 0.9619396
0.1950932 3.535555 9.405409 0.1484568 0.8888294 0.4335239 255 255 255 255 0.4024546 0.9903925
2.384186e-06 3.554114 9.400436 2.682209e-07 0.9029527 0.4297401 255 255 255 255 0.5 1
-0.1950874 3.535557 9.405413 -0.1484563 0.8888294 0.4335241 255 255 255 255 0.5975453 0.9903925
-0.3826809 3.480589 9.420139 -0.2912068 0.847002 0.4447317 255 255 255 255 0.691342 0.9619396
0.5555727 1.785053 9.874458 0.4227674 -0.4432352 0.7904495 255 255 255 255 0.222215 0.08426556
0.8314726 3.124828 9.515465 0.6327161 0.5762827 0.5172704 255 255 255 255 0.08426556 0.777785
-0.555567 3.391328 9.444057 -0.4227672 0.7790776 0.4629319 255 255 255 255 0.777785 0.9157345
-0.555567 3.391328 9.444057 -0.4227672 0.7790776 0.4629319 255 255 255 255 0.777785 0.9157345
-0.7071033 3.271202 9.476244 -0.5380806 0.687667 0.4874253 255 255 255 255 0.8535532 0.8535532
-0.8314655 3.124828 9.515465 -0.6327152 0.5762832 0.5172709 255 255 255 255 0.9157345 0.777785
-0.9238749 2.957833 9.560207 -0.703036 0.4492058 0.5513209 255 255 255 255 0.9619396 0.691342
-0.9807816 2.776628 9.608762 -0.7463387 0.3113194 0.5882677 255 255 255 255 0.9903925 0.5975453
-0.9999976 2.58819 9.659257 -0.7609602 0.1679213 0.6266913 255 255 255 255 1 0.5
-0.9807835 2.399744 9.709747 -0.7463388 0.02452332 0.6651143 255 255 255 255 0.9903925 0.4024546
-0.9238772 2.218542 9.758303 -0.703036 -0.1133634 0.7020607 255 255 255 255 0.9619396 0.308658
-0.8314667 2.051549 9.803049 -0.6327153 -0.2404406 0.7361112 255 255 255 255 0.9157345 0.222215
-0.7071033 1.905178 9.84227 -0.5380806 -0.3518248 0.765956 255 255 255 255 0.8535532 0.1464467
-0.5555663 1.785052 9.874458 -0.422767 -0.443235 0.7904497 255 255 255 255 0.777785 0.08426556
-0.3826795 1.69579 9.898371 -0.2912072 -0.5111597 0.8086497 255 255 255 255 0.691342 0.03806038
-0.1950874 1.640824 9.913105 -0.1484561 -0.5529875 0.8198571 255 255 255 255 0.5975453 0.00960749
3.814697e-06 1.622262 9.918074 3.278255e-07 -0.5671102 0.823642 255 255 255 255 0.5 0
0.1950932 1.640824 9.913104 0.1484567 -0.5529871 0.8198572 255 255 255 255 0.4024546 0.00960749
0.3826885 1.695791 9.898375 0.2912075 -0.5111597 0.8086494 255 255 255 255 0.308658 0.03806038
0.7071092 1.905176 9.84227 0.5380807 -0.3518251 0.7659557 255 255 255 255 0.1464467 0.1464467
0.8314717 2.051549 9.803049 0.6327158 -0.2404407 0.7361107 255 255 255 255 0.08426556 0.222215
0.9238832 2.218544 9.758303 0.7030368 -0.1133633 0.7020599 255 255 255 255 0.03806038 0.308658
0.9807873 2.399743 9.709746 0.7463394 0.02452315 0.6651137 255 255 255 255 0.00960749 0.4024546
1.000003 2.588189 9.659258 0.7609606 0.1679216 0.6266908 255 255 255 255 0 0.5
0.9807889 2.776629 9.608762 0.7463392 0.3113193 0.588267 255 255 255 255 0.00960749 0.5975453
0.9238837 2.957833 9.560206 0.7030364 0.4492057 0.5513203 255 255 255 255 0.03806038 0.691342
0.7071092 3.271201 9.476246 0.5380806 0.6876671 0.4874251 255 255 255 255 0.1464467 0.8535532
0.555573 3.391328 9.444057 0.4227676 0.7790778 0.4629314 255 255 255 255 0.222215 0.9157345
0.3826861 3.480588 9.420141 0.2912075 0.8470017 0.4447318 255 255 255 255 0.308658 0.9619396
0.1950932 3.535555 9.405409 0.1484568 0.8888294 0.4335239 255 255 255 255 0.4024546 0.9903925
2.384186e-06 3.554114 9.400436 2.682209e-07 0.9029527 0.4297401 255 255 255 255 0.5 1
-0.1950874 3.535557 9.405413 -0.1484563 0.8888294 0.4335241 255 255 255 255 0.5975453 0.9903925
-0.3826809 3.480589 9.420139 -0.2912068 0.847002 0.4447317 255 255 255 255 0.691342 0.9619396
3 0 1 2 
3 2 1 3 
3 3 1 4 
3 4 1 5 
3 5 1 6 
3 6 1 7 
3 7 1 8 
3 8 1 9 
3 9 1 10 
3 10 1 11 
3 11 1 12 
3 12 1 13 
3 13 1 14 
3 14 1 15 
3 15 1 16 
3 16 1 17 
3 17 1 18 
3 18 1 19 
3 19 1 20 
3 20 1 21 
3 21 1 22 
3 22 1 23 
3 23 1 24 
3 24 1 25 
3 25 1 26 
3 26 1 27 
3 27 1 28 
3 28 1 29 
3 29 1 30 
3 30 1 31 
3 32 33 34 
3 31 1 35 
3 35 1 0 
3 34 36 37 
3 37 38 39 
3 39 40 41 
3 41 42 43 
3 43 44 45 
3 45 46 47 
3 47 48 49 
3 49 50 32 
3 32 51 52 
3 52 53 54 
3 54 55 56 
3 56 57 33 
3 33 58 59 
3 59 60 61 
3 61 62 63 
3 63 64 34 
3 34 37 43 
3 37 39 43 
3 39 41 43 
3 43 45 32 
3 45 47 32 
3 47 49 32 
3 32 52 33 
3 52 54 33 
3 54 56 33 
3 33 59 34 
3 59 61 34 
3 61 63 34 
3 34 43 32 
