ply
format ascii 1.0
comment VCGLIB generated
element vertex 65
property float x
property float y
property float z
property float nx
property float ny
property float nz
property uchar red
property uchar green
property uchar blue
property uchar alpha
property float texture_u
property float texture_v
element face 62
property list uchar int vertex_indices
end_header
4.125752 3.271202 8.56022 -0.2222788 0.687667 0.6911631 255 255 255 255 0.8535532 0.8535532
4.26096e-09 9.188206e-09 -5.302908e-09 -0.4829633 -0.2588193 -0.836516 255 255 255 255 0.5 0.5
4.037662 3.124828 8.656366 -0.289312 0.5762832 0.7643274 255 255 255 255 0.9157345 0.777785
3.980003 2.957833 8.741323 -0.3331865 0.4492056 0.828976 255 255 255 255 0.9619396 0.691342
3.955 2.776628 8.811824 -0.3522145 0.3113193 0.8826241 255 255 255 255 0.9903925 0.5975453
3.963605 2.58819 8.865161 -0.3456652 0.1679213 0.9232107 255 255 255 255 1 0.5
4.00549 2.399744 8.89928 -0.3137913 0.02452332 0.9491752 255 255 255 255 0.9903925 0.4024546
4.07905 2.218542 8.912877 -0.2578166 -0.1133634 0.9595204 255 255 255 255 0.9619396 0.308658
4.181453 2.051549 8.905423 -0.1798919 -0.2404406 0.9538487 255 255 255 255 0.9157345 0.222215
4.308765 1.905178 8.877208 -0.0830135 -0.3518249 0.9323777 255 255 255 255 0.8535532 0.1464467
4.456095 1.785052 8.829315 0.02909788 -0.443235 0.8959331 255 255 255 255 0.777785 0.08426556
4.617775 1.69579 8.76358 0.152132 -0.5111595 0.8459148 255 255 255 255 0.691342 0.03806038
4.787602 1.640824 8.682545 0.2813618 -0.5529875 0.7842451 255 255 255 255 0.5975453 0.00960749
4.95904 1.622262 8.589302 0.4118213 -0.5671102 0.7132947 255 255 255 255 0.5 0
5.125508 1.640824 8.487453 0.5384959 -0.552987 0.6357889 255 255 255 255 0.4024546 0.00960749
5.280605 1.695791 8.380899 0.6565179 -0.5111595 0.5547073 255 255 255 255 0.308658 0.03806038
5.418369 1.785053 8.273746 0.7613521 -0.4432352 0.4731656 255 255 255 255 0.222215 0.08426556
5.533509 1.905176 8.170101 0.8489695 -0.3518251 0.3942968 255 255 255 255 0.1464467 0.1464467
5.6216 2.051549 8.073954 0.9160033 -0.2404407 0.3211327 255 255 255 255 0.08426556 0.222215
5.679257 2.218544 7.988997 0.9598777 -0.1133633 0.2564833 255 255 255 255 0.03806038 0.308658
5.70426 2.399743 7.918494 0.9789057 0.02452314 0.2028358 255 255 255 255 0.00960749 0.4024546
5.695657 2.588189 7.865161 0.9723566 0.1679215 0.1622499 255 255 255 255 0 0.5
5.653769 2.776629 7.831038 0.9404823 0.3113192 0.1362846 255 255 255 255 0.00960749 0.5975453
5.580209 2.957833 7.81744 0.8845076 0.4492056 0.1259392 255 255 255 255 0.03806038 0.691342
5.477809 3.124828 7.824898 0.8065833 0.5762826 0.1316113 255 255 255 255 0.08426556 0.777785
5.350497 3.271201 7.853116 0.709704 0.6876671 0.1530822 255 255 255 255 0.1464467 0.8535532
5.203169 3.391328 7.901008 0.5975932 0.7790778 0.1895266 255 255 255 255 0.222215 0.9157345
5.041487 3.480588 7.966738 0.4745589 0.8470017 0.2395453 255 255 255 255 0.308658 0.9619396
4.871661 3.535555 8.047778 0.3453293 0.8888294 0.3012143 255 255 255 255 0.4024546 0.9903925
4.70022 3.554114 8.141016 0.2148703 0.9029527 0.3721657 255 255 255 255 0.5 1
4.533756 3.535557 8.24287 0.08819517 0.8888294 0.4496711 255 255 255 255 0.5975453 0.9903925
4.378658 3.480589 8.349421 -0.02982667 0.847002 0.5307524 255 255 255 255 0.691342 0.9619396
5.418369 1.785053 8.273746 0.7613521 -0.4432352 0.4731656 255 255 255 255 0.222215 0.08426556
5.477809 3.124828 7.824898 0.8065834 0.5762827 0.1316114 255 255 255 255 0.08426556 0.777785
4.240893 3.391328 8.456577 -0.1346612 0.7790776 0.6122944 255 255 255 255 0.777785 0.9157345
4.240893 3.391328 8.456577 -0.1346612 0.7790776 0.6122944 255 255 255 255 0.777785 0.9157345
4.125752 3.271202 8.56022 -0.2222788 0.687667 0.6911631 255 255 255 255 0.8535532 0.8535532
4.037662 3.124828 8.656366 -0.289312 0.5762832 0.7643274 255 255 255 255 0.9157345 0.777785
3.980003 2.957833 8.741323 -0.3331866 0.4492058 0.8289759 255 255 255 255 0.9619396 0.691342
3.955 2.776628 8.811824 -0.3522145 0.3113193 0.8826241 255 255 255 255 0.9903925 0.5975453
3.963605 2.58819 8.865161 -0.3456652 0.1679213 0.9232107 255 255 255 255 1 0.5
4.00549 2.399744 8.89928 -0.3137913 0.02452332 0.9491752 255 255 255 255 0.9903925 0.4024546
4.07905 2.218542 8.912877 -0.2578166 -0.1133634 0.9595204 255 255 255 255 0.9619396 0.308658
4.181453 2.051549 8.905423 -0.1798919 -0.2404406 0.9538487 255 255 255 255 0.9157345 0.222215
4.308765 1.905178 8.877208 -0.08301342 -0.3518248 0.9323777 255 255 255 255 0.8535532 0.1464467
4.456095 1.785052 8.829315 0.02909788 -0.443235 0.8959331 255 255 255 255 0.777785 0.08426556
4.617775 1.69579 8.76358 0.152132 -0.5111595 0.8459148 255 255 255 255 0.691342 0.03806038
4.787602 1.640824 8.682545 0.2813618 -0.5529875 0.7842451 255 255 255 255 0.5975453 0.00960749
4.95904 1.622262 8.589302 0.4118213 -0.5671102 0.7132947 255 255 255 255 0.5 0
5.125508 1.640824 8.487453 0.5384959 -0.552987 0.6357889 255 255 255 255 0.4024546 0.00960749
5.280605 1.695791 8.380899 0.6565179 -0.5111595 0.5547073 255 255 255 255 0.308658 0.03806038
5.533509 1.905176 8.170101 0.8489695 -0.3518251 0.3942968 255 255 255 255 0.1464467 0.1464467
5.6216 2.051549 8.073954 0.9160033 -0.2404407 0.3211327 255 255 255 255 0.08426556 0.222215
5.679257 2.218544 7.988997 0.9598777 -0.1133633 0.2564833 255 255 255 255 0.03806038 0.308658
5.70426 2.399743 7.918494 0.9789057 0.02452314 0.2028358 255 255 255 255 0.00960749 0.4024546
5.695657 2.588189 7.865161 0.9723566 0.1679215 0.1622499 255 255 255 255 0 0.5
5.653769 2.776629 7.831038 0.9404823 0.3113192 0.1362846 255 255 255 255 0.00960749 0.5975453
5.580209 2.957833 7.81744 0.8845076 0.4492056 0.1259392 255 255 255 255 0.03806038 0.691342
5.350497 3.271201 7.853116 0.709704 0.6876671 0.1530822 255 255 255 255 0.1464467 0.8535532
5.203169 3.391328 7.901008 0.5975932 0.7790778 0.1895266 255 255 255 255 0.222215 0.9157345
5.041487 3.480588 7.966738 0.4745589 0.8470017 0.2395453 255 255 255 255 0.308658 0.9619396
4.871661 3.535555 8.047778 0.3453293 0.8888294 0.3012143 255 255 255 255 0.4024546 0.9903925
4.70022 3.554114 8.141016 0.2148703 0.9029527 0.3721657 255 255 255 255 0.5 1
4.533756 3.535557 8.24287 0.08819517 0.8888294 0.4496711 255 255 255 255 0.5975453 0.9903925
4.378658 3.480589 8.349421 -0.02982667 0.847002 0.5307524 255 255 255 255 0.691342 0.9619396
3 0 1 2 
3 2 1 3 
3 3 1 4 
3 4 1 5 
3 5 1 6 
3 6 1 7 
3 7 1 8 
3 8 1 9 
3 9 1 10 
3 10 1 11 
3 11 1 12 
3 12 1 13 
3 13 1 14 
3 14 1 15 
3 15 1 16 
3 16 1 17 
3 17 1 18 
3 18 1 19 
3 19 1 20 
3 20 1 21 
3 21 1 22 
3 22 1 23 
3 23 1 24 
3 24 1 25 
3 25 1 26 
3 26 1 27 
3 27 1 28 
3 28 1 29 
3 29 1 30 
3 30 1 31 
3 32 33 34 
3 31 1 35 
3 35 1 0 
3 34 36 37 
3 37 38 39 
3 39 40 41 
3 41 42 43 
3 43 44 45 
3 45 46 47 
3 47 48 49 
3 49 50 32 
3 32 51 52 
3 52 53 54 
3 54 55 56 
3 56 57 33 
3 33 58 59 
3 59 60 61 
3 61 62 63 
3 63 64 34 
3 34 37 43 
3 37 39 43 
3 39 41 43 
3 43 45 32 
3 45 47 32 
3 47 49 32 
3 32 52 33 
3 52 54 33 
3 54 56 33 
3 33 59 34 
3 59 61 34 
3 61 63 34 
3 34 43 32 
