ply
format ascii 1.0
comment VCGLIB generated
element vertex 129
property float x
property float y
property float z
property float nx
property float ny
property float nz
property uchar red
property uchar green
property uchar blue
property uchar alpha
property float texture_u
property float texture_v
element face 206
property list uchar int vertex_indices
end_header
16.65118 74.24056 -79.60818 0.4358436 0.9000223 -0.0004888686 192 192 192 255 79.60821 74.24057
42.16046 57.91996 -47.175 0.9038475 0.07443124 -0.421331 192 192 192 255 47.17501 57.91996
42.16045 -6.637156e-05 -51.03568 0.9522919 -0.0003411483 -0.3051885 192 192 192 255 51.03569 -5.9e-05
16.65117 -6.191138e-05 -79.60818 0.7459279 -0.001535316 -0.666025 192 192 192 255 79.60821 -5.9e-05
16.65117 -6.191138e-05 -0.01057372 -3.909668e-08 -0.4472137 0.8944272 192 192 192 255 0.010573 -5.9e-05
42.16045 -6.637156e-05 -0.01057484 0.9999992 -0.00111669 0.0005582136 192 192 192 255 0.010573 -5.9e-05
42.16047 57.91996 -0.01057484 0.7619845 0.2433656 0.6001273 192 192 192 255 0.010573 57.91996
16.65119 74.24056 -0.01057372 0.4356185 0.9001311 0.0007416938 192 192 192 255 0.010573 74.24057
16.65118 74.24056 -170.4128 0.6407534 0.001605264 0.7677451 192 192 192 255 170.4129 74.24057
42.16046 52.57634 -197.6531 0.9041389 0.3287216 0.2729011 192 192 192 255 197.6532 52.57634
16.65117 74.24056 -329.6081 0.6991878 0.0004158423 -0.714938 192 192 192 255 329.6082 74.24057
42.16045 45.06774 -302.3679 0.957051 0.2647724 -0.1181061 192 192 192 255 302.368 45.06774
42.16044 -6.637156e-05 -197.6531 0.6361129 -0.7346104 0.2360253 192 192 192 255 197.6532 -5.9e-05
16.65116 -6.191138e-05 -170.4128 0.6403228 -0.0006661809 0.7681057 192 192 192 255 170.4129 -5.9e-05
42.16044 -6.637156e-05 -302.3679 0.9686396 -0.2075293 -0.1366347 192 192 192 255 302.368 -5.9e-05
16.65116 -6.191138e-05 -329.6081 0.6990976 -0.000997154 -0.7150257 192 192 192 255 329.6082 -5.9e-05
16.65117 74.24056 -420.4129 0.7900248 0.3276842 0.5181543 192 192 192 255 420.413 74.24057
42.16045 57.91996 -448.9853 0.9037122 0.3981585 0.1573981 192 192 192 255 448.9854 57.91996
42.16043 -6.637156e-05 -448.9853 0.7198409 -0.5777394 0.3847677 192 192 192 255 448.9854 -5.9e-05
16.65115 -6.191138e-05 -420.4129 0.5274745 -0.7071069 0.4709252 192 192 192 255 420.413 -5.9e-05
16.65115 -6.191138e-05 -500.0105 -1.75935e-07 -0.8944272 -0.4472135 192 192 192 255 500.0106 -5.9e-05
42.16043 -6.637156e-05 -500.0105 0.6666668 -0.3333335 -0.6666666 192 192 192 255 500.0106 -5.9e-05
42.16044 57.91996 -500.0105 0.7620835 0.4171355 -0.4952038 192 192 192 255 500.0106 57.91996
16.65117 74.24056 -500.0105 0.3810804 0.5956324 -0.7071067 192 192 192 255 500.0106 74.24057
16.65124 421.015 -179.1424 0.6462492 -0.2962466 0.7032781 192 192 192 255 179.1425 421.015
16.65122 356.6969 -249.9999 0.7628057 -0.6228936 -0.173583 192 192 192 255 250 356.6969
31.19538 428.5412 -189.0545 1 -8.697317e-05 0.0002060122 192 192 192 255 189.0546 428.5412
31.19537 375.6408 -248.6934 1 -0.0002586744 8.1181e-05 192 192 192 255 248.6935 375.6408
16.65123 421.015 -320.8574 0.6603628 -0.2898392 -0.6927585 192 192 192 255 320.8575 421.015
31.19537 428.5412 -310.9455 0.9999999 -0.0001698757 -0.0004056539 192 192 192 255 310.9456 428.5412
31.19539 500 -189.0545 0.6338751 0.5962142 0.4926775 192 192 192 255 189.0546 500
16.65125 500 -179.1424 0.3982192 0.7071068 0.5843128 192 192 192 255 179.1425 500
31.19538 500 -310.9455 0.8922353 0.3480994 -0.2876507 192 192 192 255 310.9456 500
16.65124 500 -320.8574 0.3982159 0.7071069 -0.5843151 192 192 192 255 320.8575 500
31.19538 435.566 -204.2847 0.6188229 -0.5948724 0.5130157 192 192 192 255 204.2848 435.566
31.19537 397.0761 -249.9999 0.6998103 -0.7139297 0.02387567 192 192 192 255 250 397.0761
42.16052 439.3753 -213.1005 0.6242521 -0.5925055 0.5091626 192 192 192 255 213.1006 439.3753
42.16051 416.1346 -259.7603 0.8520455 -0.4489722 -0.2691512 192 192 192 255 259.7604 416.1346
31.19537 433.0157 -296.6848 0.7142168 -0.5309973 -0.4560004 192 192 192 255 296.6849 433.0157
42.16051 439.3753 -286.8993 0.7164 -0.5285802 -0.4553834 192 192 192 255 286.8994 439.3753
42.16053 500 -213.1005 0.6642413 0.5896052 0.4595099 192 192 192 255 213.1006 500
31.19538 500 -204.2847 0.4430637 0.7071068 0.5510849 192 192 192 255 204.2848 500
42.16053 500 -286.8993 0.9024913 0.3430741 -0.2604031 192 192 192 255 286.8994 500
31.19538 500 -295.7151 0.4553743 0.709155 -0.538269 192 192 192 255 295.7152 500
16.65121 356.6969 -500 0.6945418 -0.5332323 0.4829857 192 192 192 255 500.0001 356.6969
31.19536 375.6408 -500 0.6945575 -0.5330161 0.4832016 192 192 192 255 500.0001 375.6408
16.65123 421.015 -429.1424 0.5988249 -0.3922893 0.698225 192 192 192 255 429.1425 421.015
31.19537 422.5651 -445.9394 0.9719772 -0.07089031 0.2241315 192 192 192 255 445.9395 422.5651
31.19538 500 -439.0544 0.9999998 0.000606496 0.0002220427 192 192 192 255 439.0545 500
16.65124 500 -429.1424 0.2498719 0.001162141 0.9682782 192 192 192 255 429.1425 500
31.19536 397.0761 -500 0.6814984 -0.5297894 -0.5048596 192 192 192 255 500.0001 397.0761
42.1605 407.7762 -500 0.916082 -0.2902913 -0.2766312 192 192 192 255 500.0001 407.7762
31.19537 435.566 -454.2848 0.6903791 -0.2809063 0.6666845 192 192 192 255 454.2849 435.566
42.16051 444.9971 -463.1005 0.8593125 -0.1985905 0.4713214 192 192 192 255 463.1006 444.9971
42.16052 500 -463.1005 0.603967 0.7426189 0.2893806 192 192 192 255 463.1006 500
31.19538 500 -454.2848 0.560436 0.4472136 0.6970735 192 192 192 255 454.2849 500
42.16052 500 -500 0.6666663 0.3333335 -0.666667 192 192 192 255 500.0001 500
31.19537 500 -499.9999 0.9999992 0.0008913289 -0.0008915472 192 192 192 255 500 500
16.65123 500 -500 1 0.000211028 -0.0001056452 192 192 192 255 500.0001 500
16.65123 356.6969 -1.572784e-05 0.6733997 -0.5394632 0.5054821 192 192 192 255 1.5e-05 356.6969
31.19538 375.6408 -1.636359e-05 0.9137369 -0.2964884 0.2778122 192 192 192 255 1.5e-05 375.6408
16.65124 421.015 -70.8575 0.6865851 -0.2955202 -0.6642807 192 192 192 255 70.85753 421.015
31.19538 426.3049 -57.38803 0.8573568 -0.2092169 -0.4702847 192 192 192 255 57.38805 426.3049
31.19539 500 -60.94556 0.6075311 0.7394084 -0.2901398 192 192 192 255 60.94557 500
16.65125 500 -70.8575 0.5661774 0.4341647 -0.7006742 192 192 192 255 70.85753 500
31.19538 397.0761 -1.636359e-05 0.5918162 -0.6402224 0.4897642 192 192 192 255 1.5e-05 397.0761
42.16053 407.7762 -1.684289e-05 0.8944906 -0.3550982 0.2716467 192 192 192 255 1.5e-05 407.7762
31.19538 435.566 -45.71521 0.6205587 -0.3284462 -0.7120605 192 192 192 255 45.71523 435.566
42.16053 439.3753 -38.76878 0.8272601 -0.2353185 -0.5101628 192 192 192 255 38.7688 439.3753
42.16054 500 -36.89941 0.5891183 0.7492086 -0.3026981 192 192 192 255 36.89943 500
31.19539 500 -45.71521 0.5182194 0.4558721 -0.7236224 192 192 192 255 45.71523 500
42.16054 500 -1.684289e-05 0.6666662 0.3333335 0.6666671 192 192 192 255 1.5e-05 500
31.19539 500 -4.736358e-05 0.4264016 0.6396022 0.639602 192 192 192 255 4.6e-05 500
16.65125 500 -1.672784e-05 1 8.102473e-05 8.115585e-05 192 192 192 255 1.6e-05 500
31.19531 -5.454361e-06 -1.836358e-05 0.00204672 -0.9999978 0.0005117234 192 192 192 255 1.7e-05 0
31.19529 -5.454361e-06 -499.9999 0.0005115498 -0.9999998 -0.0005117244 192 192 192 255 500 0
-14.23921 2.489662e-06 -1.537758e-05 -0.0002720052 -0.9999998 0.0005436606 192 192 192 255 1.6e-05 0
-14.23923 2.489662e-06 -499.9999 -0.0001360718 -0.9999999 -0.0004076902 192 192 192 255 500 0
-14.23914 500 -499.9999 -0.6666671 0.3333333 -0.6666663 192 192 192 255 500 500
-14.23912 500 -1.537758e-05 -0.4082482 0.8164967 0.4082483 192 192 192 255 1.6e-05 500
31.19531 -5.454361e-06 -43.0108 0.0005165089 -0.9999999 -0.0001630509 192 192 192 255 43.01081 0
31.1953 -5.454361e-06 -208.6021 0.9272971 -0.2503485 0.2782908 192 192 192 255 208.6022 0
31.1953 -5.454361e-06 -291.3978 0.7615039 -0.5669535 -0.3141266 192 192 192 255 291.3979 0
31.19529 -5.454361e-06 -456.9891 0.001032835 -0.9999994 0.0003266106 192 192 192 255 456.9892 0
31.19536 315.3606 -1.736359e-05 0.9925671 0.1216984 0.0001329788 192 192 192 255 1.6e-05 315.3606
31.19536 315.3606 -125.8065 0.9925737 0.1216444 -3.328549e-05 192 192 192 255 125.8065 315.3606
31.19535 315.3606 -374.1934 0.9982541 0.05906571 -1.775489e-05 192 192 192 255 374.1935 315.3606
31.19534 315.3606 -500 1 3.781751e-05 -0.0001770752 192 192 192 255 500.0001 315.3606
16.65123 343.8985 -1.672784e-05 0.9958798 0.09068384 4.425262e-05 192 192 192 255 1.6e-05 343.8985
16.65121 343.8985 -500 1 4.529973e-05 -0.0001591412 192 192 192 255 500.0001 343.8985
31.19535 225.2851 -43.0108 1 -3.498928e-05 -0.0001355694 192 192 192 255 43.01081 225.2851
31.19534 225.2851 -208.6021 0.975629 -0.08410904 0.2026667 192 192 192 255 208.6022 225.2851
31.19534 232.2417 -291.3978 1 -5.467363e-05 -0.0002072039 192 192 192 255 291.3979 232.2417
31.19533 225.2851 -456.9891 0.99897 -0.004125868 0.04518789 192 192 192 255 456.9892 225.2851
16.65115 -2.911383e-06 -436.2881 0.0003363894 -0.9999999 0.0001064128 192 192 192 255 436.2882 0
16.65116 -2.911383e-06 -312.0988 0.0007383776 -0.9999998 -0.0001434495 192 192 192 255 312.0989 0
16.6512 218.9757 -312.0988 1 -9.44857e-05 -0.0001648438 192 192 192 255 312.0989 218.9757
16.65121 286.53 -374.1934 1 -0.0001410063 5.613482e-05 192 192 192 255 374.1935 286.53
16.65119 218.9757 -432.8549 0.9981353 -0.005518455 0.06079167 192 192 192 255 432.855 218.9757
16.65117 -2.911383e-06 -63.7118 0.4915041 -0.7988651 -0.3467538 192 192 192 255 63.71181 0
16.65116 -2.911383e-06 -187.9011 0.0004775908 -0.9999999 0.0001433821 192 192 192 255 187.9012 0
16.65121 218.9757 -63.7118 0.9925039 -4.323663e-05 -0.1222128 192 192 192 255 63.71181 218.9757
16.65122 285.7539 -122.714 1 -0.0001442828 4.474536e-05 192 192 192 255 122.714 285.7539
16.6512 218.9757 -187.9011 1 -2.569734e-05 6.145464e-05 192 192 192 255 187.9012 218.9757
42.16045 57.91996 -273.0411 0.9563995 0.2681025 -0.1158496 192 192 192 255 273.0412 57.91996
36.26561 62.75208 -310.433 0.7987297 0.06808843 -0.5978252 192 192 192 255 310.4331 62.75208
32.6227 66.5155 -66.08389 0.631857 0.7644448 -0.1279875 192 192 192 255 66.08392 66.5155
42.16045 35.08632 -51.03568 0.9462806 0.01067713 -0.3231705 192 192 192 255 51.03569 35.08632
16.65119 159.1515 -187.9011 1 -1.695589e-06 0.0002967196 192 192 192 255 187.9012 159.1515
31.19532 146.4744 -211.1903 0.9576271 -0.001476043 0.2880075 192 192 192 255 211.1904 146.4744
31.19531 109.0636 -288.8095 0.9816329 -2.274991e-05 -0.1907797 192 192 192 255 288.8096 109.0636
16.65118 118.7501 -312.0988 0.944544 -3.902865e-05 -0.3283849 192 192 192 255 312.0989 118.7501
31.19536 315.3606 -160.4984 0.9791319 0.1917392 -0.06735572 192 192 192 255 160.4985 315.3606
31.19535 315.3606 -287.177 0.9891986 0.1465216 0.004189211 192 192 192 255 287.1771 315.3606
31.19536 305.2821 -189.0972 0.9701405 0.2425438 -4.240619e-08 192 192 192 255 189.0973 305.2821
26.21973 325.1681 -204.7106 0.9231511 0.3844374 1.069043e-06 192 192 192 255 204.7107 325.1681
16.65118 180.8929 -436.2881 0.8614727 -0.04550048 0.5057614 192 192 192 255 436.2882 180.8929
31.19534 171.1331 -43.0108 0.9933858 -0.04625399 -0.1050963 192 192 192 255 43.01082 171.1331
31.19533 126.3552 -43.0108 0.9720715 0.0863525 -0.2182207 192 192 192 255 43.01081 126.3552
31.19533 149.8706 -33.58707 0.9895853 -1.857962e-07 -0.1439476 192 192 192 255 33.58709 149.8706
27.3546 155.383 -48.54948 0.8458871 1.48806e-08 -0.5333621 192 192 192 255 48.5495 155.383
33.08868 66.0341 -184.11 0.6804377 0.03558015 0.7319417 192 192 192 255 184.1101 66.03411
42.16046 57.91996 -204.2695 0.9034026 0.3355106 0.267014 192 192 192 255 204.2696 57.91996
28.03913 423.2374 -432.0693 0.4837609 -0.02067757 0.874956 192 192 192 255 432.0694 423.2374
31.19537 444.818 -439.0544 0.9997916 -0.005898794 0.01954364 192 192 192 255 439.0545 444.818
37.50909 401.3425 -249.9999 0.9584087 -0.2833385 0.03423787 192 192 192 255 250 401.3425
42.16051 418.9344 -236.9699 0.8238351 -0.4762744 0.3073409 192 192 192 255 236.97 418.9344
16.65122 343.8985 -236.6664 0.9985047 0.0546655 3.45161e-07 192 192 192 255 236.6665 343.8985
16.65121 347.7137 -378.6806 0.9983102 0.05810996 2.096417e-08 192 192 192 255 378.6807 347.7137
3 3 0 106 
3 3 106 107 
3 107 2 3 
3 5 4 3 
3 5 3 2 
3 107 5 2 
3 0 7 106 
3 1 106 7 
3 1 7 6 
3 4 5 6 
3 4 6 7 
3 10 105 15 
3 15 105 11 
3 15 11 14 
3 12 13 15 
3 12 15 14 
3 9 122 121 
3 18 17 16 
3 18 16 19 
3 17 18 21 
3 17 21 22 
3 18 19 20 
3 18 20 21 
3 17 22 23 
3 17 23 16 
3 21 20 23 
3 21 23 22 
3 29 28 33 
3 29 33 32 
3 30 31 24 
3 30 24 26 
3 26 29 32 
3 26 32 30 
3 24 25 27 
3 24 27 26 
3 25 28 29 
3 25 29 27 
3 30 32 33 
3 30 33 31 
3 26 27 29 
3 39 38 43 
3 39 43 42 
3 40 41 34 
3 40 34 36 
3 36 39 42 
3 36 42 40 
3 126 125 37 
3 40 42 43 
3 40 43 41 
3 46 123 49 
3 49 123 124 
3 49 124 48 
3 44 45 46 
3 123 46 45 
3 123 45 47 
3 53 54 55 
3 53 55 52 
3 50 51 53 
3 50 53 52 
3 53 51 56 
3 53 56 54 
3 57 55 54 
3 57 54 56 
3 47 45 57 
3 47 57 124 
3 124 57 48 
3 58 49 48 
3 58 48 57 
3 50 57 56 
3 50 56 51 
3 44 58 57 
3 44 57 45 
3 62 61 64 
3 62 64 63 
3 59 61 62 
3 59 62 60 
3 68 67 70 
3 68 70 69 
3 65 67 68 
3 65 68 66 
3 68 69 71 
3 68 71 66 
3 72 71 69 
3 72 69 70 
3 62 63 72 
3 62 72 60 
3 73 72 63 
3 73 63 64 
3 65 66 71 
3 65 71 72 
3 59 60 72 
3 59 72 73 
3 77 89 87 
3 77 87 75 
3 84 88 76 
3 84 76 74 
3 79 73 58 
3 79 58 78 
3 74 76 80 
3 83 77 75 
3 86 87 89 
3 86 89 128 
3 85 112 115 
3 85 115 88 
3 88 84 85 
3 85 84 90 
3 91 114 112 
3 91 112 85 
3 87 86 93 
3 76 88 73 
3 76 73 79 
3 76 79 78 
3 76 78 77 
3 89 77 78 
3 89 78 58 
3 128 58 73 
3 128 73 127 
3 73 88 127 
3 90 84 74 
3 90 74 119 
3 74 80 118 
3 74 118 119 
3 119 117 90 
3 101 103 102 
3 91 109 110 
3 91 110 92 
3 96 98 97 
3 87 93 83 
3 87 83 75 
3 77 83 94 
3 86 92 96 
3 86 96 97 
3 92 110 111 
3 92 111 96 
3 93 86 97 
3 93 97 98 
3 116 93 98 
3 95 77 94 
3 80 76 99 
3 82 81 100 
3 82 100 95 
3 85 90 101 
3 85 101 102 
3 101 120 99 
3 91 85 102 
3 91 102 103 
3 108 109 91 
3 108 91 103 
3 101 108 103 
3 98 96 111 
3 98 111 116 
3 100 76 77 
3 100 77 95 
3 99 76 100 
3 105 104 11 
3 1 107 106 
3 6 5 107 
3 6 107 1 
3 99 100 108 
3 99 108 101 
3 81 109 108 
3 81 108 100 
3 110 109 81 
3 110 81 82 
3 111 110 82 
3 111 82 95 
3 114 115 112 
3 86 113 92 
3 113 114 91 
3 113 91 92 
3 113 115 114 
3 95 94 116 
3 95 116 111 
3 83 93 116 
3 83 116 94 
3 119 120 117 
3 118 120 119 
3 90 117 120 
3 90 120 101 
3 99 120 118 
3 99 118 80 
3 8 13 121 
3 9 121 13 
3 9 13 12 
3 9 12 14 
3 9 14 122 
3 14 11 104 
3 14 104 122 
3 105 10 8 
3 105 8 104 
3 104 8 121 
3 104 121 122 
3 47 124 123 
3 125 35 38 
3 125 38 37 
3 38 39 37 
3 36 126 37 
3 36 37 39 
3 34 35 125 
3 34 125 126 
3 34 126 36 
3 127 115 113 
3 127 113 128 
3 89 58 128 
3 128 113 86 
3 88 115 127 
