ply
format ascii 1.0
comment VCGLIB generated
element vertex 129
property float x
property float y
property float z
property float nx
property float ny
property float nz
property uchar red
property uchar green
property uchar blue
property uchar alpha
property float texture_u
property float texture_v
element face 206
property list uchar int vertex_indices
end_header
79.60821 74.24057 16.65117 0.0004888497 0.9000223 0.4358435 192 192 192 255 79.60821 74.24057
47.17501 57.91996 42.16045 0.4213311 0.0744314 0.9038475 192 192 192 255 47.17501 57.91996
51.03569 -5.9e-05 42.16045 0.3051886 -0.0003409819 0.9522919 192 192 192 255 51.03569 -5.9e-05
79.60821 -5.9e-05 16.65117 0.6660251 -0.001535186 0.7459278 192 192 192 255 79.60821 -5.9e-05
0.010573 -5.9e-05 16.65117 -0.8944272 -0.4472136 0 192 192 192 255 0.010573 -5.9e-05
0.010573 -5.9e-05 42.16045 -0.0005582575 -0.001116515 0.9999992 192 192 192 255 0.010573 -5.9e-05
0.010573 57.91996 42.16045 -0.6001275 0.2433657 0.7619844 192 192 192 255 0.010573 57.91996
0.010573 74.24057 16.65117 -0.000741713 0.9001311 0.4356184 192 192 192 255 0.010573 74.24057
170.4129 74.24057 16.65117 -0.7677453 0.001605376 0.6407532 192 192 192 255 170.4129 74.24057
197.6532 52.57634 42.16045 -0.2729012 0.3287217 0.9041388 192 192 192 255 197.6532 52.57634
329.6082 74.24057 16.65117 0.714938 0.0004159645 0.6991877 192 192 192 255 329.6082 74.24057
302.368 45.06774 42.16045 0.1181061 0.2647725 0.957051 192 192 192 255 302.368 45.06774
197.6532 -5.9e-05 42.16045 -0.2360253 -0.7346103 0.636113 192 192 192 255 197.6532 -5.9e-05
170.4129 -5.9e-05 16.65117 -0.7681059 -0.0006660688 0.6403226 192 192 192 255 170.4129 -5.9e-05
302.368 -5.9e-05 42.16045 0.1366347 -0.2075291 0.9686396 192 192 192 255 302.368 -5.9e-05
329.6082 -5.9e-05 16.65117 0.7150257 -0.0009970319 0.6990975 192 192 192 255 329.6082 -5.9e-05
420.413 74.24057 16.65117 -0.5181545 0.3276843 0.7900247 192 192 192 255 420.413 74.24057
448.9854 57.91996 42.16045 -0.1573982 0.3981586 0.9037121 192 192 192 255 448.9854 57.91996
448.9854 -5.9e-05 42.16045 -0.3847679 -0.5777393 0.719841 192 192 192 255 448.9854 -5.9e-05
420.413 -5.9e-05 16.65117 -0.4709252 -0.7071068 0.5274746 192 192 192 255 420.413 -5.9e-05
500.0106 -5.9e-05 16.65117 0.4472136 -0.8944272 0 192 192 192 255 500.0106 -5.9e-05
500.0106 -5.9e-05 42.16045 0.6666667 -0.3333333 0.6666667 192 192 192 255 500.0106 -5.9e-05
500.0106 57.91996 42.16045 0.4952038 0.4171356 0.7620834 192 192 192 255 500.0106 57.91996
500.0106 74.24057 16.65117 0.7071068 0.5956324 0.3810802 192 192 192 255 500.0106 74.24057
179.1425 421.015 16.65117 -0.7032782 -0.2962465 0.646249 192 192 192 255 179.1425 421.015
250 356.6969 16.65117 0.173583 -0.6228935 0.7628058 192 192 192 255 250 356.6969
189.0546 428.5412 31.19531 -0.000206056 -8.679832e-05 1 192 192 192 255 189.0546 428.5412
248.6935 375.6408 31.19531 -8.122474e-05 -0.0002584996 1 192 192 192 255 248.6935 375.6408
320.8575 421.015 16.65117 0.6927586 -0.2898391 0.6603627 192 192 192 255 320.8575 421.015
310.9456 428.5412 31.19531 0.0004056103 -0.0001697008 0.9999999 192 192 192 255 310.9456 428.5412
189.0546 500 31.19531 -0.4926776 0.5962142 0.6338751 192 192 192 255 189.0546 500
179.1425 500 16.65117 -0.584313 0.7071068 0.398219 192 192 192 255 179.1425 500
310.9456 500 31.19531 0.2876508 0.3480995 0.8922353 192 192 192 255 310.9456 500
320.8575 500 16.65117 0.5843152 0.7071068 0.3982157 192 192 192 255 320.8575 500
204.2848 435.566 31.19531 -0.5130159 -0.5948724 0.6188228 192 192 192 255 204.2848 435.566
250 397.0761 31.19531 -0.02387571 -0.7139294 0.6998105 192 192 192 255 250 397.0761
213.1006 439.3753 42.16045 -0.5091628 -0.5925055 0.6242521 192 192 192 255 213.1006 439.3753
259.7604 416.1346 42.16045 0.2691513 -0.4489721 0.8520455 192 192 192 255 259.7604 416.1346
296.6849 433.0157 31.19531 0.4560005 -0.5309972 0.7142168 192 192 192 255 296.6849 433.0157
286.8994 439.3753 42.16045 0.4553837 -0.52858 0.7164 192 192 192 255 286.8994 439.3753
213.1006 500 42.16045 -0.45951 0.5896052 0.6642412 192 192 192 255 213.1006 500
204.2848 500 31.19531 -0.5510851 0.7071068 0.4430635 192 192 192 255 204.2848 500
286.8994 500 42.16045 0.2604032 0.3430742 0.9024912 192 192 192 255 286.8994 500
295.7152 500 31.19531 0.5382692 0.709155 0.4553742 192 192 192 255 295.7152 500
500.0001 356.6969 16.65117 -0.4829859 -0.5332322 0.6945418 192 192 192 255 500.0001 356.6969
500.0001 375.6408 31.19531 -0.4832018 -0.5330159 0.6945575 192 192 192 255 500.0001 375.6408
429.1425 421.015 16.65117 -0.6982251 -0.3922891 0.5988247 192 192 192 255 429.1425 421.015
445.9395 422.5651 31.19531 -0.2241316 -0.07089014 0.9719772 192 192 192 255 445.9395 422.5651
439.0545 500 31.19531 -0.0002220865 0.0006066709 0.9999998 192 192 192 255 439.0545 500
429.1425 500 16.65117 -0.9682782 0.001162184 0.2498718 192 192 192 255 429.1425 500
500.0001 397.0761 31.19531 0.5048597 -0.5297894 0.6814983 192 192 192 255 500.0001 397.0761
500.0001 407.7762 42.16045 0.2766313 -0.2902912 0.916082 192 192 192 255 500.0001 407.7762
454.2849 435.566 31.19531 -0.6666847 -0.2809062 0.690379 192 192 192 255 454.2849 435.566
463.1006 444.9971 42.16045 -0.4713215 -0.1985903 0.8593125 192 192 192 255 463.1006 444.9971
463.1006 500 42.16045 -0.2893808 0.7426189 0.6039668 192 192 192 255 463.1006 500
454.2849 500 31.19531 -0.6970736 0.4472136 0.5604358 192 192 192 255 454.2849 500
500.0001 500 42.16045 0.6666671 0.3333336 0.6666662 192 192 192 255 500.0001 500
500 500 31.19531 0.0008915037 0.0008915038 0.9999992 192 192 192 255 500 500
500.0001 500 16.65117 0.0001056015 0.0002112029 1 192 192 192 255 500.0001 500
1.5e-05 356.6969 16.65117 -0.5054823 -0.5394632 0.6733997 192 192 192 255 1.5e-05 356.6969
1.5e-05 375.6408 31.19531 -0.2778124 -0.2964883 0.9137369 192 192 192 255 1.5e-05 375.6408
70.85753 421.015 16.65117 0.6642807 -0.2955201 0.686585 192 192 192 255 70.85753 421.015
57.38805 426.3049 31.19531 0.4702848 -0.2092167 0.8573567 192 192 192 255 57.38805 426.3049
60.94557 500 31.19531 0.2901399 0.7394086 0.607531 192 192 192 255 60.94557 500
70.85753 500 16.65117 0.7006742 0.4341647 0.5661772 192 192 192 255 70.85753 500
1.5e-05 397.0761 31.19531 -0.4897643 -0.6402224 0.5918161 192 192 192 255 1.5e-05 397.0761
1.5e-05 407.7762 42.16045 -0.2716469 -0.3550981 0.8944906 192 192 192 255 1.5e-05 407.7762
45.71523 435.566 31.19531 0.7120605 -0.328446 0.6205586 192 192 192 255 45.71523 435.566
38.7688 439.3753 42.16045 0.5101629 -0.2353184 0.82726 192 192 192 255 38.7688 439.3753
36.89943 500 42.16045 0.3026982 0.7492087 0.5891181 192 192 192 255 36.89943 500
45.71523 500 31.19531 0.7236224 0.4558721 0.5182192 192 192 192 255 45.71523 500
1.5e-05 500 42.16045 -0.6666672 0.3333336 0.6666661 192 192 192 255 1.5e-05 500
4.6e-05 500 31.19531 -0.6396021 0.6396022 0.4264014 192 192 192 255 4.6e-05 500
1.6e-05 500 16.65117 -8.119959e-05 8.119959e-05 1 192 192 192 255 1.6e-05 500
1.7e-05 0 31.19531 -0.0005117237 -0.9999978 0.002046895 192 192 192 255 1.7e-05 0
500 0 31.19531 0.0005117247 -0.9999998 0.0005117246 192 192 192 255 500 0
1.6e-05 0 -14.23921 -0.0005436608 -0.9999998 -0.0002718304 192 192 192 255 1.6e-05 0
500 0 -14.23921 0.0004076903 -0.9999999 -0.0001358969 192 192 192 255 500 0
500 500 -14.23921 0.6666664 0.3333332 -0.666667 192 192 192 255 500 500
1.6e-05 500 -14.23921 -0.4082483 0.8164966 -0.4082483 192 192 192 255 1.6e-05 500
43.01081 0 31.19531 0.0001630509 -0.9999999 0.0005166837 192 192 192 255 43.01081 0
208.6022 0 31.19531 -0.278291 -0.2503484 0.9272971 192 192 192 255 208.6022 0
291.3979 0 31.19531 0.3141267 -0.5669533 0.7615041 192 192 192 255 291.3979 0
456.9892 0 31.19531 -0.0003266108 -0.9999995 0.00103301 192 192 192 255 456.9892 0
1.6e-05 315.3606 31.19531 -0.0001330222 0.1216986 0.9925671 192 192 192 255 1.6e-05 315.3606
125.8065 315.3606 31.19531 3.324212e-05 0.1216446 0.9925737 192 192 192 255 125.8065 315.3606
374.1935 315.3606 31.19531 1.771126e-05 0.05906589 0.9982541 192 192 192 255 374.1935 315.3606
500.0001 315.3606 31.19531 0.0001770315 3.799235e-05 1 192 192 192 255 500.0001 315.3606
1.6e-05 343.8985 16.65117 -4.429616e-05 0.09068402 0.9958797 192 192 192 255 1.6e-05 343.8985
500.0001 343.8985 16.65117 0.0001590975 4.547458e-05 1 192 192 192 255 500.0001 343.8985
43.01081 225.2851 31.19531 0.0001355257 -3.481444e-05 1 192 192 192 255 43.01081 225.2851
208.6022 225.2851 31.19531 -0.2026668 -0.08410887 0.975629 192 192 192 255 208.6022 225.2851
291.3979 232.2417 31.19531 0.0002071603 -5.449879e-05 1 192 192 192 255 291.3979 232.2417
456.9892 225.2851 31.19531 -0.04518795 -0.004125694 0.99897 192 192 192 255 456.9892 225.2851
436.2882 0 16.65117 -0.0001064128 -0.9999999 0.0003365642 192 192 192 255 436.2882 0
312.0989 0 16.65117 0.0001434495 -0.9999998 0.0007385524 192 192 192 255 312.0989 0
312.0989 218.9757 16.65117 0.0001648001 -9.431085e-05 1 192 192 192 255 312.0989 218.9757
374.1935 286.53 16.65117 -5.617855e-05 -0.0001408315 1 192 192 192 255 374.1935 286.53
432.855 218.9757 16.65117 -0.06079173 -0.00551828 0.9981353 192 192 192 255 432.855 218.9757
63.71181 0 16.65117 0.3467538 -0.7988651 0.4915042 192 192 192 255 63.71181 0
187.9012 0 16.65117 -0.0001433822 -0.9999999 0.0004777656 192 192 192 255 187.9012 0
63.71181 218.9757 16.65117 0.1222128 -4.30631e-05 0.9925039 192 192 192 255 63.71181 218.9757
122.714 285.7539 16.65117 -4.478909e-05 -0.000144108 1 192 192 192 255 122.714 285.7539
187.9012 218.9757 16.65117 -6.149839e-05 -2.552249e-05 1 192 192 192 255 187.9012 218.9757
273.0412 57.91996 42.16045 0.1158496 0.2681026 0.9563994 192 192 192 255 273.0412 57.91996
310.4331 62.75208 36.26561 0.5978253 0.06808858 0.7987296 192 192 192 255 310.4331 62.75208
66.08392 66.5155 32.62269 0.1279875 0.764445 0.6318568 192 192 192 255 66.08392 66.5155
51.03569 35.08632 42.16045 0.3231705 0.01067729 0.9462805 192 192 192 255 51.03569 35.08632
187.9012 159.1515 16.65117 -0.0002967634 -1.520744e-06 1 192 192 192 255 187.9012 159.1515
211.1904 146.4744 31.19531 -0.2880076 -0.001475875 0.957627 192 192 192 255 211.1904 146.4744
288.8096 109.0636 31.19531 0.1907797 -2.257828e-05 0.9816329 192 192 192 255 288.8096 109.0636
312.0989 118.7501 16.65117 0.328385 -3.88635e-05 0.944544 192 192 192 255 312.0989 118.7501
160.4985 315.3606 31.19531 0.0673557 0.1917394 0.9791319 192 192 192 255 160.4985 315.3606
287.1771 315.3606 31.19531 -0.004189256 0.1465218 0.9891986 192 192 192 255 287.1771 315.3606
189.0973 305.2821 31.19531 0 0.242544 0.9701405 192 192 192 255 189.0973 305.2821
204.7107 325.1681 26.21969 -1.109396e-06 0.3844375 0.923151 192 192 192 255 204.7107 325.1681
436.2882 180.8929 16.65117 -0.5057616 -0.04550033 0.8614726 192 192 192 255 436.2882 180.8929
43.01082 171.1331 31.19531 0.1050963 -0.04625382 0.9933858 192 192 192 255 43.01082 171.1331
43.01081 126.3552 31.19531 0.2182207 0.08635269 0.9720715 192 192 192 255 43.01081 126.3552
33.58709 149.8706 31.19531 0.1439476 -1.277161e-08 0.9895853 192 192 192 255 33.58709 149.8706
48.5495 155.383 27.35457 0.5333622 1.627802e-07 0.8458871 192 192 192 255 48.5495 155.383
184.1101 66.03411 33.08867 -0.7319418 0.03558027 0.6804375 192 192 192 255 184.1101 66.03411
204.2696 57.91996 42.16045 -0.2670141 0.3355107 0.9034025 192 192 192 255 204.2696 57.91996
432.0694 423.2374 28.03907 -0.874956 -0.02067748 0.4837608 192 192 192 255 432.0694 423.2374
439.0545 444.818 31.19531 -0.01954369 -0.005898619 0.9997916 192 192 192 255 439.0545 444.818
250 401.3425 37.50903 -0.03423792 -0.2833384 0.9584087 192 192 192 255 250 401.3425
236.97 418.9344 42.16045 -0.307341 -0.4762743 0.8238351 192 192 192 255 236.97 418.9344
236.6665 343.8985 16.65117 -3.888071e-07 0.05466568 0.9985047 192 192 192 255 236.6665 343.8985
378.6807 347.7137 16.65117 -6.460172e-08 0.05811014 0.9983102 192 192 192 255 378.6807 347.7137
3 3 0 106 
3 3 106 107 
3 107 2 3 
3 5 4 3 
3 5 3 2 
3 107 5 2 
3 0 7 106 
3 1 106 7 
3 1 7 6 
3 4 5 6 
3 4 6 7 
3 10 105 15 
3 15 105 11 
3 15 11 14 
3 12 13 15 
3 12 15 14 
3 9 122 121 
3 18 17 16 
3 18 16 19 
3 17 18 21 
3 17 21 22 
3 18 19 20 
3 18 20 21 
3 17 22 23 
3 17 23 16 
3 21 20 23 
3 21 23 22 
3 29 28 33 
3 29 33 32 
3 30 31 24 
3 30 24 26 
3 26 29 32 
3 26 32 30 
3 24 25 27 
3 24 27 26 
3 25 28 29 
3 25 29 27 
3 30 32 33 
3 30 33 31 
3 26 27 29 
3 39 38 43 
3 39 43 42 
3 40 41 34 
3 40 34 36 
3 36 39 42 
3 36 42 40 
3 126 125 37 
3 40 42 43 
3 40 43 41 
3 46 123 49 
3 49 123 124 
3 49 124 48 
3 44 45 46 
3 123 46 45 
3 123 45 47 
3 53 54 55 
3 53 55 52 
3 50 51 53 
3 50 53 52 
3 53 51 56 
3 53 56 54 
3 57 55 54 
3 57 54 56 
3 47 45 57 
3 47 57 124 
3 124 57 48 
3 58 49 48 
3 58 48 57 
3 50 57 56 
3 50 56 51 
3 44 58 57 
3 44 57 45 
3 62 61 64 
3 62 64 63 
3 59 61 62 
3 59 62 60 
3 68 67 70 
3 68 70 69 
3 65 67 68 
3 65 68 66 
3 68 69 71 
3 68 71 66 
3 72 71 69 
3 72 69 70 
3 62 63 72 
3 62 72 60 
3 73 72 63 
3 73 63 64 
3 65 66 71 
3 65 71 72 
3 59 60 72 
3 59 72 73 
3 77 89 87 
3 77 87 75 
3 84 88 76 
3 84 76 74 
3 79 73 58 
3 79 58 78 
3 74 76 80 
3 83 77 75 
3 86 87 89 
3 86 89 128 
3 85 112 115 
3 85 115 88 
3 88 84 85 
3 85 84 90 
3 91 114 112 
3 91 112 85 
3 87 86 93 
3 76 88 73 
3 76 73 79 
3 76 79 78 
3 76 78 77 
3 89 77 78 
3 89 78 58 
3 128 58 73 
3 128 73 127 
3 73 88 127 
3 90 84 74 
3 90 74 119 
3 74 80 118 
3 74 118 119 
3 119 117 90 
3 101 103 102 
3 91 109 110 
3 91 110 92 
3 96 98 97 
3 87 93 83 
3 87 83 75 
3 77 83 94 
3 86 92 96 
3 86 96 97 
3 92 110 111 
3 92 111 96 
3 93 86 97 
3 93 97 98 
3 116 93 98 
3 95 77 94 
3 80 76 99 
3 82 81 100 
3 82 100 95 
3 85 90 101 
3 85 101 102 
3 101 120 99 
3 91 85 102 
3 91 102 103 
3 108 109 91 
3 108 91 103 
3 101 108 103 
3 98 96 111 
3 98 111 116 
3 100 76 77 
3 100 77 95 
3 99 76 100 
3 105 104 11 
3 1 107 106 
3 6 5 107 
3 6 107 1 
3 99 100 108 
3 99 108 101 
3 81 109 108 
3 81 108 100 
3 110 109 81 
3 110 81 82 
3 111 110 82 
3 111 82 95 
3 114 115 112 
3 86 113 92 
3 113 114 91 
3 113 91 92 
3 113 115 114 
3 95 94 116 
3 95 116 111 
3 83 93 116 
3 83 116 94 
3 119 120 117 
3 118 120 119 
3 90 117 120 
3 90 120 101 
3 99 120 118 
3 99 118 80 
3 8 13 121 
3 9 121 13 
3 9 13 12 
3 9 12 14 
3 9 14 122 
3 14 11 104 
3 14 104 122 
3 105 10 8 
3 105 8 104 
3 104 8 121 
3 104 121 122 
3 47 124 123 
3 125 35 38 
3 125 38 37 
3 38 39 37 
3 36 126 37 
3 36 37 39 
3 34 35 125 
3 34 125 126 
3 34 126 36 
3 127 115 113 
3 127 113 128 
3 89 58 128 
3 128 113 86 
3 88 115 127 
